<?xml version="1.0" encoding="UTF-8"?>
<svg width="100pt" height="100pt" version="1.1" viewBox="0 0 100 100" xmlns="http://www.w3.org/2000/svg">
 <path d="m89 88h-2.4336v-28.711c0-0.55078-0.44922-1-1-1h-17.426c-0.55078 0-1 0.44922-1 1v28.711h-7.4258v-23.523c0-0.55078-0.44922-1-1-1h-17.43c-0.55078 0-1 0.44922-1 1v23.523h-7.4258v-18.434c0-0.55078-0.44922-1-1-1h-17.426c-0.55078 0-1 0.44922-1 1v18.434h-2.4336c-0.55078 0-1 0.44922-1 1s0.44922 1 1 1h78c0.55078 0 1-0.44922 1-1s-0.44922-1-1-1zm-19.859-27.711h15.43l-0.003906 27.711h-15.426zm-26.855 5.1875h15.43v22.523h-15.43zm-26.852 5.0898h15.43v17.434h-15.43z"/>
 <path d="m89 10h-15.219c-0.55078 0-1 0.44922-1 1s0.44922 1 1 1h13.074c-1.8125 2.0625-6.2109 6.3516-14.508 10.617-10.582 5.4414-29.816 11.93-61.348 11.93-0.55078 0-1 0.44922-1 1s0.44922 1 1 1c51.984 0 71.727-16.926 77-22.781v12.453c0 0.55078 0.44922 1 1 1s1-0.44922 1-1v-15.219c0-0.55078-0.44922-1-1-1z"/>
 <path d="m14.066 23.445-0.33594 6.0781c-0.019531 0.33984 0.13672 0.66406 0.41016 0.86328s0.63281 0.24609 0.94922 0.125l5.6758-2.1992 5.6758 2.1992c0.11719 0.046875 0.23828 0.066406 0.35938 0.066406 0.20703 0 0.41406-0.066406 0.58594-0.19141 0.27344-0.19922 0.42969-0.52344 0.41016-0.86328l-0.33594-6.0781 3.8438-4.7188c0.21484-0.26562 0.28125-0.61719 0.17578-0.94141-0.10547-0.32422-0.36719-0.57031-0.69531-0.65625l-5.8828-1.5586-3.3008-5.1133c-0.17969-0.28516-0.49609-0.45703-0.83594-0.45703s-0.65625 0.17188-0.83984 0.45703l-3.3008 5.1133-5.8828 1.5586c-0.32813 0.085938-0.58984 0.33594-0.69531 0.65625-0.10547 0.32422-0.039063 0.67578 0.17578 0.94141zm3.4453-6.0391c0.24219-0.0625 0.44922-0.21484 0.58594-0.42578l2.668-4.1367 2.668 4.1367c0.13672 0.21094 0.34375 0.35938 0.58594 0.42578l4.7578 1.2617-3.1094 3.8164c-0.15625 0.19531-0.23828 0.4375-0.22266 0.6875l0.27344 4.9141-4.5898-1.7773c-0.23438-0.089844-0.49219-0.089844-0.72266 0l-4.5938 1.7773 0.27344-4.9141c0.015624-0.25-0.066407-0.49219-0.22266-0.6875l-3.1094-3.8164z"/>
 <path d="m84.5 36.453c-0.10547-0.32422-0.36719-0.57031-0.69531-0.65625l-5.8828-1.5586-3.3008-5.1133c-0.36719-0.57031-1.3125-0.57031-1.6797 0l-3.3008 5.1133-5.8828 1.5586c-0.32812 0.085937-0.58984 0.33594-0.69531 0.65625-0.10547 0.32422-0.039062 0.67578 0.17578 0.94141l3.8438 4.7188-0.33594 6.0781c-0.019532 0.33984 0.13672 0.66406 0.41016 0.86328 0.17188 0.125 0.37891 0.19141 0.58594 0.19141 0.12109 0 0.24219-0.023438 0.35937-0.066406l5.6758-2.1992 5.6758 2.1992c0.31641 0.12109 0.67578 0.078124 0.94922-0.125 0.27344-0.19922 0.42969-0.52344 0.41016-0.86328l-0.33594-6.0781 3.8438-4.7188c0.21875-0.26562 0.28516-0.62109 0.17969-0.94141zm-5.8125 4.6953c-0.15625 0.19531-0.23828 0.4375-0.22266 0.6875l0.27344 4.9141-4.5898-1.7773c-0.11719-0.046875-0.23828-0.066406-0.35938-0.066406-0.12109 0-0.24609 0.023438-0.35937 0.066406l-4.5898 1.7773 0.27344-4.9141c0.015625-0.25-0.066406-0.49219-0.22266-0.6875l-3.1094-3.8164 4.7578-1.2617c0.24219-0.0625 0.44922-0.21484 0.58594-0.42578l2.668-4.1367 2.668 4.1367c0.13672 0.21094 0.34375 0.35938 0.58594 0.42578l4.7578 1.2617z"/>
 <path d="m40.055 47.5c-0.10547-0.32422-0.36719-0.57031-0.69531-0.65625l-5.8828-1.5586-3.3008-5.1133c-0.36719-0.57031-1.3125-0.57031-1.6797 0l-3.3008 5.1133-5.8828 1.5586c-0.32812 0.085938-0.58984 0.33594-0.69531 0.65625-0.10547 0.32422-0.039063 0.67578 0.17578 0.94141l3.8438 4.7188-0.33594 6.0781c-0.019531 0.33984 0.13672 0.66406 0.41016 0.86328 0.17187 0.125 0.37891 0.19141 0.58594 0.19141 0.12109 0 0.24219-0.023438 0.35938-0.066407l5.6758-2.1992 5.6758 2.1992c0.31641 0.12109 0.67188 0.078126 0.94922-0.125 0.27344-0.19922 0.42969-0.52344 0.41016-0.86328l-0.33594-6.0781 3.8438-4.7188c0.21875-0.26562 0.28516-0.62109 0.17969-0.94141zm-5.8125 4.6953c-0.15625 0.19531-0.23828 0.4375-0.22266 0.6875l0.27344 4.9141-4.5898-1.7773c-0.11719-0.046875-0.23828-0.066406-0.35938-0.066406s-0.24609 0.023437-0.35938 0.066406l-4.5898 1.7773 0.27344-4.9141c0.015625-0.25-0.066407-0.49219-0.22266-0.6875l-3.1094-3.8164 4.7578-1.2578c0.24219-0.0625 0.44922-0.21484 0.58594-0.42578l2.668-4.1367 2.668 4.1367c0.13672 0.21094 0.34375 0.35938 0.58594 0.42578l4.7578 1.2578z"/>
 <path d="m38.902 17.73h4.8789v4.8789c0 0.55078 0.44922 1 1 1s1-0.44922 1-1v-4.8789h4.875c0.55078 0 1-0.44922 1-1s-0.44922-1-1-1h-4.8789v-4.8789c0-0.55078-0.44922-1-1-1-0.55078 0-1 0.44922-1 1v4.8789h-4.8789c-0.55078 0-1 0.44922-1 1 0.003906 0.55078 0.44922 1 1.0039 1z"/>
 <path d="m52.836 39.711c-0.55078 0-1 0.44922-1 1v4.8789h-4.8789c-0.55078 0-1 0.44922-1 1 0 0.55078 0.44922 1 1 1h4.8789v4.8789c0 0.55078 0.44922 1 1 1 0.55078 0 1-0.44922 1-1v-4.8789h4.8789c0.55078 0 1-0.44922 1-1 0-0.55078-0.44922-1-1-1h-4.8789v-4.8789c0-0.55078-0.44531-1-1-1z"/>
</svg>
