<?xml version="1.0" encoding="UTF-8"?>
<svg width="512pt" height="512pt" version="1.1" viewBox="0 0 512 512" xmlns="http://www.w3.org/2000/svg">
 <path d="m455.68 450.56h-150.44v-107.16c48.48-2.6797 87.121-42.84 87.121-91.98v-44.879h25.941c14.121 0 25.602-11.48 25.602-25.602v-82.938c0-2.8203-2.2812-5.1211-5.1211-5.1211h-16.418v-37.121c0-2.8203-2.2812-5.1211-5.1211-5.1211-2.8398 0-5.1211 2.3008-5.1211 5.1211v37.121h-49.738v-37.121c0-2.8203-2.2812-5.1211-5.1211-5.1211-2.8398 0-5.1211 2.3008-5.1211 5.1211v37.121h-16.418c-2.8398 0-5.1211 2.3008-5.1211 5.1211v82.938c0 14.121 11.48 25.602 25.602 25.602h25.941v44.879c0 43.48-34.059 79.078-76.883 81.742l-0.019531-258.14c0-13.141-10.68-23.82-23.82-23.82h-189.5c-13.121 0-23.82 10.68-23.82 23.82v375.54h-11.781c-2.8398 0-5.1211 2.3008-5.1211 5.1211 0 2.8203 2.2812 5.1211 5.1211 5.1211h399.36c2.8398 0 5.1211-2.3008 5.1211-5.1211 0-2.8203-2.2812-5.1211-5.1211-5.1211zm-114.84-269.62v-77.82h92.84v77.82c0 8.4805-6.8789 15.359-15.359 15.359h-62.121c-8.4805 0-15.359-6.8789-15.359-15.359zm-262.5-105.92c0-7.5 6.1016-13.578 13.578-13.578h189.52c7.4805 0 13.578 6.0781 13.578 13.578l-0.019531 375.54h-216.66z"/>
 <path d="m112.32 186.8h148.68c2.8398 0 5.1211-2.3008 5.1211-5.1211l0.019531-83.84c0-2.8203-2.2812-5.1211-5.1211-5.1211h-148.7c-2.8398 0-5.1211 2.3008-5.1211 5.1211v83.84c0 2.8203 2.3008 5.1211 5.1211 5.1211zm5.1211-83.84h138.44l0.019531 73.602h-138.46z"/>
 <path d="m269.48 286.3c-18.059-2.5586-33.602-0.87891-46.582 4.7617-0.96094-12.539-6.5586-36-33.078-56.699-1.8398-1.4414-4.4414-1.4414-6.3008 0-26.52 20.68-32.141 44.16-33.078 56.699-13-5.6406-28.539-7.3203-46.582-4.7617-2.5195 0.35938-4.3984 2.5195-4.3984 5.0781 0 46.66 36.398 84.941 82.121 87.598v12.199c0 2.8203 2.2812 5.1211 5.1211 5.1211s5.1211-2.3008 5.1211-5.1211v-12.199c45.719-2.6797 82.078-40.961 82.078-87.598 0-2.5586-1.8789-4.7188-4.4219-5.0781zm-87.922 74.82v7.582c-38.602-2.5586-69.52-33.879-71.762-72.82 20.82-2.1211 37.48 2.1211 49.602 12.621 21.801 18.879 22.16 52.281 22.16 52.617zm5.1211-28.48c-3.6406-10.738-9.8594-22.582-20.5-31.82-1.8203-1.5781-3.7188-3-5.6797-4.3398-0.21875-7.1211 1.1602-30.281 26.18-51.48 25 21.219 26.398 44.379 26.18 51.504-1.9609 1.3398-3.8594 2.7617-5.6797 4.3398-10.641 9.2188-16.859 21.059-20.5 31.801zm5.1211 36.059v-7.582c0-0.33984 0.32031-33.719 22.121-52.617 12.121-10.5 28.801-14.719 49.578-12.621-2.1992 38.941-33.102 70.262-71.699 72.82z"/>
</svg>
