<?xml version="1.0" encoding="UTF-8"?>
<svg width="100pt" height="100pt" version="1.1" viewBox="0 0 100 100" xmlns="http://www.w3.org/2000/svg">
 <path d="m11 90h78c0.55469 0 1-0.44531 1-1 0-0.53906-0.42578-0.96875-0.95703-0.99219v-27.094c0-0.55469-0.44531-1-1-1h-13.098c-0.55469 0-1 0.44531-1 1v27.086h-5.8984v-21.602c0-0.55469-0.44531-1-1-1h-13.098c-0.55469 0-1 0.44531-1 1v21.602h-5.8984v-17.297c0-0.55469-0.44531-1-1-1h-13.098c-0.55469 0-1 0.44531-1 1v17.297h-5.8984v-27.086c0-0.55469-0.44531-1-1-1h-13.098c-0.55469 0-1 0.44531-1 1v27.094c-0.53125 0.023438-0.95703 0.45313-0.95703 0.99219 0 0.55078 0.44531 1 1 1zm64.945-28.086h11.094v26.086h-11.094zm-20.996 5.4844h11.098v20.602h-11.098zm-20.996 4.3047h11.098v16.297h-11.098zm-9.8984-9.7891v26.086h-11.098v-26.086z"/>
 <path d="m89.828 27.652-10.578-15.711c-0.14844-0.22266-0.38281-0.375-0.64844-0.42578-0.26562-0.046875-0.53516 0.011719-0.75781 0.16406l-2.3516 1.6484c-2.4883 1.7422-7.2812 1.0039-10.68-0.42188l-4.5781-1.918c-3.3359-1.3984-7.0195-1.2891-10.23 0.19141-3.2383-1.4922-6.9531-1.5742-10.254-0.19141l-4.5781 1.918c-3.4531 1.4492-8.2969 2.2227-10.758 0.5l-2.3516-1.6445c-0.21875-0.15625-0.49219-0.21094-0.75781-0.16406-0.26563 0.050782-0.49609 0.20312-0.64844 0.42578l-10.484 15.629c-0.30469 0.45312-0.1875 1.0625 0.25781 1.375l7.582 5.3086-1.332 1.8672c-0.84375 1.1836-1.1797 2.625-0.9375 4.0586 0.23828 1.4336 1.0234 2.6875 2.207 3.5312 0.93359 0.66797 2.0273 1.0156 3.1523 1.0156 0.30078 0 0.60547-0.023438 0.90625-0.074219 0.027344-0.003906 0.054688-0.015625 0.082032-0.023437-0.14062 0.65625-0.16406 1.3398-0.050782 2.0234 0.23828 1.4336 1.0234 2.6875 2.207 3.5312 0.95703 0.68359 2.0625 1.0078 3.1562 1.0078 0.61719 0 1.2266-0.10547 1.8086-0.30859-0.007813 1.707 0.77734 3.3945 2.2695 4.4609 0.93359 0.66406 2.0273 1.0156 3.1484 1.0156 0.30078 0 0.60547-0.023437 0.90625-0.078125 0.68359-0.11328 1.3242-0.35938 1.8984-0.70312 0.003906 0.027344 0 0.054688 0.003906 0.082032 0.23828 1.4336 1.0234 2.6875 2.207 3.5312 0.95703 0.68359 2.0625 1.0117 3.1562 1.0117 1.6992 0 3.375-0.79297 4.4375-2.2773l1.5312-2.1445 3.6914 2.5859c0.92578 0.64844 2.0039 0.98438 3.1094 0.98438 0.31641 0 0.63672-0.027344 0.95703-0.085938 1.4297-0.25 2.6797-1.0469 3.5156-2.2383 0.74609-1.0664 1.0547-2.332 0.9375-3.6133 0.76953 0.39844 1.6133 0.60938 2.4805 0.60938 0.31641 0 0.63672-0.027344 0.95703-0.085938 1.4297-0.25 2.6797-1.0469 3.5156-2.2383 0.80078-1.1445 1.0781-2.4922 0.92188-3.7773 0.60938 0.23047 1.25 0.36328 1.9062 0.36328 0.31641 0 0.63672-0.027344 0.95703-0.085938 1.4297-0.25 2.6797-1.0469 3.5156-2.2383 0.76172-1.0859 1.043-2.3555 0.9375-3.582 0.84766 0.50781 1.7969 0.78516 2.7734 0.78516 0.31641 0 0.63672-0.027344 0.95703-0.085938 1.4297-0.25 2.6797-1.0469 3.5156-2.2383 0.83594-1.1914 1.1562-2.6328 0.90234-4.0664-0.17578-0.99609-0.62891-1.8906-1.2812-2.6328l6.6016-5.2422c0.39062-0.3125 0.48047-0.89453 0.1875-1.3281zm-70.723 14.516c-0.75-0.53125-1.2422-1.3281-1.3945-2.2344-0.15234-0.90625 0.058593-1.8203 0.59375-2.5664l2.0625-2.8906c0.67187-0.94141 1.7305-1.4414 2.8047-1.4414 0.69141 0 1.3906 0.20703 1.9961 0.64062 1.543 1.1016 1.9023 3.2539 0.80469 4.8008l-2.0625 2.8906c-1.1055 1.543-3.2578 1.9023-4.8047 0.80078zm6.2969 6.4727c-0.75-0.53516-1.2422-1.3281-1.3945-2.2344-0.15234-0.90625 0.058594-1.8203 0.59375-2.5664l1.3398-1.875 1.6602-2.3242c0.003907-0.003906 0.003907-0.007813 0.003907-0.007813l0.92969-1.3047c1.1055-1.5469 3.2578-1.9023 4.8047-0.80469 0.75 0.53516 1.2422 1.3281 1.3945 2.2344s-0.058594 1.8203-0.59375 2.5664l-3.9375 5.5156c-1.1016 1.5469-3.2578 1.9023-4.8008 0.80078zm9.8008 5.7578c-0.90625 0.15234-1.8203-0.058594-2.5664-0.59375-1.5469-1.1016-1.9062-3.2578-0.80469-4.8008l3.9375-5.5156c0.67188-0.9375 1.7305-1.4414 2.8086-1.4414 0.69141 0 1.3906 0.20703 1.9961 0.64062 0.75 0.53125 1.2422 1.3281 1.3945 2.2344s-0.058594 1.8203-0.59375 2.5664l-0.9375 1.3125-0.066406 0.09375-2.9336 4.1094c-0.53516 0.74609-1.3281 1.2422-2.2344 1.3945zm10.402 2.4531c-1.1016 1.543-3.2578 1.9062-4.8047 0.80078-0.75-0.53125-1.2422-1.3281-1.3945-2.2344s0.058594-1.8203 0.59375-2.5664l2.0625-2.8906c0.53516-0.75 1.3281-1.2422 2.2344-1.3945 0.19141-0.03125 0.38281-0.046875 0.57422-0.046875 0.71094 0 1.4023 0.21875 1.9922 0.64062 0.75 0.53125 1.2422 1.3281 1.3945 2.2344 0.14844 0.875-0.050781 1.75-0.54297 2.4805-0.007813 0.007812-0.015625 0.011719-0.023438 0.023438-0.015625 0.019531-0.015625 0.046874-0.03125 0.066406zm36.156-17.062c-0.52734 0.75391-1.3164 1.2578-2.2227 1.4141-0.90625 0.16406-1.8203-0.042969-2.5742-0.57031l-3.082-2.1562-9.2188-6.4531c-0.45312-0.31641-1.0781-0.20703-1.3906 0.24609-0.31641 0.45312-0.20703 1.0781 0.24609 1.3906l1.3203 0.92188 0.003906 0.003907 7.8984 5.5312c0.75391 0.52734 1.2539 1.3164 1.4141 2.2227s-0.042969 1.8203-0.57031 2.5703c-0.52734 0.75391-1.3164 1.2578-2.2227 1.4141-0.90625 0.16406-1.8203-0.042969-2.5742-0.57031l-9.2188-6.4531c-0.22656-0.15625-0.49609-0.21094-0.74609-0.16406-0.25391 0.042969-0.48828 0.18359-0.64453 0.41016s-0.21094 0.49609-0.16406 0.74609c0.042969 0.25391 0.18359 0.48828 0.41016 0.64453l7.0156 4.9141c0.75391 0.52734 1.2578 1.3164 1.4141 2.2227 0.16016 0.90625-0.042969 1.8203-0.57031 2.5703-0.52734 0.75391-1.3164 1.2578-2.2227 1.4141-0.90625 0.16406-1.8203-0.042969-2.5742-0.57031l-2.7852-1.9492-0.003906-0.003906-2.9062-2.0352-1.3203-0.92578c-0.44922-0.31641-1.0781-0.20703-1.3906 0.24609-0.31641 0.45313-0.20703 1.0781 0.24609 1.3906l4.2305 2.9609c0.75 0.52734 1.2539 1.3164 1.4102 2.2188 0.16016 0.90625-0.042969 1.8203-0.57031 2.5703-0.52734 0.75391-1.3164 1.2578-2.2227 1.4141-0.90625 0.16406-1.8203-0.042969-2.5742-0.57031l-3.7656-2.6367c0.43359-0.96875 0.57812-2.043 0.39844-3.1133-0.23828-1.4336-1.0234-2.6875-2.207-3.5312-1.2461-0.89063-2.7383-1.1719-4.1406-0.91406 0.14062-0.66016 0.16406-1.3438 0.050781-2.0273-0.23828-1.4336-1.0234-2.6875-2.207-3.5312-1.4961-1.0703-3.3477-1.2617-4.9609-0.69531 0-0.30859-0.011719-0.62109-0.0625-0.93359-0.23828-1.4258-1.0234-2.6797-2.207-3.5234-1.8164-1.293-4.1602-1.3086-5.9609-0.23047-0.21484-1.4062-0.96484-2.7266-2.2109-3.6172-2.2344-1.5977-5.2617-1.2344-7.0977 0.70703l-6.8555-4.8008 9.3828-13.969 1.5156 1.0625c3.3125 2.3203 8.8984 1.2891 12.68-0.29297l4.5781-1.918c2.3125-0.96875 4.8711-1.0742 7.2422-0.36328l-9.1367 6.4258c-1.1914 0.83594-1.9844 2.082-2.2383 3.5117-0.25391 1.4297 0.066406 2.875 0.90234 4.0664 0.83594 1.1914 2.082 1.9844 3.5156 2.2383 1.4297 0.25391 2.875-0.070312 4.0664-0.90234l8.3711-5.8555c2.707-1.8906 6.3516-1.9023 9.0625-0.027344l18.602 13.066c0.75391 0.52734 1.2578 1.3164 1.4141 2.2227 0.16016 0.90234-0.042969 1.8125-0.57031 2.5664zm-0.30859-6.8594-17.992-12.641c-1.6953-1.1719-3.6719-1.7578-5.6562-1.7578-2 0-3.9961 0.59375-5.6992 1.7852l-8.3711 5.8555c-1.5586 1.0859-3.707 0.71094-4.7969-0.84375-0.52734-0.75391-0.73047-1.668-0.57031-2.5703 0.16016-0.90625 0.66406-1.6953 1.418-2.2227l9.3711-6.5938c3.0391-2.125 6.8906-2.5391 10.309-1.1094l4.5781 1.918c3.7266 1.5625 9.2617 2.5547 12.602 0.21484l1.5156-1.0625 9.4922 14.098z"/>
</svg>
