<?xml version="1.0" encoding="UTF-8"?>
<svg width="512pt" height="512pt" version="1.1" viewBox="0 0 512 512" xmlns="http://www.w3.org/2000/svg">
 <path d="m311.45 183.52c-1.0508-0.87109-2.3867-1.2734-3.7578-1.1641-3.8398 0.36328-37.883 4-50.32 18.969-2.3594 2.8477-4.1992 6.2266-5.5469 10.039-21.07-7.6758-47.172-8.457-48.672-8.5-2.6914-0.027343-5.1719 2.1641-5.2422 4.9922-0.050781 2.0625-1.0273 50.707 16.973 69.617 11.887 12.484 30.727 15.18 44.809 15.18 10.215 0 17.922-1.418 18.656-1.5625 0.21094-0.039063 0.39844-0.13672 0.59766-0.20312 0.16016-0.050781 0.31641-0.09375 0.47266-0.16016 0.54297-0.23437 1.043-0.53906 1.4688-0.9375 0.011719-0.011718 0.027343-0.011718 0.035156-0.019531 0.039063-0.035156 0.050781-0.085937 0.085937-0.12891 0.37891-0.38281 0.67969-0.83594 0.92578-1.332 0.078125-0.15234 0.14453-0.30078 0.20312-0.46484 0.050781-0.13672 0.13672-0.25781 0.17578-0.39844 0.30078-1.0742 4.832-17.816 2.3125-35.711 8.0859-2.3555 14.602-6.25 19.219-11.809 12.438-14.965 9.7695-49.102 9.4219-52.941-0.10938-1.3398-0.77344-2.5938-1.8164-3.4648zm-46.203 24.352c5.3945-6.4961 18.305-10.656 29.199-13.012l-24.574 26.578c-2.5039-2.2266-5.4219-4.1914-8.6562-5.918 0.96094-2.9922 2.3047-5.5625 4.0312-7.6484zm-49.512 6.1641c16.203 1.75 39.207 6.2812 48.707 16.258 12.094 12.703 11.465 33.203 9.8086 45.078zm6.5664 56.387c-9.4297-9.9023-12.848-32.906-13.836-49.172l58.129 60.922c-12.254 0.82422-32.953 0.15625-44.293-11.75zm60.125-28.656c-1.3477-4.3281-3.2734-8.5469-5.8633-12.484l26.875-29.066c-0.15234 11.5-1.7148 26.266-7.4648 33.184-3.1602 3.8125-7.7578 6.5742-13.547 8.3672z"/>
 <path d="m440.57 103.54h-364.8c-2.668 0-4.8906 2.0469-5.1055 4.7109l-20.641 257.68c-0.11328 1.4219 0.36719 2.832 1.3398 3.8828 0.97266 1.0508 2.3359 1.6484 3.7617 1.6484h113.4c13.977 28.637 41.227 48.543 72.137 53.734v23.645l-64.617-0.003906c-2.8281 0-5.1211 2.293-5.1211 5.1211v28.855c0 2.8281 2.293 5.1211 5.1211 5.1211h165.03c2.8281 0 5.1211-2.293 5.1211-5.1211v-28.855c0-2.8281-2.293-5.1211-5.1211-5.1211h-64.621v-24.324c29.363-6.1172 54.988-25.578 68.398-53.055h116.37c1.4297 0 2.7891-0.59766 3.7617-1.6484 0.97266-1.0508 1.4531-2.457 1.3398-3.8828l-20.648-257.68c-0.21094-2.6523-2.4336-4.707-5.1016-4.707zm-135.95 257.68-0.9375-35c9.4688-5.0234 18.012-11.52 25.391-19.18h43.77l2.8945 54.18zm-162.59 0 2.8945-54.18h39.68c8.4023 8.7227 18.359 15.883 29.426 21.125l-0.87891 33.051h-71.121zm-71.852-118.59h67.938l-2.8945 54.18h-69.387zm5.1641-64.508c0.14844 0.015625 0.27734 0.085937 0.42969 0.085937h65.777l-2.8945 54.18h-67.66zm281.62 54.266c-1.0273-20.215-8.0234-38.836-19.309-54.18h28.309l2.8945 54.18zm-100.12 95.266c-49.703 0-90.148-40.438-90.148-90.145 0-49.703 40.438-90.148 90.148-90.148 49.703 0 90.145 40.438 90.145 90.148-0.003906 49.707-40.441 90.145-90.145 90.145zm72.234-159.68c-8.5898-8.9258-18.816-16.227-30.191-21.5l-0.87109-32.68h64.508l2.8945 54.18zm-40.547-25.641c-9.9727-3.332-20.609-5.207-31.691-5.207-9.5703 0-18.797 1.4297-27.57 3.9414l0.72656-27.27h57.77zm-69.598 2.2773c-13.047 5.3438-24.699 13.363-34.328 23.363h-32.246l2.8945-54.18h64.508zm-42.91 33.602c-11.289 15.344-18.285 33.961-19.309 54.18h-7.7969l2.8945-54.18zm-27.656 64.422h8.3438c1.0273 20.215 8.0234 38.836 19.312 54.18h-30.551zm75.797 89.695c10.262 3.5469 21.227 5.5703 32.676 5.5703 12.969 0 25.332-2.5547 36.727-7.0547l0.8125 30.383h-70.984zm113.49-35.52c11.289-15.344 18.285-33.961 19.312-54.18h12.438l2.8945 54.18zm42-54.176h66.516l4.3398 54.18h-67.957zm-0.54297-10.242-2.8945-54.18h64.793l4.3398 54.18zm61.078-64.418h-64.52l-2.8945-54.18h63.074zm-295.2-54.18-2.8945 54.18h-65.941l4.3398-54.18zm-79.977 193.25h69.656l-2.8945 54.18h-71.105zm270.94 170.66h-154.79v-18.617h154.79zm-69.738-28.859h-15.312v-22.465c1.9219 0.11719 3.8516 0.21094 5.7852 0.21094 3.1992 0 6.375-0.21484 9.5234-0.52734v22.781zm-9.5234-32.496c-31.707 0-61.168-17.449-76.609-44.887h153.22c-15.445 27.438-44.906 44.887-76.613 44.887zm129.3-55.121-2.8945-54.18h68.234l4.3398 54.18z"/>
</svg>
