<?xml version="1.0" encoding="UTF-8"?>
<svg width="512pt" height="512pt" version="1.1" viewBox="0 0 512 512" xmlns="http://www.w3.org/2000/svg">
 <path d="m283.47 231.23c20.414 0 37.02-16.605 37.02-37.02 0-20.414-16.609-37.02-37.02-37.02s-37.02 16.605-37.02 37.02c0.003906 20.414 16.605 37.02 37.02 37.02zm0-63.801c14.766 0 26.777 12.016 26.777 26.777s-12.012 26.777-26.777 26.777-26.777-12.016-26.777-26.777 12.008-26.777 26.777-26.777z"/>
 <path d="m283.47 138.6c2.8281 0 5.1211-2.2891 5.1211-5.1211v-16.133c0-2.832-2.293-5.1211-5.1211-5.1211s-5.1211 2.2891-5.1211 5.1211v16.133c0.003907 2.832 2.2891 5.1211 5.1211 5.1211z"/>
 <path d="m306.09 143.41c0.67578 0.30859 1.3867 0.44531 2.0781 0.44531 1.9609 0 3.8281-1.1328 4.6797-3.043l6.5625-14.742c1.1523-2.582-0.011718-5.6055-2.5977-6.7539-2.5859-1.1641-5.6055 0.011719-6.7578 2.5977l-6.5625 14.742c-1.1484 2.5742 0.011718 5.6016 2.5977 6.7539z"/>
 <path d="m328.61 158.7c1.2188 0 2.4492-0.43359 3.4258-1.3164l11.992-10.797c2.0977-1.8945 2.2695-5.1289 0.37891-7.2305-1.8984-2.1094-5.125-2.2734-7.2344-0.37891l-11.992 10.797c-2.0977 1.8945-2.2695 5.1289-0.37891 7.2305 1.0156 1.125 2.4102 1.6953 3.8086 1.6953z"/>
 <path d="m336.36 177.03c0.70703 2.1602 2.707 3.5312 4.8672 3.5312 0.52344 0 1.0586-0.082032 1.582-0.25l15.344-4.9922c2.6875-0.875 4.1562-3.7617 3.2852-6.457-0.87109-2.6797-3.7539-4.1562-6.4531-3.2852l-15.344 4.9922c-2.6875 0.88281-4.1562 3.7734-3.2812 6.4609z"/>
 <path d="m360.45 197.16-16.047-1.6836c-2.8008-0.31641-5.3281 1.7422-5.625 4.5586-0.29688 2.8125 1.7461 5.3281 4.5586 5.625l16.047 1.6836c0.18359 0.019531 0.36328 0.03125 0.53906 0.03125 2.5859 0 4.8086-1.957 5.0898-4.5859 0.28906-2.8125-1.7461-5.3359-4.5625-5.6289z"/>
 <path d="m331.63 222.01c-1.4141 2.4531-0.57422 5.582 1.875 6.9922l13.973 8.0625c0.80859 0.46484 1.6914 0.6875 2.5547 0.6875 1.7734 0 3.4922-0.92188 4.4375-2.5586 1.4141-2.4531 0.57422-5.582-1.875-6.9922l-13.973-8.0625c-2.457-1.4141-5.5781-0.57031-6.9922 1.8711z"/>
 <path d="m316.16 239.2c-2.2891 1.6641-2.7969 4.8633-1.1328 7.1523l9.4805 13.055c1.0039 1.3828 2.5586 2.1094 4.1484 2.1094 1.043 0 2.0938-0.31641 3.0039-0.97266 2.2891-1.6641 2.7969-4.8633 1.1328-7.1523l-9.4805-13.055c-1.6641-2.293-4.8594-2.793-7.1523-1.1367z"/>
 <path d="m295.04 248.61c-2.7656 0.58984-4.5312 3.3086-3.9414 6.0781l3.3555 15.781c0.51172 2.4062 2.6367 4.0547 5.0039 4.0547 0.35156 0 0.71094-0.035156 1.0703-0.10938 2.7656-0.58984 4.5312-3.3086 3.9414-6.0781l-3.3555-15.781c-0.58984-2.7656-3.3164-4.543-6.0742-3.9453z"/>
 <path d="m265.84 252.55-3.3555 15.781c-0.58984 2.7656 1.1758 5.4844 3.9414 6.0781 0.35938 0.078125 0.71875 0.10938 1.0703 0.10938 2.3672 0 4.4922-1.6484 5.0039-4.0547l3.3555-15.781c0.58984-2.7656-1.1758-5.4844-3.9414-6.0781-2.7656-0.58203-5.4844 1.1797-6.0742 3.9453z"/>
 <path d="m235.29 260.54c0.91016 0.66016 1.9609 0.97656 3.0039 0.97656 1.5859 0 3.1445-0.73047 4.1484-2.1094l9.4883-13.055c1.6641-2.2891 1.1562-5.4883-1.1328-7.1484-2.2891-1.6602-5.4883-1.1562-7.1523 1.1328l-9.4883 13.055c-1.6641 2.2891-1.1562 5.4922 1.1328 7.1484z"/>
 <path d="m235.31 222.01c-1.4141-2.4531-4.543-3.293-6.9922-1.875l-13.973 8.0625c-2.4531 1.4141-3.2852 4.5469-1.875 6.9922 0.95312 1.6445 2.668 2.5586 4.4375 2.5586 0.86719 0 1.7461-0.21875 2.5547-0.6875l13.973-8.0625c2.4531-1.4062 3.2891-4.5352 1.875-6.9883z"/>
 <path d="m207.57 207.34 16.047-1.6836c2.8125-0.29688 4.8555-2.8164 4.5586-5.625-0.29688-2.8125-2.8281-4.8633-5.625-4.5586l-16.047 1.6836c-2.8125 0.29688-4.8555 2.8164-4.5586 5.625 0.27734 2.6328 2.5 4.5859 5.0898 4.5859 0.17188 0 0.34766-0.007812 0.53516-0.027343z"/>
 <path d="m208.79 175.32 15.344 4.9922c0.52734 0.16797 1.0586 0.25 1.582 0.25 2.1562 0 4.1641-1.3789 4.8672-3.5312 0.87109-2.6875-0.59766-5.582-3.2852-6.457l-15.344-4.9922c-2.6914-0.87109-5.5742 0.59766-6.4531 3.2852-0.875 2.6914 0.59375 5.5781 3.2891 6.4531z"/>
 <path d="m234.91 157.38c0.97656 0.87891 2.207 1.3164 3.4258 1.3164 1.3984 0 2.7969-0.56641 3.8086-1.6953 1.8945-2.0977 1.7188-5.3359-0.37891-7.2305l-11.992-10.797c-2.0977-1.8828-5.3359-1.7266-7.2344 0.37891-1.8945 2.0977-1.7188 5.3359 0.37891 7.2305z"/>
 <path d="m254.09 140.81c0.85156 1.9102 2.7188 3.043 4.6797 3.043 0.69531 0 1.4023-0.13672 2.0781-0.44531 2.582-1.1523 3.7422-4.1719 2.5977-6.7539l-6.5625-14.742c-1.1523-2.5859-4.168-3.7539-6.7578-2.5977-2.582 1.1523-3.7422 4.1719-2.5977 6.7539z"/>
 <path d="m414.36 56.32c0-2.832-2.293-5.1211-5.1211-5.1211h-305.62c-2.8281 0-5.1211 2.2891-5.1211 5.1211v399.36c0 2.832 2.293 5.1211 5.1211 5.1211h239c0.49609 0 0.94531-0.14844 1.4023-0.28125 0.47266 0.13672 0.94141 0.28125 1.4219 0.28125 1.332 0 2.6406-0.52344 3.6211-1.5l63.789-63.789c1.3047-1.3047 1.7422-3.1836 1.2695-4.9375 0.085937-0.375 0.23047-0.73047 0.23047-1.1367zm-68.91 330.45c-2.8281 0-5.1211 2.2891-5.1211 5.1211v58.672h-231.59v-389.12h295.38v325.34zm5.1211 56.551v-46.309h46.309z"/>
 <path d="m357.52 312.79h-148.08c-2.8281 0-5.1211 2.2891-5.1211 5.1211s2.293 5.1211 5.1211 5.1211h148.07c2.8281 0 5.1211-2.2891 5.1211-5.1211s-2.2891-5.1211-5.1133-5.1211z"/>
 <path d="m357.52 356.54h-148.08c-2.8281 0-5.1211 2.2891-5.1211 5.1211s2.293 5.1211 5.1211 5.1211h148.07c2.8281 0 5.1211-2.2891 5.1211-5.1211s-2.2891-5.1211-5.1133-5.1211z"/>
 <path d="m151.18 90.844c-9.5898 0-17.387 7.7969-17.387 17.387 0 9.5898 7.7969 17.387 17.387 17.387 9.5859 0 17.387-7.7969 17.387-17.387 0-9.5898-7.8008-17.387-17.387-17.387zm0 24.531c-3.9414 0-7.1484-3.207-7.1484-7.1484 0-3.9414 3.207-7.1484 7.1484-7.1484s7.1484 3.207 7.1484 7.1484c0 3.9414-3.207 7.1484-7.1484 7.1484z"/>
 <path d="m151.18 137.12c-9.5898 0-17.387 7.7969-17.387 17.387s7.7969 17.387 17.387 17.387c9.5859 0 17.387-7.7969 17.387-17.387 0-9.5859-7.8008-17.387-17.387-17.387zm0 24.531c-3.9414 0-7.1484-3.207-7.1484-7.1484s3.207-7.1484 7.1484-7.1484 7.1484 3.207 7.1484 7.1484c0 3.9453-3.207 7.1484-7.1484 7.1484z"/>
 <path d="m151.18 343.2c-9.5898 0-17.387 7.7969-17.387 17.387 0 9.5859 7.7969 17.387 17.387 17.387 9.5859 0 17.387-7.7969 17.387-17.387 0-9.5859-7.8008-17.387-17.387-17.387zm0 24.535c-3.9414 0-7.1484-3.207-7.1484-7.1484 0-3.9492 3.207-7.1484 7.1484-7.1484s7.1484 3.207 7.1484 7.1484c0 3.9414-3.207 7.1484-7.1484 7.1484z"/>
 <path d="m151.18 245.66c-9.5898 0-17.387 7.7969-17.387 17.387 0 9.5898 7.7969 17.387 17.387 17.387 9.5859 0 17.387-7.7969 17.387-17.387 0-9.5859-7.8008-17.387-17.387-17.387zm0 24.535c-3.9414 0-7.1484-3.207-7.1484-7.1484 0-3.9414 3.207-7.1484 7.1484-7.1484s7.1484 3.207 7.1484 7.1484c0 3.9414-3.207 7.1484-7.1484 7.1484z"/>
 <path d="m151.18 389.47c-9.5898 0-17.387 7.7969-17.387 17.387 0 9.5859 7.7969 17.387 17.387 17.387 9.5859 0 17.387-7.7969 17.387-17.387 0-9.5859-7.8008-17.387-17.387-17.387zm0 24.535c-3.9414 0-7.1484-3.207-7.1484-7.1484 0-3.9492 3.207-7.1484 7.1484-7.1484s7.1484 3.207 7.1484 7.1484c0 3.9414-3.207 7.1484-7.1484 7.1484z"/>
</svg>
