<?xml version="1.0" encoding="UTF-8"?>
<svg width="512pt" height="512pt" version="1.1" viewBox="0 0 512 512" xmlns="http://www.w3.org/2000/svg">
 <path d="m398 91.781c-24.922-26.922-72.699-40.582-142-40.582-69.539 0-117.38 13.68-142.2 40.66-17.719 19.262-16.379 38.16-16.32 38.52v263.06c0 14.121 11.48 25.602 25.602 25.602h0.17969l-0.019531 21.281c0 11.301 9.1797 20.48 20.48 20.48h21.02c11.301 0 20.48-9.1797 20.48-20.48v-21.301h141.56v21.301c0 11.301 9.1797 20.48 20.48 20.48h21.02c11.301 0 20.48-9.1797 20.48-20.48v-21.301h0.17969c14.121 0 25.602-11.48 25.602-25.602v-262.64c0.039062-0.80078 1.3008-19.719-16.539-39zm-276.36 6.6797c15.762-16.898 51.859-37.02 134.36-37.02 82.223 0 118.34 20.102 134.16 36.961 14.961 15.941 14.18 30.961 14.121 31.961v164.42l-296.58 0.019531v-164.8c-0.058593-0.64062-0.89844-15.641 13.941-31.539zm53.34 341.86c0 5.6406-4.6016 10.238-10.238 10.238h-21.02c-5.6406 0-10.238-4.6016-10.238-10.238v-21.301h41.5zm203.54 0c0 5.6406-4.6016 10.238-10.238 10.238h-21.02c-5.6406 0-10.238-4.6016-10.238-10.238v-21.301h41.5zm10.422-31.539h-265.88c-8.4805 0-15.359-6.8789-15.359-15.359v-88.402h296.6v88.402c0 8.4805-6.8984 15.359-15.359 15.359z"/>
 <path d="m204.24 328.72h-53.457c-8.4805 0-15.359 6.8789-15.359 15.359v21.961c0 8.4805 6.8789 15.359 15.359 15.359h53.457c8.4805 0 15.359-6.8789 15.359-15.359v-21.961c0-8.4609-6.8789-15.359-15.359-15.359zm5.1211 37.32c0 2.8203-2.3008 5.1211-5.1211 5.1211h-53.457c-2.8203 0-5.1211-2.3008-5.1211-5.1211v-21.961c0-2.8203 2.3008-5.1211 5.1211-5.1211h53.457c2.8203 0 5.1211 2.3008 5.1211 5.1211z"/>
 <path d="m361.22 328.72h-53.457c-8.4805 0-15.359 6.8789-15.359 15.359v21.961c0 8.4805 6.8789 15.359 15.359 15.359h53.457c8.4805 0 15.359-6.8789 15.359-15.359v-21.961c0-8.4609-6.8789-15.359-15.359-15.359zm5.1211 37.32c0 2.8203-2.3008 5.1211-5.1211 5.1211h-53.457c-2.8203 0-5.1211-2.3008-5.1211-5.1211v-21.961c0-2.8203 2.3008-5.1211 5.1211-5.1211h53.457c2.8203 0 5.1211 2.3008 5.1211 5.1211z"/>
 <path d="m250.88 248.8v12.762c0 2.8398 2.3008 5.1211 5.1211 5.1211s5.1211-2.2812 5.1211-5.1211v-12.762c33-2.6211 59.059-30.219 59.059-63.863 0-45.262-58.48-92.918-60.98-94.918-1.8789-1.5195-4.5586-1.5195-6.4219 0-2.4805 2-60.98 49.66-60.98 94.918 0.019531 33.641 26.082 61.242 59.078 63.863zm5.1211-148.08c12.082 10.52 53.938 49.5 53.938 84.238 0 27.98-21.48 51.02-48.82 53.621v-86.504c0-2.8398-2.3008-5.1211-5.1211-5.1211-2.8203 0-5.1211 2.2812-5.1211 5.1211v86.504c-27.359-2.5781-48.82-25.641-48.82-53.621 0-34.719 41.859-73.719 53.938-84.238z"/>
</svg>
