<?xml version="1.0" encoding="UTF-8"?>
<svg width="512pt" height="512pt" version="1.1" viewBox="0 0 512 512" xmlns="http://www.w3.org/2000/svg">
 <path d="m414.4 209.6c-23.852 0-43.543 18.098-46.102 41.281h-27.262c-1.1758-19.66-9-37.512-21.305-51.375l19.297-19.297c8.4375 6.7617 18.703 10.16 28.977 10.16 11.883 0 23.762-4.5234 32.809-13.57 18.09-18.09 18.09-47.523 0-65.613s-47.523-18.094-65.613 0c-8.7656 8.7656-13.594 20.414-13.594 32.809 0 10.668 3.5977 20.773 10.184 28.973l-19.297 19.297c-13.863-12.305-31.715-20.129-51.375-21.305v-27.262c23.18-2.5586 41.277-22.25 41.277-46.098 0-25.586-20.816-46.402-46.398-46.402s-46.398 20.816-46.398 46.398c0 23.848 18.098 43.539 41.277 46.098v27.262c-19.66 1.1758-37.512 9-51.375 21.305l-19.297-19.297c6.5859-8.1992 10.184-18.309 10.184-28.973 0-12.395-4.8281-24.047-13.594-32.809-18.09-18.09-47.523-18.086-65.613 0-18.09 18.09-18.09 47.523 0 65.613 9.0469 9.0469 20.926 13.57 32.809 13.57 10.273-0.003907 20.535-3.3984 28.977-10.16l19.297 19.297c-12.305 13.863-20.129 31.715-21.305 51.375h-27.262c-2.5586-23.184-22.25-41.281-46.102-41.281-25.582 0.003906-46.398 20.816-46.398 46.402s20.816 46.398 46.398 46.398c23.852 0 43.543-18.098 46.102-41.281h27.262c1.1758 19.66 9 37.512 21.305 51.375l-19.297 19.301c-18.199-14.582-44.918-13.457-61.785 3.4102-18.09 18.09-18.09 47.523 0 65.613 9.0469 9.0469 20.926 13.57 32.809 13.57 11.879 0 23.762-4.5234 32.809-13.57 8.7656-8.7656 13.594-20.414 13.594-32.809 0-10.668-3.5977-20.773-10.184-28.973l19.297-19.297c13.859 12.301 31.711 20.125 51.371 21.301v27.262c-23.18 2.5586-41.277 22.25-41.277 46.098 0 25.586 20.816 46.402 46.398 46.402s46.398-20.816 46.398-46.398c0-23.848-18.098-43.539-41.277-46.098v-27.262c19.66-1.1758 37.512-9 51.375-21.305l19.297 19.297c-6.5859 8.1992-10.184 18.309-10.184 28.973 0 12.395 4.8281 24.047 13.594 32.809 9.0469 9.0469 20.926 13.57 32.809 13.57 11.883 0 23.762-4.5234 32.809-13.57 18.09-18.09 18.09-47.523 0-65.613-16.867-16.867-43.582-17.996-61.785-3.4102l-19.297-19.297c12.301-13.863 20.125-31.715 21.301-51.375h27.262c2.5586 23.184 22.25 41.281 46.102 41.281 25.582-0.003906 46.398-20.816 46.398-46.402s-20.816-46.398-46.398-46.398zm-71.961-91.176c7.0508-7.0508 16.309-10.574 25.566-10.574 9.2617 0 18.516 3.5234 25.566 10.574 14.098 14.102 14.098 37.035 0 51.137-14.102 14.102-37.035 14.102-51.137 0-6.8281-6.8281-10.594-15.91-10.594-25.566 0.003906-9.6602 3.7656-18.742 10.598-25.57zm-122.6-20.824c0-19.941 16.219-36.16 36.156-36.16s36.156 16.219 36.156 36.16c0 19.934-16.219 36.156-36.156 36.156-19.938-0.003906-36.156-16.223-36.156-36.156zm-101.42 71.957c-14.098-14.102-14.098-37.035 0-51.137 7.0508-7.0508 16.309-10.574 25.566-10.574 9.2617 0 18.516 3.5234 25.566 10.574 6.8281 6.8281 10.594 15.91 10.594 25.57 0 9.6562-3.7617 18.734-10.594 25.566-14.098 14.102-37.035 14.102-51.133 0zm-20.828 122.6c-19.938 0-36.156-16.219-36.156-36.16s16.219-36.16 36.156-36.16 36.16 16.219 36.16 36.16-16.223 36.16-36.16 36.16zm71.961 101.41c-14.102 14.102-37.035 14.102-51.137 0-14.098-14.102-14.098-37.035 0-51.137 7.0508-7.0508 16.309-10.574 25.566-10.574 9.2617 0 18.516 3.5234 25.566 10.574 6.8281 6.8281 10.594 15.91 10.594 25.566 0.003906 9.6602-3.7578 18.742-10.59 25.57zm122.6 20.824c0 19.941-16.219 36.16-36.156 36.16s-36.156-16.219-36.156-36.16c0-19.934 16.219-36.156 36.156-36.156 19.938 0.003906 36.156 16.223 36.156 36.156zm101.42-71.957c14.098 14.102 14.098 37.035 0 51.137-14.102 14.102-37.035 14.102-51.137 0-6.8281-6.8281-10.594-15.91-10.594-25.57 0-9.6562 3.7617-18.734 10.594-25.566 7.0508-7.0508 16.309-10.574 25.566-10.574 9.2617-0.003907 18.52 3.5234 25.57 10.574zm-137.57-11.383c-41.387 0-75.059-33.672-75.059-75.059 0-41.391 33.672-75.059 75.059-75.059s75.059 33.668 75.059 75.059-33.672 75.059-75.059 75.059zm158.4-38.898c-19.938 0-36.16-16.219-36.16-36.16s16.223-36.16 36.16-36.16 36.156 16.219 36.156 36.16-16.219 36.16-36.156 36.16z"/>
 <path d="m300.7 250.88h-39.578v-39.578c0-2.8281-2.293-5.1211-5.1211-5.1211s-5.1211 2.2891-5.1211 5.1211v44.699c0 2.8281 2.293 5.1211 5.1211 5.1211h44.699c2.8281 0 5.1211-2.2891 5.1211-5.1211 0-2.8281-2.293-5.1211-5.1211-5.1211z"/>
</svg>
