<?xml version="1.0" encoding="UTF-8"?>
<svg width="512pt" height="512pt" version="1.1" viewBox="0 0 512 512" xmlns="http://www.w3.org/2000/svg">
 <path d="m116.22 108.08v336.31c0 9.0508 7.3633 16.41 16.41 16.41h248.12c9.0508 0 16.41-7.3633 16.41-16.41v-336.31c0-9.0508-7.3633-16.41-16.41-16.41h-45.234v-29.203c0-6.2148-5.0547-11.27-11.27-11.27h-135.11c-6.2148 0-11.27 5.0547-11.27 11.27v29.203h-45.234c-9.0469 0-16.41 7.3633-16.41 16.41zm66.766-6.168c2.832 0 5.1211-2.2891 5.1211-5.1211v-34.324c0-0.56641 0.46094-1.0273 1.0273-1.0273h135.11c0.56641 0 1.0273 0.46094 1.0273 1.0273v34.324c0 2.832 2.2891 5.1211 5.1211 5.1211h50.355c3.3984 0 6.168 2.7695 6.168 6.168v336.31c0 3.3984-2.7695 6.168-6.168 6.168h-248.12c-3.3984 0-6.168-2.7695-6.168-6.168v-336.31c0-3.3984 2.7695-6.168 6.168-6.168z"/>
 <path d="m162.16 210.61h189.81c2.832 0 5.1211-2.2891 5.1211-5.1211v-69.523c0-2.832-2.2891-5.1211-5.1211-5.1211l-189.81 0.003906c-2.832 0-5.1211 2.2891-5.1211 5.1211v69.523c0 2.832 2.2891 5.1172 5.1211 5.1172zm5.1211-69.523h179.57v59.285h-179.57z"/>
 <path d="m162.16 315.22h189.81c2.832 0 5.1211-2.2891 5.1211-5.1211v-69.523c0-2.832-2.2891-5.1211-5.1211-5.1211h-189.81c-2.832 0-5.1211 2.2891-5.1211 5.1211v69.523c0 2.832 2.2891 5.1211 5.1211 5.1211zm5.1211-69.523h179.57v59.285h-179.57z"/>
 <path d="m162.16 419.84h189.81c2.832 0 5.1211-2.2891 5.1211-5.1211v-69.523c0-2.832-2.2891-5.1211-5.1211-5.1211h-189.81c-2.832 0-5.1211 2.2891-5.1211 5.1211v69.523c0 2.832 2.2891 5.1211 5.1211 5.1211zm5.1211-69.523h179.57v59.285h-179.57z"/>
</svg>
