<?xml version="1.0" encoding="UTF-8"?>
<svg width="512pt" height="512pt" version="1.1" viewBox="0 0 512 512" xmlns="http://www.w3.org/2000/svg">
 <path d="m426.46 372.52c0.003906-0.09375 0.050781-0.16406 0.050781-0.25781v-32.637c0-2.832-2.293-5.1211-5.1211-5.1211h-6.6289v-159.52c0-2.832-2.293-5.1211-5.1211-5.1211h-98.309c-13.375 0-26.117 2.6875-37.785 7.4766l-181.13-121.19c-0.078124-0.050781-0.16797-0.054687-0.24609-0.10156-4.1406-3.0977-9.2227-5.0039-14.781-5.0039-13.676 0-24.805 11.125-24.805 24.805 0 7.2383 3.168 13.699 8.1289 18.238 0.0625 0.070313 0.082031 0.16016 0.15234 0.22656l11.406 11.324v152.44h-7.4297c-2.8281 0-5.1211 2.2891-5.1211 5.1211 0 2.832 2.293 5.1211 5.1211 5.1211h7.2969c-0.71094 7.3477-4.3203 11.023-8.7969 15.504-4.8125 4.8242-10.266 10.293-10.941 20.48-0.42578 6.3398 1.8125 12.473 6.2969 17.266 4.8164 5.1445 11.637 8.1016 18.715 8.1016 13.797 0 25.027-11.223 25.027-25.027 0-2.832-2.293-5.1211-5.1211-5.1211s-5.1211 2.2891-5.1211 5.1211c0 8.1523-6.6289 14.785-14.785 14.785-4.2539 0-8.3516-1.7734-11.238-4.8594-2.5273-2.6992-3.7891-6.0977-3.5586-9.5859 0.41797-6.3555 3.7539-9.6992 7.9727-13.926 4.9414-4.9492 10.93-11.102 11.77-22.738h7.5781c2.8281 0 5.1211-2.2891 5.1211-5.1211 0-2.832-2.293-5.1211-5.1211-5.1211h-7.4297l0.003906-142.27 131.76 130.87c-1.7617 7.4102-2.7891 15.094-2.7891 23.035v64.797h-40.695c-2.8281 0-5.1211 2.2891-5.1211 5.1211v32.316c-22.262 2.418-39.656 21.316-39.656 44.211 0 24.531 19.957 44.484 44.488 44.484h247.39c24.531 0 44.488-19.953 44.488-44.484 0.007812-21.598-15.473-39.633-35.91-43.641zm-42.82 43.637c0-18.883 15.359-34.242 34.246-34.242s34.246 15.359 34.246 34.242c0 18.883-15.359 34.242-34.246 34.242s-34.246-15.352-34.246-34.242zm-208.55-222.83 56.883-22.375-15.453 63.52zm-43.75-43.453 42.512-14.836-10.656 46.48zm-44.59-44.285 39.172-8.8125-7.168 40.598zm88.309 18.18-46.367 16.184 7.4531-42.219zm55.129 36.883-56.828 22.355 11.996-52.348zm-135.15-67.422c4.4102-4.4805 7.1484-10.609 7.1484-17.379 0-0.30859-0.082031-0.59375-0.09375-0.90234l18.672 12.492zm147.9 75.953 19.902 13.312c-11.203 6.25-21.074 14.586-29.098 24.488zm-165.55-107.9c8.0273 0 14.562 6.5312 14.562 14.566s-6.5312 14.566-14.562 14.566c-8.0273 0-14.566-6.5312-14.566-14.566s6.5312-14.566 14.566-14.566zm144.33 208.43c0-49.406 40.195-89.605 89.605-89.605h93.188v154.4h-182.79zm194.55 75.039v26.926h-240.36v-26.926zm-280.02 71.406c0-18.883 15.359-34.242 34.246-34.242s34.246 15.359 34.246 34.242c0 18.883-15.359 34.242-34.246 34.242s-34.246-15.352-34.246-34.242zm62.605 34.25c9.8477-8.168 16.129-20.484 16.129-34.242 0-13.758-6.2812-26.082-16.129-34.242h190.67c-9.8477 8.168-16.129 20.484-16.129 34.242 0 13.758 6.2812 26.082 16.129 34.242z"/>
 <path d="m373.21 204.48h-61.203c-35.34 0-64.094 28.75-64.094 64.094v41.953c0 2.832 2.293 5.1211 5.1211 5.1211h120.17c2.8281 0 5.1211-2.2891 5.1211-5.1211l-0.003907-100.93c0.007813-2.8242-2.2852-5.1172-5.1133-5.1172zm-5.1211 100.92h-109.93v-36.832c0-29.695 24.156-53.852 53.852-53.852h56.078z"/>
</svg>
