<?xml version="1.0" encoding="UTF-8"?>
<svg width="512pt" height="512pt" version="1.1" viewBox="0 0 512 512" xmlns="http://www.w3.org/2000/svg">
 <path d="m366.86 122.54-12.719-22c-3.8203-6.6211-12-9.3203-19.02-6.3203l-26.52 11.422c-6.5195-5.1992-13.762-9.3594-21.539-12.422l-3.3789-28.699c-0.87891-7.6016-7.3203-13.32-14.961-13.32h-25.418c-7.6406 0-14.078 5.7188-14.98 13.32l-3.3789 28.699c-7.8008 3.0781-15.02 7.2383-21.539 12.422l-26.539-11.422c-7.0195-3-15.199-0.30078-19.02 6.3203l-12.719 22c-3.8203 6.6211-2.0781 15.059 4.0391 19.641l23.141 17.262c-0.64062 4.2383-0.96094 8.3984-0.96094 12.441 0.019532 4.0195 0.33984 8.1992 0.98047 12.441l-23.141 17.262c-6.1211 4.5781-7.8594 13-4.0391 19.621l12.719 22.02c3.8203 6.6211 12 9.3203 19.02 6.3203l26.52-11.422c6.5195 5.1797 13.738 9.3594 21.539 12.441l3.3789 28.699c0.89844 7.6016 7.3203 13.32 14.98 13.32h25.418c7.6406 0 14.078-5.7188 14.98-13.32l3.3789-28.699c7.8008-3.0781 15.02-7.2383 21.539-12.441l26.539 11.422c7.0195 3 15.199 0.32031 19.02-6.3203l12.699-22.02c3.8203-6.6211 2.0781-15.039-4.0391-19.621l-23.16-17.262c0.64062-4.2383 0.96094-8.3984 0.96094-12.441 0-4.0391-0.32031-8.2188-0.96094-12.441l23.141-17.262c6.1211-4.5781 7.8594-13.02 4.0391-19.641zm-10.16 11.422-25.641 19.121c-1.5586 1.1602-2.3398 3.1211-1.9805 5.0391 0.87891 4.6992 1.3203 9.3203 1.3203 13.738 0 4.4805-0.44141 8.9805-1.3203 13.738-0.35938 1.9219 0.39844 3.8789 1.9805 5.0391l25.641 19.121c1.9609 1.4609 2.5195 4.1602 1.3008 6.3008l-12.719 22.039c-1.2188 2.1211-3.8594 3-6.1016 2.0195l-29.398-12.66c-1.8008-0.76172-3.8789-0.44141-5.3594 0.82031-7 6.0195-15 10.641-23.781 13.719-1.8398 0.64062-3.1602 2.2812-3.3789 4.2383l-3.7383 31.801c-0.28125 2.4414-2.3594 4.2812-4.8008 4.2812h-25.418c-2.4609 0-4.5195-1.8398-4.8008-4.2812l-3.7383-31.801c-0.21875-1.9414-1.5391-3.5781-3.3789-4.2383-8.7812-3.0781-16.781-7.6992-23.781-13.719-0.94141-0.80078-2.1406-1.2383-3.3398-1.2383-0.67969 0-1.3789 0.14062-2.0195 0.42188l-29.398 12.66c-2.2617 0.98047-4.8789 0.10156-6.1016-2.0195l-12.719-22.02c-1.2188-2.1211-0.66016-4.8398 1.3008-6.3008l25.641-19.121c1.5586-1.1602 2.3398-3.1211 1.9805-5.0391-0.87891-4.7617-1.3203-9.2617-1.3203-13.738 0-4.4219 0.44141-9.0391 1.3203-13.738 0.35938-1.9219-0.39844-3.8789-1.9805-5.0391l-25.641-19.121c-1.9609-1.4609-2.5195-4.1797-1.3008-6.3008l12.699-22.039c1.2188-2.1211 3.8398-3 6.1016-2.0195l29.398 12.66c1.8008 0.76172 3.8789 0.44141 5.3594-0.82031 7-6.0195 15-10.641 23.781-13.719 1.8398-0.64062 3.1602-2.2812 3.3789-4.2383l3.7383-31.801c0.30078-2.4219 2.3594-4.2617 4.8008-4.2617h25.418c2.4609 0 4.5195 1.8398 4.8008 4.2812l3.7383 31.801c0.23828 1.9414 1.5391 3.5781 3.3789 4.2383 8.7617 3.0781 16.762 7.6992 23.781 13.719 1.4805 1.2812 3.5586 1.6016 5.3594 0.82031l29.398-12.66c2.2617-0.98047 4.8789-0.10156 6.1016 2.0195l12.719 22c1.2383 2.1211 0.67969 4.8398-1.2812 6.3008z"/>
 <path d="m256 131.52c-22.242 0-40.359 18.102-40.359 40.359 0 22.242 18.121 40.34 40.359 40.34s40.359-18.102 40.359-40.359c0-22.242-18.121-40.34-40.359-40.34zm0 70.461c-16.602 0-30.121-13.52-30.121-30.121 0-16.602 13.52-30.102 30.121-30.102s30.121 13.5 30.121 30.121c0 16.602-13.52 30.102-30.121 30.102z"/>
 <path d="m455.68 450.56h-12.461v-65.762c0-2.8398-2.3008-5.1211-5.1211-5.1211h-89.223c-2.8203 0-5.1211 2.2812-5.1211 5.1211v65.762h-38.02v-100.4c0-2.8398-2.3008-5.1211-5.1211-5.1211h-89.242c-2.8203 0-5.1211 2.2812-5.1211 5.1211v100.4h-38.02v-158.28c0-2.8398-2.3008-5.1211-5.1211-5.1211h-89.223c-2.8203 0-5.1211 2.2812-5.1211 5.1211v158.28h-12.461c-2.8203 0-5.1211 2.2812-5.1211 5.1211 0 2.8398 2.3008 5.1211 5.1211 5.1211h399.36c2.8203 0 5.1211-2.2812 5.1211-5.1211 0-2.8398-2.3008-5.1211-5.1211-5.1211zm-101.68-60.641h79l-0.019531 60.641h-78.98zm-137.5-34.641h79v95.277h-79zm-137.48-57.883h79v153.16h-79z"/>
 <path d="m434.4 79.023c-1.3594-2.4805-4.4805-3.3789-6.9609-2.0195l-44.879 24.719c-2.4805 1.3594-3.3789 4.4805-2.0195 6.9609 0.94141 1.6992 2.6797 2.6406 4.4805 2.6406 0.83984 0 1.6797-0.19922 2.4609-0.64062l44.879-24.719c2.5-1.3398 3.3984-4.4609 2.0391-6.9414z"/>
 <path d="m455.68 166.66h-51.84c-2.8203 0-5.1211 2.2812-5.1211 5.1211s2.3008 5.1211 5.1211 5.1211h51.84c2.8203 0 5.1211-2.2812 5.1211-5.1211s-2.3008-5.1211-5.1211-5.1211z"/>
 <path d="m381.28 235.06c-1.3594 2.4805-0.46094 5.6016 2.0195 6.9609l44.879 24.719c0.78125 0.44141 1.6406 0.64062 2.4609 0.64062 1.8008 0 3.5586-0.96094 4.4805-2.6406 1.3594-2.4805 0.46094-5.6016-2.0195-6.9609l-44.879-24.719c-2.4609-1.3789-5.5781-0.48047-6.9414 2z"/>
 <path d="m77.598 79.023c-1.3594 2.4805-0.46094 5.6016 2.0195 6.9609l44.879 24.719c0.78125 0.44141 1.6406 0.64062 2.4609 0.64062 1.8008 0 3.5586-0.96094 4.4805-2.6406 1.3594-2.4805 0.46094-5.6016-2.0195-6.9609l-44.879-24.719c-2.4609-1.3789-5.5781-0.48047-6.9414 2z"/>
 <path d="m51.199 171.78c0 2.8398 2.3008 5.1211 5.1211 5.1211h51.84c2.8203 0 5.1211-2.2812 5.1211-5.1211s-2.3008-5.1211-5.1211-5.1211h-51.84c-2.8203 0-5.1211 2.2812-5.1211 5.1211z"/>
 <path d="m123.76 233.04-44.879 24.719c-2.4805 1.3594-3.3789 4.4805-2.0195 6.9609 0.94141 1.6992 2.6797 2.6406 4.4805 2.6406 0.83984 0 1.6797-0.19922 2.4609-0.64062l44.879-24.719c2.4805-1.3594 3.3789-4.4805 2.0195-6.9609-1.3398-2.4609-4.4609-3.3594-6.9414-2z"/>
</svg>
