<?xml version="1.0" encoding="UTF-8"?>
<svg width="512pt" height="512pt" version="1.1" viewBox="0 0 512 512" xmlns="http://www.w3.org/2000/svg">
 <path d="m64.336 179.79h1.1641v49.039c0 44.781 35.102 81.414 79.223 84.082v45.914c0 56.23 45.746 101.98 101.97 101.98 55.602 0 101.34-45.23 101.96-100.83l0.33984-30.129c9.1875 3.4883 18.844 5.2227 28.477 5.2227 29.602 0 58.797-15.691 72.203-42.242 25.836-51.16-1.5508-152.75-2.7344-157.04-0.38672-1.418-1.3672-2.6016-2.6875-3.2461-1.3164-0.64844-2.8516-0.69922-4.2109-0.13281-4.2227 1.75-101.69 42.609-129.43 91.172-19.961-8.1523-38.164-12.348-39.582-12.668-1.418-0.31641-2.9102-0.023438-4.0938 0.82422-1.1875 0.84375-1.957 2.1484-2.1211 3.5938-0.31641 2.7656-7.4844 68.164 12.707 96.824 9.5664 13.586 24.812 20.848 40.289 20.848 7.1172 0 14.277-1.5586 20.965-4.7266l-0.35547 31.586c-0.5625 50.016-41.711 90.703-91.727 90.703-50.582 0-91.734-41.148-91.734-91.734v-45.914c44.121-2.668 79.223-39.305 79.223-84.082v-49.039h1.1641c7.1836 0 13.031-5.8477 13.031-13.031v-24.387c0-7.1836-5.8438-13.031-13.031-13.031h-25.789v-57.059c0-11.625-9.457-21.082-21.078-21.082-11.625 0-21.082 9.457-21.082 21.082v57.062h-35.109v-57.062c0-11.625-9.4609-21.082-21.086-21.082s-21.082 9.457-21.082 21.082v57.062h-25.789c-7.1836 0-13.031 5.8438-13.031 13.031v24.387c0.003907 7.1797 5.8477 13.027 13.035 13.027zm285.26 81.594c5.9883 8.5078 8.3125 18.836 6.5352 29.09-0.64453 3.7109-1.8125 7.2461-3.4258 10.535l-0.40234 0.79297c-2.1523 4.1445-5.0469 7.8672-8.5781 11.016l-61.578-88.312c19.371 5.7617 54.367 18.312 67.449 36.879zm90.945 26.824c-15.688 31.07-56.305 44.93-89.262 31.543 3.9336-3.6562 7.2109-7.8867 9.7305-12.559 0.039063-0.070312 0.10156-0.125 0.14063-0.19922l0.24609-0.48438c0.16797-0.32031 0.33203-0.64062 0.49219-0.96484l78.395-153.75c6.5 29.18 19.078 99.141 0.25781 136.41zm-9.6836-140.47-64.781 127.05c-1.2773-6.8555-3.9766-13.426-8.1133-19.297-8.1211-11.527-22.867-20.777-37.941-27.805 20.754-35.016 83.395-67.145 110.84-79.949zm-144.96 158.52c-12.711-18.047-12.922-55.188-11.938-75.586l61.289 87.898c-16.949 8.5469-38.098 3.6602-49.352-12.312zm-61.949-77.426c0 40.859-33.242 74.102-74.102 74.102s-74.102-33.242-74.102-74.102v-49.039h148.2zm-46.309-156.55c0-5.9766 4.8672-10.84 10.844-10.84 5.9766 0 10.84 4.8633 10.84 10.844v57.059h-21.684zm-77.273 0c0-5.9766 4.8633-10.84 10.84-10.84s10.844 4.8633 10.844 10.844v57.059h-21.684zm-38.816 70.09c0-1.5391 1.2539-2.7891 2.7891-2.7891h171.02c1.5391 0 2.7891 1.2539 2.7891 2.7891v24.387c0 1.5391-1.2539 2.793-2.7891 2.793h-171.02c-1.5391 0-2.7891-1.2539-2.7891-2.793z"/>
</svg>
