<?xml version="1.0" encoding="UTF-8"?>
<svg width="512pt" height="512pt" version="1.1" viewBox="0 0 512 512" xmlns="http://www.w3.org/2000/svg">
 <path d="m104.96 460.8h302.08c11.297 0 20.48-9.1836 20.48-20.48v-368.64c0-11.297-9.1836-20.48-20.48-20.48h-302.08c-11.297 0-20.48 9.1836-20.48 20.48v368.64c0 11.293 9.1836 20.48 20.48 20.48zm88.199-333.37h125.68c14.113 0 25.602-11.484 25.602-25.602v-7.1055h30.809v322.55h-238.5v-322.55h30.809v7.1055c0 14.113 11.488 25.598 25.602 25.598zm141.04-25.602c0 8.4688-6.8906 15.359-15.359 15.359h-125.68c-8.4688 0-15.359-6.8906-15.359-15.359v-7.1055h156.4zm-156.4-17.344v-23.043h156.4v23.047zm-83.082-12.805c0-5.6445 4.5938-10.238 10.238-10.238h62.602v23.047h-35.93c-2.8281 0-5.1211 2.2891-5.1211 5.1211v332.79c0 2.8281 2.2891 5.1211 5.1211 5.1211h248.74c2.8281 0 5.1211-2.2891 5.1211-5.1211v-332.79c0-2.8281-2.2891-5.1211-5.1211-5.1211h-35.93l0.003906-23.043h62.598c5.6445 0 10.238 4.5938 10.238 10.238v368.64c0 5.6445-4.5938 10.238-10.238 10.238h-302.08c-5.6445 0-10.238-4.5938-10.238-10.238z"/>
 <path d="m167.56 206.17c0 2.8281 2.2891 5.1211 5.1211 5.1211h50.109c2.8281 0 5.1211-2.2891 5.1211-5.1211v-50.109c0-2.8281-2.2891-5.1211-5.1211-5.1211h-50.109c-2.8281 0-5.1211 2.2891-5.1211 5.1211zm10.242-44.992h39.871v39.871h-39.871z"/>
 <path d="m222.79 238.22h-50.109c-2.8281 0-5.1211 2.2891-5.1211 5.1211v50.109c0 2.8281 2.2891 5.1211 5.1211 5.1211h50.109c2.8281 0 5.1211-2.2891 5.1211-5.1211v-50.109c0-2.8281-2.2891-5.1211-5.1211-5.1211zm-5.1172 50.109h-39.871v-39.871h39.871z"/>
 <path d="m222.79 325.5h-50.109c-2.8281 0-5.1211 2.2891-5.1211 5.1211v50.109c0 2.8281 2.2891 5.1211 5.1211 5.1211h50.109c2.8281 0 5.1211-2.2891 5.1211-5.1211v-50.109c0-2.832-2.2891-5.1211-5.1211-5.1211zm-5.1172 50.109h-39.871v-39.871h39.871z"/>
 <path d="m280.5 384.12c0.91406 1.0352 2.2109 1.6562 3.5898 1.7188 0.078125 0.003906 0.16016 0.003906 0.23828 0.003906 1.2969 0 2.5508-0.48828 3.5-1.3789l54.07-50.621c2.0664-1.9336 2.1719-5.1758 0.23828-7.2383-1.9414-2.0586-5.1719-2.1562-7.2383-0.23828l-50.23 47.031-18.73-21.121c-1.8789-2.1289-5.1211-2.3086-7.2266-0.43359-2.1211 1.875-2.3086 5.1094-0.43359 7.2266z"/>
 <path d="m280.5 297.1c0.91406 1.0352 2.2109 1.6562 3.5898 1.7188 0.078125 0.003907 0.16016 0.003907 0.23828 0.003907 1.2969 0 2.5508-0.48828 3.5-1.3789l54.07-50.621c2.0664-1.9336 2.1719-5.1758 0.23828-7.2383-1.9414-2.0586-5.1719-2.1602-7.2383-0.23828l-50.23 47.031-18.73-21.121c-1.8789-2.1289-5.1211-2.3086-7.2266-0.43359-2.1211 1.875-2.3086 5.1094-0.43359 7.2266z"/>
 <path d="m280.5 210.07c0.91406 1.0352 2.2109 1.6562 3.5898 1.7188 0.078125 0.003906 0.16016 0.003906 0.23828 0.003906 1.2969 0 2.5508-0.48828 3.5-1.3789l54.07-50.621c2.0664-1.9336 2.1719-5.1758 0.23828-7.2383-1.9375-2.0625-5.1641-2.1602-7.2344-0.23828l-50.23 47.031-18.73-21.121c-1.8789-2.1289-5.1211-2.3086-7.2266-0.43359-2.1211 1.875-2.3086 5.1094-0.43359 7.2266z"/>
</svg>
