<?xml version="1.0" encoding="UTF-8"?>
<svg width="512pt" height="512pt" version="1.1" viewBox="0 0 512 512" xmlns="http://www.w3.org/2000/svg">
 <path d="m329.21 334.85c2.0469 0.51172 4.6094 0.51172 6.6562 0.51172 9.2148 0 18.434-3.0703 26.113-8.7031 9.2148-7.168 15.871-17.406 17.406-28.672 3.5859-24.062-12.801-46.594-36.863-50.176-24.062-3.5859-46.594 12.801-50.176 36.863-1.5352 11.777 1.0234 23.039 8.1914 32.77 6.6562 9.2148 16.898 15.871 28.672 17.406zm-27.137-48.641c2.5586-18.434 19.969-31.23 38.398-28.16 18.434 2.5586 31.23 19.969 28.16 38.398-1.5352 8.7031-6.1445 16.895-13.312 22.016-7.168 5.1211-16.383 7.6797-25.09 6.1445-8.7031-1.5352-16.895-6.1445-22.016-13.312-5.1133-7.1641-7.1641-16.383-6.1406-25.086z"/>
 <path d="m344.06 237.57h1.0234c2.5586 0 4.6094-2.0469 5.1211-4.6094l3.0703-20.992c0.51172-2.5586-1.5352-5.6328-4.0977-5.6328-2.5586-0.51172-5.6328 1.5352-5.6328 4.0977l-3.0703 20.992c-1.0195 3.0742 0.51563 5.6328 3.5859 6.1445z"/>
 <path d="m372.73 249.86c1.5352 0 3.0703-0.51172 4.0977-2.0469l12.801-16.383c1.5352-2.0469 1.5352-5.6328-1.0234-7.168-2.0469-1.5352-5.6328-1.5352-7.168 1.0234l-12.801 16.383c-1.5352 2.0469-1.5352 5.6328 1.0234 7.168 1.0234 0.51172 2.0469 1.0234 3.0703 1.0234z"/>
 <path d="m386.56 271.36c1.0234 2.0469 2.5586 3.0703 4.6094 3.0703 0.51172 0 1.5352 0 2.0469-0.51172l19.457-7.6797c2.5586-1.0234 4.0977-4.0977 3.0703-6.6562-1.0234-2.5586-4.0977-4.0977-6.6562-3.0703l-19.457 7.6797c-2.5586 1.5352-4.0938 4.6094-3.0703 7.168z"/>
 <path d="m390.14 299.52c-0.51172 2.5586 1.5352 5.6328 4.6094 5.6328l20.992 2.5586h0.51172c2.5586 0 4.6094-2.0469 5.1211-4.6094 0.51172-2.5586-1.5352-5.6328-4.6094-5.6328l-20.992-2.5586c-2.5625 0-5.1211 1.5391-5.6328 4.6094z"/>
 <path d="m379.39 325.63c-1.5352 2.0469-1.0234 5.6328 1.0234 7.168l16.895 12.801c1.0234 0.51172 2.0469 1.0234 3.0703 1.0234 1.5352 0 3.0703-0.51172 4.0977-2.0469 1.5352-2.0469 1.0234-5.6328-1.0234-7.168l-16.895-12.801c-2.0469-1.5391-5.6289-1.0234-7.168 1.0234z"/>
 <path d="m356.86 343.04c-2.5586 1.0234-3.5859 4.0977-2.5586 6.6562l8.1914 19.457c1.0234 2.0469 2.5586 3.0703 4.6094 3.0703 0.51172 0 1.5352 0 2.0469-0.51172 2.5586-1.0234 3.5859-4.0977 2.5586-6.6562l-8.1914-19.457c-1.0234-2.5586-3.582-3.582-6.6562-2.5586z"/>
 <path d="m287.23 363.01c1.5352 0 3.0703-0.51172 4.0977-2.0469l12.289-16.895c1.5352-2.0469 1.0234-5.6328-1.0234-7.168-2.0469-1.5352-5.6328-1.0234-7.168 1.0234l-12.289 16.895c-1.5352 2.0469-1.0234 5.6328 1.0234 7.168 1.0234 0.51172 2.0469 1.0234 3.0703 1.0234z"/>
 <path d="m285.18 314.37c-1.0234-2.5586-4.0977-3.5859-6.6562-2.5586l-18.945 8.7031c-2.5586 1.0234-3.5859 4.0977-2.5586 6.6562 1.0234 2.0469 2.5586 3.0703 4.6094 3.0703 0.51172 0 1.5352 0 2.0469-0.51172l18.945-8.7031c2.5586-1.0234 3.582-4.0938 2.5586-6.6562z"/>
 <path d="m253.95 289.28 20.992 2.0469h0.51172c2.5586 0 4.6094-2.0469 5.1211-4.6094 0.51172-2.5586-1.5352-5.1211-4.6094-5.6328l-20.992-2.0469c-2.5586 0-5.1211 1.5352-5.6328 4.6094 0 2.5586 2.0469 5.1211 4.6094 5.6328z"/>
 <path d="m283.14 261.12c1.0234 0.51172 2.0469 1.0234 3.0703 1.0234 1.5352 0 3.0703-0.51172 4.0977-2.0469 1.5352-2.5586 1.0234-5.6328-1.0234-7.168l-17.41-12.289c-2.5586-1.5352-5.6328-1.0234-7.168 1.0234-1.5352 2.0469-1.0234 5.6328 1.0234 7.168z"/>
 <path d="m305.15 239.62c1.0234 2.0469 2.5586 3.0703 4.6094 3.0703 0.51172 0 1.5352 0 2.0469-0.51172 2.5586-1.0234 3.5859-4.0977 2.5586-6.6562l-8.7031-18.945c-1.0234-2.5586-4.0977-3.5859-6.6562-2.5586-2.5586 1.0234-3.5859 4.0977-2.5586 6.6562z"/>
 <path d="m148.48 226.82v128.51c0 51.711 41.984 93.184 93.184 93.184 51.199 0 93.184-41.984 93.184-93.184 0-3.0703-2.0469-5.1211-5.1211-5.1211-3.0703 0-5.1211 2.0469-5.1211 5.1211 0 46.078-37.375 82.945-82.945 82.945-46.078 0-82.945-37.375-82.945-82.945l0.003906-128.51c27.648-3.0703 49.664-26.625 49.664-55.297v-50.176c0-3.0703-2.0469-5.1211-5.1211-5.1211h-15.359c0-0.51172 0.51172-1.0234 0.51172-1.5352v-47.105c0-3.0703-2.0469-5.1211-5.1211-5.1211-3.0703 0-5.1211 2.0469-5.1211 5.1211v47.105c0 0.51172 0 1.0234 0.51172 1.5352h-50.688c0-0.51172 0.51172-1.0234 0.51172-1.5352v-47.105c0-3.0703-2.0469-5.1211-5.1211-5.1211-3.0703 0-5.1211 2.0469-5.1211 5.1211v47.105c0 0.51172 0 1.0234 0.51172 1.5352h-15.359c-3.0703 0-5.1211 2.0469-5.1211 5.1211v50.176c-1.0156 29.184 21.512 53.25 50.184 55.297zm-40.961-100.35h90.625v45.055c0 25.09-20.48 45.055-45.055 45.055-24.574 0-45.055-20.48-45.055-45.055l-0.003906-45.055z"/>
</svg>
