<?xml version="1.0" encoding="UTF-8"?>
<svg width="512pt" height="512pt" version="1.1" viewBox="0 0 512 512" xmlns="http://www.w3.org/2000/svg">
 <path d="m56.32 400.24h21.109c-0.8125 3.5547-1.2812 7.2383-1.2812 11.035-0.003907 27.309 22.211 49.527 49.523 49.527 27.309 0 49.523-22.219 49.523-49.523 0-3.7969-0.46875-7.4805-1.2812-11.035h164.36c-0.8125 3.5547-1.2812 7.2383-1.2812 11.035 0 27.305 22.215 49.523 49.523 49.523 27.309 0 49.531-22.219 49.531-49.523 0-3.7969-0.46875-7.4805-1.2812-11.035l20.91-0.003907c2.8281 0 5.1211-2.293 5.1211-5.1211v-56.504c0-2.8281-2.2891-5.1211-5.1211-5.1211h-1.8008v-277.17c0-2.8281-2.2891-5.1211-5.1211-5.1211h-256.52c-2.8281 0-5.1211 2.293-5.1211 5.1211v70.621h-71.359c-11.398 0-21.746 7.1719-25.738 17.848l-14.148 37.82c-11 29.391-16.578 60.207-16.578 91.594v59.297l-2.9688-0.003906c-2.8281 0-5.1211 2.293-5.1211 5.1211v56.504c0 2.8281 2.2891 5.1172 5.1211 5.1172zm69.352 50.32c-21.66 0-39.285-17.621-39.285-39.285 0-21.664 17.625-39.289 39.285-39.289s39.285 17.625 39.285 39.289c-0.003906 21.664-17.629 39.285-39.285 39.285zm260.85 0c-21.66 0-39.285-17.621-39.285-39.285 0-21.664 17.625-39.289 39.285-39.289 21.664 0 39.289 17.625 39.289 39.289 0 21.664-17.625 39.285-39.289 39.285zm64.039-60.559h-19.379c-7.9805-16.676-24.973-28.254-44.66-28.254s-36.676 11.574-44.656 28.254h-171.54c-7.9766-16.676-24.969-28.254-44.656-28.254s-36.676 11.574-44.656 28.254h-19.57v-46.266h389.12zm-253.2-328.56h246.29v272.05h-246.29zm-111.9 124.76 5.3672-14.344h59.402v58.363h-76.812c2.6602-14.957 6.6719-29.668 12.043-44.02zm-15.93 88c0-11.34 0.76172-22.602 2.2695-33.742h83.551c2.8281 0 5.1211-2.293 5.1211-5.1211v-68.602c0-2.8281-2.2891-5.1211-5.1211-5.1211h-60.691l4.9531-13.234c2.5039-6.6992 8.9961-11.199 16.148-11.199h71.359v196.32h-117.59z"/>
 <path d="m288.69 282.62c9.5352 3.3086 15.113 8.1016 18.086 15.547 2.1133 5.2734 7.4883 8.7969 13.395 8.7969h0.10156c5.8789-0.039062 11.078-3.4531 13.25-8.6992 3.1797-7.6797 8.3164-12.191 17.176-15.082 33.203-10.84 55.516-38.824 55.516-69.641 0-18.656-7.9805-36.492-22.465-50.227-15.129-14.34-35.816-22.789-57.883-23.973 2.6289-23.715 27.043-29.695 28.148-29.953 2.7461-0.63281 4.4688-3.3711 3.8438-6.1211-0.625-2.7578-3.3398-4.4883-6.1289-3.8594-7.2578 1.6445-18.141 6.6133-26.109 15.902v-22.223c0-2.8281-2.2891-5.1211-5.1211-5.1211-2.8281 0-5.1211 2.293-5.1211 5.1211v22.18c-7.9688-9.2734-18.855-14.219-26.098-15.863-2.7812-0.63281-5.5039 1.1016-6.1289 3.8594-0.625 2.7578 1.1055 5.5 3.8594 6.125 1.1055 0.25 25.426 6.1094 28.082 29.91h-0.023438c-41.949 2.2461-76.32 31.305-79.949 67.598-3.3047 33.039 18.223 63.469 53.57 75.723zm-43.383-74.703c3.1289-31.312 33.359-56.414 70.309-58.391 1.625-0.085938 3.2461-0.12891 4.8594-0.12891 21.488 0 41.766 7.6484 56.219 21.352 12.426 11.781 19.27 26.98 19.27 42.797 0 26.371-19.469 50.445-48.453 59.906-11.68 3.8164-19.137 10.453-23.453 20.898-0.58594 1.4102-2.1367 2.3633-3.8594 2.3789h-0.03125c-1.7617 0-3.3203-0.94922-3.8867-2.3594-4.0586-10.164-11.984-17.168-24.246-21.418-30.77-10.676-49.551-36.809-46.727-65.035z"/>
 <path d="m350.45 241.64c0.98047 0 1.9688-0.28125 2.8516-0.86719 9.8242-6.5938 16.148-16.121 17.816-26.824 0.43359-2.793-1.4805-5.4102-4.2734-5.8438-2.7969-0.41406-5.4062 1.4844-5.8438 4.2734-1.2188 7.8438-5.9805 14.91-13.406 19.891-2.3438 1.5781-2.9688 4.7578-1.3945 7.1055 0.98047 1.4727 2.6016 2.2656 4.25 2.2656z"/>
</svg>
