<?xml version="1.0" encoding="UTF-8"?>
<svg width="512pt" height="512pt" version="1.1" viewBox="0 0 512 512" xmlns="http://www.w3.org/2000/svg">
 <path d="m346.65 222.39v-152.66c0-10.215-8.3086-18.527-18.523-18.527h-258.4c-10.215 0-18.527 8.3125-18.527 18.527v321.7c0 10.211 8.3086 18.523 18.523 18.523h174.2c21.602 30.719 57.289 50.852 97.613 50.852 65.766 0 119.27-53.504 119.27-119.27 0-64.051-50.754-116.45-114.15-119.14zm96.453 79.801c-7.4766 3.418-25.977 9.3281-42.625-5.8516-6.8359-6.2383-14.164-7.0586-20.055-7.7188-7.7031-0.86328-12.801-1.4336-17.234-12.754-6.5859-16.805 17.289-30.266 23.52-33.445 25.742 11.781 46.086 33.254 56.395 59.77zm-106.69-232.46v152.66c-9.5898 0.40625-18.883 1.9648-27.762 4.5156v-165.46h19.477c4.5703 0 8.2852 3.7148 8.2852 8.2852zm-11.289 193.65c0.66016 4.3594-0.35156 8.2695-3.0859 11.953-16.445 22.152-19.754 28.418-20.797 50.504-1.2578 26.75-9.5234 57.207-60.836 56.242-5.0508-12.551-7.9023-26.211-7.9023-40.547 0-48.164 31.426-89.066 74.828-103.45 4.4453 3.6484 16.113 14.168 17.793 25.301zm-102.86 78.152c0 5.0195 0.34766 9.9609 0.95312 14.82h-123.77v-294.91h27.34v29.031c0 11.48 9.4609 20.816 21.086 20.816h102.12c11.625 0 21.086-9.3359 21.086-20.816l-0.003907-29.031h27.34v168.92c-44.508 17.324-76.148 60.609-76.148 111.17zm-85.242-280.09h123.81v29.031c0 5.832-4.8633 10.578-10.844 10.578l-102.12-0.003906c-5.9805 0-10.844-4.7461-10.844-10.578zm-67.293 338.26c-4.5703 0-8.2852-3.7148-8.2852-8.2812v-321.7c0-4.5664 3.7148-8.2812 8.2852-8.2812h19.477v300.03c0 2.8281 2.2891 5.1211 5.1211 5.1211h130.61c2.5273 11.773 6.8047 22.902 12.535 33.113zm284.14 50.109c0.53516-15.543-7.3047-32.578-7.5312-33.027-0.11328-0.32422-11.711-32.754 3.0039-51.531 14.352-18.309 32.297-13.105 33.02-12.879 0.26953 0.085938 0.57031 0.15234 0.85156 0.19141 1.3359 0.19531 32.484 5.1836 51.512 45.266-17.109 28.207-46.551 48.094-80.855 51.98zm86.734-63.027c-20.691-37.367-51.406-43.617-55.574-44.301-3.5508-0.98828-26.059-6.1211-43.746 16.453-18.25 23.289-5.125 59.832-4.3906 61.773 0.082031 0.17969 7.6289 16.625 6.7031 29.746-0.69531 0.011719-1.3672 0.10156-2.0625 0.10156-41.777 0-78.094-23.645-96.395-58.227 63.246-1.3086 65.57-49.715 66.336-66.02 0.91406-19.477 3.4453-24.211 18.785-44.879 4.3906-5.9102 6.0664-12.512 4.9844-19.613-1.6797-11.047-9.8906-20.883-16.168-26.969 7.1523-1.5039 14.555-2.3125 22.141-2.3359 0.10938 0.007813 0.20312 0.0625 0.31641 0.0625s0.20703-0.058594 0.31641-0.0625c11.379 0.03125 22.344 1.8281 32.66 5.1094-11.547 7.4141-28.582 22.254-20.852 41.973 6.6836 17.07 17.184 18.246 25.625 19.195 5.3203 0.59375 9.9141 1.1094 14.297 5.1094 9.9805 9.1016 21.254 12.504 31.82 12.504 7.6367 0 14.84-1.8164 20.969-4.4961 2.6641 9.4336 4.1914 19.344 4.1914 29.621 0 16.156-3.625 31.449-9.957 45.254z"/>
 <path d="m268.68 194.91c0-38.461-31.289-69.75-69.75-69.75-38.461 0-69.75 31.289-69.75 69.75 0 38.461 31.289 69.75 69.75 69.75 18.75 0 35.766-7.4766 48.312-19.555 0.18359-0.15625 0.36719-0.29688 0.52734-0.47656 12.887-12.664 20.91-30.266 20.91-49.719zm-69.75-59.508c32.816 0 59.512 26.695 59.512 59.512 0 14.191-5.0078 27.223-13.328 37.461-9.6992-15.996-27.09-25.988-46.184-25.988-19.035 0-36.461 10.016-46.176 26-8.3242-10.238-13.336-23.277-13.336-37.473 0-32.816 26.695-59.512 59.512-59.512zm-38.656 104.67c7.5352-14.297 22.324-23.445 38.652-23.445 16.375 0 31.121 9.1328 38.652 23.445-10.41 8.9219-23.898 14.352-38.652 14.352-14.75 0-28.242-5.4297-38.652-14.352z"/>
 <path d="m198.93 200.04c15.371 0 27.875-12.504 27.875-27.879 0-15.371-12.504-27.879-27.875-27.879-15.371 0-27.875 12.504-27.875 27.879s12.504 27.879 27.875 27.879zm0-45.516c9.7266 0 17.637 7.9141 17.637 17.637 0 9.7266-7.9102 17.637-17.637 17.637-9.7266 0-17.637-7.9141-17.637-17.637s7.9102-17.637 17.637-17.637z"/>
</svg>
