<?xml version="1.0" encoding="UTF-8"?>
<svg width="512pt" height="512pt" version="1.1" viewBox="0 0 512 512" xmlns="http://www.w3.org/2000/svg">
 <path d="m97.438 129.52v295.24c0 19.879 16.16 36.039 36.039 36.039h245.02c19.879 0 36.059-16.16 36.059-36.039v-295.24c0-19.879-16.18-36.039-36.059-36.039l-100.98-0.019531 59.562-31.699c0.16016-0.078125 0.26172-0.21875 0.39844-0.32031h23.738c2.8203 0 5.1211-2.2812 5.1211-5.1211 0-2.8398-2.3008-5.1211-5.1211-5.1211h-210.44c-2.8203 0-5.1211 2.2812-5.1211 5.1211 0 2.8398 2.3008 5.1211 5.1211 5.1211h23.738c0.14062 0.10156 0.23828 0.23828 0.39844 0.32031l59.562 31.699h-101c-19.879 0-36.039 16.18-36.039 36.059zm10.238 253.46h37.32c8.9219 0 16.18 7.2617 16.18 16.18 0 8.9219-7.2617 16.18-16.18 16.18h-37.32zm270.84 67.578h-245.04c-13.961 0-25.281-11.141-25.719-24.98h37.238c14.559 0 26.422-11.84 26.422-26.422 0-14.559-11.859-26.422-26.422-26.422h-37.32v-25.441h296.64v25.441h-37.738c-14.559 0-26.422 11.84-26.422 26.422 0 14.559 11.84 26.422 26.422 26.422h37.66c-0.44141 13.84-11.781 24.98-25.719 24.98zm-11.941-35.219c-8.9219 0-16.18-7.2617-16.18-16.18 0-8.9219 7.2617-16.18 16.18-16.18h37.738v32.359zm37.738-285.82v207.54h-296.64v-207.54c0-14.238 11.578-25.801 25.82-25.801h245.02c14.219-0.019531 25.801 11.559 25.801 25.801zm-88.422-68.082-59.418 31.621c-0.19922 0.10156-0.30078 0.28125-0.48047 0.39844-0.17969-0.12109-0.28125-0.30078-0.48047-0.39844l-59.418-31.621z"/>
 <path d="m218.24 378.24c-2.8203 0-5.1211 2.2812-5.1211 5.1211v31.559c0 2.8398 2.3008 5.1211 5.1211 5.1211 2.8203 0 5.1211-2.2812 5.1211-5.1211v-31.559c0-2.8203-2.3008-5.1211-5.1211-5.1211z"/>
 <path d="m256 378.24c-2.8203 0-5.1211 2.2812-5.1211 5.1211v31.559c0 2.8398 2.3008 5.1211 5.1211 5.1211s5.1211-2.2812 5.1211-5.1211v-31.559c0-2.8203-2.2812-5.1211-5.1211-5.1211z"/>
 <path d="m293.76 378.24c-2.8203 0-5.1211 2.2812-5.1211 5.1211v31.559c0 2.8398 2.3008 5.1211 5.1211 5.1211 2.8203 0 5.1211-2.2812 5.1211-5.1211v-31.559c0-2.8203-2.3008-5.1211-5.1211-5.1211z"/>
 <path d="m250.88 289.76v12.762c0 2.8398 2.3008 5.1211 5.1211 5.1211s5.1211-2.2812 5.1211-5.1211v-12.762c33-2.6211 59.059-30.219 59.059-63.863 0-45.262-58.48-92.918-60.98-94.918-1.8789-1.5195-4.5586-1.5195-6.4219 0-2.4805 2-60.98 49.66-60.98 94.918 0.019531 33.641 26.082 61.242 59.078 63.863zm5.1211-148.08c12.082 10.52 53.938 49.5 53.938 84.238 0 27.98-21.48 51.02-48.82 53.621v-86.504c0-2.8398-2.3008-5.1211-5.1211-5.1211-2.8203 0-5.1211 2.2812-5.1211 5.1211v86.504c-27.359-2.5781-48.82-25.641-48.82-53.621 0-34.719 41.859-73.719 53.938-84.238z"/>
</svg>
