<?xml version="1.0" encoding="UTF-8"?>
<svg width="512pt" height="512pt" version="1.1" viewBox="0 0 512 512" xmlns="http://www.w3.org/2000/svg">
 <path d="m94.277 278.75h10.164v73.652c0 2.0586 1.2344 3.918 3.1289 4.7188 0.64063 0.26953 1.3164 0.40234 1.9883 0.40234 1.3086 0 2.5977-0.50391 3.5742-1.4531l41.344-40.285v23.168c0 23.754 19.324 43.078 43.078 43.078h56.316l79.352 77.324c0.97266 0.94531 2.2617 1.4492 3.5703 1.4492 0.67188 0 1.3477-0.13281 1.9883-0.40234 1.8984-0.80078 3.1289-2.6562 3.1289-4.7188l0.003906-73.656h75.805c23.754 0 43.078-19.324 43.078-43.078v-141.39c0-23.754-19.324-43.078-43.078-43.078h-60.203v-60.199c0-23.758-19.324-43.082-43.078-43.082h-220.16c-23.754 0-43.078 19.324-43.078 43.078v141.39c0 23.758 19.324 43.082 43.078 43.082zm323.44-114.03c18.109 0 32.84 14.73 32.84 32.836v141.39c0 18.109-14.734 32.836-32.84 32.836l-80.926 0.003906c-2.8281 0-5.1211 2.293-5.1211 5.1211v66.637l-72.148-70.305c-0.95313-0.92969-2.2383-1.4531-3.5742-1.4531h-58.395c-18.109 0-32.836-14.73-32.836-32.836v-33.145l27.766-27.059h121.95c23.754 0 43.078-19.324 43.078-43.078v-70.949zm-356.28-70.438c0-18.109 14.734-32.84 32.84-32.84h220.16c18.109 0 32.84 14.734 32.84 32.84v141.39c0 18.109-14.734 32.836-32.84 32.836h-124.04c-1.3359 0-2.6172 0.52344-3.5742 1.4531l-72.145 70.305v-66.637c0-2.8281-2.293-5.1211-5.1211-5.1211h-15.285c-18.109 0-32.84-14.73-32.84-32.836z"/>
</svg>
