<?xml version="1.0" encoding="UTF-8"?>
<svg width="512pt" height="512pt" version="1.1" viewBox="0 0 512 512" xmlns="http://www.w3.org/2000/svg">
 <path d="m192 321.02c5.6328 4.6094 13.312 7.6797 20.48 7.6797h3.0703c7.6797-0.51172 14.336-4.0977 19.457-9.2148 2.5586 0.51172 5.6328 0.51172 8.1914 0.51172 9.7266 0 19.969-3.0703 28.672-8.7031 11.777-7.6797 19.969-18.945 22.527-31.742 7.168-35.328-26.113-92.16-27.648-94.207-0.51172-0.51172-0.51172-1.0234-1.0234-1.0234l-0.51172-0.51172c-0.51172-0.51172-1.0234-0.51172-2.0469-1.0234h-2.0469-0.51172c-0.51172 0-1.0234 0.51172-1.5352 0.51172-2.0469 1.5352-53.762 41.473-62.465 75.266-12.801-1.5352-24.062-1.0234-24.574-1.0234-0.51172 0-1.0234 0-1.5352 0.51172h-0.51172c-0.51172 0.51172-1.0234 0.51172-1.5352 1.5352v0.51172c-0.51172 0.51172-0.51172 1.0234-0.51172 1.5352v0.51172 1.5352c0.50781 1.5312 6.6523 43.004 24.059 57.34zm34.816-42.496c4.6094 3.5859 7.168 9.2148 8.1914 14.848 0.51172 4.0977-0.51172 8.1914-2.0469 11.777l-45.055-37.375c12.797 1.0234 30.719 3.582 38.91 10.75zm-11.777 39.426c-6.1445 0.51172-11.777-1.0234-16.383-5.1211-8.1914-6.6562-14.336-23.551-17.406-36.863l45.055 37.375c-3.5859 2.5586-7.168 4.0977-11.266 4.6094zm70.145-40.449c-3.5859 18.434-22.016 32.258-41.473 32.258l21.504-107.01c9.7305 17.918 24.578 52.223 19.969 74.75zm-29.695-76.801-15.359 77.312c-1.5352-2.5586-4.0977-5.1211-6.1445-7.168-6.6562-5.1211-15.871-8.7031-25.602-10.238 5.6328-21.504 31.746-46.594 47.105-59.906z"/>
 <path d="m328.7 68.098c-0.51172-1.0234-1.5352-2.0469-2.5586-2.5586-1.0234-0.51172-2.5586-0.51172-4.0977 0l-203.26 84.477c-2.5586 1.0234-4.0977 4.0977-2.5586 6.6562l4.0977 10.238-26.113 5.1211c-1.5352 0.51172-2.5586 1.0234-3.0703 2.0469s-1.0234 2.5586-1.0234 4.0977l2.5586 13.824-5.6367 0.51172c-2.5586 0.51172-4.6094 3.0703-4.0977 6.1445 0.51172 2.5586 2.5586 4.0977 5.1211 4.0977h1.0234l5.6328-1.0234 2.5586 12.289-5.6289 1.0195c-2.5586 0.51172-4.6094 3.0703-4.0977 6.1445 0.51172 2.5586 2.5586 4.0977 5.1211 4.0977h1.0234l5.6328-1.0234 2.5586 12.289-5.6328 1.0234c-2.5586 0.51172-4.6094 3.0703-4.0977 6.1445 0.51172 2.5586 2.5586 4.0977 5.1211 4.0977h1.0234l5.6328-1.0234 2.5586 12.289-5.6328 1.0234c-2.5586 0.51172-4.6094 3.0703-4.0977 6.1445 0.51172 2.5586 2.5586 4.0977 5.1211 4.0977h1.0234l5.6328-1.0234 2.5586 12.289-5.6328 1.0234c-2.5586 0.51172-4.6094 3.0703-4.0977 6.1445 0.51172 2.5586 2.5586 4.0977 5.1211 4.0977h1.0234l5.6328-1.0234 2.5586 12.289-5.6328 1.0234c-2.5586 0.51172-4.6094 3.0703-4.0977 6.1445 0.51172 2.5586 2.5586 4.0977 5.1211 4.0977h1.0234l5.6328-1.0234 2.5586 12.289-6.6445 1.0078c-2.5586 0.51172-4.6094 3.0703-4.0977 6.1445 0.51172 2.5586 2.5586 4.0977 5.1211 4.0977h1.0234l5.6328-1.0234 2.5586 12.289-6.1406 1.0195c-2.5586 0.51172-4.6094 3.0703-4.0977 6.1445 0.51172 2.5586 2.5586 4.0977 5.1211 4.0977h1.0234l5.6328-1.0234 2.5586 12.289-5.6328 1.0234c-2.5586 0.51172-4.6094 3.0703-4.0977 6.1445 0.51172 2.5586 2.5586 4.0977 5.1211 4.0977h1.0234l5.6328-1.0234 2.5586 12.289-5.6328 1.0234c-2.5586 0.51172-4.6094 3.0703-4.0977 6.1445 0.51172 2.5586 2.5586 4.0977 5.1211 4.0977h1.0234l5.6328-1.0234 2.5586 12.289-5.6328 1.0234c-2.5586 0.51172-4.6094 3.0703-4.0977 6.1445 0.51172 2.5586 2.5586 4.0977 5.1211 4.0977h1.0234l5.6328-1.0234 2.5586 12.289-6.6484 1.0117c-2.5586 0.51172-4.6094 3.0703-4.0977 6.1445 0.51172 2.5586 2.5586 4.0977 5.1211 4.0977h1.0234l5.6328-1.0234 3.0703 16.383c0.51172 1.5352 1.0234 2.5586 2.0469 3.0703 1.0234 0.51172 2.0469 1.0234 3.0703 1.0234h1.0234l216.06-41.984c2.5586-0.51172 4.6094-3.0703 4.0977-6.1445l-8.6992-44.543 75.266-31.23c1.0234-0.51172 2.0469-1.5352 2.5586-2.5586 0.51172-1.0234 0.51172-2.5586 0-4.0977zm-173.57 390.66-2.0469-11.777 5.6328-1.0234c2.5586-0.51172 4.6094-3.0703 4.0977-6.1445-0.51172-2.5586-3.0703-4.6094-6.1445-4.0977l-5.6328 1.0234-2.5625-11.773 5.6328-1.0234c2.5586-0.51172 4.6094-3.0703 4.0977-6.1445-0.51172-3.0703-3.0703-4.6094-6.1445-4.0977l-5.1211 1.0234-2.5586-12.289 5.6328-1.0234c2.5586-0.51172 4.6094-3.0703 4.0977-6.1445-0.51172-2.5586-3.0703-4.6094-6.1445-4.0977l-5.6328 1.0234-2.5586-12.289 5.6328-1.0234c2.5586-0.51172 4.6094-3.0703 4.0977-6.1445-0.51172-3.0703-3.0703-4.6094-6.1445-4.0977l-5.6328 1.0234-2.5586-12.289 5.6328-1.0234c2.5586-0.51172 4.6094-3.0703 4.0977-6.1445-0.51172-3.0703-3.0703-4.6094-6.1445-4.0977l-5.6328 1.0234-2.5586-12.289 5.6328-1.0234c2.5586-0.51172 4.6094-3.0703 4.0977-6.1445-0.51172-3.0703-3.0703-4.6094-6.1445-4.0977l-5.6328 1.0234-1.5469-12.273 5.6328-1.0234c2.5586-0.51172 4.6094-3.0703 4.0977-6.1445-0.51172-3.0703-3.0703-4.6094-6.1445-4.0977l-5.6328 1.0234-2.5586-12.289 5.6328-1.0234c2.5586-0.51172 4.6094-3.0703 4.0977-6.1445-0.51172-3.0703-3.0703-4.6094-6.1445-4.0977l-5.6328 1.0234-2.5625-12.281 5.6328-1.0234c2.5586-0.51172 4.6094-3.0703 4.0977-6.1445-0.51172-3.0703-3.0703-4.6094-6.1445-4.0977l-5.6328 1.0234-2.5586-12.289 5.6328-1.0234c2.5586-0.51172 4.6094-3.0703 4.0977-6.1445-0.51172-3.0703-3.0703-4.6094-6.1445-4.0977l-5.6328 1.0234-2.5586-12.289 5.6328-1.0234c2.5586-0.51172 4.6094-3.0703 4.0977-6.1445-0.51172-3.0703-3.0703-4.6094-6.1445-4.0977l-5.6328 1.0234-2.5586-12.289 5.6328-1.0234c2.5586-0.51172 4.6094-3.0703 4.0977-6.1445-0.51172-2.5586-3.0703-4.6094-6.1445-4.0977l-4.6211 1.0352-1.5352-8.7031 163.84-31.742 42.496-8.1914 54.273 278.02zm206.34-92.16-45.566-232.96c-0.51172-1.5352-1.0234-2.5586-2.0469-3.0703s-2.5586-1.0234-4.0977-1.0234l-179.71 35.328c0-0.51172 0-1.0234-0.51172-1.5352l-2.5586-6.1445 194.55-80.387 108.54 261.63z"/>
 <path d="m181.76 381.44c-2.5586 0.51172-4.6094 3.0703-4.0977 6.1445 0.51172 2.5586 2.5586 4.0977 5.1211 4.0977h1.0234l124.93-24.574c2.5586-0.51172 4.6094-3.0703 4.0977-6.1445-0.51172-2.5586-3.0703-4.6094-6.1445-4.0977z"/>
 <path d="m186.37 404.48c-2.5586 0.51172-4.6094 3.0703-4.0977 6.1445 0.51172 2.5586 2.5586 4.0977 5.1211 4.0977h1.0234l124.93-24.574c2.5586-0.51172 4.6094-3.0703 4.0977-6.1445-0.51172-3.0703-3.0703-4.6094-6.1445-4.0977z"/>
</svg>
