<?xml version="1.0" encoding="UTF-8"?>
<svg width="512pt" height="512pt" version="1.1" viewBox="0 0 512 512" xmlns="http://www.w3.org/2000/svg">
 <path d="m95.621 295.02c-10.734 6.1992-18.41 16.203-21.617 28.176-3.207 11.973-1.5625 24.477 4.6328 35.207 8.5859 14.871 24.211 23.191 40.262 23.191 7.8633 0 15.832-2 23.121-6.2031 20.656-11.93 28.66-37.445 19.285-58.801l23.57-13.605c14.395 21.719 38.457 36.414 66.004 38.059v27.262c-23.18 2.5586-41.277 22.25-41.277 46.102 0 25.582 20.816 46.398 46.398 46.398s46.398-20.816 46.398-46.398c0-23.852-18.098-43.543-41.277-46.102v-27.262c27.547-1.6484 51.613-16.34 66.008-38.062l23.57 13.605c-9.375 21.355-1.375 46.871 19.285 58.801 7.2891 4.2031 15.254 6.2031 23.121 6.2031 16.051 0 31.676-8.3242 40.262-23.191 6.1992-10.734 7.8438-23.234 4.6367-35.207-3.207-11.969-10.887-21.977-21.617-28.176-20.66-11.922-46.758-6.0938-60.562 12.699l-23.602-13.625c5.7539-11.477 9.0781-24.387 9.0781-38.086s-3.3242-26.609-9.0859-38.09l23.645-13.652c8.9375 12.156 22.973 18.93 37.398 18.93 7.8633 0 15.836-2 23.121-6.2031 10.734-6.1992 18.41-16.203 21.617-28.176 3.207-11.973 1.5625-24.477-4.6328-35.207-12.793-22.16-41.223-29.77-63.383-16.984-20.656 11.93-28.66 37.445-19.285 58.801l-23.57 13.605c-14.395-21.723-38.457-36.418-66.004-38.062v-27.262c23.18-2.5586 41.277-22.25 41.277-46.102 0-25.582-20.816-46.398-46.398-46.398s-46.398 20.816-46.398 46.398c0 23.852 18.098 43.543 41.277 46.102v27.262c-27.547 1.6484-51.613 16.34-66.008 38.062l-23.57-13.605c9.375-21.355 1.375-46.871-19.285-58.801-22.152-12.785-50.582-5.168-63.379 16.984-6.1992 10.734-7.8438 23.234-4.6367 35.207 3.207 11.969 10.887 21.977 21.617 28.176 7.2891 4.207 15.254 6.2031 23.121 6.2031 14.422 0 28.465-6.7734 37.398-18.93l23.645 13.652c-5.7578 11.48-9.082 24.391-9.082 38.09s3.3242 26.609 9.0859 38.09l-23.605 13.629c-13.805-18.797-39.902-24.621-60.559-12.703zm266.25 22.105c4.8281-8.3633 12.625-14.348 21.953-16.848 9.3359-2.5 19.074-1.2188 27.441 3.6133 17.266 9.9727 23.199 32.129 13.23 49.395-9.9727 17.262-32.133 23.199-49.391 13.234-17.266-9.9688-23.203-32.129-13.234-49.395zm13.234-171.64c5.6797-3.2812 11.887-4.8359 18.016-4.8359 12.508 0 24.688 6.4844 31.375 18.074 9.9688 17.266 4.0352 39.422-13.234 49.391-8.3672 4.8281-18.105 6.1133-27.441 3.6133-9.3281-2.5-17.125-8.4844-21.953-16.848-9.9648-17.266-4.0312-39.426 13.238-49.395zm-246.92 66.242c-9.332 2.5-19.078 1.2188-27.441-3.6133-17.266-9.9727-23.199-32.129-13.23-49.395 6.6914-11.586 18.867-18.074 31.375-18.074 6.1289 0 12.34 1.5586 18.016 4.8359 17.266 9.9688 23.203 32.129 13.234 49.391-4.8281 8.3711-12.625 14.355-21.953 16.855zm163.98 202.68c0 19.938-16.219 36.156-36.156 36.156s-36.156-16.219-36.156-36.156 16.219-36.16 36.156-36.16 36.156 16.223 36.156 36.16zm-72.312-316.8c0-19.938 16.219-36.156 36.156-36.156s36.156 16.219 36.156 36.156-16.219 36.16-36.156 36.16-36.156-16.223-36.156-36.16zm36.156 83.344c41.387 0 75.059 33.672 75.059 75.059s-33.672 75.059-75.059 75.059-75.059-33.672-75.059-75.059 33.672-75.059 75.059-75.059zm-119.1 185.57c-17.266 9.9727-39.422 4.0312-49.391-13.234s-4.0352-39.422 13.234-49.391c8.3633-4.8281 18.109-6.1133 27.441-3.6133 9.3281 2.5 17.125 8.4844 21.953 16.848 9.9648 17.262 4.0312 39.422-13.238 49.391z"/>
</svg>
