<?xml version="1.0" encoding="UTF-8"?>
<svg width="512pt" height="512pt" version="1.1" viewBox="0 0 512 512" xmlns="http://www.w3.org/2000/svg">
 <path d="m423.68 200.86-17.781-113.52c-1.9805-12.621-11.34-22.539-23.879-25.281-22.68-4.9609-62.98-10.859-126.02-10.859s-103.34 5.8984-126.02 10.859c-12.52 2.7383-21.898 12.66-23.879 25.281l-17.781 113.52-26.879 50.441c-6.6992 12.578-10.238 26.738-10.238 40.961v89.777c0 2.8398 2.3008 5.1211 5.1211 5.1211h14.582v38.738c0 19.238 15.66 34.898 34.898 34.898 19.238 0 34.922-15.66 34.922-34.922v-38.738h230.56v38.738c0 19.262 15.66 34.922 34.922 34.922s34.922-15.66 34.922-34.922v-38.738l14.559 0.019531c2.8203 0 5.1211-2.2812 5.1211-5.1211v-89.777c0-14.238-3.5391-28.379-10.238-40.941zm26.879 91.402v35.84h-51.703c-12.32 0-22.34-10.02-22.34-22.34 0-12.32 10.02-22.34 22.34-22.34h51.18c0.33984 2.9414 0.51953 5.8789 0.51953 8.8398zm-388.6-8.8398h51.18c12.32 0 22.34 10.02 22.34 22.34 0 12.32-10.02 22.34-22.34 22.34h-51.703v-35.84c0-2.9609 0.17969-5.8984 0.51953-8.8398zm68.52 142.46c0 13.621-11.082 24.68-24.68 24.68-13.602 0-24.68-11.059-24.68-24.68v-38.738h49.34zm300.38 0c0 13.621-11.059 24.68-24.66 24.68-13.602 0-24.68-11.059-24.68-24.68v-38.738h49.34zm-369.42-48.961v-38.559h51.703c17.961 0 32.582-14.621 32.582-32.582 0-17.961-14.621-32.582-32.582-32.582h-49.281c1.5195-5.918 3.7188-11.66 6.6016-17.039l27.301-51.219c0.28125-0.5 0.46094-1.0586 0.53906-1.6211l17.898-114.36c1.3203-8.418 7.582-15.039 15.941-16.859 22.219-4.8789 61.723-10.66 123.86-10.66 62.137 0 101.64 5.7812 123.84 10.621 8.3594 1.8398 14.641 8.4414 15.941 16.859l17.898 114.36c0.078125 0.55859 0.28125 1.1211 0.53906 1.6211l27.301 51.219c2.8789 5.3984 5.0781 11.141 6.6016 17.039h-49.281c-17.961 0-32.582 14.621-32.582 32.582 0 17.961 14.621 32.582 32.582 32.582l51.723 0.019532v38.559z"/>
 <path d="m256 157.72c-31 0-56.203 25.34-56.203 56.48 0 31.16 25.199 56.5 56.203 56.5s56.203-25.34 56.203-56.5c0-31.141-25.199-56.48-56.203-56.48zm0 102.74c-25.34 0-45.961-20.762-45.961-46.262s20.621-46.238 45.961-46.238 45.961 20.762 45.961 46.238c0 25.52-20.621 46.262-45.961 46.262z"/>
 <path d="m256 138.16c2.8203 0 5.1211-2.2812 5.1211-5.1211v-21.559c0-2.8398-2.3008-5.1211-5.1211-5.1211s-5.1211 2.2812-5.1211 5.1211v21.559c0 2.8203 2.3008 5.1211 5.1211 5.1211z"/>
 <path d="m194.98 160.42c1 1 2.3203 1.5 3.6211 1.5 1.3008 0 2.6211-0.5 3.6211-1.5 2-2 2-5.2383 0-7.2383l-15.238-15.238c-2-2-5.2383-2-7.2383 0s-2 5.2383 0 7.2383z"/>
 <path d="m179.94 214.2c0-2.8398-2.3008-5.1211-5.1211-5.1211h-21.559c-2.8203 0-5.1211 2.2812-5.1211 5.1211 0 2.8398 2.3008 5.1211 5.1211 5.1211h21.559c2.8203 0 5.1211-2.2812 5.1211-5.1211z"/>
 <path d="m194.98 267.98-15.238 15.238c-2 2-2 5.2383 0 7.2383 1 1 2.3203 1.5 3.6211 1.5s2.6211-0.5 3.6211-1.5l15.238-15.238c2-2 2-5.2383 0-7.2383s-5.2383-2-7.2383 0z"/>
 <path d="m256 290.26c-2.8203 0-5.1211 2.2812-5.1211 5.1211v21.559c0 2.8398 2.3008 5.1211 5.1211 5.1211s5.1211-2.2812 5.1211-5.1211v-21.559c0-2.8203-2.3008-5.1211-5.1211-5.1211z"/>
 <path d="m317.02 268c-2-2-5.2383-2-7.2383 0s-2 5.2383 0 7.2383l15.238 15.238c1 1 2.3203 1.5 3.6211 1.5s2.6211-0.5 3.6211-1.5c2-2 2-5.2383 0-7.2383z"/>
 <path d="m358.74 209.08h-21.559c-2.8203 0-5.1211 2.2812-5.1211 5.1211s2.3008 5.1211 5.1211 5.1211h21.559c2.8203 0 5.1211-2.2812 5.1211-5.1211 0-2.8203-2.3008-5.1211-5.1211-5.1211z"/>
 <path d="m313.4 161.92c1.3203 0 2.6211-0.5 3.6211-1.5l15.238-15.238c2-2 2-5.2383 0-7.2383s-5.2383-2-7.2383 0l-15.238 15.238c-2 2-2 5.2383 0 7.2383 1 1 2.3008 1.5 3.6211 1.5z"/>
</svg>
