<?xml version="1.0" encoding="UTF-8"?>
<svg width="512pt" height="512pt" version="1.1" viewBox="0 0 512 512" xmlns="http://www.w3.org/2000/svg">
 <path d="m125.05 220.73-12.035-8.4258c-1.1289-0.78516-2.5312-1.1016-3.875-0.83594-1.3516 0.25-2.5469 1.0352-3.3125 2.1758l-53.754 80.027c-1.5547 2.3164-0.96875 5.4492 1.3125 7.0508l38.824 27.18-6.8242 9.5586c-4.3242 6.0586-6.0312 13.438-4.8008 20.781 1.2266 7.3398 5.2383 13.762 11.297 18.086 4.8984 3.4961 10.551 5.1758 16.152 5.1758 1.6953 0 3.3789-0.19922 5.043-0.50391-0.71875 3.375-0.84375 6.8828-0.25781 10.391 1.2266 7.3398 5.2383 13.762 11.297 18.086 4.8984 3.4961 10.547 5.1758 16.152 5.1758 3.1484 0 6.2812-0.54688 9.2539-1.5859-0.007812 1.5781 0.058594 3.1641 0.32422 4.75 1.2266 7.3438 5.2383 13.766 11.297 18.09 4.8984 3.4961 10.547 5.1758 16.152 5.1758 5.0234 0 9.9844-1.3945 14.348-4 0.023437 0.14844 0.003906 0.29297 0.03125 0.44141 1.2266 7.3398 5.2383 13.766 11.297 18.09 4.8984 3.4961 10.551 5.1758 16.148 5.1758 8.7031 0 17.289-4.0586 22.723-11.668l7.8359-10.973 18.902 13.234c4.8516 3.3984 10.422 5.0273 15.941 5.0273 8.7969 0 17.453-4.1406 22.871-11.871 3.8164-5.4531 5.3984-11.949 4.793-18.504 3.9453 2.043 8.2695 3.1289 12.695 3.1289 1.625 0 3.2656-0.14062 4.8984-0.42969 7.332-1.293 13.719-5.3633 17.988-11.457 3.9844-5.6875 5.5703-12.504 4.7344-19.34 3.1211 1.1836 6.3984 1.8594 9.7539 1.8594 1.625 0 3.2656-0.14062 4.8984-0.42969 7.332-1.293 13.719-5.3633 17.988-11.457 3.7891-5.4062 5.375-11.84 4.8125-18.34 4.4297 2.6445 9.3203 4.0039 14.203 4.0039 8.7891 0 17.453-4.1406 22.867-11.871 4.2656-6.0977 5.9062-13.492 4.6133-20.824-0.89844-5.1016-3.2148-9.6914-6.5547-13.484l33.793-26.848c2.0938-1.6641 2.5547-4.6523 1.0625-6.8711l-54.164-80.438c-0.76563-1.1406-1.9609-1.9219-3.3125-2.1758-1.3438-0.25391-2.7461 0.050782-3.8711 0.83984l-12.039 8.4258c-12.742 8.9258-37.285 5.1406-54.684-2.1562l-23.438-9.8203c-17.098-7.1641-35.941-6.6055-52.375 0.98047-16.578-7.6406-35.613-8.0508-52.488-0.98047l-23.441 9.8203c-17.688 7.4219-42.477 11.391-55.078 2.5586zm-27.223 147.26c-7.9102-5.6445-9.7539-16.672-4.1094-24.582l10.559-14.789c3.4336-4.8164 8.8633-7.3789 14.371-7.3789 3.543 0 7.1211 1.0625 10.215 3.2734 3.832 2.7344 6.3711 6.7969 7.1484 11.441 0.77344 4.6406-0.30469 9.3086-3.0391 13.141l-5.2773 7.3945-5.2812 7.3984c-5.6445 7.9102-16.676 9.7461-24.586 4.1016zm32.234 33.148c-7.9102-5.6445-9.7539-16.672-4.1094-24.582l4.7969-6.7188 0.003906-0.003906 5.2773-7.3945 10.078-14.113c3.4336-4.8125 8.8633-7.3789 14.371-7.3789 3.543 0 7.1172 1.0625 10.215 3.2734 3.832 2.7344 6.3711 6.7969 7.1484 11.441 0.77344 4.6445-0.30469 9.3086-3.0391 13.141l-20.152 28.23c-5.6523 7.9102-16.676 9.7539-24.59 4.1055zm37.027 26.43c-3.8359-2.7344-6.3711-6.7969-7.1484-11.441-0.77344-4.6406 0.30078-9.3086 3.0391-13.141l20.152-28.23c3.4336-4.8164 8.8633-7.3789 14.371-7.3789 3.543 0 7.1211 1.0625 10.215 3.2734 3.832 2.7344 6.3711 6.7969 7.1445 11.441 0.77734 4.6406-0.30078 9.3086-3.0391 13.141l-15.355 21.508c-0.003906 0.003906-0.003906 0.007812-0.007813 0.011718l-4.793 6.7109c-5.6367 7.9062-16.668 9.7539-24.578 4.1055zm66.418 15.598c-5.6484 7.9141-16.676 9.7539-24.586 4.1094v-0.003906c-3.8359-2.7344-6.3711-6.7969-7.1484-11.441-0.77344-4.6367 0.30078-9.3008 3.0352-13.133l10.566-14.801c2.7344-3.832 6.7969-6.3672 11.441-7.1445 0.98438-0.16406 1.9648-0.24609 2.9414-0.24609 3.6406 0 7.1836 1.1289 10.203 3.2852 7.7695 5.543 9.6406 16.266 4.3594 24.141-0.035156 0.046875-0.089844 0.066406-0.12109 0.11719-0.078124 0.11328-0.089843 0.25-0.16016 0.36719zm70.973-225.37 23.434 9.8203c19.07 7.9961 47.414 13.074 64.516 1.1016l7.7656-5.4336 48.598 72.18-31.75 25.227-92.129-64.719c-8.6719-5.9961-18.809-8.9883-28.949-8.9883-10.23 0-20.461 3.0508-29.176 9.1445l-42.863 29.977c-7.9688 5.5781-18.977 3.6328-24.551-4.3281-2.6992-3.8555-3.7344-8.5312-2.918-13.168s3.3906-8.6758 7.2539-11.383l47.988-33.754c15.543-10.891 35.273-13.012 52.781-5.6758zm-96.953 0c11.848-4.9688 24.953-5.5195 37.082-1.8633l-46.785 32.906c-6.0938 4.2695-10.164 10.656-11.457 17.988-1.293 7.3281 0.34766 14.723 4.6133 20.82 8.8086 12.582 26.219 15.652 38.809 6.8438l42.863-29.977c13.863-9.6914 32.523-9.7383 46.398-0.14453l95.23 66.898s0.003906 0 0.003906 0.003906l0.003906 0.003906c3.8555 2.6992 6.4297 6.7383 7.2461 11.375s-0.21875 9.3164-2.918 13.172c-5.582 7.9609-16.594 9.8984-24.551 4.3281l-15.777-11.047c-0.003906-0.003906-0.003906-0.003906-0.007812-0.007813l-15.117-10.582-25.324-17.73c-0.003907 0-0.007813 0-0.007813-0.003906l-6.7578-4.7305c-2.3125-1.6211-5.5078-1.0547-7.1289 1.2617s-1.0586 5.5078 1.2617 7.1289l6.7617 4.7344 40.453 28.32c3.8516 2.6992 6.4258 6.7344 7.2422 11.367 0.81641 4.6367-0.21875 9.3164-2.9219 13.172-2.6992 3.8594-6.7383 6.4297-11.379 7.2461-4.6406 0.82031-9.3164-0.21875-13.172-2.9219l-47.207-33.051c-2.3203-1.6133-5.5078-1.0547-7.1328 1.2578-1.6211 2.3164-1.0586 5.5117 1.2578 7.1328l35.934 25.156c3.8594 2.6992 6.4336 6.7383 7.25 11.375 0.81641 4.6367-0.21875 9.3125-2.9219 13.168-2.6992 3.8594-6.7383 6.4297-11.379 7.2461-4.6445 0.80859-9.3164-0.21875-13.172-2.9219l-22.52-15.766-6.6484-4.6562h-0.003907l-6.7617-4.7344c-2.3164-1.6211-5.5078-1.0586-7.1328 1.2578-1.6211 2.3164-1.0586 5.5117 1.2578 7.1328l21.656 15.16c3.8516 2.6992 6.4258 6.7383 7.2422 11.371 0.81641 4.6367-0.21875 9.3125-2.918 13.168-5.5781 7.9609-16.586 9.9062-24.551 4.3281l-19.281-13.5c5.2852-11.848 1.6992-26.203-9.2617-34.027-6.0586-4.3281-13.43-6.0391-20.781-4.8008-0.14062 0.023438-0.26953 0.085938-0.41016 0.10938 2.2109-10.512-1.7578-21.828-11.043-28.453-7.6562-5.4648-17.141-6.4492-25.406-3.5586 0.007813-1.5859-0.058594-3.1797-0.32422-4.7773-1.2188-7.3398-5.2305-13.762-11.289-18.09-9.2812-6.625-21.277-6.6992-30.5-1.1953-0.023437-0.14062-0.003906-0.28125-0.027344-0.42578-1.2266-7.3438-5.2383-13.766-11.297-18.09-11.445-8.168-26.938-6.3242-36.34 3.6055l-35.105-24.574 48.043-71.527 7.7578 5.4336c16.953 11.863 45.566 6.6094 64.914-1.5039z"/>
 <path d="m323.18 100.73c-0.52734-1.6172-1.8242-2.8711-3.457-3.3398l-38.227-10.969-22.246-32.965c-1.9062-2.8203-6.5859-2.8203-8.4883 0l-22.246 32.965-38.223 10.969c-1.6367 0.46875-2.9297 1.7227-3.457 3.3398-0.52344 1.6211-0.21094 3.3906 0.83594 4.7344l24.477 31.34-1.3789 39.746c-0.058594 1.6992 0.73438 3.3203 2.1094 4.3203 0.88672 0.64453 1.9414 0.97656 3.0117 0.97656 0.58984 0 1.1836-0.10156 1.75-0.30859l37.371-13.594 37.371 13.594c1.5898 0.57422 3.3789 0.32813 4.7617-0.67187 1.375-1 2.1641-2.6211 2.1094-4.3203l-1.3789-39.746 24.477-31.34c1.043-1.3398 1.3555-3.1094 0.82812-4.7305zm-34.527 31.238c-0.73828 0.94922-1.1211 2.1289-1.082 3.3281l1.1797 34.023-31.992-11.637c-0.56641-0.20312-1.1562-0.30859-1.75-0.30859s-1.1836 0.10156-1.75 0.30859l-31.992 11.637 1.1836-34.023c0.039063-1.2031-0.34375-2.3789-1.082-3.3281l-20.953-26.828 32.719-9.3906c1.1562-0.33203 2.1562-1.0625 2.832-2.0586l19.043-28.219 19.043 28.219c0.67578 0.99609 1.6758 1.7266 2.832 2.0586l32.723 9.3906z"/>
 <path d="m170.84 107.05-33.961-9.75-19.762-29.285c-1.9062-2.8203-6.5859-2.8203-8.4883 0l-19.762 29.285-33.961 9.75c-1.6367 0.46875-2.9336 1.7188-3.457 3.3359-0.52344 1.6211-0.21094 3.3906 0.83594 4.7344l21.746 27.844-1.2266 35.309c-0.058594 1.6992 0.73438 3.3203 2.1094 4.3203 0.88672 0.64453 1.9414 0.97656 3.0117 0.97656 0.58984 0 1.1836-0.10156 1.75-0.30859l33.203-12.078 33.203 12.078c1.5977 0.57422 3.3789 0.33203 4.7617-0.67187 1.375-1 2.1641-2.6211 2.1094-4.3203l-1.2227-35.309 21.742-27.844c1.0469-1.3398 1.3594-3.1133 0.83594-4.7344-0.53906-1.6133-1.8359-2.8633-3.4688-3.332zm-28.34 31.082c-0.73828 0.94922-1.1211 2.125-1.082 3.3281l1.0234 29.586-27.824-10.121c-0.56641-0.20312-1.1562-0.30859-1.75-0.30859s-1.1836 0.10156-1.75 0.30859l-27.824 10.121 1.0273-29.586c0.039062-1.2031-0.34375-2.3789-1.082-3.3281l-18.223-23.332 28.457-8.168c1.1562-0.33203 2.1562-1.0625 2.832-2.0586l16.559-24.539 16.559 24.539c0.67578 0.99609 1.6758 1.7266 2.832 2.0586l28.457 8.168z"/>
 <path d="m460.55 110.39c-0.52344-1.6172-1.8242-2.8711-3.457-3.3359l-33.961-9.75-19.762-29.285c-1.9062-2.8203-6.5859-2.8203-8.4883 0l-19.762 29.285-33.961 9.75c-1.6367 0.46875-2.9297 1.7188-3.457 3.3359-0.52344 1.6211-0.21094 3.3906 0.83594 4.7344l21.742 27.844-1.2227 35.309c-0.058594 1.6992 0.73438 3.3203 2.1094 4.3203 1.3789 1 3.1602 1.2383 4.7617 0.67188l33.203-12.078 33.203 12.078c0.56641 0.20312 1.1602 0.30859 1.75 0.30859 1.0664 0 2.1211-0.33203 3.0117-0.97656 1.375-1 2.1641-2.6211 2.1094-4.3203l-1.2266-35.309 21.746-27.844c1.0352-1.3477 1.3477-3.1211 0.82422-4.7383zm-31.797 27.742c-0.73828 0.94922-1.1211 2.1289-1.082 3.3281l1.0273 29.586-27.824-10.121c-1.1289-0.41016-2.3711-0.41016-3.5 0l-27.824 10.121 1.0234-29.586c0.039062-1.2031-0.34375-2.3789-1.082-3.3281l-18.219-23.336 28.457-8.168c1.1562-0.33203 2.1562-1.0625 2.832-2.0586l16.559-24.539 16.559 24.539c0.67578 0.99609 1.6758 1.7266 2.832 2.0586l28.457 8.168z"/>
</svg>
