<?xml version="1.0" encoding="UTF-8"?>
<svg width="512pt" height="512pt" version="1.1" viewBox="0 0 512 512" xmlns="http://www.w3.org/2000/svg">
 <path d="m172.96 260.68c-1.3516 1.332-33.082 32.887-33.254 56.977-0.16797 23.887 24.094 43.133 31.344 48.344v17.582c0 2.832 2.293 5.1211 5.1211 5.1211s5.1211-2.2891 5.1211-5.1211v-17.883c8.1875-5.4766 31.172-23.023 31.344-47.52 0.17578-24.09-31.105-56.094-32.434-57.445-1.9805-2.0156-5.2227-2.0469-7.2422-0.054688zm-23.008 57.047c0.085937-11.992 11.613-28.492 21.105-39.781v75.012c-8.5391-7.293-21.211-20.59-21.105-35.23zm31.344 35.223v-75.637c9.4375 11.422 21.191 28.52 21.105 40.793-0.10547 15.301-12.52 27.93-21.105 34.844z"/>
 <path d="m332.25 215.45c-1.3516 1.332-33.082 32.879-33.254 56.977-0.16797 23.879 24.094 43.125 31.344 48.344v17.578c0 2.832 2.293 5.1211 5.1211 5.1211s5.1211-2.2891 5.1211-5.1211v-17.879c8.1875-5.4766 31.172-23.023 31.344-47.523 0.17578-24.086-31.105-56.09-32.434-57.441-1.9844-2.0156-5.2266-2.0469-7.2422-0.054687zm-23.016 57.047c0.085938-11.996 11.613-28.496 21.105-39.781v74.996c-8.543-7.3164-21.207-20.629-21.105-35.215zm31.348 35.227v-75.629c9.4375 11.434 21.191 28.527 21.105 40.777-0.11328 15.309-12.52 27.934-21.105 34.852z"/>
 <path d="m450.15 420.93v-305.42c0-2.832-2.293-5.1211-5.1211-5.1211h-48.113c-4.168-33.066-32.398-58.742-66.574-58.742s-62.406 25.676-66.574 58.742h-48.113c-2.8281 0-5.1211 2.2891-5.1211 5.1211v16.641c-9.8867-6.4922-21.684-10.297-34.367-10.297-32.562 0-59.406 24.914-62.512 56.672h-45.168c-2.8281 0-5.1211 2.2891-5.1211 5.1211l0.003906 272.04c0 2.832 2.293 5.1211 5.1211 5.1211h213c2.8281 0 5.1211-2.2891 5.1211-5.1211v-29.633h158.41c2.832 0 5.1211-2.2891 5.1211-5.1211zm-119.8-359.05c28.52 0 52.137 21.105 56.227 48.5l-112.46 0.003906c4.0977-27.402 27.715-48.504 56.234-48.504zm-109.57 95.078c3.9922 6.4102 6.668 13.711 7.5859 21.559h-7.5859zm-44.605-24.871c13.137 0 25.141 4.8789 34.367 12.875v33.562h-86.562c3.0625-26.105 25.281-46.438 52.195-46.438zm100.2 318.47h-202.76v-261.8h39.734v22.609c0 2.832 2.293 5.1211 5.1211 5.1211s5.1211-2.2891 5.1211-5.1211v-22.609h105.16v22.609c0 2.832 2.293 5.1211 5.1211 5.1211s5.1211-2.2891 5.1211-5.1211v-22.609h37.375v261.8zm163.54-34.754h-153.3v-232.16c0-2.832-2.293-5.1211-5.1211-5.1211h-42.809c-1.4453-14.762-8.0117-28.043-17.906-38.027v-19.871h42.402v26.895c0 2.832 2.293 5.1211 5.1211 5.1211s5.1211-2.2891 5.1211-5.1211v-26.895h113.84v26.895c0 2.832 2.293 5.1211 5.1211 5.1211s5.1211-2.2891 5.1211-5.1211v-26.895h42.402z"/>
</svg>
