<?xml version="1.0" encoding="UTF-8"?>
<svg width="512pt" height="512pt" version="1.1" viewBox="0 0 512 512" xmlns="http://www.w3.org/2000/svg">
 <path d="m72.359 296.12 33.559 3.9609c3.1211 10.641 7.3984 20.918 12.738 30.699l-20.961 26.559c-7.6016 9.6406-6.8008 23.461 1.8789 32.141l22.719 22.719c8.6797 8.6797 22.5 9.4805 32.141 1.8789l26.559-20.961c9.7578 5.3398 20.082 9.6211 30.699 12.738l3.9609 33.559c1.4219 12.18 11.762 21.379 24.039 21.379h32.121c12.281 0 22.621-9.1992 24.059-21.398l3.9609-33.559c10.641-3.1211 20.918-7.3984 30.699-12.738l26.559 20.961c9.6406 7.6016 23.441 6.8008 32.141-1.8789l22.719-22.719c8.6797-8.6797 9.5-22.5 1.8789-32.141l-20.961-26.559c5.3398-9.7578 9.6211-20.059 12.738-30.699l33.578-3.9609c12.199-1.4414 21.398-11.781 21.398-24.059v-32.121c0-12.281-9.1992-22.621-21.398-24.059l-33.578-3.9609c-3.1211-10.641-7.3984-20.918-12.738-30.699l20.961-26.559c7.6016-9.6406 6.8008-23.461-1.8789-32.141l-22.719-22.719c-8.6797-8.6797-22.5-9.4805-32.141-1.8789l-26.559 20.961c-9.7578-5.3398-20.059-9.6016-30.699-12.738l-3.9609-33.578c-1.4414-12.141-11.781-21.34-24.059-21.34h-32.121c-12.281 0-22.621 9.1992-24.059 21.398l-3.9609 33.559c-10.641 3.1211-20.918 7.3984-30.699 12.738l-26.559-20.961c-9.6406-7.6211-23.461-6.8008-32.141 1.8789l-22.719 22.719c-8.6797 8.6797-9.5 22.5-1.8789 32.141l20.961 26.559c-5.3398 9.7578-9.6016 20.059-12.738 30.699l-33.559 3.9609c-12.199 1.4414-21.398 11.781-21.398 24.059v32.121c0.019532 12.262 9.2188 22.602 21.422 24.039zm-11.16-56.184c0-7.0781 5.3203-13.059 12.359-13.879l36.961-4.3594c2.0781-0.23828 3.8008-1.7188 4.3398-3.7617 3.2617-12.082 8.1016-23.738 14.359-34.641 1.0391-1.8203 0.87891-4.0781-0.42188-5.7188l-23.078-29.238c-4.3984-5.5586-3.9219-13.539 1.0781-18.559l22.719-22.719c5.0195-5.0195 12.98-5.4805 18.559-1.0781l29.238 23.078c1.6406 1.3008 3.9219 1.4609 5.7188 0.42188 10.922-6.2812 22.559-11.121 34.641-14.379 2.0195-0.53906 3.5195-2.2617 3.7617-4.3398l4.3594-36.98c0.83984-7.0391 6.8008-12.34 13.898-12.34h32.121c7.0781 0 13.059 5.3203 13.879 12.34l4.3594 36.98c0.23828 2.0781 1.7188 3.8008 3.7617 4.3398 12.082 3.2617 23.738 8.1016 34.641 14.379 1.8008 1.0391 4.0781 0.87891 5.7188-0.42188l29.238-23.078c5.5586-4.3984 13.539-3.9219 18.559 1.0781l22.719 22.719c5.0195 5.0195 5.4805 12.98 1.0781 18.559l-23.078 29.238c-1.3008 1.6406-1.4609 3.9219-0.42188 5.7188 6.2812 10.898 11.121 22.559 14.359 34.641 0.53906 2.0195 2.2617 3.5 4.3398 3.7617l36.98 4.3594c7.0391 0.82031 12.359 6.8008 12.359 13.879v32.121c0 7.0781-5.3203 13.059-12.359 13.879l-36.98 4.3594c-2.0781 0.23828-3.8008 1.7383-4.3398 3.7617-3.2617 12.082-8.0781 23.738-14.359 34.641-1.0391 1.8203-0.87891 4.0781 0.42188 5.7188l23.078 29.238c4.3984 5.5586 3.9219 13.539-1.0781 18.559l-22.719 22.719c-5.0195 5.0195-13 5.4805-18.559 1.0781l-29.238-23.078c-1.6406-1.3008-3.9219-1.4609-5.7188-0.42188-10.898 6.2812-22.559 11.121-34.641 14.379-2.0195 0.53906-3.5195 2.2617-3.7617 4.3398l-4.3594 36.961c-0.82031 7.0391-6.7812 12.359-13.879 12.359h-32.121c-7.0781 0-13.059-5.3008-13.879-12.34l-4.3594-36.98c-0.23828-2.0781-1.7188-3.8008-3.7617-4.3398-12.082-3.2617-23.738-8.1016-34.641-14.379-0.80078-0.46094-1.6797-0.67969-2.5586-0.67969-1.1211 0-2.2383 0.37891-3.1602 1.1016l-29.238 23.078c-5.5586 4.3789-13.52 3.9219-18.559-1.0781l-22.719-22.719c-5.0195-5.0195-5.4805-13-1.0781-18.559l23.078-29.238c1.3008-1.6406 1.4609-3.9219 0.42188-5.7188-6.2812-10.898-11.121-22.559-14.359-34.641-0.53906-2.0195-2.2617-3.5-4.3398-3.7617l-36.961-4.3594c-7.0391-0.82031-12.359-6.8008-12.359-13.879z"/>
 <path d="m256 164.38c2.8398 0 5.1211-2.3008 5.1211-5.1211v-24.359c0-2.8203-2.2812-5.1211-5.1211-5.1211s-5.1211 2.3008-5.1211 5.1211v24.359c0 2.8203 2.2812 5.1211 5.1211 5.1211z"/>
 <path d="m203.2 174.78c0.96094 1.6406 2.6797 2.5586 4.4414 2.5586 0.87891 0 1.7617-0.21875 2.5586-0.67969 2.4414-1.4219 3.2812-4.5391 1.8789-7l-12.18-21.102c-1.4219-2.4414-4.5586-3.2812-7-1.8789-2.4414 1.4219-3.2812 4.5391-1.8789 7z"/>
 <path d="m148.56 199.88 21.102 12.18c0.80078 0.46094 1.6797 0.67969 2.5586 0.67969 1.7617 0 3.4805-0.92188 4.4414-2.5586 1.4219-2.4414 0.57813-5.5781-1.8789-7l-21.102-12.18c-2.4414-1.4219-5.5781-0.57812-7 1.8789-1.4219 2.4609-0.57812 5.5781 1.8789 7z"/>
 <path d="m134.88 261.12h24.359c2.8398 0 5.1211-2.3008 5.1211-5.1211s-2.2812-5.1211-5.1211-5.1211h-24.359c-2.8398 0-5.1211 2.3008-5.1211 5.1211s2.3008 5.1211 5.1211 5.1211z"/>
 <path d="m169.66 299.94-21.102 12.18c-2.4414 1.4219-3.2812 4.5391-1.8789 7 0.96094 1.6406 2.6797 2.5586 4.4414 2.5586 0.87891 0 1.7617-0.21875 2.5586-0.67969l21.102-12.18c2.4414-1.4219 3.2812-4.5391 1.8789-7-1.4219-2.4609-4.5586-3.3008-7-1.8789z"/>
 <path d="m210.18 335.36c-2.4414-1.4219-5.5781-0.57812-7 1.8789l-12.18 21.102c-1.4219 2.4414-0.57812 5.5781 1.8789 7 0.80078 0.46094 1.6797 0.67969 2.5586 0.67969 1.7617 0 3.4805-0.92188 4.4414-2.5586l12.18-21.102c1.4219-2.4609 0.57812-5.6016-1.8789-7z"/>
 <path d="m256 347.62c-2.8398 0-5.1211 2.3008-5.1211 5.1211v24.359c0 2.8203 2.2812 5.1211 5.1211 5.1211s5.1211-2.3008 5.1211-5.1211v-24.359c0-2.8203-2.2812-5.1211-5.1211-5.1211z"/>
 <path d="m308.8 337.22c-1.4219-2.4414-4.5586-3.2812-7-1.8789-2.4414 1.4219-3.2812 4.5391-1.8789 7l12.18 21.102c0.96094 1.6406 2.6797 2.5586 4.4414 2.5586 0.87891 0 1.7617-0.21875 2.5586-0.67969 2.4414-1.4219 3.2812-4.5391 1.8789-7z"/>
 <path d="m337.22 308.8 21.102 12.18c0.80078 0.46094 1.6797 0.67969 2.5586 0.67969 1.7617 0 3.4805-0.92188 4.4414-2.5586 1.4219-2.4414 0.57813-5.5781-1.8789-7l-21.102-12.18c-2.4414-1.4219-5.5781-0.57812-7 1.8789-1.3984 2.4609-0.55859 5.6016 1.8789 7z"/>
 <path d="m347.62 256c0 2.8203 2.2812 5.1211 5.1211 5.1211h24.359c2.8398 0 5.1211-2.3008 5.1211-5.1211s-2.2812-5.1211-5.1211-5.1211h-24.359c-2.8203 0-5.1211 2.3008-5.1211 5.1211z"/>
 <path d="m339.8 212.74c0.87891 0 1.7617-0.21875 2.5586-0.67969l21.102-12.18c2.4414-1.4219 3.2812-4.5391 1.8789-7-1.4219-2.4609-4.5586-3.3008-7-1.8789l-21.102 12.18c-2.4414 1.4219-3.2812 4.5391-1.8789 7 0.94141 1.6602 2.6602 2.5586 4.4414 2.5586z"/>
 <path d="m301.82 176.64c0.80078 0.46094 1.6797 0.67969 2.5586 0.67969 1.7617 0 3.4805-0.92187 4.4414-2.5586l12.18-21.102c1.4219-2.4414 0.57812-5.5781-1.8789-7-2.4414-1.4219-5.5781-0.57812-7 1.8789l-12.18 21.102c-1.4219 2.4609-0.57812 5.6016 1.8789 7z"/>
 <path d="m256 334.58c43.32 0 78.582-35.238 78.582-78.582 0-43.32-35.262-78.582-78.582-78.582s-78.582 35.262-78.582 78.582 35.262 78.582 78.582 78.582zm0-146.92c37.68 0 68.34 30.66 68.34 68.34 0 37.684-30.66 68.34-68.34 68.34-37.684 0-68.34-30.66-68.34-68.34 0-37.684 30.66-68.34 68.34-68.34z"/>
 <path d="m230.04 295.72c0.98047 1.4805 2.6016 2.2812 4.2617 2.2812 0.98047 0 1.9609-0.28125 2.8398-0.85938l43.441-29.02c1.5391-1.0195 2.3984-2.8008 2.2617-4.6406-0.14062-1.8398-1.2617-3.4609-2.9414-4.2383l-34.059-15.941 34.441-19.719c2.4609-1.3984 3.3008-4.5391 1.8984-6.9805-1.3984-2.4609-4.5195-3.3008-7-1.8984l-43 24.602c-1.6602 0.94141-2.6406 2.7383-2.5586 4.6602 0.078125 1.9219 1.2188 3.6211 2.9414 4.4219l34.762 16.262-35.879 23.98c-2.3594 1.5586-2.9805 4.7383-1.3984 7.1016z"/>
</svg>
