<?xml version="1.0" encoding="UTF-8"?>
<svg width="512pt" height="512pt" version="1.1" viewBox="0 0 512 512" xmlns="http://www.w3.org/2000/svg">
 <path d="m378.84 174.04c0-33.766-14.117-66.395-38.73-89.531-24.961-23.453-57.613-35.215-91.941-33.066-62.043 3.8516-112.52 55.57-114.92 117.75-1.2773 33.148 10.48 64.703 33.109 88.844 19.109 20.387 27.797 32.312 28.328 57-13.855 2.6875-24.348 14.898-24.348 29.527 0 10.387 5.293 19.559 13.32 24.965-8.0273 5.4102-13.32 14.582-13.32 24.969 0 16.59 13.496 30.09 30.09 30.09h16.129c1.7266 20.258 18.742 36.219 39.438 36.219s37.711-15.961 39.441-36.215h16.129c16.594 0 30.09-13.5 30.09-30.09 0-10.387-5.293-19.559-13.32-24.969 8.0273-5.4102 13.32-14.578 13.32-24.965 0-14.625-10.492-26.836-24.344-29.523 0.57031-25.891 10.344-37.676 28.629-57.324 21.215-22.805 32.898-52.52 32.898-83.676zm-122.84 276.52c-15.047 0-27.469-11.379-29.16-25.977h58.324c-1.6953 14.602-14.117 25.977-29.164 25.977zm75.422-56.062c0 10.945-8.9062 19.852-19.852 19.852l-111.14-0.003906c-10.945 0-19.852-8.9062-19.852-19.852 0-10.945 8.9062-19.852 19.852-19.852h111.14c10.945 0.003906 19.852 8.9102 19.852 19.855zm0-49.938c0 10.945-8.9062 19.844-19.852 19.844l-111.14 0.003906c-10.945 0-19.852-8.8984-19.852-19.844s8.9062-19.852 19.852-19.852h111.14c10.945 0 19.852 8.9023 19.852 19.848zm-101.32-147.94h-17.051l42.949-44.496 42.953 44.496h-17.051c-2.8281 0-5.1211 2.2891-5.1211 5.1211v112.73h-41.559l-0.003906-112.73c0-2.8281-2.293-5.1172-5.1172-5.1172zm76.992 117.85h-20.074v-107.61h23.992c2.0547 0 3.9102-1.2305 4.7109-3.1211 0.80078-1.8906 0.39844-4.0781-1.0312-5.5547l-55.008-56.984c-1.9297-2-5.4336-2-7.3633 0l-55.016 56.984c-1.4258 1.4766-1.832 3.6641-1.0312 5.5547 0.80078 1.8906 2.6562 3.1211 4.7109 3.1211h23.992v107.61h-20.07c-0.73828-29.488-12.395-43.504-31.078-63.434-20.738-22.129-31.516-51.059-30.348-81.453 2.1992-56.984 48.461-104.39 105.32-107.91 31.512-1.9219 61.418 8.8086 84.293 30.309 22.895 21.516 35.504 50.66 35.504 82.066 0 28.559-10.707 55.797-30.152 76.691-18.848 20.254-30.605 34.461-31.355 63.734z"/>
 <path d="m105.36 201.29-32.785-18.926c-2.457-1.4219-5.5781-0.57031-6.9961 1.875-1.4141 2.4492-0.57422 5.5781 1.875 6.9961l32.785 18.926c0.80859 0.46484 1.6875 0.68359 2.5547 0.68359 1.7695 0 3.4883-0.92188 4.4414-2.5586 1.4102-2.4531 0.57031-5.582-1.875-6.9961z"/>
 <path d="m51.199 255.93c0 2.8281 2.293 5.1211 5.1211 5.1211h37.859c2.8281 0 5.1211-2.2891 5.1211-5.1211 0-2.8281-2.293-5.1211-5.1211-5.1211h-37.859c-2.8281 0-5.1211 2.293-5.1211 5.1211z"/>
 <path d="m99.699 301.84-32.785 18.926c-2.4492 1.4141-3.2891 4.5469-1.875 6.9961 0.94922 1.6445 2.6719 2.5586 4.4414 2.5586 0.86719 0 1.7461-0.21875 2.5547-0.68359l32.785-18.926c2.4492-1.4141 3.2891-4.5469 1.875-6.9961-1.4141-2.4531-4.543-3.293-6.9961-1.875z"/>
 <path d="m406.64 310.71 32.785 18.926c0.80859 0.46484 1.6875 0.68359 2.5547 0.68359 1.7695 0 3.4883-0.92188 4.4414-2.5586 1.4141-2.4492 0.57422-5.5781-1.875-6.9961l-32.785-18.926c-2.4609-1.4219-5.5781-0.57422-6.9961 1.875-1.4102 2.4531-0.57031 5.582 1.875 6.9961z"/>
 <path d="m455.68 250.95h-37.859c-2.8281 0-5.1211 2.2891-5.1211 5.1211 0 2.8281 2.293 5.1211 5.1211 5.1211h37.859c2.8281 0 5.1211-2.2891 5.1211-5.1211 0-2.832-2.293-5.1211-5.1211-5.1211z"/>
 <path d="m409.75 210.84c0.86719 0 1.7461-0.21875 2.5547-0.68359l32.785-18.926c2.4492-1.4141 3.2891-4.5469 1.875-6.9961-1.418-2.4531-4.5469-3.2969-6.9961-1.875l-32.785 18.926c-2.4492 1.4141-3.2891 4.5469-1.875 6.9961 0.94922 1.6445 2.6719 2.5586 4.4414 2.5586z"/>
</svg>
