<?xml version="1.0" encoding="UTF-8"?>
<svg width="512pt" height="512pt" version="1.1" viewBox="0 0 512 512" xmlns="http://www.w3.org/2000/svg">
 <path d="m192.52 100.81c-4.3398 7.3359-42.426 72.367-42.426 96.113 0 24.09 18.289 43.977 41.707 46.535v43.605c0 2.8281 2.293 5.1211 5.1211 5.1211s5.1211-2.293 5.1211-5.1211v-43.605c23.418-2.5586 41.707-22.445 41.707-46.535 0-23.746-38.082-88.777-42.426-96.113-1.8359-3.1133-6.9688-3.1133-8.8047 0zm-32.184 96.113c0-13.879 18.121-49.898 31.469-74.145v110.33c-17.754-2.5-31.469-17.75-31.469-36.188zm41.707 36.191v-110.34c13.348 24.242 31.469 60.258 31.469 74.145-0.003906 18.438-13.715 33.688-31.469 36.191z"/>
 <path d="m298.07 460.1c1.5781 0.92188 3.5156 0.9375 5.0938 0.039063l21.816-12.273 21.816 12.273c0.78516 0.44141 1.6484 0.66406 2.5156 0.66406 0.89062 0 1.7852-0.23438 2.5859-0.70312 1.5703-0.91797 2.5352-2.6016 2.5352-4.418v-32.828h41.035c2.8281 0 5.1211-2.293 5.1211-5.1211l-0.003907-361.41c0-2.8281-2.293-5.1211-5.1211-5.1211h-281.77c-2.8281 0-5.1211 2.293-5.1211 5.1211v361.41c0 2.8281 2.293 5.1211 5.1211 5.1211h181.84v32.828c0 1.8164 0.96094 3.5039 2.5352 4.418zm26.91-50.191c-22.438 0-40.684-18.254-40.684-40.688 0-22.438 18.246-40.688 40.684-40.688s40.688 18.254 40.688 40.688c0 22.438-18.25 40.688-40.688 40.688zm-19.203 6.4531c4.4219 1.8086 9.1484 3.0352 14.086 3.5273v19.113l-14.086 7.9258zm24.324 22.641v-19.113c4.9414-0.49609 9.6602-1.7188 14.086-3.5312v30.566zm-211.28-26.391v-351.17h271.53v351.17h-35.918v-1.9219c12.973-9.2422 21.477-24.367 21.477-41.473 0-28.082-22.844-50.93-50.93-50.93-28.078 0-50.922 22.844-50.922 50.93 0 17.105 8.5039 32.234 21.477 41.477v1.9141z"/>
 <path d="m346.76 357.14h-43.562c-2.8281 0-5.1211 2.293-5.1211 5.1211s2.293 5.1211 5.1211 5.1211h43.562c2.8281 0 5.1211-2.293 5.1211-5.1211s-2.2969-5.1211-5.1211-5.1211z"/>
 <path d="m346.76 376.66h-43.562c-2.8281 0-5.1211 2.293-5.1211 5.1211s2.293 5.1211 5.1211 5.1211h43.562c2.8281 0 5.1211-2.293 5.1211-5.1211 0-2.8242-2.2969-5.1211-5.1211-5.1211z"/>
 <path d="m284.29 112.94h78.152c2.8281 0 5.1211-2.293 5.1211-5.1211 0-2.8281-2.293-5.1211-5.1211-5.1211l-78.152 0.003906c-2.8281 0-5.1211 2.293-5.1211 5.1211 0 2.8242 2.293 5.1172 5.1211 5.1172z"/>
 <path d="m284.29 148.79h78.152c2.8281 0 5.1211-2.293 5.1211-5.1211s-2.293-5.1211-5.1211-5.1211h-78.152c-2.8281 0-5.1211 2.293-5.1211 5.1211s2.293 5.1211 5.1211 5.1211z"/>
 <path d="m284.29 184.64h78.152c2.8281 0 5.1211-2.293 5.1211-5.1211s-2.293-5.1211-5.1211-5.1211l-78.152 0.003906c-2.8281 0-5.1211 2.293-5.1211 5.1211 0 2.8242 2.293 5.1172 5.1211 5.1172z"/>
 <path d="m284.29 220.49h78.152c2.8281 0 5.1211-2.293 5.1211-5.1211s-2.293-5.1211-5.1211-5.1211l-78.152 0.003906c-2.8281 0-5.1211 2.293-5.1211 5.1211 0 2.8242 2.293 5.1172 5.1211 5.1172z"/>
 <path d="m284.29 256.34h78.152c2.8281 0 5.1211-2.293 5.1211-5.1211s-2.293-5.1211-5.1211-5.1211h-78.152c-2.8281 0-5.1211 2.293-5.1211 5.1211s2.293 5.1211 5.1211 5.1211z"/>
 <path d="m284.29 292.19h78.152c2.8281 0 5.1211-2.293 5.1211-5.1211 0-2.8281-2.293-5.1211-5.1211-5.1211l-78.152 0.003906c-2.8281 0-5.1211 2.293-5.1211 5.1211 0 2.8242 2.293 5.1172 5.1211 5.1172z"/>
 <path d="m235.04 328.52h-78.148c-2.8281 0-5.1211 2.293-5.1211 5.1211s2.293 5.1211 5.1211 5.1211h78.152c2.8281 0 5.1211-2.293 5.1211-5.1211 0-2.8242-2.3008-5.1211-5.125-5.1211z"/>
 <path d="m235.04 364.38h-78.148c-2.8281 0-5.1211 2.293-5.1211 5.1211s2.293 5.1211 5.1211 5.1211h78.152c2.8281 0 5.1211-2.293 5.1211-5.1211s-2.3008-5.1211-5.125-5.1211z"/>
</svg>
