<?xml version="1.0" encoding="UTF-8"?>
<svg width="512pt" height="512pt" version="1.1" viewBox="0 0 512 512" xmlns="http://www.w3.org/2000/svg">
 <path d="m103 301.17c2.8281 0 5.1211-2.2891 5.1211-5.1211v-23.289c0-2.832-2.293-5.1211-5.1211-5.1211s-5.1211 2.2891-5.1211 5.1211v23.289c0 2.8359 2.2969 5.1211 5.1211 5.1211z"/>
 <path d="m103 248.02c2.8281 0 5.1211-2.2891 5.1211-5.1211v-23.289c0-2.832-2.293-5.1211-5.1211-5.1211s-5.1211 2.2891-5.1211 5.1211v23.289c0 2.832 2.2969 5.1211 5.1211 5.1211z"/>
 <path d="m138.24 301.17c2.8281 0 5.1211-2.2891 5.1211-5.1211v-23.289c0-2.832-2.293-5.1211-5.1211-5.1211s-5.1211 2.2891-5.1211 5.1211v23.289c0.003906 2.8359 2.2969 5.1211 5.1211 5.1211z"/>
 <path d="m138.24 248.02c2.8281 0 5.1211-2.2891 5.1211-5.1211v-23.289c0-2.832-2.293-5.1211-5.1211-5.1211s-5.1211 2.2891-5.1211 5.1211v23.289c0.003906 2.832 2.2969 5.1211 5.1211 5.1211z"/>
 <path d="m173.48 301.17c2.8281 0 5.1211-2.2891 5.1211-5.1211v-23.289c0-2.832-2.293-5.1211-5.1211-5.1211-2.8281 0-5.1211 2.2891-5.1211 5.1211v23.289c0 2.8359 2.293 5.1211 5.1211 5.1211z"/>
 <path d="m173.48 248.02c2.8281 0 5.1211-2.2891 5.1211-5.1211v-23.289c0-2.832-2.293-5.1211-5.1211-5.1211-2.8281 0-5.1211 2.2891-5.1211 5.1211v23.289c0 2.832 2.293 5.1211 5.1211 5.1211z"/>
 <path d="m208.71 301.17c2.8281 0 5.1211-2.2891 5.1211-5.1211v-23.289c0-2.832-2.293-5.1211-5.1211-5.1211-2.8281 0-5.1211 2.2891-5.1211 5.1211v23.289c0 2.8359 2.2969 5.1211 5.1211 5.1211z"/>
 <path d="m208.71 248.02c2.8281 0 5.1211-2.2891 5.1211-5.1211v-23.289c0-2.832-2.293-5.1211-5.1211-5.1211-2.8281 0-5.1211 2.2891-5.1211 5.1211v23.289c0 2.832 2.2969 5.1211 5.1211 5.1211z"/>
 <path d="m243.95 301.17c2.8281 0 5.1211-2.2891 5.1211-5.1211v-23.289c0-2.832-2.293-5.1211-5.1211-5.1211s-5.1211 2.2891-5.1211 5.1211v23.289c0 2.8359 2.293 5.1211 5.1211 5.1211z"/>
 <path d="m243.95 248.02c2.8281 0 5.1211-2.2891 5.1211-5.1211v-23.289c0-2.832-2.293-5.1211-5.1211-5.1211s-5.1211 2.2891-5.1211 5.1211v23.289c0 2.832 2.293 5.1211 5.1211 5.1211z"/>
 <path d="m103 397.25c-2.8281 0-5.1211 2.2891-5.1211 5.1211v23.285c0 2.832 2.293 5.1211 5.1211 5.1211s5.1211-2.2891 5.1211-5.1211v-23.285c0-2.832-2.293-5.1211-5.1211-5.1211z"/>
 <path d="m103 344.09c-2.8281 0-5.1211 2.2891-5.1211 5.1211v23.285c0 2.832 2.293 5.1211 5.1211 5.1211s5.1211-2.2891 5.1211-5.1211v-23.285c0-2.832-2.293-5.1211-5.1211-5.1211z"/>
 <path d="m138.24 397.25c-2.8281 0-5.1211 2.2891-5.1211 5.1211v23.285c0 2.832 2.293 5.1211 5.1211 5.1211s5.1211-2.2891 5.1211-5.1211v-23.285c0-2.832-2.293-5.1211-5.1211-5.1211z"/>
 <path d="m138.24 344.09c-2.8281 0-5.1211 2.2891-5.1211 5.1211v23.285c0 2.832 2.293 5.1211 5.1211 5.1211s5.1211-2.2891 5.1211-5.1211v-23.285c0-2.832-2.293-5.1211-5.1211-5.1211z"/>
 <path d="m173.48 397.25c-2.8281 0-5.1211 2.2891-5.1211 5.1211v23.285c0 2.832 2.293 5.1211 5.1211 5.1211 2.8281 0 5.1211-2.2891 5.1211-5.1211v-23.285c0-2.832-2.2969-5.1211-5.1211-5.1211z"/>
 <path d="m173.48 344.09c-2.8281 0-5.1211 2.2891-5.1211 5.1211v23.285c0 2.832 2.293 5.1211 5.1211 5.1211 2.8281 0 5.1211-2.2891 5.1211-5.1211v-23.285c0-2.832-2.2969-5.1211-5.1211-5.1211z"/>
 <path d="m208.71 397.25c-2.8281 0-5.1211 2.2891-5.1211 5.1211v23.285c0 2.832 2.293 5.1211 5.1211 5.1211 2.8281 0 5.1211-2.2891 5.1211-5.1211v-23.285c0-2.832-2.293-5.1211-5.1211-5.1211z"/>
 <path d="m208.71 344.09c-2.8281 0-5.1211 2.2891-5.1211 5.1211v23.285c0 2.832 2.293 5.1211 5.1211 5.1211 2.8281 0 5.1211-2.2891 5.1211-5.1211v-23.285c0-2.832-2.293-5.1211-5.1211-5.1211z"/>
 <path d="m243.95 397.25c-2.8281 0-5.1211 2.2891-5.1211 5.1211v23.285c0 2.832 2.293 5.1211 5.1211 5.1211s5.1211-2.2891 5.1211-5.1211v-23.285c-0.003906-2.832-2.2969-5.1211-5.1211-5.1211z"/>
 <path d="m243.95 344.09c-2.8281 0-5.1211 2.2891-5.1211 5.1211v23.285c0 2.832 2.293 5.1211 5.1211 5.1211s5.1211-2.2891 5.1211-5.1211v-23.285c-0.003906-2.832-2.2969-5.1211-5.1211-5.1211z"/>
 <path d="m279.18 301.17c2.8281 0 5.1211-2.2891 5.1211-5.1211v-23.289c0-2.832-2.293-5.1211-5.1211-5.1211s-5.1211 2.2891-5.1211 5.1211v23.289c0 2.8359 2.293 5.1211 5.1211 5.1211z"/>
 <path d="m279.18 248.02c2.8281 0 5.1211-2.2891 5.1211-5.1211v-23.289c0-2.832-2.293-5.1211-5.1211-5.1211s-5.1211 2.2891-5.1211 5.1211v23.289c0 2.832 2.293 5.1211 5.1211 5.1211z"/>
 <path d="m314.42 301.17c2.8281 0 5.1211-2.2891 5.1211-5.1211v-23.289c0-2.832-2.293-5.1211-5.1211-5.1211s-5.1211 2.2891-5.1211 5.1211v23.289c0.003906 2.8359 2.2969 5.1211 5.1211 5.1211z"/>
 <path d="m314.42 248.02c2.8281 0 5.1211-2.2891 5.1211-5.1211v-23.289c0-2.832-2.293-5.1211-5.1211-5.1211s-5.1211 2.2891-5.1211 5.1211v23.289c0.003906 2.832 2.2969 5.1211 5.1211 5.1211z"/>
 <path d="m349.66 301.17c2.8281 0 5.1211-2.2891 5.1211-5.1211v-23.289c0-2.832-2.293-5.1211-5.1211-5.1211s-5.1211 2.2891-5.1211 5.1211v23.289c0 2.8359 2.293 5.1211 5.1211 5.1211z"/>
 <path d="m349.66 248.02c2.8281 0 5.1211-2.2891 5.1211-5.1211v-23.289c0-2.832-2.293-5.1211-5.1211-5.1211s-5.1211 2.2891-5.1211 5.1211v23.289c0 2.832 2.293 5.1211 5.1211 5.1211z"/>
 <path d="m384.89 301.17c2.8281 0 5.1211-2.2891 5.1211-5.1211v-23.289c0-2.832-2.293-5.1211-5.1211-5.1211s-5.1211 2.2891-5.1211 5.1211v23.289c0 2.8359 2.2969 5.1211 5.1211 5.1211z"/>
 <path d="m384.89 248.02c2.8281 0 5.1211-2.2891 5.1211-5.1211v-23.289c0-2.832-2.293-5.1211-5.1211-5.1211s-5.1211 2.2891-5.1211 5.1211v23.289c0 2.832 2.2969 5.1211 5.1211 5.1211z"/>
 <path d="m455.68 450.56h-8.9609v-127.36c0-2.832-2.293-5.1211-5.1211-5.1211h-12.375l0.003906-129.49h5.0859c2.8281 0 5.1211-2.2891 5.1211-5.1211s-2.293-5.1211-5.1211-5.1211h-5.0859v-51.629h5.0859c2.8281 0 5.1211-2.2891 5.1211-5.1211 0-2.832-2.293-5.1211-5.1211-5.1211h-5.0859v-60.156c0-2.832-2.293-5.1211-5.1211-5.1211h-356.02c-2.8281 0-5.1211 2.2891-5.1211 5.1211v60.16h-5.0898c-2.8281 0-5.1211 2.2891-5.1211 5.1211 0 2.832 2.293 5.1211 5.1211 5.1211h5.0898v51.629h-5.0898c-2.8281 0-5.1211 2.2891-5.1211 5.1211 0 2.832 2.293 5.1211 5.1211 5.1211h5.0898v261.96h-6.6406c-2.8281 0-5.1211 2.2891-5.1211 5.1211 0 2.832 2.293 5.1211 5.1211 5.1211h399.36c2.8281 0 5.1211-2.2891 5.1211-5.1211 0-2.832-2.293-5.1211-5.1211-5.1211zm-19.199 0h-30.449v-79.359c0-2.832-2.293-5.1211-5.1211-5.1211h-76.492c-2.8281 0-5.1211 2.2891-5.1211 5.1211v79.359h-34.996l0.003907-122.24h152.18zm-68.695-74.238h28.008v74.238h-28.008zm-10.238 74.238h-28.008v-74.238h28.008zm61.438-272.21h-40.961v-51.633h40.961zm-102.79-61.871h-41.344v-55.039h41.344zm10.242-55.039h41.344v55.039h-41.344zm-61.82 55.039h-41.344v-55.039h41.344zm-51.59 0h-41.344v-55.039h41.344zm-51.578 0h-41.344v-55.039h41.344zm0 10.238v51.629h-41.344v-51.629zm10.242 0h41.344v51.629h-41.344zm51.578 0h41.344v51.629h-41.344zm51.59 0h41.344v51.629h-41.344zm51.578 0h41.344v51.629h-41.344zm92.543-10.238h-40.961v-55.039h40.961zm-345.79-55.039h36.668v55.039h-36.668zm0 65.277h36.668v51.629h-36.668zm345.79 61.871v129.49h-345.79v-129.49zm-345.79 139.73h200.86v122.24h-200.86z"/>
</svg>
