<?xml version="1.0" encoding="UTF-8"?>
<svg width="512pt" height="512pt" version="1.1" viewBox="0 0 512 512" xmlns="http://www.w3.org/2000/svg">
 <path d="m455.68 51.199h-42.238c-2.8281 0-5.1211 2.293-5.1211 5.1211v113.39h-24.109v-97.387c0-2.8281-2.293-5.1211-5.1211-5.1211h-102.5c-2.8281 0-5.1211 2.293-5.1211 5.1211v97.387h-30.934v-97.387c0-2.8281-2.293-5.1211-5.1211-5.1211h-102.5c-2.8281 0-5.1211 2.293-5.1211 5.1211v97.387h-24.105v-113.39c0-2.8281-2.293-5.1211-5.1211-5.1211h-42.238c-2.8281 0-5.1211 2.293-5.1211 5.1211v358.4c0 2.8281 2.293 5.1211 5.1211 5.1211h16v30.719h-16c-2.8281 0-5.1211 2.293-5.1211 5.1211 0 2.8281 2.293 5.1211 5.1211 5.1211h42.238c2.8281 0 5.1211-2.293 5.1211-5.1211 0-2.8281-2.293-5.1211-5.1211-5.1211h-16v-30.719h16c2.8281 0 5.1211-2.293 5.1211-5.1211v-19.199h304.64v19.199c0 2.8281 2.293 5.1211 5.1211 5.1211h16v30.719h-16c-2.8281 0-5.1211 2.293-5.1211 5.1211 0 2.8281 2.293 5.1211 5.1211 5.1211h42.238c2.8281 0 5.1211-2.293 5.1211-5.1211 0-2.8281-2.293-5.1211-5.1211-5.1211h-16v-30.719h16c2.8281 0 5.1211-2.293 5.1211-5.1211v-358.4c0-2.8281-2.293-5.1211-5.1211-5.1211zm-213.68 199.89h28v47.145h-28zm-5.1211 57.387h38.238c2.8281 0 5.1211-2.293 5.1211-5.1211v-52.266h21.891l0.003906 93.867h-92.266v-93.867h21.891l0.003907 52.266c0 2.8281 2.2891 5.1211 5.1172 5.1211zm70.375-67.629h-102.51c-2.8281 0-5.1211 2.293-5.1211 5.1211l0.003906 98.988h-95.949v-124.7h304.64v124.7h-95.949v-98.988c0-2.8281-2.293-5.1211-5.1172-5.1211zm6.5859-163.41h28v47.148h-28zm-32.133 0h21.891v52.266c0 2.8281 2.293 5.1211 5.1211 5.1211h38.238c2.8281 0 5.1211-2.293 5.1211-5.1211v-52.266h21.891v92.266h-92.262zm-111.55 0h28v47.148h-28zm-32.133 0h21.891v52.266c0 2.8281 2.293 5.1211 5.1211 5.1211h38.238c2.8281 0 5.1211-2.293 5.1211-5.1211v-52.266h21.891v92.266h-92.262zm270.29 102.51v30.078h-304.64v-30.078zm-314.88 229.65h-32v-348.16h32zm10.238-24.32v-30.078h304.64v30.078zm346.88 24.32h-32v-348.16h32z"/>
</svg>
