<?xml version="1.0" encoding="UTF-8"?>
<svg width="512pt" height="512pt" version="1.1" viewBox="0 0 512 512" xmlns="http://www.w3.org/2000/svg">
 <path d="m116.12 260.04-11.719 122.26c-0.62109 6.5586 1.5586 13.121 5.9805 18 4.4414 4.8789 10.762 7.6797 17.359 7.6797h123.14v42.578h-43.102c-2.8203 0-5.1211 2.2812-5.1211 5.1211 0 2.8398 2.3008 5.1211 5.1211 5.1211h96.461c2.8203 0 5.1211-2.2812 5.1211-5.1211 0-2.8398-2.3008-5.1211-5.1211-5.1211h-43.121v-42.578h123.14c6.6016 0 12.918-2.8008 17.359-7.6797 4.4414-4.8789 6.6211-11.441 5.9805-18l-11.719-122.26c-1.1602-12.082-11.199-21.199-23.34-21.199l-233.1-0.019532c-12.141 0-22.16 9.1211-23.32 21.219zm10.18 0.96094c0.64062-6.8008 6.3008-11.941 13.141-11.941h44.641l-3.3594 69.223h-59.898zm60.82 136.74 3.3594-69.223h60.402v69.223zm74-69.223h60.402l3.3594 69.223h-63.758zm0-10.238v-69.223h56.539l3.3594 69.223zm-10.238 0h-59.898l3.3594-69.223h56.539zm-132.92 75.121c-2.5391-2.8008-3.7188-6.3789-3.3594-10.141l5.2383-54.758h60.379l-3.3594 69.223h-49.121c-3.7812 0.019532-7.2383-1.5195-9.7812-4.3203zm276.08 0c-2.5391 2.8008-6 4.3203-9.7812 4.3203h-49.121l-3.3594-69.223 60.379 0.019531 5.2383 54.758c0.35937 3.7383-0.83984 7.3398-3.3594 10.121zm-8.3398-132.4 5.4805 57.281h-59.898l-3.3594-69.223h44.641c6.8398 0 12.48 5.1406 13.141 11.941z"/>
 <path d="m338.44 51.199c-2.8203 0-5.1211 2.2812-5.1211 5.1211 0 42.641-34.68 77.32-77.32 77.32s-77.32-34.68-77.32-77.32c0-2.8398-2.3008-5.1211-5.1211-5.1211-2.8203 0-5.1211 2.2812-5.1211 5.1211 0 48.281 39.281 87.562 87.562 87.562s87.562-39.281 87.562-87.562c0-2.8398-2.3008-5.1211-5.1211-5.1211z"/>
 <path d="m137.56 51.199h-42.82c-2.8203 0-5.1211 2.2812-5.1211 5.1211 0 2.8398 2.3008 5.1211 5.1211 5.1211h42.82c2.8203 0 5.1211-2.2812 5.1211-5.1211 0-2.8398-2.3008-5.1211-5.1211-5.1211z"/>
 <path d="m150.86 111.1-37.078 21.422c-2.4414 1.4219-3.2812 4.5391-1.8789 7 0.96094 1.6406 2.6797 2.5586 4.4414 2.5586 0.85938 0 1.7617-0.21875 2.5586-0.67969l37.078-21.422c2.4414-1.4219 3.2812-4.5391 1.8789-7-1.4219-2.4609-4.5586-3.3008-7-1.8789z"/>
 <path d="m192.34 156.34-21.398 37.078c-1.4219 2.4414-0.57812 5.5781 1.8789 7 0.80078 0.46094 1.6797 0.67969 2.5586 0.67969 1.7617 0 3.4805-0.92188 4.4414-2.5586l21.398-37.078c1.4219-2.4414 0.57812-5.5781-1.8789-7-2.4609-1.4219-5.5781-0.57813-7 1.8789z"/>
 <path d="m250.88 174.76v42.82c0 2.8398 2.3008 5.1211 5.1211 5.1211s5.1211-2.2812 5.1211-5.1211v-42.82c0-2.8398-2.3008-5.1211-5.1211-5.1211s-5.1211 2.3008-5.1211 5.1211z"/>
 <path d="m312.66 154.46c-2.4414 1.4219-3.2812 4.5391-1.8789 7l21.398 37.078c0.96094 1.6406 2.6797 2.5586 4.4414 2.5586 0.85937 0 1.7383-0.21875 2.5586-0.67969 2.4414-1.4219 3.2812-4.5391 1.8789-7l-21.398-37.078c-1.4219-2.4609-4.5391-3.3008-7-1.8789z"/>
 <path d="m354.14 112.98c-1.4219 2.4414-0.57812 5.5781 1.8789 7l37.078 21.422c0.80078 0.46094 1.6797 0.67969 2.5586 0.67969 1.7617 0 3.4805-0.92188 4.4414-2.5586 1.4219-2.4414 0.57812-5.5781-1.8789-7l-37.078-21.422c-2.4609-1.4219-5.5781-0.57812-7 1.8789z"/>
 <path d="m417.26 61.441c2.8203 0 5.1211-2.2812 5.1211-5.1211 0-2.8398-2.3008-5.1211-5.1211-5.1211h-42.82c-2.8203 0-5.1211 2.2812-5.1211 5.1211 0 2.8398 2.3008 5.1211 5.1211 5.1211z"/>
</svg>
