<?xml version="1.0" encoding="UTF-8"?>
<svg width="512pt" height="512pt" version="1.1" viewBox="0 0 512 512" xmlns="http://www.w3.org/2000/svg">
 <path d="m365.48 285.52-61.66 61.68c-5.3203 5.3398-8.2617 12.422-8.2617 19.961l-0.019532 88.52c0 2.8203 2.3008 5.1211 5.1211 5.1211 2.8203 0 5.1211-2.3008 5.1211-5.1211v-88.52c0-4.8008 1.8789-9.3203 5.2812-12.719l61.68-61.68c7.0781-7.0781 18.602-7.0781 25.699 0 3.4414 3.4414 5.3203 8 5.3203 12.84 0 4.8594-1.8789 9.418-5.3203 12.84l-38.98 38.98c-2 2-2 5.2383 0 7.2383s5.2383 2 7.2383 0l38.98-38.98c5.3594-5.3594 8.3203-12.5 8.3203-20.082 0-0.078124-0.019531-0.14062-0.019531-0.21875 0-0.039062 0.019531-0.058593 0.019531-0.10156l-0.019531-90.922c0-9.8203 7.1992-18.199 16.359-19.082 5.2383-0.48047 10.18 1.1602 14.02 4.6406 3.7812 3.4414 5.9609 8.3398 5.9609 13.441v105.84c0 9.8789-3.5586 19.441-10.039 26.922l-50.52 58.301c-4.4414 5.1406-6.8984 11.699-6.8984 18.48v32.781c0 2.8203 2.3008 5.1211 5.1211 5.1211s5.1211-2.3008 5.1211-5.1211v-32.781c0-4.3203 1.5586-8.5195 4.3984-11.781l50.52-58.301c8.0781-9.3398 12.539-21.281 12.539-33.621v-105.84c0-7.9805-3.3984-15.641-9.3008-21.02-5.918-5.3789-13.898-8-21.879-7.2617-14.379 1.3789-25.641 14.238-25.641 29.281v69.602c-11.141-9.3594-27.781-8.9219-38.262 1.5586z"/>
 <path d="m114.02 411.12c2.8398 3.2812 4.3984 7.4609 4.3984 11.781v32.781c0 2.8203 2.3008 5.1211 5.1211 5.1211 2.8203 0 5.1211-2.3008 5.1211-5.1211v-32.781c0-6.8008-2.4414-13.359-6.8984-18.48l-50.52-58.301c-6.4805-7.4805-10.039-17.039-10.039-26.922v-105.84c0-5.1016 2.1602-10 5.9609-13.441 3.8398-3.4805 8.8008-5.1211 14.02-4.6406 9.1797 0.87891 16.359 9.2617 16.359 19.082v90.941c0 0.039063 0.019531 0.078125 0.019531 0.12109 0 0.058594-0.019531 0.14062-0.019531 0.19922 0 7.582 2.9609 14.719 8.3203 20.082l38.98 38.98c2 2 5.2383 2 7.2383 0s2-5.2383 0-7.2383l-38.98-38.98c-3.4414-3.4414-5.3203-8-5.3203-12.84 0-4.8594 1.8789-9.418 5.3203-12.84 6.8594-6.8594 18.82-6.8594 25.699 0l61.66 61.66c3.3984 3.3984 5.2812 7.9219 5.2812 12.719v88.52c0 2.8203 2.3008 5.1211 5.1211 5.1211 2.8203 0 5.1211-2.3008 5.1211-5.1211v-88.52c0-7.5391-2.9414-14.641-8.2812-19.961l-61.66-61.68c-5.3594-5.3594-12.5-8.3203-20.082-8.3203-6.7383 0-13.059 2.4609-18.16 6.7383l-0.019532-69.582c0-15.039-11.262-27.898-25.641-29.281-7.9805-0.73828-15.961 1.8789-21.879 7.2617-5.918 5.3789-9.3008 13.039-9.3008 21.02v105.84c0 12.359 4.4609 24.301 12.539 33.621z"/>
 <path d="m255.76 231.06c33.82 0 61.359-27.66 61.359-61.66s-27.539-61.66-61.359-61.66c-33.816 0-61.359 27.66-61.359 61.66s27.539 61.66 61.359 61.66zm0-113.08c28.18 0 51.121 23.059 51.121 51.422 0 28.359-22.922 51.422-51.121 51.422-28.18 0-51.121-23.059-51.121-51.422 0-28.359 22.941-51.422 51.121-51.422z"/>
 <path d="m255.76 85.18c2.8203 0 5.1211-2.3008 5.1211-5.1211v-23.738c0-2.8203-2.3008-5.1211-5.1211-5.1211-2.8203 0-5.1211 2.3008-5.1211 5.1211v23.738c0 2.8203 2.3008 5.1211 5.1211 5.1211z"/>
 <path d="m318.94 111.34c1.3203 0 2.6211-0.5 3.6211-1.5l16.781-16.781c2-2 2-5.2383 0-7.2383s-5.2383-2-7.2383 0l-16.781 16.781c-2 2-2 5.2383 0 7.2383 1 1 2.3008 1.5 3.6211 1.5z"/>
 <path d="m345.1 174.52h23.738c2.8203 0 5.1211-2.3008 5.1211-5.1211 0-2.8203-2.3008-5.1211-5.1211-5.1211h-23.738c-2.8203 0-5.1211 2.3008-5.1211 5.1211 0 2.8203 2.3008 5.1211 5.1211 5.1211z"/>
 <path d="m335.72 254.48c1.3203 0 2.6211-0.5 3.6211-1.5 2-2 2-5.2383 0-7.2383l-16.781-16.781c-2-2-5.2383-2-7.2383 0s-2 5.2383 0 7.2383l16.781 16.781c1 1 2.3008 1.5 3.6211 1.5z"/>
 <path d="m250.64 258.74v23.738c0 2.8203 2.3008 5.1211 5.1211 5.1211 2.8203 0 5.1211-2.3008 5.1211-5.1211v-23.738c0-2.8203-2.3008-5.1211-5.1211-5.1211-2.8203 0-5.1211 2.3008-5.1211 5.1211z"/>
 <path d="m188.96 228.96-16.781 16.781c-2 2-2 5.2383 0 7.2383 1 1 2.3203 1.5 3.6211 1.5s2.6211-0.5 3.6211-1.5l16.781-16.781c2-2 2-5.2383 0-7.2383s-5.2383-2-7.2383 0z"/>
 <path d="m142.68 174.52h23.738c2.8203 0 5.1211-2.3008 5.1211-5.1211 0-2.8203-2.3008-5.1211-5.1211-5.1211h-23.738c-2.8203 0-5.1211 2.3008-5.1211 5.1211 0 2.8203 2.3008 5.1211 5.1211 5.1211z"/>
 <path d="m188.96 109.84c1 1 2.3203 1.5 3.6211 1.5s2.6211-0.5 3.6211-1.5c2-2 2-5.2383 0-7.2383l-16.781-16.781c-2-2-5.2383-2-7.2383 0s-2 5.2383 0 7.2383z"/>
</svg>
