<?xml version="1.0" encoding="UTF-8"?>
<svg width="512pt" height="512pt" version="1.1" viewBox="0 0 512 512" xmlns="http://www.w3.org/2000/svg">
 <path d="m68.879 351.9c-11.398 11.398-17.68 26.559-17.68 42.68s6.2812 31.281 17.68 42.68c20.121 20.121 58.238 23.582 82.203 23.582 11.859 0 20.238-0.85938 21.238-0.96094 2.3984-0.26172 4.3008-2.1602 4.5391-4.5391 0.32031-2.9805 7.4414-73.359-22.621-103.42-19.66-19.66-49.602-22.84-72.641-9.6406-13.18-26.602-20.16-56.059-20.16-86.281 0-107.28 87.281-194.56 194.56-194.56 107.28 0 194.56 87.281 194.56 194.56 0 107.28-87.281 194.56-194.56 194.56-2.8203 0-5.1211 2.3008-5.1211 5.1211 0 2.8203 2.3008 5.1211 5.1211 5.1211 112.92 0 204.8-91.879 204.8-204.8s-91.879-204.8-204.8-204.8-204.8 91.879-204.8 204.8c0 32.32 7.6211 63.781 21.879 92.098-1.4414 1.1992-2.8594 2.4609-4.1992 3.8008zm42.68-7.418c12.84 0 25.66 4.8789 35.441 14.66 22.738 22.738 21.039 75.602 20.02 90.879-15.301 1.0391-68.141 2.7188-90.879-20.02-9.4805-9.4609-14.699-22.039-14.699-35.422 0-13.379 5.2188-25.961 14.68-35.441 0.62109-0.62109 1.3008-1.1797 1.9609-1.7617 7.2383 12.68 15.82 24.68 25.758 35.699 1.8789 2.1016 5.1211 2.2812 7.2383 0.37891 2.1016-1.8984 2.2812-5.1211 0.37891-7.2383-9.6992-10.762-18.059-22.48-25.039-34.922 7.7188-4.5 16.418-6.8203 25.141-6.8203z"/>
 <path d="m190.38 256c0 36.359 29.441 65.961 65.617 65.961 36.18 0 65.617-29.602 65.617-65.961s-29.441-65.961-65.617-65.961c-36.18 0-65.617 29.602-65.617 65.961zm65.617-55.723c30.539 0 55.379 25 55.379 55.723s-24.84 55.723-55.379 55.723-55.379-25-55.379-55.723 24.84-55.723 55.379-55.723z"/>
 <path d="m261.12 159.86v-25.539c0-2.8203-2.3008-5.1211-5.1211-5.1211s-5.1211 2.3008-5.1211 5.1211v25.539c0 2.8203 2.3008 5.1211 5.1211 5.1211s5.1211-2.3008 5.1211-5.1211z"/>
 <path d="m173.58 166.34c-2-2-5.2383-2-7.2383 0s-2 5.2383 0 7.2383l18.059 18.059c1 1 2.3203 1.5 3.6211 1.5s2.6211-0.5 3.6211-1.5c2-2 2-5.2383 0-7.2383z"/>
 <path d="m159.86 250.88h-25.539c-2.8203 0-5.1211 2.3008-5.1211 5.1211s2.3008 5.1211 5.1211 5.1211h25.539c2.8203 0 5.1211-2.3008 5.1211-5.1211s-2.3008-5.1211-5.1211-5.1211z"/>
 <path d="m169.96 347.16c1.3203 0 2.6211-0.5 3.6211-1.5l18.059-18.059c2-2 2-5.2383 0-7.2383s-5.2383-2-7.2383 0l-18.059 18.059c-2 2-2 5.2383 0 7.2383 1 1 2.3008 1.5 3.6211 1.5z"/>
 <path d="m250.88 352.14v25.539c0 2.8203 2.3008 5.1211 5.1211 5.1211s5.1211-2.3008 5.1211-5.1211v-25.539c0-2.8203-2.3008-5.1211-5.1211-5.1211s-5.1211 2.3008-5.1211 5.1211z"/>
 <path d="m327.6 320.36c-2-2-5.2383-2-7.2383 0s-2 5.2383 0 7.2383l18.059 18.059c1 1 2.3203 1.5 3.6211 1.5 1.3008 0 2.6211-0.5 3.6211-1.5 2-2 2-5.2383 0-7.2383z"/>
 <path d="m352.14 261.12h25.539c2.8203 0 5.1211-2.3008 5.1211-5.1211s-2.3008-5.1211-5.1211-5.1211h-25.539c-2.8203 0-5.1211 2.3008-5.1211 5.1211s2.3008 5.1211 5.1211 5.1211z"/>
 <path d="m338.42 166.34-18.059 18.059c-2 2-2 5.2383 0 7.2383 1 1 2.3203 1.5 3.6211 1.5s2.6211-0.5 3.6211-1.5l18.059-18.059c2-2 2-5.2383 0-7.2383s-5.2383-2-7.2383 0z"/>
</svg>
