<?xml version="1.0" encoding="UTF-8"?>
<svg width="100pt" height="100pt" version="1.1" viewBox="0 0 100 100" xmlns="http://www.w3.org/2000/svg">
 <path d="m65.668 61.867v22.465h2.668l-0.003907-21.133h13.867v-2.668h-15.199c-0.73438 0.003906-1.332 0.60156-1.332 1.3359z"/>
 <path d="m70.066 66.266v18.066h2.668v-16.734h9.4648v-2.668h-10.801c-0.73047 0.003906-1.332 0.60547-1.332 1.3359z"/>
 <path d="m82.199 25.535v-2.668h-5.9336c0.60156-2.6016 2.9336-4.5352 5.668-4.5352v-2.668c-4.4648 0-8.1328 3.4648-8.4648 7.8672l-55.266 48.867c-0.39844 0.39844-0.53516 0.93359-0.33203 1.4648 0.19922 0.53516 0.66797 0.86719 1.2656 0.86719h7.3984c0.33203 0 0.66797-0.13281 0.86719-0.33203l4.7344-4.1992v14.066h2.668v-16.398l42.527-37.602h4.8672v-2.668h-5.3984c-0.33203 0-0.66797 0.13281-0.86719 0.33203l-49.934 44.203h-3.332l52.668-46.602z"/>
 <path d="m33.199 22.066c0 0.86719-0.26562 1.668-0.80078 2.0664-1.0664 0.93359-1.668 2.3984-1.668 4.0664s0.60156 3.0664 1.668 4.0664c0.46484 0.46484 0.80078 1.1992 0.80078 2.0664 0 0.86719-0.26562 1.668-0.80078 2.0664-1.0664 0.93359-1.668 2.3984-1.668 4.0664 0 1.668 0.60156 3.0664 1.668 4.0664 0.46484 0.46484 0.80078 1.1992 0.80078 2.0664 0 0.86719-0.26562 1.668-0.80078 2.0664-1.0664 0.93359-1.668 2.3984-1.668 4.0664 0 1.3984 0.46484 2.668 1.2656 3.668l2-1.8008c-0.39844-0.46484-0.60156-1.1328-0.60156-1.8672 0-0.86719 0.26562-1.668 0.80078-2.0664 1.0664-0.93359 1.668-2.3984 1.668-4.0664 0-1.668-0.60156-3.0664-1.668-4.0664-0.46484-0.46484-0.80078-1.1992-0.80078-2.0664 0-0.86719 0.26562-1.668 0.80078-2.0664 1.0664-0.93359 1.668-2.3984 1.668-4.0664 0-1.6016-0.60156-3.0664-1.668-4.0664-0.46484-0.46484-0.80078-1.1992-0.80078-2.0664 0-0.86719 0.26562-1.668 0.80078-2.0664 1.0664-0.93359 1.668-2.3984 1.668-4.0664 0-0.66797-0.13281-1.2656-0.26562-1.8672h-3c0.40234 0.46875 0.60156 1.1328 0.60156 1.8672z"/>
 <path d="m41.602 22.066c0 0.86719-0.26562 1.668-0.80078 2.0664-1.0664 0.93359-1.668 2.3984-1.668 4.0664s0.60156 3.0664 1.668 4.0664c0.46484 0.46484 0.80078 1.1992 0.80078 2.0664 0 0.86719-0.26562 1.668-0.80078 2.0664-1.0664 0.93359-1.668 2.3984-1.668 4.0664 0 1.6016 0.60156 3.0664 1.668 4.0664 0.66797 0.60156 0.93359 1.8672 0.66797 2.9336l0.46484 0.13281 2.1992-1.9336c-0.19922-1.1992-0.73437-2.332-1.5352-3.0664-0.46484-0.46484-0.80078-1.1992-0.80078-2.0664s0.26562-1.668 0.80078-2.0664c1.0664-0.93359 1.668-2.3984 1.668-4.0664 0-1.668-0.60156-3.0664-1.668-4.0664-0.46484-0.46484-0.80078-1.1992-0.80078-2.0664s0.26562-1.668 0.80078-2.0664c1.0664-0.93359 1.668-2.3984 1.668-4.0664 0-0.66797-0.13281-1.2656-0.26562-1.8672h-3c0.33203 0.40234 0.60156 1.0664 0.60156 1.8008z"/>
 <path d="m49.934 22.066c0 0.86719-0.26562 1.668-0.80078 2.0664-1.0664 0.93359-1.668 2.3984-1.668 4.0664s0.60156 3.0664 1.668 4.0664c0.46484 0.46484 0.80078 1.1992 0.80078 2.0664 0 0.86719-0.26562 1.668-0.80078 2.0664-1.4648 1.3984-2 3.8008-1.332 5.9336l2.3984-2.1328c0.066406-0.73438 0.33203-1.4648 0.73438-1.8672 1.0664-0.93359 1.668-2.3984 1.668-4.0664 0-1.6016-0.60156-3.0664-1.668-4.0664-0.46484-0.46484-0.80078-1.1992-0.80078-2.0664 0-0.86719 0.26563-1.668 0.80078-2.0664 1.0664-0.93359 1.668-2.3984 1.668-4.0664 0-0.66797-0.13281-1.2656-0.26562-1.8672h-3.0039c0.40234 0.53516 0.60156 1.1992 0.60156 1.9336z"/>
 <path d="m58.332 22.066c0 0.86719-0.26562 1.668-0.80078 2.0664-1.0664 0.93359-1.668 2.3984-1.668 4.0664s0.60156 3.0664 1.668 4.0664c0.19922 0.19922 0.39844 0.53516 0.53516 0.86719l0.26562-0.13281 1.8672-1.6016c-0.26562-0.39844-0.53516-0.80078-0.86719-1.0664-0.46484-0.46484-0.80078-1.1992-0.80078-2.0664s0.26562-1.668 0.80078-2.0664c1.0664-0.93359 1.668-2.3984 1.668-4.0664 0-0.66797-0.13281-1.2656-0.26562-1.8672h-3c0.39844 0.40234 0.59766 1.0664 0.59766 1.8008z"/>
</svg>
