<?xml version="1.0" encoding="UTF-8"?>
<svg width="512pt" height="512pt" version="1.1" viewBox="0 0 512 512" xmlns="http://www.w3.org/2000/svg">
 <path d="m315.9 203.78c0-28.16-23.039-51.199-51.199-51.199s-51.199 23.039-51.199 51.199 23.039 51.199 51.199 51.199 51.199-23.039 51.199-51.199zm-51.199 40.957c-22.527 0-40.961-18.434-40.961-40.961 0-22.527 18.434-40.961 40.961-40.961s40.961 18.434 40.961 40.961c0 22.531-18.434 40.961-40.961 40.961z"/>
 <path d="m265.21 138.75c3.0703 0 5.1211-2.0469 5.1211-5.1211v-24.062c0-3.0703-2.0469-5.1211-5.1211-5.1211-3.0703 0-5.1211 2.0469-5.1211 5.1211v24.062c0.003906 2.5586 2.0508 5.1211 5.1211 5.1211z"/>
 <path d="m260.1 273.92v24.062c0 3.0703 2.0469 5.1211 5.1211 5.1211 3.0703 0 5.1211-2.0469 5.1211-5.1211v-24.062c0-3.0703-2.0469-5.1211-5.1211-5.1211s-5.1211 2.0469-5.1211 5.1211z"/>
 <path d="m296.96 146.95c1.0234 0.51172 1.5352 0.51172 2.5586 0.51172 1.5352 0 3.5859-1.0234 4.6094-2.5586l11.777-20.992c1.5352-2.5586 0.51172-5.6328-2.0469-7.168-2.5586-1.5352-5.6328-0.51172-7.168 2.0469l-11.777 20.992c-1.5391 2.5586-0.51562 5.6289 2.0469 7.168z"/>
 <path d="m324.61 172.54c1.0234 0 1.5352 0 2.5586-0.51172l20.992-12.289c2.5586-1.5352 3.0703-4.6094 2.0469-7.168-1.5352-2.5586-4.6094-3.0703-7.168-2.0469l-20.992 12.289c-2.5586 1.5352-3.0703 4.6094-2.0469 7.168 1.5352 2.0469 3.0703 2.5586 4.6094 2.5586z"/>
 <path d="m329.73 202.24c0 2.5586 2.5586 5.1211 5.1211 5.1211l24.062-0.51172c3.0703 0 5.1211-2.5586 5.1211-5.1211 0-2.5586-2.5586-5.1211-5.1211-5.1211l-24.062 0.51172c-3.0703 0.003906-5.6328 2.0508-5.1211 5.1211z"/>
 <path d="m345.09 252.93c1.0234 0.51172 1.5352 0.51172 2.5586 0.51172 2.0469 0 3.5859-1.0234 4.6094-2.5586 1.5352-2.5586 0.51172-5.6328-2.0469-7.168l-21.504-11.777c-2.5586-1.5352-5.6328-0.51172-7.168 2.0469-1.5352 2.5586-0.51172 5.6328 2.0469 7.168z"/>
 <path d="m298.5 258.56c-2.5586 1.5352-3.0703 4.6094-1.5352 7.168l12.801 20.48c1.0234 1.5352 2.5586 2.5586 4.6094 2.5586 1.0234 0 2.0469 0 2.5586-0.51172 2.5586-1.5352 3.0703-4.6094 1.5352-7.168l-12.801-20.48c-1.5352-3.0703-4.6094-3.582-7.168-2.0469z"/>
 <path d="m227.84 262.66-11.266 21.504c-1.5352 2.5586-0.51172 5.6328 2.0469 7.168 0.51172 0.51172 1.5352 0.51172 2.5586 0.51172 2.0469 0 3.5859-1.0234 4.6094-2.5586l11.266-21.504c1.5352-2.5586 0.51172-5.6328-2.0469-7.168-3.0703-1.5391-6.1445-0.51172-7.168 2.0469z"/>
 <path d="m185.34 259.07c1.0234 0 2.0469-0.51172 2.5586-1.0234l20.48-13.312c2.5586-1.5352 3.0703-4.6094 1.5352-7.168-1.5352-2.5586-4.6094-3.0703-7.168-1.5352l-20.48 13.312c-2.5586 1.5352-3.0703 4.6094-1.5352 7.168 1.0273 1.5352 3.0742 2.5586 4.6094 2.5586z"/>
 <path d="m170.5 212.99s0.51172 0 0 0l24.574-1.0234c3.0703 0 5.1211-2.5586 4.6094-5.1211 0-3.0703-2.5586-5.1211-5.1211-4.6094l-24.062 1.0234c-3.0703 0-5.1211 2.5586-4.6094 5.1211 0 2.5625 2.0508 4.6094 4.6094 4.6094z"/>
 <path d="m178.18 165.38 21.504 10.754c0.51172 0.51172 1.5352 0.51172 2.5586 0.51172 2.0469 0 3.5859-1.0234 4.6094-2.5586 1.0234-2.5586 0.51172-5.6328-2.0469-6.6562l-21.504-10.754c-2.5586-1.0234-5.6328-0.51172-6.6562 2.0469-1.0234 2.5625-1.0234 5.1211 1.5352 6.6562z"/>
 <path d="m221.7 147.97c1.0234 1.5352 2.5586 2.0469 4.0977 2.0469 1.0234 0 2.0469-0.51172 3.0703-1.0234 2.5586-1.5352 3.0703-4.6094 1.5352-7.168l-13.312-20.48c-1.5352-2.5586-4.6094-3.0703-7.168-1.5352-2.5586 1.5352-3.0703 4.6094-1.5352 7.168z"/>
 <path d="m279.04 201.21-14.336-6.6562 14.848-8.7031c2.5586-1.5352 3.0703-4.6094 2.0469-7.168-1.5352-2.5586-4.6094-3.0703-7.168-2.0469l-23.551 13.824c-1.5352 1.0234-2.5586 2.5586-2.5586 4.6094 0 2.0469 1.0234 3.5859 3.0703 4.6094l15.359 7.168-16.383 10.754c-2.5586 1.5352-3.0703 4.6094-1.5352 7.168 1.0234 1.5352 2.5586 2.0469 4.0977 2.0469 1.0234 0 2.0469-0.51172 3.0703-1.0234l23.551-15.871c1.5352-1.0234 2.5586-2.5586 2.0469-4.6094 0.51562-1.5391-0.50781-3.0781-2.5586-4.1016z"/>
 <path d="m113.66 445.44c0 3.0703 2.0469 5.1211 5.1211 5.1211h282.11c3.0703 0 5.1211-2.0469 5.1211-5.1211l-0.003906-376.32c0-3.0703-2.0469-5.1211-5.1211-5.1211h-282.11c-3.0703 0-5.1211 2.0469-5.1211 5.1211v19.457h-8.7031c-3.0703 0-5.1211 2.0469-5.1211 5.1211 0 3.0703 2.0469 5.1211 5.1211 5.1211h8.7031v18.941h-8.7031c-3.0703 0-5.1211 2.0469-5.1211 5.1211 0 3.0703 2.0469 5.1211 5.1211 5.1211h8.7031v18.945h-8.7031c-3.0703 0-5.1211 2.0469-5.1211 5.1211 0 3.0703 2.0469 5.1211 5.1211 5.1211h8.7031v18.945h-8.7031c-3.0703 0-5.1211 2.0469-5.1211 5.1211 0 3.0703 2.0469 5.1211 5.1211 5.1211h8.7031v18.945h-8.7031c-3.0703 0-5.1211 2.0469-5.1211 5.1211 0 3.0703 2.0469 5.1211 5.1211 5.1211h8.7031v18.945h-8.7031c-3.0703 0-5.1211 2.0469-5.1211 5.1211 0 3.0703 2.0469 5.1211 5.1211 5.1211h8.7031v18.945h-8.7031c-3.0703 0-5.1211 2.0469-5.1211 5.1211 0 3.0703 2.0469 5.1211 5.1211 5.1211h8.7031v18.945h-8.7031c-3.0703 0-5.1211 2.0469-5.1211 5.1211 0 3.0703 2.0469 5.1211 5.1211 5.1211h8.7031v18.945h-8.7031c-3.0703 0-5.1211 2.0469-5.1211 5.1211 0 3.0703 2.0469 5.1211 5.1211 5.1211h8.7031v18.945h-8.7031c-3.0703 0-5.1211 2.0469-5.1211 5.1211 0 3.0703 2.0469 5.1211 5.1211 5.1211h8.7031v18.945h-8.7031c-3.0703 0-5.1211 2.0469-5.1211 5.1211 0 3.0703 2.0469 5.1211 5.1211 5.1211h8.7031v18.945h-8.7031c-3.0703 0-5.1211 2.0469-5.1211 5.1211 0 3.0703 2.0469 5.1211 5.1211 5.1211h8.7031zm10.238-52.738h8.7031c3.0703 0 5.1211-2.0469 5.1211-5.1211 0-3.0703-2.0469-5.1211-5.1211-5.1211h-8.7031v-18.945h8.7031c3.0703 0 5.1211-2.0469 5.1211-5.1211 0-3.0703-2.0469-5.1211-5.1211-5.1211h-8.7031v-18.945h8.7031c3.0703 0 5.1211-2.0469 5.1211-5.1211 0-3.0703-2.0469-5.1211-5.1211-5.1211h-8.7031v-18.945h8.7031c3.0703 0 5.1211-2.0469 5.1211-5.1211 0-3.0703-2.0469-5.1211-5.1211-5.1211h-8.7031v-18.945h8.7031c3.0703 0 5.1211-2.0469 5.1211-5.1211 0-3.0703-2.0469-5.1211-5.1211-5.1211h-8.7031v-18.945h8.7031c3.0703 0 5.1211-2.0469 5.1211-5.1211 0-3.0703-2.0469-5.1211-5.1211-5.1211h-8.7031v-18.945h8.7031c3.0703 0 5.1211-2.0469 5.1211-5.1211 0-3.0703-2.0469-5.1211-5.1211-5.1211h-8.7031v-18.945h8.7031c3.0703 0 5.1211-2.0469 5.1211-5.1211 0-3.0703-2.0469-5.1211-5.1211-5.1211h-8.7031v-18.945h8.7031c3.0703 0 5.1211-2.0469 5.1211-5.1211 0-3.0703-2.0469-5.1211-5.1211-5.1211h-8.7031v-20.961h8.7031c3.0703 0 5.1211-2.0469 5.1211-5.1211 0-3.0703-2.0469-5.1211-5.1211-5.1211h-8.7031v-18.945h8.7031c3.0703 0 5.1211-2.0469 5.1211-5.1211 0-3.0703-2.0469-5.1211-5.1211-5.1211h-8.7031v-14.336h271.87l0.003906 366.09h-271.88v-17.922h8.7031c3.0703 0 5.1211-2.0469 5.1211-5.1211 0-3.0703-2.0469-5.1211-5.1211-5.1211h-8.7031z"/>
 <path d="m353.28 336.89h-181.76c-3.0703 0-5.1211 2.0469-5.1211 5.1211 0 3.0703 2.0469 5.1211 5.1211 5.1211h181.76c3.0703 0 5.1211-2.0469 5.1211-5.1211-0.003906-3.0703-2.0508-5.1211-5.1211-5.1211z"/>
 <path d="m353.28 380.93h-181.76c-3.0703 0-5.1211 2.0469-5.1211 5.1211 0 3.0703 2.0469 5.1211 5.1211 5.1211l181.76-0.003906c3.0703 0 5.1211-2.0469 5.1211-5.1211-0.003906-3.0703-2.0508-5.1172-5.1211-5.1172z"/>
</svg>
