<?xml version="1.0" encoding="UTF-8"?>
<svg width="512pt" height="512pt" version="1.1" viewBox="0 0 512 512" xmlns="http://www.w3.org/2000/svg">
 <path d="m224.26 244.22c-1.5352 0-3.0703 1.0234-4.0977 2.0469-1.0234 1.5352-26.113 39.426-25.602 66.047 0 10.238 3.5859 19.457 9.2148 26.625 4.6094 5.6328 10.238 9.2148 16.895 10.754v33.281c0 3.0703 2.0469 5.1211 5.1211 5.1211 3.0703 0 5.1211-2.0469 5.1211-5.1211v-33.281c6.6562-1.5352 13.312-5.1211 17.922-11.777 5.6328-7.168 8.1914-16.895 8.1914-26.625-0.51172-27.137-27.137-63.488-28.672-65.023-1.0234-1.0234-2.0469-2.0469-4.0938-2.0469zm-12.289 88.578c-4.0977-5.1211-6.6562-12.289-7.168-19.969-0.51172-14.336 8.7031-33.793 15.871-46.594v73.215c-3.0703-1.5312-6.1445-3.582-8.7031-6.6523zm28.672-1.0234c-2.5586 3.5859-6.1445 6.1445-9.7266 7.168l-0.003906-70.145c7.168 12.289 15.359 29.184 15.871 43.008 0.003906 7.6797-2.0469 14.848-6.1406 19.969z"/>
 <path d="m411.65 404.48h-17.922l-10.238-312.83c0-2.5586-2.5586-5.1211-5.1211-5.1211h-37.887c-2.5586 0-5.1211 2.0469-5.1211 5.1211l-4.6094 141.82-14.336-8.7031-3.5859-83.969c0-2.5586-2.5586-5.1211-5.1211-5.1211h-22.527c-2.5586 0-5.1211 2.0469-5.1211 5.1211l-2.5586 59.902-16.379-10.75c-1.5352-1.0234-3.5859-1.0234-5.1211 0s-2.5586 2.5586-2.5586 4.6094v33.793l-7.6797-4.6133-3.5859-83.457c0-2.5586-2.5586-5.1211-5.1211-5.1211h-22.527c-2.5586 0-5.1211 2.0469-5.1211 5.1211l-2.5586 59.902-17.406-10.238c-1.5352-1.0234-3.5859-1.0234-5.1211 0-1.5352 1.0234-2.5586 2.5586-2.5586 4.6094v33.793l-6.6562-4.0977-3.5859-83.457c0-2.5586-2.5586-5.1211-5.1211-5.1211l-23.039 0.003907c-2.5586 0-5.1211 2.0469-5.1211 5.1211l-2.5586 60.414-17.922-10.754c-1.5352-1.0234-3.5859-1.0234-5.1211 0-1.5352 1.0234-2.5586 2.5586-2.5586 4.6094v209.92h-9.7266c-3.0703 0-5.1211 2.0469-5.1211 5.1211 0 3.0703 2.0469 5.1211 5.1211 5.1211h311.81c3.0703 0 5.1211-2.0469 5.1211-5.1211s-3.0742-5.6328-5.6328-5.6328zm-66.047-307.71h27.648l10.238 307.71h-47.617zm-55.809 48.637h12.801l3.0703 72.191-18.945-11.777zm-70.656 0h12.801l3.0703 71.68-18.945-11.266zm-71.168 0.51562h12.801l3.0703 72.191-18.945-11.266zm-28.16 57.344 64 38.398c1.5352 1.0234 3.5859 1.0234 5.1211 0 1.5352-1.0234 2.5586-2.5586 2.5586-4.6094v-33.793l64 38.398c1.5352 1.0234 3.5859 1.0234 5.1211 0 1.5352-1.0234 2.5586-2.5586 2.5586-4.0977l0.51172-10.238v-23.551l66.559 41.473-5.1211 159.23-205.31 0.003907z"/>
</svg>
