<?xml version="1.0" encoding="UTF-8"?>
<svg width="512pt" height="512pt" version="1.1" viewBox="0 0 512 512" xmlns="http://www.w3.org/2000/svg">
 <path d="m455.68 159.08c2.0547 0 3.9102-1.2305 4.7148-3.1211 0.80078-1.8906 0.39453-4.0781-1.0312-5.5547l-94.254-97.637c-1.9297-2-5.4414-2-7.3711 0l-94.254 97.641c-1.4258 1.4766-1.8281 3.6641-1.0312 5.5547 0.80469 1.8906 2.6602 3.1211 4.7148 3.1211h44.754l0.003906 291.48h-111.85v-66.199h44.754c2.0547 0 3.9102-1.2305 4.7148-3.1211 0.80078-1.8906 0.39453-4.0781-1.0312-5.5547l-94.25-97.637c-1.9297-2-5.4414-2-7.3711 0l-94.254 97.637c-1.4258 1.4766-1.8281 3.6641-1.0312 5.5547 0.80469 1.8906 2.6602 3.1211 4.7148 3.1211h44.762l-0.003906 66.199h-44.758c-2.8281 0-5.1211 2.2891-5.1211 5.1211 0 2.8281 2.2891 5.1211 5.1211 5.1211h399.36c2.8281 0 5.1211-2.2891 5.1211-5.1211 0-2.8281-2.2891-5.1211-5.1211-5.1211h-44.762l0.003906-291.48zm-349.48 215.04h-37.82l82.195-85.148 82.195 85.148h-37.816c-2.8281 0-5.1211 2.2891-5.1211 5.1211l0.003907 71.316h-78.516v-71.32c0-2.8281-2.2891-5.1172-5.1211-5.1172zm215.96 76.438v-296.6c0-2.8281-2.2891-5.1211-5.1211-5.1211h-37.816l82.195-85.148 82.195 85.148h-37.82c-2.8281 0-5.1211 2.2891-5.1211 5.1211l0.003907 296.6z"/>
 <path d="m150.57 249.98c54.805 0 99.391-44.586 99.391-99.387 0-54.805-44.586-99.391-99.391-99.391-54.801 0-99.387 44.586-99.387 99.391 0.003906 54.801 44.586 99.387 99.387 99.387zm0-188.54c49.156 0 89.148 39.996 89.148 89.148 0 49.156-39.996 89.145-89.148 89.145-49.156 0-89.145-39.988-89.145-89.145s39.992-89.148 89.145-89.148z"/>
 <path d="m150 154.2h1.1641c12.965 0 23.516 10.504 23.516 23.414 0 12.914-10.551 23.422-23.516 23.422-12.969 0-23.52-10.504-23.52-23.422 0-2.8281-2.2891-5.1211-5.1211-5.1211-2.8281 0-5.1211 2.2891-5.1211 5.1211 0 16.418 11.855 30.105 27.477 33.055v7.8945c0 2.8281 2.2891 5.1211 5.1211 5.1211 2.8281 0 5.1211-2.2891 5.1211-5.1211v-7.543c16.754-1.9609 29.801-16.184 29.801-33.41 0-18.555-15.141-33.656-33.754-33.656h-1.1641c-12.969 0-23.52-10.504-23.52-23.414s10.551-23.414 23.52-23.414c12.965 0 23.516 10.504 23.516 23.414 0 2.8281 2.2891 5.1211 5.1211 5.1211 2.8281 0 5.1211-2.2891 5.1211-5.1211 0-16.816-12.449-30.754-28.637-33.227v-7.7227c0-2.8281-2.2891-5.1211-5.1211-5.1211-2.8281 0-5.1211 2.2891-5.1211 5.1211v7.7227c-16.188 2.4727-28.641 16.41-28.641 33.227-0.003906 18.559 15.141 33.66 33.758 33.66z"/>
</svg>
