<?xml version="1.0" encoding="UTF-8"?>
<svg width="512pt" height="512pt" version="1.1" viewBox="0 0 512 512" xmlns="http://www.w3.org/2000/svg">
 <path d="m460.8 151.5-0.10547-2.9609c-0.14453-21.852-18.086-39.625-39.996-39.625h-49.523v-42.039c0-8.6445-7.0312-15.676-15.676-15.676h-159.59c-8.6445 0-15.676 7.0312-15.676 15.676v42.039h-60.504v-52.594c0-2.8281-2.2891-5.1211-5.1211-5.1211h-28.664c-19.156 0-34.742 15.547-34.742 34.656v0.50781 0.007813c0.17578 299.19 0.27344 300.18 0.30469 300.52 1.8984 19.141 19.125 34.137 39.227 34.137h306.3v34.656c0 2.8281 2.2891 5.1211 5.1211 5.1211h18.52c22.129 0 40.129-17.957 40.129-40.027v-269.09c0-0.035157-0.019531-0.0625-0.019531-0.09375s0.015625-0.054688 0.015625-0.085938zm-270.33-84.625c0-2.9961 2.4414-5.4336 5.4375-5.4336h159.59c2.9961 0 5.4336 2.4414 5.4336 5.4336v239.9c0 2.9961-2.4414 5.4336-5.4336 5.4336l-159.59 0.003907c-2.9961 0-5.4336-2.4414-5.4336-5.4336zm-104.53-5.4336h23.547v47.477h-25.496c-12.434 0-22.551-10.113-22.551-22.547v-0.51562c0-13.465 10.988-24.414 24.5-24.414zm4.7891 349.34c-14.895 0-27.648-10.941-29.016-24.57-0.082032-3.7969-0.21875-205.27-0.26172-276.09 5.8828 5.582 13.805 9.0352 22.535 9.0352h96.238v187.62c0 8.6445 7.0312 15.676 15.676 15.676h159.59c8.6445 0 15.676-7.0312 15.676-15.676l0.003906-187.62h49.523c16.301 0 29.648 13.215 29.762 29.602l0.10547 2.9414c-0.007812 16.418-13.414 29.77-29.891 29.77h-18.52c-2.8281 0-5.1211 2.2891-5.1211 5.1211v224.2zm359.83 9.9922c0 16.426-13.41 29.785-29.887 29.785h-13.398l-0.003907-258.86h13.398c11.859 0 22.535-5.1602 29.891-13.344z"/>
 <path d="m220.63 147.86h111.14c4.7969 0 8.6992-3.9062 8.6992-8.7031v-49.691c0-4.7969-3.9062-8.6992-8.6992-8.6992h-111.14c-4.7969 0-8.6992 3.9062-8.6992 8.6992v49.691c0 4.7969 3.9062 8.7031 8.6992 8.7031zm1.543-56.855h108.06v46.613l-108.06 0.003906z"/>
 <path d="m326.8 165.43h-31.324c-6.5508 0-11.879 5.3281-11.879 11.879v31.324c0 6.5508 5.3281 11.875 11.879 11.875h31.324c6.5508 0 11.875-5.3242 11.875-11.875v-31.324c0-6.5469-5.3242-11.879-11.875-11.879zm1.6367 43.207c0 0.89844-0.73438 1.6367-1.6367 1.6367h-31.324c-0.90625 0-1.6406-0.73438-1.6406-1.6367v-31.324c0-0.90625 0.73438-1.6406 1.6406-1.6406h31.324c0.89844 0 1.6367 0.73438 1.6367 1.6406z"/>
 <path d="m223.8 220.51h31.324c6.5508 0 11.875-5.3242 11.875-11.875v-31.324c0-6.5508-5.3242-11.879-11.875-11.879h-31.324c-6.5508 0-11.875 5.3281-11.875 11.879v31.324c0 6.5469 5.3242 11.875 11.875 11.875zm-1.6328-43.203c0-0.90625 0.73438-1.6406 1.6367-1.6406h31.324c0.89844 0 1.6367 0.73438 1.6367 1.6406v31.324c0 0.89844-0.73438 1.6367-1.6367 1.6367h-31.324c-0.89844 0-1.6367-0.73438-1.6367-1.6367z"/>
 <path d="m326.8 236.07h-31.324c-6.5508 0-11.879 5.3281-11.879 11.879v31.324c0 6.5508 5.3281 11.875 11.879 11.875h31.324c6.5508 0 11.875-5.3242 11.875-11.875v-31.324c0-6.5469-5.3242-11.879-11.875-11.879zm1.6367 43.207c0 0.89844-0.73438 1.6367-1.6367 1.6367h-31.324c-0.90625 0-1.6406-0.73438-1.6406-1.6367v-31.324c0-0.90625 0.73438-1.6406 1.6406-1.6406h31.324c0.89844 0 1.6367 0.73438 1.6367 1.6406z"/>
 <path d="m223.8 291.16h31.324c6.5508 0 11.875-5.3242 11.875-11.875v-31.324c0-6.5508-5.3242-11.879-11.875-11.879h-31.324c-6.5508 0-11.875 5.3281-11.875 11.879v31.324c0 6.5469 5.3242 11.875 11.875 11.875zm-1.6328-43.203c0-0.90625 0.73438-1.6406 1.6367-1.6406h31.324c0.89844 0 1.6367 0.73438 1.6367 1.6406v31.324c0 0.89844-0.73438 1.6367-1.6367 1.6367h-31.324c-0.89844 0-1.6367-0.73437-1.6367-1.6367z"/>
 <path d="m121.29 215.38h0.85547c8.7812 0 15.926 7.1094 15.926 15.852 0 8.7383-7.1445 15.852-15.926 15.852s-15.926-7.1094-15.926-15.852c0-2.8281-2.2891-5.1211-5.1211-5.1211-2.8281 0-5.1211 2.2891-5.1211 5.1211 0 12.328 8.6445 22.629 20.191 25.34v4.75c0 2.8281 2.2891 5.1211 5.1211 5.1211 2.8281 0 5.1211-2.2891 5.1211-5.1211v-4.4297c12.391-2.0469 21.898-12.73 21.898-25.66 0-14.387-11.738-26.09-26.164-26.09h-0.85547c-8.7812 0-15.926-7.1094-15.926-15.852 0-8.7383 7.1445-15.848 15.926-15.848s15.926 7.1094 15.926 15.852c0 2.8281 2.2891 5.1211 5.1211 5.1211 2.8281 0 5.1211-2.2891 5.1211-5.1211 0-12.637-9.0625-23.191-21.047-25.574v-4.5195c0-2.8281-2.2891-5.1211-5.1211-5.1211-2.8281 0-5.1211 2.2891-5.1211 5.1211v4.5156c-11.98 2.3828-21.047 12.938-21.047 25.574 0.003906 14.387 11.742 26.09 26.168 26.09z"/>
 <path d="m100.24 296.35h42.945c2.8281 0 5.1211-2.2891 5.1211-5.1211 0-2.8281-2.2891-5.1211-5.1211-5.1211h-42.945c-2.8281 0-5.1211 2.2891-5.1211 5.1211 0.003906 2.8281 2.293 5.1211 5.1211 5.1211z"/>
 <path d="m100.24 334.66h42.945c2.8281 0 5.1211-2.2891 5.1211-5.1211 0-2.8281-2.2891-5.1211-5.1211-5.1211l-42.945 0.003906c-2.8281 0-5.1211 2.2891-5.1211 5.1211 0.003906 2.8281 2.293 5.1172 5.1211 5.1172z"/>
 <path d="m366.05 362.73h-265.81c-2.8281 0-5.1211 2.2891-5.1211 5.1211 0 2.8281 2.2891 5.1211 5.1211 5.1211h265.81c2.8281 0 5.1211-2.2891 5.1211-5.1211 0.003906-2.832-2.2891-5.1211-5.1172-5.1211z"/>
</svg>
