<?xml version="1.0" encoding="UTF-8"?>
<svg width="512pt" height="512pt" version="1.1" viewBox="0 0 512 512" xmlns="http://www.w3.org/2000/svg">
 <path d="m56.832 321.54c3.0703 0 5.1211-2.0469 5.1211-5.1211v-20.992h60.414v34.816l-38.398 118.79c-0.51172 2.0469 0 4.6094 2.0469 5.6328s4.6094 1.0234 6.1445-0.51172l83.969-74.238 84.992 74.238c1.0234 1.0234 2.0469 1.0234 3.5859 1.0234 1.0234 0 2.0469-0.51172 3.0703-1.0234 2.0469-1.0234 2.5586-3.5859 2.0469-5.6328l-38.398-118.79v-34.816h62.977v20.992c0 3.0703 2.0469 5.1211 5.1211 5.1211 3.0703 0 5.1211-2.0469 5.1211-5.1211v-26.113c0-0.51172 0-1.0234-0.51172-1.5352v-0.51172c0-0.51172-0.51172-1.0234-1.0234-1.5352l-1.0234-1.0234-70.66-34.305v-33.793h62.977v20.992c0 3.0703 2.0469 5.1211 5.1211 5.1211 3.0703 0 5.1211-2.0469 5.1211-5.1211v-26.113c0-0.51172 0-1.0234-0.51172-1.5352v-0.51172c0-0.51172-0.51172-1.0234-1.0234-1.5352-0.51172-0.51172-0.51172-0.51172-1.0234-1.0234l-121.86-59.391c-1.5352-0.51172-3.0703-0.51172-4.6094 0l-121.34 59.902c-0.51172 0-1.0234 0.51172-1.0234 1.0234-0.51172 0.51172-1.0234 1.0234-1.0234 1.5352v0.51172c0 0.51172 0 1.0234-0.51172 1.5352v26.113c0 3.0703 2.0469 5.1211 5.1211 5.1211 3.0703 0 5.1211-2.0469 5.1211-5.1211v-20.992h60.414v34.816l-68.098 33.281c-0.51172 0-1.0234 0.51172-1.0234 1.0234-0.51172 0.51172-1.0234 1.0234-1.0234 1.5352v0.51172c0 0.51172 0 1.0234-0.51172 1.5352v26.113c-0.003906 3.0742 2.0469 5.1211 5.1172 5.1211zm73.215 18.434 38.91 33.281-69.629 60.926zm124.42 94.207-70.145-60.93 39.426-33.281zm-33.281-105.47-45.055 37.887-44.031-37.887v-33.281h88.574v33.281zm-88.574-43.52v-26.625l45.566-22.527 43.008 20.992v27.648h-88.574zm144.89 0h-46.078v-22.527zm-46.078-77.824v-23.039l46.078 22.527h-46.078zm-53.25-49.152 43.008 20.992v27.648h-88.574v-26.625zm-99.328 49.152 43.52-21.504v21.504zm53.762 10.242h88.574v28.672l-40.961-19.969c-1.5352-0.51172-3.0703-0.51172-4.6094 0l-43.52 21.504 0.003906-30.207zm-10.242 46.078v21.504h-43.52z"/>
 <path d="m377.34 60.93c-1.5352-0.51172-3.0703-0.51172-4.6094 0l-75.773 37.375c-0.51172 0-1.0234 0.51172-1.0234 1.0234-0.51172 0.51172-1.0234 1.0234-1.0234 1.5352v0.51172c0 0.51172 0 1.0234-0.51172 1.5352v16.383c0 3.0703 2.0469 5.1211 5.1211 5.1211 3.0703 0 5.1211-2.0469 5.1211-5.1211v-11.266h34.305l-0.003907 30.211-41.984 20.48c-0.51172 0-1.0234 0.51172-1.0234 1.0234-0.51172 0.51172-1.0234 1.0234-1.0234 1.5352v0.51172c0 0.51172 0 1.0234-0.51172 1.5352v16.383c0 3.0703 2.0469 5.1211 5.1211 5.1211 3.0703 0 5.1211-2.0469 5.1211-5.1211v-11.266h34.305v8.7031l-24.582 73.734c-0.51172 2.0469 0 4.6094 2.0469 5.6328 1.0234 0.51172 2.0469 1.0234 2.5586 1.0234 1.0234 0 2.5586-0.51172 3.5859-1.0234l51.711-45.566 52.223 45.566c1.5352 1.5352 4.0977 1.5352 6.1445 0.51172 2.0469-1.0234 2.5586-3.5859 2.0469-5.6328l-24.062-74.238v-8.7031h35.84v11.266c0 3.0703 2.0469 5.1211 5.1211 5.1211 3.0703 0 5.1211-2.0469 5.1211-5.1211v-16.383c0-0.51172 0-1.0234-0.51172-1.5352v-0.51172c0-0.51172-0.51172-1.0234-1.0234-1.5352l-1.0234-1.0234-43.008-20.992v-29.184h35.84v11.266c0 3.0703 2.0469 5.1211 5.1211 5.1211 3.0703 0 5.1211-2.0469 5.1211-5.1211v-16.383c0-0.51172 0-1.0234-0.51172-1.5352v-0.51172c0-0.51172-0.51172-1.0234-1.0234-1.5352-0.51172-0.51172-0.51172-0.51172-1.0234-1.0234zm-2.0469 10.238 25.09 12.289v14.336h-51.715v-13.312zm-54.273 26.625 17.406-8.7031v8.7031zm0 60.414 17.406-8.7031v8.7031zm27.648-13.824 26.625-13.312 25.09 12.289v14.336h-51.715zm-2.5586 41.984 20.48 17.922-36.352 32.258zm73.215 50.176-37.375-32.258 20.992-17.922zm-18.945-61.438-26.113 22.016-25.602-22.016v-7.168h51.711zm29.184-16.898h-18.945l0.003906-9.7266zm-29.184-26.109-23.039-11.266c-1.5352-0.51172-3.0703-0.51172-4.6094 0l-24.062 12.289v-24.574h51.711zm10.242-34.305v-9.2148l18.945 9.2148z"/>
</svg>
