<?xml version="1.0" encoding="UTF-8"?>
<svg width="100pt" height="100pt" version="1.1" viewBox="0 0 100 100" xmlns="http://www.w3.org/2000/svg">
 <path d="m63.789 86.844c-0.92187 0.91797-2.2383 1.3281-3.5234 1.1016l-30.215-5.3945c-0.058593-0.011719-0.11719-0.015625-0.17578-0.015625l-18.875-0.003906c-0.55078 0-1 0.44922-1 1s0.44922 1 1 1h18.789l30.125 5.3789c0.35156 0.0625 0.70313 0.09375 1.0547 0.09375 1.5703 0 3.0977-0.61719 4.2305-1.7422l23.012-22.867c1.2188-1.2109 1.8672-2.8906 1.7812-4.6055-0.085938-1.7148-0.89844-3.3203-2.2344-4.4023-2.2617-1.8359-5.5234-1.8047-7.7461 0.078125l-13.801 11.676h-0.96875v-1.2266c0-3.8594-3.1406-6.9961-7-6.9961l-10.977-0.003907-16.348-3.2461c-2.6172-0.51953-5.3047 0.15625-7.3633 1.8477-1.8008 1.4766-2.9297 3.5703-3.1875 5.8555l-9.3672 0.003906c-0.55078 0-1 0.44922-1 1s0.44922 1 1 1h10.312c0.26562 0 0.51953-0.10547 0.70703-0.29297s0.29297-0.44141 0.29297-0.70703c0-2.0625 0.91406-4 2.5117-5.3086 1.5977-1.3125 3.6797-1.8359 5.707-1.4297l16.445 3.2656c0.0625 0.011718 0.12891 0.019531 0.19531 0.019531h11.074c2.7578 0 5 2.2422 5 4.9961v1.2266l-18.199-0.003906c-0.55078 0-1 0.44922-1 1s0.44922 1 1 1h21.531c0.23438 0 0.46484-0.085937 0.64453-0.23828l14.078-11.914c1.4922-1.2617 3.6758-1.2852 5.1953-0.054687 0.89453 0.72656 1.4414 1.8008 1.4961 2.9531 0.058593 1.1484-0.37891 2.2734-1.1953 3.0859z"/>
 <path d="m50 55.156c12.449 0 22.578-10.129 22.578-22.578s-10.129-22.578-22.578-22.578-22.578 10.129-22.578 22.578 10.129 22.578 22.578 22.578zm0-43.156c11.348 0 20.578 9.2305 20.578 20.578s-9.2305 20.578-20.578 20.578-20.578-9.2305-20.578-20.578 9.2305-20.578 20.578-20.578z"/>
 <path d="m41.434 35.73-0.26953 7.7617c-0.011718 0.33203 0.14453 0.64844 0.41016 0.84375 0.26953 0.19531 0.61719 0.24219 0.92969 0.13281l7.3008-2.6562 7.3008 2.6562c0.10938 0.039062 0.22656 0.058594 0.34375 0.058594 0.20703 0 0.41406-0.066406 0.58594-0.19141 0.26953-0.19531 0.42188-0.51172 0.41016-0.84375l-0.26953-7.7617 4.7812-6.1211c0.20312-0.26172 0.26562-0.60938 0.16406-0.92578-0.10156-0.31641-0.35547-0.5625-0.67578-0.65234l-7.4648-2.1406-4.3438-6.4375c-0.37109-0.55078-1.2852-0.55078-1.6562 0l-4.3438 6.4375-7.4648 2.1406c-0.32031 0.09375-0.57031 0.33594-0.67578 0.65234-0.10156 0.31641-0.042969 0.66406 0.16406 0.92578zm4.0977-8.0195c0.22656-0.066407 0.42188-0.20703 0.55469-0.40234l3.7188-5.5117 3.7188 5.5117c0.13281 0.19531 0.32812 0.33594 0.55469 0.40234l6.3906 1.832-4.0938 5.2422c-0.14453 0.18359-0.21875 0.41406-0.21094 0.64844l0.23047 6.6445-6.25-2.2734c-0.10938-0.039063-0.22656-0.058594-0.34375-0.058594-0.11719 0-0.23047 0.019531-0.34375 0.058594l-6.25 2.2734 0.23047-6.6445c0.007812-0.23438-0.066406-0.46484-0.21094-0.64844l-4.0938-5.2422z"/>
</svg>
