<?xml version="1.0" encoding="UTF-8"?>
<svg width="512pt" height="512pt" version="1.1" viewBox="0 0 512 512" xmlns="http://www.w3.org/2000/svg">
 <path d="m443.39 213.73-26.641-4.0469c-3.7539-0.57422-6.8398-3.1055-8.0508-6.6016-2.0703-5.9883-4.5234-11.926-7.3047-17.645-1.6211-3.3398-1.2305-7.3086 1.0195-10.363l15.98-21.699c6.0469-8.2148 5.1992-19.414-2.0156-26.625l-31.141-31.141c-7.2188-7.2148-18.414-8.0586-26.625-2.0156l-21.699 15.984c-3.0586 2.2461-7.0195 2.6367-10.363 1.0156-5.7188-2.7812-11.656-5.2344-17.641-7.3047-3.5-1.2109-6.0312-4.2969-6.6055-8.0508l-4.0469-26.641c-1.5273-10.082-10.043-17.402-20.242-17.402h-44.039c-10.199 0-18.715 7.3203-20.246 17.406l-4.0469 26.641c-0.57422 3.7539-3.1055 6.8398-6.6016 8.0508-5.9883 2.0703-11.926 4.5234-17.645 7.3047-3.3398 1.6211-7.3047 1.2344-10.363-1.0195l-21.699-15.98c-8.2148-6.0469-19.414-5.1992-26.625 2.0156l-31.141 31.141c-7.2148 7.2109-8.0586 18.41-2.0156 26.625l15.984 21.699c2.2461 3.0547 2.6367 7.0234 1.0156 10.363-2.7812 5.7188-5.2344 11.656-7.3047 17.641-1.2109 3.5-4.2969 6.0312-8.0508 6.6055l-26.641 4.0469c-10.082 1.5273-17.402 10.043-17.402 20.242v44.039c0 10.199 7.3203 18.715 17.406 20.246l26.641 4.0469c3.7539 0.57031 6.8398 3.1016 8.0508 6.6016 2.0703 5.9883 4.5234 11.926 7.3047 17.645 1.6211 3.3398 1.2305 7.3086-1.0195 10.363l-15.98 21.699c-6.0469 8.2148-5.1992 19.414 2.0156 26.625l31.141 31.141c7.2109 7.2148 18.41 8.0508 26.625 2.0156l21.699-15.984c3.0586-2.2461 7.0234-2.6406 10.363-1.0156 5.7188 2.7812 11.656 5.2344 17.641 7.3047 3.5 1.2109 6.0312 4.2969 6.6055 8.0508l4.0469 26.641c1.5273 10.082 10.043 17.402 20.242 17.402h44.039c10.199 0 18.715-7.3203 20.246-17.406l4.0469-26.641c0.57422-3.7539 3.1055-6.8398 6.6016-8.0508 5.9883-2.0703 11.926-4.5234 17.645-7.3047 3.3438-1.625 7.3047-1.2305 10.363 1.0195l21.699 15.98c8.2109 6.0352 19.406 5.1992 26.625-2.0156l31.141-31.141c7.2148-7.2109 8.0586-18.41 2.0156-26.625l-15.984-21.699c-2.2461-3.0547-2.6367-7.0234-1.0156-10.363 2.7812-5.7188 5.2344-11.656 7.3047-17.641 1.2109-3.5039 4.2969-6.0352 8.0508-6.6055l26.641-4.0469c10.082-1.5273 17.402-10.043 17.402-20.242v-44.039c0-10.199-7.3203-18.715-17.406-20.246zm7.1641 64.285c0 5.1016-3.6602 9.3555-8.7031 10.125l-26.641 4.0469c-7.5195 1.1406-13.727 6.2656-16.191 13.379-1.9336 5.6016-4.2344 11.16-6.8359 16.516-3.2891 6.7695-2.5312 14.781 1.9805 20.906l15.98 21.699c3.0234 4.1094 2.6016 9.7109-1.0039 13.316l-31.141 31.141c-3.6055 3.5938-9.1953 4.0352-13.316 1.0039l-21.699-15.977c-6.1211-4.5234-14.145-5.2695-20.906-1.9844-5.3555 2.6016-10.914 4.8984-16.52 6.8359-7.1055 2.4648-12.23 8.6641-13.375 16.191l-4.0469 26.641c-0.76562 5.0391-5.0195 8.6992-10.121 8.6992h-44.039c-5.1016 0-9.3555-3.6602-10.125-8.7031l-4.0469-26.641c-1.1445-7.5234-6.2695-13.727-13.379-16.191-5.6016-1.9336-11.16-4.2344-16.516-6.8359-2.7891-1.3555-5.7969-2.0234-8.7891-2.0234-4.2656 0-8.5195 1.3555-12.113 4.0039l-21.699 15.98c-4.1211 3.0312-9.7109 2.5898-13.316-1.0039l-31.141-31.141c-3.6055-3.6055-4.0312-9.2031-1.0039-13.312l15.977-21.699c4.5156-6.125 5.2734-14.137 1.9844-20.906-2.6016-5.3555-4.8984-10.914-6.8359-16.52-2.4648-7.1094-8.6719-12.234-16.191-13.375l-26.641-4.0469c-5.043-0.76953-8.7031-5.0234-8.7031-10.125v-44.039c0-5.1016 3.6602-9.3555 8.7031-10.125l26.641-4.0469c7.5234-1.1445 13.727-6.2695 16.191-13.379 1.9336-5.6016 4.2344-11.16 6.8359-16.516 3.2891-6.7695 2.5312-14.781-1.9805-20.906l-15.98-21.699c-3.0273-4.1094-2.6016-9.707 1.0039-13.312l31.141-31.141c3.6055-3.6016 9.1953-4.0352 13.316-1.0039l21.699 15.977c6.1133 4.5195 14.141 5.2656 20.906 1.9844 5.3555-2.6016 10.914-4.8984 16.52-6.8359 7.1055-2.4648 12.23-8.6641 13.375-16.191l4.0469-26.641c0.76562-5.043 5.0195-8.7031 10.121-8.7031h44.039c5.1016 0 9.3555 3.6602 10.125 8.7031l4.0469 26.641c1.1445 7.5234 6.2695 13.727 13.379 16.191 5.6016 1.9336 11.16 4.2344 16.516 6.8359 6.7617 3.2812 14.785 2.5312 20.906-1.9805l21.699-15.98c4.1211-3.0312 9.7109-2.5938 13.316 1.0039l31.141 31.141c3.6055 3.6055 4.0312 9.2031 1.0039 13.316l-15.977 21.699c-4.5156 6.125-5.2734 14.137-1.9844 20.906 2.6016 5.3555 4.8984 10.914 6.8359 16.52 2.4648 7.1055 8.6641 12.23 16.191 13.375l26.641 4.0469c5.0391 0.76562 8.6992 5.0195 8.6992 10.121z"/>
 <path d="m256 136.62c-65.824 0-119.38 53.555-119.38 119.38s53.555 119.38 119.38 119.38 119.38-53.555 119.38-119.38-53.555-119.38-119.38-119.38zm0 228.52c-60.18 0-109.14-48.961-109.14-109.14s48.961-109.14 109.14-109.14 109.14 48.961 109.14 109.14-48.961 109.14-109.14 109.14z"/>
 <path d="m256 176.08c-44.07 0-79.922 35.852-79.922 79.922s35.852 79.922 79.922 79.922 79.922-35.852 79.922-79.922-35.852-79.922-79.922-79.922zm0 149.6c-38.422 0-69.68-31.262-69.68-69.68 0-38.422 31.258-69.68 69.68-69.68s69.68 31.258 69.68 69.68-31.258 69.68-69.68 69.68z"/>
 <path d="m299.37 250.88h-38.25v-38.25c0-2.8281-2.2891-5.1211-5.1211-5.1211-2.8281 0-5.1211 2.2891-5.1211 5.1211v43.371c0 2.8281 2.2891 5.1211 5.1211 5.1211h43.371c2.8281 0 5.1211-2.2891 5.1211-5.1211-0.003907-2.8281-2.293-5.1211-5.1211-5.1211z"/>
</svg>
