<?xml version="1.0" encoding="UTF-8"?>
<svg width="512pt" height="512pt" version="1.1" viewBox="0 0 512 512" xmlns="http://www.w3.org/2000/svg">
 <path d="m59.828 232.2 27.668 19.375-7.4844 10.484c-8.9219 12.504-6.0117 29.941 6.5039 38.875l1.0547 0.75c4.7734 3.4062 10.371 5.1875 16.121 5.1875 1.5469 0 3.1016-0.12891 4.6484-0.38672 0.10156-0.015625 0.19531-0.0625 0.29297-0.078125-0.74609 3.418-0.87109 6.9727-0.27344 10.527 1.2266 7.3438 5.2344 13.766 11.305 18.098l1.0547 0.75c4.8945 3.4922 10.547 5.1719 16.141 5.1719 3.1523 0 6.2852-0.55078 9.2617-1.5898-0.039063 8.75 3.9727 17.391 11.625 22.852l1.0547 0.75c4.8945 3.4922 10.547 5.1719 16.145 5.1719 5.082 0 10.105-1.4219 14.504-4.0898 1.1094 7.1641 4.9531 13.898 11.309 18.438l1.0508 0.75c4.7812 3.4102 10.379 5.1914 16.137 5.1914 1.5391 0 3.0938-0.12891 4.6484-0.38672 7.3398-1.2266 13.766-5.2383 18.086-11.297l8.5195-11.934 19.559 13.695c4.8438 3.3945 10.496 5.1641 16.297 5.1641 1.6602 0 3.3398-0.14844 5.0117-0.44141 7.5-1.3242 14.035-5.4883 18.406-11.727 3.9648-5.6562 5.5859-12.414 4.8867-19.219 4.0977 2.1719 8.6016 3.3438 13.223 3.3438 1.6602 0 3.3398-0.14844 5.0117-0.44141 7.5-1.3242 14.035-5.4883 18.406-11.727 4.2461-6.0703 5.7031-13.223 4.8086-20.047 3.3164 1.2812 6.7734 1.9883 10.227 1.9883 9-0.003906 17.859-4.2383 23.398-12.148 4.043-5.7734 5.5156-12.531 4.8867-19.055 4.5977 2.8086 9.6992 4.2422 14.785 4.2422 9 0 17.859-4.2383 23.398-12.148 7.707-11.008 6.4648-25.582-2.0781-35.227l23.734-18.859c8.3594-6.6445 10.109-18.699 3.9844-27.441l-46.324-66.16c-6.3906-9.1289-19.023-11.359-28.176-4.9688-14.414 10.094-32.699 12.051-48.922 5.2539l-24.105-10.102c-17.559-7.3633-36.926-6.7812-53.809 1.0312-17.027-7.8711-36.578-8.3047-53.93-1.0312l-24.105 10.102c-16.219 6.8008-34.504 4.8359-48.922-5.2539-4.4219-3.1016-9.8008-4.2891-15.113-3.3516-5.3242 0.9375-9.9609 3.8906-13.059 8.3164l-45.816 65.43c-3.1016 4.4258-4.2891 9.7969-3.3516 15.121 0.93359 5.3164 3.8867 9.9531 8.3164 13.051zm33.688 61.145c-0.003906-0.003906-0.003906-0.003906-0.011719-0.003906l-1.0469-0.74609c-7.9102-5.6484-9.75-16.676-4.1094-24.586l11.609-16.266c3.4414-4.8164 8.8633-7.3789 14.375-7.3789 3.5469 0 7.1211 1.0625 10.215 3.2734l1.0547 0.75391c7.9102 5.6445 9.7539 16.676 4.1094 24.586l-5.8047 8.1328-5.8086 8.1367c-5.6445 7.8945-16.672 9.75-24.582 4.0977zm33.148 34.094c-0.003906-0.003906-0.003906-0.003906-0.011718-0.003906l-1.0469-0.74609c-3.8359-2.7344-6.3711-6.8008-7.1445-11.445-0.78125-4.6406 0.30078-9.3086 3.0352-13.141l10.742-15.047 5.8086-8.1328 4.9336-6.9102c2.7305-3.832 6.7969-6.3711 11.441-7.1445 0.98047-0.16406 1.9648-0.24609 2.9414-0.24609 3.6406 0 7.1797 1.125 10.195 3.2812l1.0586 0.75781c3.8359 2.7344 6.3711 6.8008 7.1445 11.441 0.78125 4.6445-0.30078 9.3125-3.0391 13.145l-21.469 30.09c-2.7383 3.832-6.8008 6.3711-11.445 7.1445-4.6602 0.78125-9.3125-0.30859-13.145-3.043zm51.227 30.223c-4.6641 0.78516-9.3164-0.30469-13.145-3.0391-0.003906-0.003906-0.003906-0.003906-0.011719-0.003906l-1.0469-0.74609c-7.9102-5.6484-9.75-16.676-4.1016-24.586l21.469-30.09c2.7383-3.8359 6.8047-6.3711 11.445-7.1484 0.98438-0.16406 1.9648-0.24609 2.9414-0.24609 3.6406 0 7.1836 1.1289 10.203 3.2852l1.0547 0.75391c7.9102 5.6445 9.75 16.676 4.1094 24.586l-4.9336 6.9102-0.003906 0.003906-11.609 16.262c-0.003907 0.003906-0.003907 0.007812-0.003907 0.007812l-4.9297 6.9062c-2.7344 3.832-6.793 6.3711-11.438 7.1445zm54.453 13.125c-2.7305 3.832-6.7969 6.3711-11.441 7.1445-4.6406 0.78516-9.3086-0.30469-13.145-3.0391l-1.0508-0.75c-7.9062-5.6445-9.75-16.668-4.1172-24.574l10.219-14.312 1.4062-1.9688c2.7305-3.8281 6.7969-6.3672 11.441-7.1406 4.6367-0.78516 9.3164 0.30078 13.141 3.0312l1.0547 0.75781c3.8359 2.7344 6.3711 6.8008 7.1445 11.441 0.77344 4.6133-0.29297 9.2422-2.9844 13.062-0.085938 0.10547-0.21094 0.16016-0.28906 0.27344-0.082031 0.11719-0.09375 0.25391-0.16406 0.375zm73.312-232.56 24.105 10.102c19.484 8.1602 41.445 5.8008 58.75-6.3086 4.5117-3.1641 10.754-2.0625 13.914 2.4531l46.324 66.16c3.0234 4.3164 2.1602 10.27-1.9648 13.551l-25.414 20.191-94.84-66.633c-8.8906-6.1445-19.289-9.2188-29.684-9.2188-10.496 0-20.984 3.1289-29.926 9.3789l-44.086 30.836c-4 2.8008-8.8516 3.8789-13.656 3.0234-4.8047-0.84766-8.9961-3.5156-11.797-7.5156-5.7812-8.2539-3.7656-19.672 4.4961-25.457l49.352-34.719c16.039-11.223 36.395-13.406 54.426-5.8438zm-242.41 71.672 45.816-65.43c1.5312-2.1875 3.8203-3.6445 6.4492-4.1094 2.6094-0.46875 5.2734 0.12109 7.4648 1.6562 17.305 12.113 39.27 14.48 58.75 6.3086l24.105-10.102c12.305-5.1602 25.934-5.6992 38.52-1.8359l-48.355 34.023c-12.879 9.0195-16.02 26.836-7.0039 39.715 4.3711 6.2383 10.906 10.402 18.406 11.727 7.5156 1.3281 15.07-0.34766 21.305-4.7227l44.086-30.832c14.305-10.004 33.559-10.059 47.887-0.14844l97.941 68.809s0.003906 0 0.003906 0.003906c8.2539 5.7812 10.27 17.199 4.4883 25.453-2.8008 4-6.9883 6.668-11.797 7.5156-4.8086 0.85156-9.6562-0.22266-13.66-3.0273l-16.211-11.352c-0.007812-0.003907-0.011718-0.011719-0.019531-0.015626l-48.551-33.992c-2.3086-1.6211-5.5039-1.0586-7.1289 1.2578-1.6211 2.3164-1.0586 5.5117 1.2617 7.1328l6.9531 4.8672 41.602 29.129c8.2461 5.7852 10.254 17.195 4.4766 25.441-5.7734 8.2617-17.195 10.273-25.453 4.4883l-11.59-8.1133c-0.003906 0-0.003906-0.003906-0.007813-0.007812l-36.953-25.875c-2.3047-1.6172-5.5117-1.0586-7.1289 1.2578-1.6211 2.3164-1.0586 5.5117 1.2617 7.1328l36.961 25.883c8.2422 5.7812 10.258 17.195 4.4766 25.445-2.8008 4-6.9844 6.6719-11.797 7.5156-4.7969 0.85156-9.6484-0.22656-13.656-3.0312l-21.52-15.07-8.4727-5.9336h-0.003906l-6.957-4.8711c-2.3086-1.6211-5.5039-1.0586-7.1289 1.2578-1.6211 2.3164-1.0586 5.5117 1.2617 7.1328l15.434 10.805 6.832 4.7852c4 2.8008 6.6641 6.9883 7.5156 11.797 0.85156 4.8047-0.22656 9.6562-3.0312 13.652-2.8008 4-6.9844 6.6719-11.797 7.5156-4.7969 0.85156-9.6562-0.22656-13.656-3.0312l-19.875-13.918c2.4297-5.1055 3.293-10.805 2.3398-16.5-1.2266-7.3398-5.2344-13.766-11.289-18.086l-1.0547-0.75781c-6.0664-4.3281-13.461-6.0352-20.781-4.8008-0.10156 0.015625-0.19141 0.0625-0.29297 0.078125 2.2852-10.559-1.6875-21.961-11.02-28.617l-1.0547-0.75391c-6.0664-4.3281-13.465-6.043-20.781-4.8047-1.5977 0.26562-3.1289 0.72266-4.6289 1.2461 0.007813-1.5859-0.058594-3.1836-0.32812-4.7812-1.2266-7.3438-5.2344-13.766-11.285-18.086l-1.0586-0.75781c-6.0664-4.3242-13.461-6.0391-20.781-4.8047-3.5586 0.59375-6.8867 1.8711-9.8828 3.6875-1.1133-7.1523-4.9609-13.875-11.305-18.402l-1.0547-0.75391c-11.637-8.3125-27.449-6.25-36.793 4.125l-28.008-19.613c-2.1836-1.5312-3.6445-3.8203-4.1055-6.4492-0.46094-2.6211 0.125-5.2734 1.6602-7.457z"/>
</svg>
