<?xml version="1.0" encoding="UTF-8"?>
<svg width="512pt" height="512pt" version="1.1" viewBox="0 0 512 512" xmlns="http://www.w3.org/2000/svg">
 <path d="m253.95 139.78-87.039 43.008c-0.51172 0-1.0234 0.51172-1.0234 1.0234-0.51172 0.51172-1.0234 1.0234-1.0234 1.5352v0.51172c0 0.51172 0 1.0234-0.51172 1.5352v18.945c0 3.0703 2.0469 5.1211 5.1211 5.1211 3.0703 0 5.1211-2.0469 5.1211-5.1211v-13.824h40.449v27.648l-47.617 23.551c-0.51172 0-1.0234 0.51172-1.0234 1.0234-0.51172 0.51172-1.0234 1.0234-1.0234 1.5352v0.51172c0 0.51172 0 1.0234-0.51172 1.5352v18.945c0 3.0703 2.0469 5.1211 5.1211 5.1211 3.0703 0 5.1211-2.0469 5.1211-5.1211v-13.824h40.449v17.922l-27.137 84.48c-0.51172 2.0469 0 4.6094 2.0469 5.6328 1.0234 0.51172 2.0469 1.0234 2.5586 1.0234 1.0234 0 2.5586-0.51172 3.5859-1.0234l59.391-52.223 59.902 52.223c1.5352 1.5352 4.0977 1.5352 6.1445 0.51172 2.0469-1.0234 2.5586-3.5859 2.0469-5.6328l-27.137-84.48v-17.922l40.957 0.003906v13.824c0 3.0703 2.0469 5.1211 5.1211 5.1211 3.0703 0 5.1211-2.0469 5.1211-5.1211v-18.945c0-0.51172 0-1.0234-0.51172-1.5352v-0.51172c0-0.51172-0.51172-1.0234-1.0234-1.5352-0.51172-0.51172-0.51172-0.51172-1.0234-1.0234l-49.664-24.574v-26.625l41.98-0.003906v13.824c0 3.0703 2.0469 5.1211 5.1211 5.1211 3.0703 0 5.1211-2.0469 5.1211-5.1211v-18.945c0-0.51172 0-1.0234-0.51172-1.5352v-0.51172c0-0.51172-0.51172-1.0234-1.0234-1.5352l-1.0234-1.0234-87.039-43.008c-1.543-1.5352-3.5898-1.5352-4.6133-0.51172zm-62.977 41.984 23.551-11.777v11.777zm0 60.926 23.551-11.777v11.777zm33.793-16.383 31.23-15.359 29.184 14.336v17.406h-60.414zm-2.5625 54.27 24.574 21.504-44.031 38.91zm85.504 60.418-45.055-38.914 25.602-21.504zm-22.527-71.68-30.719 26.113-29.695-25.602v-16.383h60.414zm35.84-26.625h-25.09l0.003906-12.289zm-35.84-28.672-27.137-13.312c-1.5352-0.51172-3.0703-0.51172-4.6094 0l-28.672 14.336v-22.527h60.414zm10.242-32.254v-12.289l25.09 12.289zm-10.242-17.41v17.406l-60.414 0.003907v-16.383l31.23-15.359z"/>
 <path d="m236.54 430.59h0.51172c2.5586 0 4.6094-2.0469 5.1211-4.6094 0.51172-2.5586-1.5352-5.1211-4.6094-5.6328-85.504-8.7031-150.02-80.383-150.02-166.4s66.051-158.72 151.04-166.91l-17.922 17.922c-2.0469 2.0469-2.0469 5.1211 0 7.168 1.0234 1.0234 2.5586 1.5352 3.5859 1.5352 1.0234 0 2.5586-0.51172 3.5859-1.5352l27.137-27.137c1.0234-1.0234 1.5352-2.0469 1.5352-3.5859 0-1.5352-0.51172-2.5586-1.5352-3.5859l-27.141-26.621c-2.0469-2.0469-5.1211-2.0469-7.168 0s-2.0469 5.1211 0 7.168l18.434 18.434c-91.137 7.6797-162.3 84.992-162.3 177.15 0.51172 91.137 69.121 166.91 159.74 176.64z"/>
 <path d="m271.87 86.527c85.504 8.7031 150.02 80.383 150.02 166.4s-66.047 158.21-151.04 166.4l17.922-17.922c2.0469-2.0469 2.0469-5.1211 0-7.168s-5.1211-2.0469-7.168 0l-27.137 27.137c-1.0234 1.0234-1.5352 2.0469-1.5352 3.5859 0 1.5352 0.51172 2.5586 1.5352 3.5859l27.137 27.137c1.0234 1.0234 2.5586 1.5352 3.5859 1.5352 1.0234 0 2.5586-0.51172 3.5859-1.5352 2.0469-2.0469 2.0469-5.1211 0-7.168l-18.438-18.434c91.137-7.6797 162.3-84.992 162.3-177.15 0-91.648-68.609-167.43-159.23-176.64-3.0703-0.51172-5.1211 1.5352-5.6328 4.6094-0.51172 3.0742 1.5352 5.6328 4.0938 5.6328z"/>
</svg>
