<?xml version="1.0" encoding="UTF-8"?>
<svg width="512pt" height="512pt" version="1.1" viewBox="0 0 512 512" xmlns="http://www.w3.org/2000/svg">
 <path d="m455.68 101.46h-100.7v-45.145c0-2.8281-2.2891-5.1211-5.1211-5.1211h-293.54c-2.8281 0-5.1211 2.2891-5.1211 5.1211v349.09c0 2.8281 2.2891 5.1211 5.1211 5.1211h100.7v45.145c0 2.8281 2.2891 5.1211 5.1211 5.1211h293.54c2.8281 0 5.1211-2.2891 5.1211-5.1211v-349.09c0-2.832-2.2891-5.1211-5.1211-5.1211zm-110.93 255.04v43.789h-43.789zm-51.031 36.551v-43.789h43.789zm-232.27-331.61h283.3v277.59l-56.152-0.003906c-2.8281 0-5.1211 2.2891-5.1211 5.1211v56.148l-222.03 0.003906zm105.81 349.09h182.61c2.8281 0 5.1211-2.2891 5.1211-5.1211v-293.71h95.574v277.59h-56.148c-2.8281 0-5.1211 2.2891-5.1211 5.1211v56.148h-222.04zm276.07-11.004-43.789 43.789v-43.789zm-36.551 51.027 43.789-43.789v43.789z"/>
 <path d="m302.04 185.02c0-2.5508-1.8789-4.7148-4.4062-5.0703-20.867-2.9375-38.797-0.94922-53.684 5.707-0.54687-15.641-5.8203-48.348-37.715-73.066-1.8398-1.4297-4.4297-1.4297-6.2695 0-31.902 24.719-37.168 57.426-37.715 73.066-14.883-6.6562-32.805-8.6523-53.688-5.707-2.5234 0.35547-4.4062 2.5195-4.4062 5.0703 0 52.844 41.648 96.148 93.844 98.816v61.254c0 2.8281 2.2891 5.1211 5.1211 5.1211 2.8281 0 5.1211-2.2891 5.1211-5.1211l-0.003906-61.254c52.176-2.6836 93.801-45.98 93.801-98.816zm-104.04 88.562c-45.055-2.5664-81.219-38.914-83.488-84.051 24.41-2.5859 43.934 2.3008 58.094 14.578 22.727 19.703 25.121 52.91 25.363 59.105-0.015625 0.53516-0.015625 0.87891-0.015625 1.0117 0 0.23047 0.015625 0.46094 0.046875 0.67969zm5.0938-39.43c-3.9961-12.559-11.102-26.75-23.719-37.719-2.1953-1.9062-4.4922-3.6562-6.8906-5.2617-0.38672-9.1641 0.48438-42.488 30.617-67.949 30.125 25.457 31 58.781 30.613 67.945-2.3984 1.6055-4.6992 3.3555-6.8945 5.2656-12.621 10.969-19.727 25.156-23.727 37.719zm5.1445 39.43v-9.3555c0-0.12891 0-0.46875-0.015625-1.0039 0.25-6.2109 2.6445-39.406 25.363-59.109 14.164-12.281 33.699-17.16 58.094-14.578-2.2656 45.117-38.406 81.457-83.441 84.047z"/>
</svg>
