<?xml version="1.0" encoding="UTF-8"?>
<svg width="512pt" height="512pt" version="1.1" viewBox="0 0 512 512" xmlns="http://www.w3.org/2000/svg">
 <path d="m160.26 311.81c-28.672 26.625-43.52 72.191-44.543 135.68 0 1.5352 0.51172 2.5586 1.5352 3.5859 1.0234 1.0234 2.0469 1.5352 3.5859 1.5352h263.68 1.0234 1.0234c0.51172 0 0.51172-0.51172 1.0234-0.51172 0.51172 0 0.51172-0.51172 1.0234-0.51172 0 0 0.51172-0.51172 0.51172-1.0234s0.51172-0.51172 0.51172-1.0234v-1.0234-1.0234c-0.51172-62.98-15.871-108.55-44.543-135.17-25.602-24.062-52.734-24.062-55.809-24.062v-23.551c19.969-13.312 33.793-36.352 34.816-63.488h4.0977c8.7031 0 15.359-7.168 15.359-15.359v-16.895c0-6.1445-3.5859-11.266-8.1914-13.824-1.5352-37.375-26.113-69.121-61.441-78.848v-3.5859c0-6.1445-5.1211-11.777-11.266-11.777h-24.574c-6.1445 0-11.266 5.1211-11.266 11.777v4.0977c-35.328 9.7266-59.902 40.961-61.441 78.336-5.1211 2.5586-8.1914 7.6797-8.1914 13.824v16.895c0 8.7031 7.168 15.359 15.359 15.359h4.0977c1.0234 26.625 14.848 49.664 34.816 63.488v23.551c-8.7031 1.0234-30.211 4.0938-51.199 23.551zm182.78 130.56h-87.551v-78.336c0-5.6328 3.5859-10.238 8.7031-12.801 17.406-7.6797 31.742-29.695 31.742-49.664v-2.0469-0.51172c4.6094 0.51172 10.754 2.0469 18.434 5.1211-12.801 24.574 6.1445 56.32 20.992 67.07 5.1211 4.0977 8.1914 8.7031 8.1914 13.824v57.344zm-151.55-138.24v0c5.1211-2.5586 9.7266-3.5859 13.824-4.0977v2.0469c0 19.969 14.336 41.984 31.742 49.664 5.1211 2.0469 8.7031 7.168 8.7031 12.801v77.824h-83.453v-57.344c0-5.1211 3.0703-10.238 8.1914-13.824 14.848-10.75 34.305-42.496 20.992-67.07zm93.695 2.5586c-2.0469 13.312-11.777 29.184-25.09 35.328-4.0977 1.5352-7.168 4.0977-9.7266 7.6797-2.5586-3.0703-5.6328-5.6328-9.7266-7.6797-13.312-5.6328-23.039-21.504-25.09-34.816l1.5352 1.0234c10.238 6.1445 21.504 9.7266 33.281 9.7266 11.777 0 23.039-3.0703 33.281-9.7266zm-118.27 12.801c5.1211-4.6094 10.238-8.1914 15.359-11.266v0.51172c10.238 18.945-6.6562 45.566-17.922 54.273-7.6797 5.6328-12.289 13.824-12.289 22.016v56.832h-26.113c1.543-57.344 15.367-98.305 40.965-122.37zm212.48 122.88h-26.109v-57.344c0-8.7031-4.6094-16.383-12.289-22.016-11.266-8.7031-28.16-35.328-17.922-54.273 5.1211 3.0703 10.238 6.6562 15.359 11.266 25.602 24.062 39.426 65.535 40.961 122.37zm-54.27-288.25h-44.031v-1.5352c0-7.6797-2.5586-14.848-7.168-19.969v-44.543c29.184 8.7031 49.148 35.324 51.199 66.047zm-74.754-22.527c11.266 0 20.992 9.2148 20.992 20.992 0 11.266-9.2148 20.992-20.992 20.992-11.777 0-20.992-9.2148-20.992-20.992s9.2188-20.992 20.992-20.992zm-12.289-59.395h24.574c0.51172 0 1.0234 0.51172 1.0234 1.5352v51.199c-4.0977-2.0469-8.7031-3.0703-13.312-3.0703s-9.2148 1.0234-13.312 3.0703v-51.199c-0.50781-1.0234 0.51562-1.5352 1.0273-1.5352zm-11.773 15.871v44.031c-4.6094 5.6328-7.168 12.289-7.168 19.969v1.5352h-44.031c2.0469-30.207 22.527-56.316 51.199-65.535zm-59.395 98.305v-16.895c0-3.0703 2.5586-5.1211 5.1211-5.1211h49.664c4.6094 11.266 15.871 18.945 28.672 18.945 12.801 0 24.062-7.6797 28.672-18.945h49.664c3.0703 0 5.1211 2.5586 5.1211 5.1211v16.895c0 3.0703-2.5586 5.1211-5.1211 5.1211h-156.67c-2.5586 0.51172-5.1211-2.0469-5.1211-5.1211zm19.457 15.871h127.49c-2.0469 36.352-29.695 65.023-64 65.023-34.305 0.003906-61.441-29.184-63.488-65.023zm64 75.266c10.238 0 19.969-2.0469 29.184-6.1445v27.648l-1.0234 0.51172c-17.406 10.754-38.398 10.754-55.809 0l-1.0234-0.51172v-27.648c8.7031 3.5859 18.434 6.1445 28.672 6.1445z"/>
</svg>
