<?xml version="1.0" encoding="UTF-8"?>
<svg width="512pt" height="512pt" version="1.1" viewBox="0 0 512 512" xmlns="http://www.w3.org/2000/svg">
 <path d="m253.76 460.41c0.70312 0.34375 1.4688 0.51562 2.2344 0.51562s1.5312-0.17188 2.2344-0.51172c173.93-84.406 187.94-266.31 185.89-340.6-0.046876-1.7266-0.085938-2.9219-0.070313-3.5352 0.058594-2.2617-1.375-4.2891-3.5234-4.9922l-182.8-59.832c-1.0352-0.33984-2.1523-0.33594-3.1836-0.003906l-183.06 59.832c-2.1484 0.70312-3.5859 2.7344-3.5273 4.9961 0.015625 0.61328-0.023437 1.8086-0.070313 3.5352-2.0547 74.289 11.953 256.2 185.88 340.6zm-175.64-340.32c0.003906-0.070312 0.003906-0.14062 0.003906-0.21094l178.01-58.176 177.74 58.172c0 0.070313 0.003906 0.14062 0.003906 0.21094 1.9883 71.984-11.445 247.73-177.89 330.01-166.43-82.273-179.86-258.03-177.88-330.01z"/>
 <path d="m154.35 273.58c9.7109 28.008 30.629 50.77 57.418 62.906 0.47266 0.32812 0.98047 0.58594 1.5273 0.73828 13.105 5.6875 27.535 8.8789 42.707 8.8789 59.363 0 107.66-48.297 107.66-107.66 0-15.137-3.1719-29.535-8.8359-42.617-0.09375-0.27734-0.23438-0.51562-0.37109-0.76953-16.727-37.801-54.531-64.273-98.453-64.273-1.8438 0-3.6445 0.18359-5.4648 0.27734-0.61719-0.066406-1.2227-0.054688-1.7969 0.089844-36.254 2.4375-67.582 22.848-85.203 52.43-0.51562 0.53906-0.89453 1.1719-1.1328 1.8633-8.9062 15.664-14.059 33.727-14.059 52.996 0 11.895 2.0156 23.312 5.5977 34.02 0.10547 0.34375 0.14453 0.69922 0.32812 1.0273 0.015625 0.042969 0.054688 0.0625 0.078125 0.097656zm10.887-0.015625c7.4023-3.0039 22.473-6.5938 36.121 5.8594 6.2656 5.7188 12.945 6.4648 18.309 7.0664 6.9766 0.78125 11.184 1.2539 15.055 11.125 5.5039 14.043-13.508 25.496-20.016 28.934-22.566-10.621-40.387-29.602-49.469-52.984zm122.38 56.93c-5.1328-4.3008-13.902-13.23-15.211-21.93-0.57031-3.7695 0.30859-7.1562 2.6758-10.344 14.625-19.699 17.852-25.797 18.781-45.656 1.1016-23.523 8.2422-50.129 52.625-50.012 4.4297 11.121 6.9375 23.211 6.9375 35.891 0 42.641-27.582 78.883-65.809 92.051zm-43.238-188.71c0.035156 13.668 6.6328 28.016 6.8203 28.375 0.10547 0.28906 10.469 29.082-2.6211 45.785-12.656 16.148-28.465 11.586-29.098 11.395-0.26562-0.085938-0.56641-0.15234-0.84766-0.19141-1.1836-0.17188-28.523-4.5977-45.516-39.641 15.242-24.699 41.125-42.113 71.262-45.723zm-77.09 56.629c18.629 32.535 45.656 38.172 49.531 38.816 1.1719 0.32422 4.3906 1.082 8.7734 1.082 8.2422 0 20.582-2.6914 31.047-16.051 16.57-21.145 4.6836-54.234 4.0039-56.031-0.070313-0.15234-6.3008-13.738-6.0352-25.133 0.46875-0.007812 0.92188-0.070312 1.3945-0.070312 36.992 0 69.23 20.73 85.723 51.184-20.016 0.41016-55.602 6.7734-58.094 59.879-0.81641 17.461-2.8711 21.301-16.773 40.031-4.0273 5.4258-5.5664 11.484-4.5742 18.012 1.4492 9.5469 8.2344 18.07 13.789 23.637-6.4805 1.3594-13.188 2.0977-20.07 2.0977-10.227 0-20.082-1.6016-29.352-4.5391 10.414-7 24.395-20.133 17.609-37.445-6.125-15.625-15.73-16.703-23.449-17.566-4.6914-0.52344-8.7383-0.98047-12.551-4.4531-14.93-13.617-33.043-13.188-46.211-8.0586-2.1914-8.1016-3.4648-16.574-3.4648-25.359-0.003906-14.277 3.1602-27.801 8.7031-40.031z"/>
</svg>
