<?xml version="1.0" encoding="UTF-8"?>
<svg width="512pt" height="512pt" version="1.1" viewBox="0 0 512 512" xmlns="http://www.w3.org/2000/svg">
 <path d="m261.12 96.441v-40.16c0-2.8203-2.2812-5.1211-5.1211-5.1211s-5.1211 2.3008-5.1211 5.1211v40.16c0 2.8203 2.2812 5.1211 5.1211 5.1211s5.1211-2.3008 5.1211-5.1211z"/>
 <path d="m176.24 122.92c0.87891 0 1.7617-0.21875 2.5586-0.67969 2.4414-1.4219 3.2812-4.5391 1.8789-7l-20.082-34.781c-1.4219-2.4609-4.5586-3.2812-7-1.8789-2.4414 1.4219-3.2812 4.5391-1.8789 7l20.082 34.781c0.96094 1.6406 2.6797 2.5586 4.4414 2.5586z"/>
 <path d="m120.42 171.76-34.801-20.082c-2.4414-1.4219-5.5781-0.57813-7 1.8789-1.4219 2.4414-0.57812 5.5781 1.8789 7l34.801 20.082c0.80078 0.46094 1.6797 0.67969 2.5586 0.67969 1.7617 0 3.4805-0.92187 4.4414-2.5586 1.4219-2.4609 0.57812-5.6016-1.8789-7z"/>
 <path d="m56.32 261.06h40.16c2.8398 0 5.1211-2.3008 5.1211-5.1211s-2.2812-5.1211-5.1211-5.1211h-40.16c-2.8398 0-5.1211 2.3008-5.1211 5.1211 0 2.8398 2.2812 5.1211 5.1211 5.1211z"/>
 <path d="m115.3 331.26-34.801 20.082c-2.4414 1.4219-3.2812 4.5391-1.8789 7 0.96094 1.6406 2.6797 2.5586 4.4414 2.5586 0.87891 0 1.7617-0.21875 2.5586-0.67969l34.801-20.082c2.4414-1.4219 3.2812-4.5391 1.8789-7-1.4219-2.4609-4.5586-3.2812-7-1.8789z"/>
 <path d="m171.8 391.52-20.082 34.781c-1.3984 2.4609-0.55859 5.6016 1.8789 7 0.80078 0.46094 1.6797 0.67969 2.5586 0.67969 1.7617 0 3.4805-0.92188 4.4414-2.5586l20.082-34.781c1.4219-2.4414 0.57812-5.5781-1.8789-7-2.4414-1.3984-5.5781-0.55859-7 1.8789z"/>
 <path d="m250.88 415.46v40.16c0 2.8203 2.2812 5.1211 5.1211 5.1211s5.1211-2.3008 5.1211-5.1211v-40.16c0-2.8203-2.2812-5.1211-5.1211-5.1211s-5.1211 2.3008-5.1211 5.1211z"/>
 <path d="m333.2 389.66c-2.4414 1.4219-3.2812 4.5391-1.8789 7l20.082 34.781c0.96094 1.6406 2.6797 2.5586 4.4414 2.5586 0.87891 0 1.7617-0.21875 2.5586-0.67969 2.4414-1.4219 3.2812-4.5391 1.8789-7l-20.082-34.781c-1.4414-2.4609-4.5586-3.3008-7-1.8789z"/>
 <path d="m389.7 333.14c-1.4219 2.4414-0.57812 5.5781 1.8789 7l34.801 20.082c0.80078 0.46094 1.6797 0.67969 2.5586 0.67969 1.7617 0 3.4805-0.92188 4.4414-2.5586 1.4219-2.4414 0.57812-5.5781-1.8789-7l-34.801-20.082c-2.4414-1.3984-5.5781-0.57812-7 1.8789z"/>
 <path d="m455.68 250.82h-40.16c-2.8398 0-5.1211 2.3008-5.1211 5.1211 0 2.8203 2.2812 5.1211 5.1211 5.1211h40.16c2.8398 0 5.1211-2.3008 5.1211-5.1211 0-2.8203-2.2812-5.1211-5.1211-5.1211z"/>
 <path d="m433.36 153.54c-1.4219-2.4609-4.5586-3.2812-7-1.8789l-34.801 20.082c-2.4414 1.4219-3.2812 4.5391-1.8789 7 0.96094 1.6406 2.6797 2.5586 4.4414 2.5586 0.87891 0 1.7617-0.21875 2.5586-0.67969l34.801-20.082c2.4609-1.4219 3.3008-4.5391 1.8789-7z"/>
 <path d="m335.76 122.92c1.7617 0 3.4805-0.92188 4.4414-2.5586l20.082-34.781c1.3984-2.4609 0.55859-5.5781-1.8789-7-2.4414-1.3984-5.5781-0.57812-7 1.8789l-20.082 34.781c-1.4219 2.4414-0.57812 5.5781 1.8789 7 0.80078 0.46094 1.6797 0.67969 2.5586 0.67969z"/>
 <path d="m385.16 231.54c0-0.10156-0.039062-0.17969-0.058593-0.28125-11.578-60.719-65.039-106.78-129.1-106.78-72.48 0-131.46 58.98-131.46 131.46 0 72.5 58.98 131.46 131.46 131.46 72.48 0 131.46-58.98 131.46-131.46 0-8.3398-0.82031-16.48-2.3008-24.398zm-10.941-2.3594c-9.8594 4.2383-31.621 8.6211-50.801-21.801-6.2617-9.9219-15.48-10.602-22.898-11.121-8.6016-0.62109-14.801-1.0586-19.398-12.801-7.6797-19.621 12.199-36.84 17.52-41 37.719 14.238 66.52 46.762 75.582 86.723zm-156.46-88.238c6.2422 5.0195 18.32 16.84 20.102 28.52 0.76172 4.9805-0.39844 9.4609-3.5195 13.66-18.121 24.398-21.762 31.301-22.922 55.598-1.3984 29.84-10.48 63.758-67.738 62.801-5.7383-14.078-8.9219-29.461-8.9219-45.578 0.019531-53.477 34.84-98.938 83-115zm50 235.64c1.1406-14.84-4.2188-29.379-5.3984-32.418-2.1602-5.5-3.6992-10.52-4.6602-15.34-2.2383-11.082-4.3594-31.781 6.5391-45.922 14.16-18.34 36.801-14.422 38.059-14.199 0.35938 0.039063 35.961 4.9414 57.262 50.18-19.359 31.762-52.922 53.938-91.801 57.703zm97.762-68.699c-23.898-44.199-60.32-49.141-61.641-49.301-1.1992-0.23828-29.68-5.3398-47.762 18.059-13.398 17.359-11.059 41.418-8.4805 54.199 1.0781 5.4219 2.7812 11 5.1797 17.078 2.9414 7.418 5.6797 19.121 4.5586 29.199-0.44141 0.019531-0.92188 0.039062-1.3789 0.039062-46.719 0-87.344-26.602-107.56-65.418 69.844-1.2812 72.383-54.602 73.223-72.562 1.0195-21.719 3.8398-26.98 20.898-49.98 4.7617-6.4219 6.6016-13.578 5.4219-21.301-1.8984-12.52-11.5-23.641-18.461-30.238 8.5195-1.8984 17.379-2.9414 26.48-2.9414 10.781 0 21.219 1.4414 31.18 4.0781-9.3789 8.7617-24.078 26.762-15.602 48.398 6.9609 17.762 19.238 18.641 28.199 19.281 7.3203 0.51953 11.641 1.0781 14.961 6.3594 13.719 21.762 30.199 29.68 45.262 29.68 5.6406 0 11.039-1.1797 16.059-3.0781 0.73828 5.3984 1.1602 10.898 1.1602 16.5 0 18.578-4.1992 36.18-11.699 51.941z"/>
</svg>
