<?xml version="1.0" encoding="UTF-8"?>
<svg width="100pt" height="100pt" version="1.1" viewBox="0 0 100 100" xmlns="http://www.w3.org/2000/svg">
 <path d="m66.438 16.508c-4.8789-4.582-11.27-6.8828-17.969-6.4609-12.121 0.75-21.984 10.852-22.453 22.996-0.25 6.4727 2.0469 12.637 6.4688 17.352 3.3555 3.5742 5.0391 5.8125 5.4375 9.7031-2.6562 0.5625-4.6602 2.9258-4.6602 5.7461 0 2.1953 1.2109 4.1094 3 5.1211v4.6367c0 2.8672 2.0664 5.2578 4.7852 5.7695 0.18359 4.7852 4.1211 8.6289 8.9531 8.6289s8.7695-3.8438 8.9492-8.6289c2.7188-0.51172 4.7852-2.9062 4.7852-5.7734v-4.6328c1.7891-1.0078 3-2.9258 3-5.1211 0-2.8203-2-5.1836-4.6602-5.7461 0.39453-3.8672 2.0312-6.043 5.4961-9.7656 4.1484-4.4492 6.4297-10.254 6.4297-16.34 0-6.5938-2.7578-12.965-7.5625-17.484zm-16.438 71.492c-3.6914 0-6.7148-2.8906-6.9414-6.5234h13.883c-0.22656 3.6328-3.25 6.5234-6.9414 6.5234zm11.734-16.277v3.875c0 2.1367-1.7383 3.875-3.875 3.875l-15.719 0.003906c-2.1367 0-3.875-1.7383-3.875-3.875v-3.8789zm3-5.8789c0 2.1367-1.7383 3.875-3.8789 3.875l-21.715 0.003906c-2.1406 0-3.8789-1.7383-3.8789-3.875 0-2.1367 1.7383-3.875 3.8789-3.875h21.715c2.1406-0.003906 3.8789 1.7344 3.8789 3.8711zm-19.84-25.516h-4.0625c-2.2422 0-4.0625-1.8203-4.0625-4.0625 0-2.2383 1.8203-4.0625 4.0625-4.0625 2.2422 0 4.0625 1.8203 4.0625 4.0625zm8.2109 19.641h-6.2109v-17.641h6.2109zm13.004-11c-3.418 3.6719-5.5586 6.332-6.0234 11h-4.9805v-17.641h4.0625c3.3438 0 6.0625-2.7188 6.0625-6.0625s-2.7188-6.0625-6.0625-6.0625-6.0625 2.7188-6.0625 6.0625v4.0625h-6.2109v-4.0625c0-3.3438-2.7188-6.0625-6.0625-6.0625s-6.0625 2.7188-6.0625 6.0625 2.7188 6.0625 6.0625 6.0625h4.0625v17.641h-4.9609c-0.45703-4.7148-2.5938-7.3203-5.9883-10.938-4.0508-4.3242-6.1562-9.9727-5.9297-15.91 0.42969-11.129 9.4688-20.387 20.578-21.078 6.1641-0.38281 12 1.7188 16.473 5.9219 4.4688 4.2031 6.9336 9.8945 6.9336 16.027 0 5.5781-2.0938 10.898-5.8906 14.977zm-11.004-8.6406v-4.0625c0-2.2383 1.8203-4.0625 4.0625-4.0625 2.2422 0 4.0625 1.8203 4.0625 4.0625 0 2.2383-1.8203 4.0625-4.0625 4.0625z"/>
</svg>
