<?xml version="1.0" encoding="UTF-8"?>
<svg width="100pt" height="100pt" version="1.1" viewBox="0 0 100 100" xmlns="http://www.w3.org/2000/svg">
 <path d="m11 90h10c0.55078 0 1-0.44531 1-1v-5.9375h26.992v5.9375c0 0.55469 0.44922 1 1 1 0.55078 0 1-0.44531 1-1v-5.9375h27.008v5.9375c0 0.55469 0.44922 1 1 1h10c0.55078 0 1-0.44531 1-1v-74c0-2.7578-2.2422-5-5-5h-2c-2.7578 0-5 2.2422-5 5v1.6641h-56v-1.6641c0-2.7578-2.2422-5-5-5h-2c-2.7578 0-5 2.2422-5 5v74c0 0.55469 0.44922 1 1 1zm67-30.406h-5.9922c1.3086-2.9648 2.043-6.2383 2.043-9.6797 0-0.5-0.36719-0.92187-0.85938-0.99219-5.0273-0.70703-9.3477-0.23828-12.941 1.3398 0.53516-1.5508 0.80469-3.0938 0.80469-4.6641 0-1.9219-0.43359-3.7578-1.1172-5.4688h18.062zm-20.68-5.1797c2.9258-2.5391 6.7578-3.8125 11.43-3.8125 1.0508 0 2.1484 0.066407 3.2852 0.19531-0.44922 11.426-9.6328 20.645-21.039 21.152v-2.5703c-0.003906-0.097656 0.089844-9.5547 6.3242-14.965zm1.7305-8.8164c0 2.1172-0.53906 4.1133-1.6875 6.2695-0.46875 0.32812-0.92969 0.66797-1.3672 1.043-3.3398 2.9023-5.0859 6.7383-6 9.9766-0.91406-3.2383-2.6562-7.0742-5.9961-9.9766-0.43359-0.375-0.89062-0.71094-1.3555-1.0391-1.1211-2.1484-1.6953-4.2617-1.6953-6.2773 0-7.0781 6.9648-13.191 9.0508-14.867 2.0859 1.6797 9.0508 7.793 9.0508 14.871zm-31.086 5.1953c6.1836-0.69922 11.129 0.51172 14.711 3.6211 6.2344 5.4102 6.3164 14.867 6.3164 14.961v2.5703c-11.402-0.51562-20.578-9.7305-21.027-21.152zm11.809-0.51953c-3.5977-1.5859-7.9258-2.0547-12.965-1.3477-0.49219 0.070313-0.85938 0.49219-0.85938 0.99219 0 3.4414 0.73438 6.7148 2.043 9.6797h-5.9922v-19.469h18.062c-0.68359 1.707-1.1172 3.543-1.1172 5.4688 0.003907 1.5312 0.28125 3.0938 0.82813 4.6758zm-17.773 30.789v-19.469h6.9883c3.9609 7.0977 11.406 11.996 20.008 12.352v7.1133h-26.996zm28.992 0v-7.1133c8.6055-0.35156 16.055-5.25 20.02-12.352h6.9883v19.465zm29.008-66.062c0-1.6562 1.3438-3 3-3h2c1.6562 0 3 1.3438 3 3v73h-8zm-2 3.6641v19.465h-19c-2.9609-5.4961-8.1133-9.2578-8.418-9.4766-0.34766-0.25-0.82031-0.25-1.168 0-0.30469 0.21875-5.457 3.9766-8.418 9.4766h-18.996v-19.465zm-66-3.6641c0-1.6562 1.3438-3 3-3h2c1.6562 0 3 1.3438 3 3v73h-8z"/>
</svg>
