<?xml version="1.0" encoding="UTF-8"?>
<svg width="512pt" height="512pt" version="1.1" viewBox="0 0 512 512" xmlns="http://www.w3.org/2000/svg">
 <path d="m293.57 235.09c0-20.254-16.48-36.734-36.734-36.734s-36.734 16.48-36.734 36.734c0 20.254 16.48 36.73 36.734 36.73s36.734-16.477 36.734-36.73zm-36.734 26.488c-14.613 0-26.496-11.883-26.496-26.492 0-14.613 11.883-26.496 26.496-26.496 14.613 0 26.496 11.883 26.496 26.496 0 14.609-11.883 26.492-26.496 26.492z"/>
 <path d="m257.04 191.62c2.832 0 5.1211-2.293 5.1211-5.1211v-16.723c0-2.8281-2.2891-5.1211-5.1211-5.1211-2.832 0-5.1211 2.293-5.1211 5.1211v16.727c0 2.8281 2.2891 5.1172 5.1211 5.1172z"/>
 <path d="m251.92 283.29v16.727c0 2.8281 2.2891 5.1211 5.1211 5.1211 2.832 0 5.1211-2.293 5.1211-5.1211v-16.727c0-2.8281-2.2891-5.1211-5.1211-5.1211-2.832 0-5.1211 2.2891-5.1211 5.1211z"/>
 <path d="m278.14 197.27c0.79688 0.45703 1.668 0.67188 2.5273 0.67188 1.7812 0 3.5117-0.92578 4.4531-2.5859l8.2852-14.531c1.3984-2.4531 0.53906-5.582-1.9141-6.9844-2.4609-1.4062-5.5859-0.54688-6.9844 1.9141l-8.2852 14.531c-1.3945 2.457-0.53516 5.5859 1.918 6.9844z"/>
 <path d="m293.87 212.73c0.95703 1.6133 2.6641 2.5078 4.4102 2.5078 0.88672 0 1.7852-0.23047 2.6055-0.71875l14.391-8.5234c2.4336-1.4375 3.2344-4.582 1.7969-7.0156-1.4336-2.4336-4.5664-3.2422-7.0156-1.7969l-14.391 8.5234c-2.4375 1.4453-3.2422 4.5898-1.7969 7.0234z"/>
 <path d="m321.7 228.45h-0.085937l-16.727 0.27734c-2.8281 0.046875-5.0781 2.375-5.0312 5.207 0.046875 2.7969 2.3281 5.0312 5.1211 5.0312h0.085937l16.727-0.27734c2.8281-0.046875 5.0781-2.375 5.0312-5.207-0.046875-2.793-2.3281-5.0312-5.1211-5.0312z"/>
 <path d="m311.27 270.32c0.77734 0.42578 1.6211 0.62891 2.4531 0.62891 1.8125 0 3.5625-0.96094 4.4961-2.6641 1.3633-2.4766 0.44922-5.5898-2.0273-6.9492l-14.668-8.0391c-2.4766-1.3555-5.5977-0.44922-6.9492 2.0273-1.3633 2.4766-0.44922 5.5898 2.0273 6.9492z"/>
 <path d="m286.46 292.6c0.96094 1.5703 2.6484 2.4375 4.3672 2.4375 0.91797 0 1.8398-0.24609 2.6797-0.75781 2.4062-1.4805 3.1602-4.6328 1.6758-7.0391l-8.7656-14.25c-1.4805-2.4102-4.6289-3.1602-7.0469-1.6797-2.4062 1.4805-3.1602 4.6328-1.6758 7.0391z"/>
 <path d="m229.87 274.87-7.793 14.801c-1.3203 2.5-0.35938 5.5977 2.1445 6.918 0.75781 0.39844 1.5781 0.58984 2.3789 0.58984 1.8398 0 3.6211-0.99219 4.5352-2.7344l7.793-14.801c1.3203-2.5 0.35937-5.5977-2.1445-6.918-2.4922-1.3203-5.5977-0.35937-6.9141 2.1445z"/>
 <path d="m213.49 256.24-14.102 8.9961c-2.3867 1.5195-3.082 4.6836-1.5625 7.0703 0.97266 1.5312 2.6328 2.3672 4.3203 2.3672 0.94141 0 1.8945-0.26172 2.75-0.80469l14.102-8.9961c2.3867-1.5195 3.082-4.6836 1.5625-7.0703-1.5195-2.3867-4.6758-3.0898-7.0703-1.5625z"/>
 <path d="m192.3 243 16.707-0.83594c2.8281-0.13672 5.0039-2.543 4.8594-5.3672-0.14844-2.8281-2.5664-5.0859-5.3711-4.8594l-16.707 0.83594c-2.8281 0.13672-5.0039 2.543-4.8594 5.3672 0.13672 2.7383 2.4023 4.8633 5.1094 4.8633 0.082032 0.003907 0.17578 0.003907 0.26172-0.003906z"/>
 <path d="m196.63 209.95 14.93 7.5469c0.74219 0.375 1.5312 0.54688 2.3047 0.54688 1.8672 0 3.6758-1.0273 4.5781-2.8125 1.2734-2.5234 0.26562-5.6016-2.2578-6.8828l-14.93-7.5469c-2.5195-1.2812-5.6055-0.26172-6.8828 2.2578-1.2773 2.5234-0.26562 5.6172 2.2578 6.8906z"/>
 <path d="m226 197.33c0.98438 1.4883 2.6172 2.293 4.2734 2.293 0.96875 0 1.9492-0.27734 2.8203-0.85156 2.3594-1.5625 3.0039-4.7344 1.4453-7.0977l-9.2305-13.953c-1.5664-2.3594-4.7422-3.0117-7.0977-1.4453-2.3594 1.5625-3.0039 4.7344-1.4453 7.0977z"/>
 <path d="m304.88 80.742h-13.953c-2.4805-16.695-16.91-29.543-34.281-29.543s-31.801 12.848-34.285 29.543h-13.953c-14.875 0-26.98 10.824-26.98 24.125v4.8906h-52.504c-2.832 0-5.1211 2.293-5.1211 5.1211v340.8c0 2.8281 2.2891 5.1211 5.1211 5.1211h255.45c2.832 0 5.1211-2.293 5.1211-5.1211l-0.003907-340.8c0-2.8281-2.2891-5.1211-5.1211-5.1211h-52.516v-4.8906c0-13.301-12.102-24.125-26.977-24.125zm-113.21 24.125c0-7.6602 7.5117-13.887 16.742-13.887h18.691c2.832 0 5.1211-2.293 5.1211-5.1211 0-13.465 10.957-24.422 24.422-24.422 13.465 0 24.422 10.957 24.422 24.422 0 2.8281 2.2891 5.1211 5.1211 5.1211h18.691c9.2305 0 16.742 6.2305 16.742 13.887v25.348l-129.95 0.003906zm187.57 345.69h-245.21v-330.56h20.504v298.84c0 2.8281 2.2891 5.1211 5.1211 5.1211h193.96c2.832 0 5.1211-2.293 5.1211-5.1211v-298.84h20.504l0.003906 330.56zm-30.746-330.56v293.72h-183.71v-293.72h16.645v15.344c0 2.8281 2.2891 5.1211 5.1211 5.1211h140.19c2.832 0 5.1211-2.293 5.1211-5.1211v-15.344z"/>
 <path d="m264.47 85.863c0 4.3242-3.5078 7.832-7.832 7.832-4.3281 0-7.8359-3.5078-7.8359-7.832 0-4.3281 3.5078-7.8359 7.8359-7.8359 4.3242 0 7.832 3.5078 7.832 7.8359"/>
 <path d="m317.34 339.73h-120.93c-2.832 0-5.1211 2.293-5.1211 5.1211s2.2891 5.1211 5.1211 5.1211h120.93c2.832 0 5.1211-2.293 5.1211-5.1211s-2.2891-5.1211-5.1211-5.1211z"/>
 <path d="m317.34 366.78h-120.93c-2.832 0-5.1211 2.293-5.1211 5.1211 0 2.8281 2.2891 5.1211 5.1211 5.1211l120.93-0.003906c2.832 0 5.1211-2.293 5.1211-5.1211 0-2.8242-2.2891-5.1172-5.1211-5.1172z"/>
</svg>
