<?xml version="1.0" encoding="UTF-8"?>
<svg width="512pt" height="512pt" version="1.1" viewBox="0 0 512 512" xmlns="http://www.w3.org/2000/svg">
 <path d="m171.54 165.96h-1.1055c-12.168 0-22.066-9.8633-22.066-21.988s9.8984-21.988 22.066-21.988c12.164 0 22.062 9.8633 22.062 21.988 0 2.8281 2.293 5.1211 5.1211 5.1211s5.1211-2.293 5.1211-5.1211c0-16.031-11.801-29.324-27.184-31.785v-7.1172c0-2.8281-2.293-5.1211-5.1211-5.1211-2.8281 0-5.1211 2.293-5.1211 5.1211v7.1172c-15.383 2.4609-27.184 15.754-27.184 31.785 0 17.77 14.492 32.227 32.305 32.227h1.1055c12.164 0 22.062 9.8633 22.062 21.988s-9.8984 21.988-22.062 21.988c-12.164 0-22.062-9.8633-22.062-21.988 0-2.8281-2.293-5.1211-5.1211-5.1211-2.8281 0-5.1211 2.293-5.1211 5.1211 0 15.648 11.234 28.711 26.078 31.617v7.2852c0 2.8281 2.293 5.1211 5.1211 5.1211 2.8281 0 5.1211-2.293 5.1211-5.1211v-6.9453c15.922-1.9805 28.289-15.539 28.289-31.953-0.003906-17.773-14.492-32.23-32.305-32.23z"/>
 <path d="m341.57 165.96h-1.1055c-12.164 0-22.062-9.8633-22.062-21.988s9.8984-21.988 22.062-21.988c12.164 0 22.062 9.8633 22.062 21.988 0 2.8281 2.293 5.1211 5.1211 5.1211 2.8281 0 5.1211-2.293 5.1211-5.1211 0-16.031-11.801-29.324-27.184-31.785v-7.1172c0-2.8281-2.293-5.1211-5.1211-5.1211s-5.1211 2.293-5.1211 5.1211v7.1172c-15.383 2.4609-27.184 15.754-27.184 31.785 0 17.77 14.488 32.227 32.301 32.227h1.1055c12.168 0 22.066 9.8633 22.066 21.988s-9.8984 21.988-22.066 21.988c-12.164 0-22.062-9.8633-22.062-21.988 0-2.8281-2.293-5.1211-5.1211-5.1211-2.8281 0-5.1211 2.293-5.1211 5.1211 0 15.648 11.234 28.711 26.078 31.617v7.2852c0 2.8281 2.293 5.1211 5.1211 5.1211 2.8281 0 5.1211-2.293 5.1211-5.1211v-6.9453c15.922-1.9805 28.289-15.539 28.289-31.953 0.003906-17.773-14.488-32.23-32.301-32.23z"/>
 <path d="m341.02 51.199c-33.199 0-63.281 13.594-84.996 35.508-22.406-22.598-53.148-35.508-85.035-35.508-66.051 0-119.79 53.777-119.79 119.88s53.734 119.88 119.78 119.88c31.875 0 62.629-12.914 85.035-35.508 21.719 21.91 51.797 35.508 85 35.508 66.051 0 119.79-53.777 119.79-119.88s-53.734-119.88-119.79-119.88zm-170.03 229.52c-60.406 0-109.54-49.188-109.54-109.64 0-60.457 49.137-109.64 109.54-109.64 29.34 0 57.613 11.949 78.137 32.852-17.395 20.812-27.883 47.594-27.883 76.785 0 29.195 10.492 55.973 27.887 76.789-20.527 20.898-48.816 32.852-78.141 32.852zm170.03 0c-60.402 0-109.54-49.184-109.54-109.64 0.003906-60.457 49.141-109.64 109.54-109.64 60.406 0 109.54 49.18 109.54 109.64 0 60.453-49.137 109.64-109.54 109.64z"/>
 <path d="m455.9 450.61v-138.72c0-2.8281-2.293-5.1211-5.1211-5.1211h-67.055c-2.8281 0-5.1211 2.293-5.1211 5.1211l0.003906 138.67h-30.211v-110.6c0-2.8281-2.293-5.1211-5.1211-5.1211h-67.051c-2.8281 0-5.1211 2.293-5.1211 5.1211v110.6h-30.211v-88.555c0-2.8281-2.293-5.1211-5.1211-5.1211l-67.055 0.003907c-2.8281 0-5.1211 2.293-5.1211 5.1211l0.003906 88.551h-30.207l-0.003906-59.258c0-2.8281-2.293-5.1211-5.1211-5.1211l-67.051 0.003906c-2.8281 0-5.1211 2.293-5.1211 5.1211v59.301c-2.7188 0.12109-4.8984 2.3242-4.8984 5.0742 0 2.8281 2.293 5.1211 5.1211 5.1211h399.36c2.8281 0 5.1211-2.293 5.1211-5.1211 0-2.75-2.1797-4.9531-4.8984-5.0742zm-67.055-133.6h56.816v133.55h-56.816zm-107.5 28.07h56.816v105.48h-56.816zm-107.5 22.047h56.816v83.434h-56.816zm-50.688 29.297v54.137h-56.816v-54.137z"/>
</svg>
