<?xml version="1.0" encoding="UTF-8"?>
<svg width="512pt" height="512pt" version="1.1" viewBox="0 0 512 512" xmlns="http://www.w3.org/2000/svg">
 <path d="m259.07 197.12c-19.969 0-36.352 16.383-36.352 36.352s16.383 36.352 36.352 36.352 36.352-16.383 36.352-36.352c0.003906-19.969-16.383-36.352-36.352-36.352zm0 61.949c-14.336 0-26.113-11.777-26.113-26.113 0-14.336 11.777-26.113 26.113-26.113 14.336 0 26.113 11.777 26.113 26.113 0 14.34-11.777 26.113-26.113 26.113z"/>
 <path d="m259.07 190.46c3.0703 0 5.1211-2.0469 5.1211-5.1211v-16.383c0-3.0703-2.0469-5.1211-5.1211-5.1211-3.0703 0-5.1211 2.0469-5.1211 5.1211v16.383c0.003906 3.0703 2.5625 5.1211 5.1211 5.1211z"/>
 <path d="m253.95 280.57v16.387c0 3.0703 2.0469 5.1211 5.1211 5.1211 3.0703 0 5.1211-2.0469 5.1211-5.1211v-16.383c0-3.0703-2.0469-5.1211-5.1211-5.1211s-5.1211 2.0469-5.1211 5.1172z"/>
 <path d="m279.55 196.1c1.0234 0.51172 1.5352 0.51172 2.5586 0.51172 1.5352 0 3.5859-1.0234 4.6094-2.5586l8.1914-14.336c1.5352-2.5586 0.51172-5.6328-2.0469-7.168-2.5586-1.5352-5.6328-0.51172-7.168 2.0469l-7.6797 14.848c-1.5352 2.0469-0.51172 5.1172 1.5352 6.6562z"/>
 <path d="m295.43 211.46c1.0234 1.5352 2.5586 2.5586 4.6094 2.5586 1.0234 0 1.5352 0 2.5586-0.51172l14.336-8.1914c2.5586-1.5352 3.0703-4.6094 2.0469-7.168-1.5352-2.5586-4.6094-3.0703-7.168-2.0469l-14.848 8.1914c-2.5625 1.5352-3.0742 4.6055-1.5352 7.168z"/>
 <path d="m301.05 231.94c0 2.5586 2.5586 5.1211 5.1211 5.1211l16.383-0.51172c3.0703 0 5.1211-2.5586 5.1211-5.1211 0-2.5586-2.5586-5.1211-5.1211-5.1211l-16.383 0.51172c-3.0703 0-5.1211 2.5586-5.1211 5.1211z"/>
 <path d="m312.32 267.78c1.0234 0.51172 1.5352 0.51172 2.5586 0.51172 2.0469 0 3.5859-1.0234 4.6094-2.5586 1.5352-2.5586 0.51172-5.6328-2.0469-7.168l-14.848-7.6836c-2.5586-1.5352-5.6328-0.51172-7.168 2.0469-1.5352 2.5586-0.51172 5.6328 2.0469 7.168z"/>
 <path d="m281.09 268.8c-2.5586 1.5352-3.0703 4.6094-1.5352 7.168l8.7031 13.824c1.0234 1.5352 2.5586 2.5586 4.6094 2.5586 1.0234 0 2.0469 0 2.5586-0.51172 2.5586-1.5352 3.0703-4.6094 1.5352-7.168l-8.7031-13.824c-1.5391-3.0703-4.6094-3.582-7.168-2.0469z"/>
 <path d="m232.45 272.38-7.6797 14.336c-1.5352 2.5586-0.51172 5.6328 2.0469 7.168 0.51172 0.51172 1.5352 0.51172 2.5586 0.51172 2.0469 0 3.5859-1.0234 4.6094-2.5586l7.6797-14.336c1.5352-2.5586 0.51172-5.6328-2.0469-7.168-2.5625-1.5352-6.1445-0.51172-7.168 2.0469z"/>
 <path d="m216.57 253.95-13.824 8.7031c-2.5586 1.5352-3.0703 4.6094-1.5352 7.168 1.0234 1.5352 2.5586 2.5586 4.0977 2.5586 1.0234 0 2.0469-0.51172 2.5586-1.0234l13.824-8.7031c2.5586-1.5352 3.0703-4.6094 1.5352-7.168-1.5352-2.5586-4.6055-3.0742-6.6562-1.5352z"/>
 <path d="m195.59 241.15 16.895-1.0234c3.0703 0 5.1211-2.5586 4.6094-5.1211 0-3.0703-2.5586-5.1211-5.1211-4.6094l-16.383 1.0234c-3.0703 0-5.1211 2.5586-4.6094 5.1211-0.51172 2.5625 1.5352 4.6094 4.6094 4.6094z"/>
 <path d="m199.68 208.89 14.848 7.168c0.51172 0.51172 1.5352 0.51172 2.5586 0.51172 2.0469 0 3.5859-1.0234 4.6094-2.5586 1.0234-2.5586 0.51172-5.6328-2.0469-6.6562l-15.359-7.6797c-2.5586-1.0234-5.6328-0.51172-6.6562 2.0469-1.0234 2.5625-0.51172 5.6328 2.0469 7.168z"/>
 <path d="m228.35 196.1c1.0234 1.5352 2.5586 2.0469 4.0977 2.0469 1.0234 0 2.0469-0.51172 3.0703-1.0234 2.5586-1.5352 3.0703-4.6094 1.5352-7.168l-9.2148-13.824c-1.5352-2.5586-4.6094-3.0703-7.168-1.5352s-3.0703 4.6094-1.5352 7.168z"/>
 <path d="m266.24 87.039c0 4.2422-3.4375 7.6797-7.6797 7.6797-4.2383 0-7.6797-3.4375-7.6797-7.6797 0-4.2422 3.4414-7.6797 7.6797-7.6797 4.2422 0 7.6797 3.4375 7.6797 7.6797"/>
 <path d="m384 110.08h-51.199v-4.6094c0-13.312-11.777-23.551-26.625-23.551h-13.824c-2.5586-16.383-16.895-29.184-33.793-29.184-16.895 0-31.23 12.801-33.277 29.188h-13.824c-14.848 0-26.625 10.754-26.625 23.551v4.6094h-51.199c-3.0703 0-5.1211 2.0469-5.1211 5.1211v334.34c0 3.0703 2.0469 5.1211 5.1211 5.1211h250.88c3.0703 0 5.1211-2.0469 5.1211-5.1211v-334.34c-0.51172-2.5586-2.5625-5.1211-5.6328-5.1211zm-188.93-4.6055c0-7.6797 7.168-13.312 16.383-13.312h18.434c3.0703 0 5.1211-2.0469 5.1211-5.1211 0-13.312 10.754-24.062 24.062-24.062 13.312 0 24.062 10.754 24.062 24.062 0 3.0703 2.0469 5.1211 5.1211 5.1211h18.434c9.2148 0 16.383 6.1445 16.383 13.312v24.574h-128zm-5.1172 34.816h137.73c3.0703 0 5.1211-2.0469 5.1211-5.1211v-14.848h16.383v288.26l-180.22-0.003906v-288.25h16.383v14.848c-0.51172 3.0703 1.5352 5.1211 4.6094 5.1211zm188.93 304.12h-240.64v-324.09h20.48v293.38c0 3.0703 2.0469 5.1211 5.1211 5.1211h190.46c3.0703 0 5.1211-2.0469 5.1211-5.1211v-293.38h19.453z"/>
 <path d="m318.46 335.87h-118.79c-3.0703 0-5.1211 2.0469-5.1211 5.1211 0 3.0703 2.0469 5.1211 5.1211 5.1211h118.79c3.0703 0 5.1211-2.0469 5.1211-5.1211 0-3.0703-2.5625-5.1211-5.1211-5.1211z"/>
 <path d="m318.46 362.5h-118.79c-3.0703 0-5.1211 2.0469-5.1211 5.1211 0 3.0703 2.0469 5.1211 5.1211 5.1211h118.79c3.0703 0 5.1211-2.0469 5.1211-5.1211 0-3.0742-2.5625-5.1211-5.1211-5.1211z"/>
</svg>
