<?xml version="1.0" encoding="UTF-8"?>
<svg width="512pt" height="512pt" version="1.1" viewBox="0 0 512 512" xmlns="http://www.w3.org/2000/svg">
 <path d="m218.24 285.8c-2.8398 0-5.1211 2.3008-5.1211 5.1211v31.582c0 2.8203 2.2812 5.1211 5.1211 5.1211 2.8398 0 5.1211-2.3008 5.1211-5.1211v-31.582c0-2.8203-2.2812-5.1211-5.1211-5.1211z"/>
 <path d="m256 285.8c-2.8398 0-5.1211 2.3008-5.1211 5.1211v31.582c0 2.8203 2.2812 5.1211 5.1211 5.1211s5.1211-2.3008 5.1211-5.1211v-31.582c0-2.8203-2.2812-5.1211-5.1211-5.1211z"/>
 <path d="m293.76 285.8c-2.8398 0-5.1211 2.3008-5.1211 5.1211v31.582c0 2.8203 2.2812 5.1211 5.1211 5.1211 2.8398 0 5.1211-2.3008 5.1211-5.1211v-31.582c0-2.8203-2.2812-5.1211-5.1211-5.1211z"/>
 <path d="m455.68 51.199h-399.36c-2.8398 0-5.1211 2.3008-5.1211 5.1211v330.2c0 2.8203 2.2812 5.1211 5.1211 5.1211h27.602v22.84c0 2.8203 2.2812 5.1211 5.1211 5.1211h35.238l0.019531 20.719c0 11.301 9.1797 20.48 20.48 20.48h21.02c11.301 0 20.48-9.1797 20.48-20.48v-20.699h139.44v20.699c0 11.301 9.1797 20.48 20.48 20.48h21.02c11.301 0 20.48-9.1797 20.48-20.48v-20.699h35.238c2.8398 0 5.1211-2.3008 5.1211-5.1211v-22.84l27.621-0.019531c2.8398 0 5.1211-2.3008 5.1211-5.1211v-330.2c0-2.8203-2.2812-5.1211-5.1211-5.1211zm-279.64 389.12c0 5.6406-4.6016 10.238-10.238 10.238h-21.02c-5.6406 0-10.238-4.6016-10.238-10.238v-20.699h41.5zm201.42 0c0 5.6406-4.6016 10.238-10.238 10.238h-21.02c-5.6406 0-10.238-4.6016-10.238-10.238v-20.699h41.5zm40.379-30.941h-323.68v-39.52h323.66zm-10.738-86.398h-55.781v-5.918c0-15.039 12.238-27.281 27.281-27.281h28.52zm-273.7-33.18c15.039 0 27.281 12.238 27.281 27.281v5.918l-55.762-0.019531v-33.199zm-28.48 43.422h60.883c2.8398 0 5.1211-2.3008 5.1211-5.1211v-11.039c0-20.68-16.84-37.52-37.52-37.52h-28.5v-1.8789c-0.039062-8.1211-0.078125-15.781 0.42188-24.922h301.38c0.48047 9.1406 0.46094 16.801 0.42188 24.922v1.8789h-28.52c-20.68 0-37.52 16.82-37.52 37.52v11.039c0 2.8203 2.2812 5.1211 5.1211 5.1211h60.902v26.398h-302.18zm1.1211-90.699c2.0781-23.418 7.7383-57.84 22.941-125.52 2.3008-10.238 11.578-17.68 22.059-17.68h209.92c10.48 0 19.762 7.4414 22.059 17.68 15.199 67.68 20.859 102.1 22.941 125.52zm344.52 138.88h-22.48v-16.66c0-2.8203-2.2812-5.1211-5.1211-5.1211h-5.6406v-74.859l0.019532-7.0195c0.16016-29.859 0.26172-53.441-24.32-162.98-3.3984-15.121-16.582-25.68-32.059-25.68h-209.92c-15.48 0-28.66 10.559-32.059 25.68-24.602 109.54-24.48 133.12-24.32 162.98l0.019532 81.879h-5.6211c-2.8398 0-5.1211 2.3008-5.1211 5.1211v16.66h-22.5v-319.96h389.12z"/>
 <path d="m188.54 166.48c-2-2-5.2383-2-7.2383 0s-2 5.2383 0 7.2383l15.621 15.621c1 1 2.3203 1.5 3.6211 1.5s2.6211-0.5 3.6211-1.5c2-2 2-5.2383 0-7.2383z"/>
 <path d="m159.8 178.88c-2-2-5.2383-2-7.2383 0s-2 5.2383 0 7.2383l31.941 31.941c1 1 2.3203 1.5 3.6211 1.5s2.6211-0.5 3.6211-1.5c2-2 2-5.2383 0-7.2383z"/>
</svg>
