<?xml version="1.0" encoding="UTF-8"?>
<svg width="100pt" height="100pt" version="1.1" viewBox="0 0 100 100" xmlns="http://www.w3.org/2000/svg">
 <path d="m76.219 29.969c1.4102-1.5898 2.2812-3.6797 2.2812-5.9688 0-4.9609-4.0391-9-9-9-3.1992 0-6.0117 1.6914-7.6094 4.2188-3.7812-1.4609-7.7812-2.2188-11.891-2.2188-18.199 0-33 14.801-33 33s14.801 33 33 33 33-14.801 33-33c0-7.2305-2.4102-14.309-6.7812-20.031zm-6.7188-12.969c3.8594 0 7 3.1406 7 7s-3.1406 7-7 7-7-3.1406-7-7 3.1406-7 7-7zm-19.5 64c-17.09 0-31-13.91-31-31s13.91-31 31-31c3.8086 0 7.5117 0.69141 11.02 2.0195-0.32812 0.92969-0.51953 1.9297-0.51953 2.9805 0 4.9609 4.0391 9 9 9 1.9492 0 3.75-0.62891 5.2305-1.6914 4.0508 5.3516 6.2695 11.949 6.2695 18.691 0 17.09-13.91 31-31 31z"/>
 <path d="m50 33c-9.3711 0-17 7.6289-17 17s7.6289 17 17 17 17-7.6289 17-17-7.6289-17-17-17zm0 32c-8.2695 0-15-6.7305-15-15s6.7305-15 15-15 15 6.7305 15 15-6.7305 15-15 15z"/>
 <path d="m58 49h-7v-7c0-0.55078-0.44922-1-1-1s-1 0.44922-1 1v7h-7c-0.55078 0-1 0.44922-1 1s0.44922 1 1 1h7v7c0 0.55078 0.44922 1 1 1s1-0.44922 1-1v-7h7c0.55078 0 1-0.44922 1-1s-0.44922-1-1-1z"/>
 <path d="m66 25h7c0.55078 0 1-0.44922 1-1s-0.44922-1-1-1h-7c-0.55078 0-1 0.44922-1 1s0.44922 1 1 1z"/>
</svg>
