<?xml version="1.0" encoding="UTF-8"?>
<svg width="512pt" height="512pt" version="1.1" viewBox="0 0 512 512" xmlns="http://www.w3.org/2000/svg">
 <path d="m455.68 51.199h-224.9c-2.8203 0-5.1211 2.3008-5.1211 5.1211v38.66c0 2.8203 2.3008 5.1211 5.1211 5.1211h18.441l-35.059 122.9-130.26 27.801c-18.941 3.0781-32.699 19.238-32.699 38.422v126.38c0 2.8203 2.3008 5.1211 5.1211 5.1211h24.219c6.5 23.102 27.719 40.078 52.859 40.078 25.16 0 46.359-16.98 52.879-40.078h63.719v10.66c0 2.8203 2.3008 5.1211 5.1211 5.1211 2.8203 0 5.1211-2.3008 5.1211-5.1211v-10.66h40.039c15.539 24.078 42.539 40.078 73.277 40.078 48.102 0 87.238-39.121 87.238-87.18 0-21.68-8-41.48-21.141-56.738v-51.461h16.02c2.8203 0 5.1211-2.3008 5.1211-5.1211 0-2.8203-2.3008-5.1211-5.1211-5.1211h-16.02v-155.08h16.02c2.8203 0 5.1211-2.3008 5.1211-5.1211v-38.66c0-2.8203-2.3008-5.1211-5.1211-5.1211zm-322.28 399.36c-24.66 0-44.719-20.039-44.719-44.699 0-24.641 20.059-44.699 44.719-44.699s44.719 20.039 44.719 44.699c0.019531 24.66-20.059 44.699-44.719 44.699zm240.16 0c-42.461 0-77-34.52-77-76.938 0-42.418 34.539-76.938 77-76.938s77 34.52 77 76.938c0 42.418-34.539 76.938-77 76.938zm55.859-143.84c-15.141-12.641-34.621-20.281-55.84-20.281-48.102 0-87.238 39.121-87.238 87.18 0 13.18 3.0391 25.66 8.3008 36.859h-34.398v-44.5c0-55.461 45.16-100.58 100.66-100.58h68.52zm-68.543-51.539c-61.137 0-110.9 49.719-110.9 110.82v44.5l-61.84-0.019531c0.12109-1.5195 0.23828-3.0586 0.23828-4.6211 0-30.301-24.66-54.938-54.957-54.938-30.32 0-54.957 24.641-54.957 54.938 0 1.5586 0.10156 3.1016 0.23828 4.6211h-17.262v-121.26c0-14.141 10.141-26.059 24.359-28.359l132.98-28.379h210.64v22.699zm68.543-32.941h-204.4l34.84-122.14h169.54zm21.141-132.38h-214.66v-28.422h214.66z"/>
</svg>
