<?xml version="1.0" encoding="UTF-8"?>
<svg width="512pt" height="512pt" version="1.1" viewBox="0 0 512 512" xmlns="http://www.w3.org/2000/svg">
 <path d="m449.62 299.36-124.2-50.719c-1.3203-0.53906-2.8008-0.5-4.1016 0.10156l-24.621 11.5c0.16016-1.4805 0.26172-2.9805 0.26172-4.5 0-18.602-12.52-34.32-29.559-39.262l20.059-18.32c1.0586-0.96094 1.6602-2.3398 1.6602-3.7812v-125.12c0-9.9609-8.1016-18.059-18.078-18.059h-29.141c-9.9609 0-18.078 8.1016-18.078 18.059v125.12c0 1.3984 0.57813 2.7617 1.6016 3.7188l19.379 18.32c-17.141 4.8789-29.762 20.641-29.762 39.32 0 1.5195 0.10156 3.0195 0.26172 4.5l-24.621-11.5c-1.3008-0.60156-2.7812-0.64062-4.1016-0.10156l-124.22 50.719c-4.4609 1.8398-7.9414 5.3203-9.7812 9.7578-1.8398 4.4609-1.8398 9.3594 0 13.82l11.16 26.879c2.8789 6.9609 9.6211 11.16 16.719 11.16 2.3008 0 4.6211-0.44141 6.8789-1.3594l124.18-50.699c1.3203-0.53906 2.3398-1.6016 2.8398-2.9219l9.5391-24.922c2.1406 2.6992 4.6211 5.1016 7.3594 7.1992l-23.699 166.68c-0.39844 2.8008 1.5586 5.3984 4.3594 5.8008 0.23828 0.019531 0.48047 0.039062 0.71875 0.039062 2.5 0 4.6992-1.8398 5.0586-4.3984l23.141-162.68c4.6992 1.8789 9.8008 2.9414 15.16 2.9414s10.461-1.0586 15.16-2.9414l23.141 162.68c0.35938 2.5586 2.5391 4.3984 5.0586 4.3984 0.23828 0 0.48047-0.019531 0.71875-0.039062 2.8008-0.39844 4.7383-3 4.3594-5.8008l-23.699-166.68c2.7383-2.0781 5.2188-4.5 7.3594-7.1992l9.5391 24.922c0.5 1.3203 1.5391 2.3789 2.8398 2.9219l124.18 50.699c2.2617 0.94141 4.6016 1.3789 6.8984 1.3789 7.1016 0 13.84-4.1992 16.719-11.141l11.16-26.879c1.8398-4.4609 1.8398-9.3594 0-13.82-1.8594-4.4805-5.3398-7.9414-9.8203-9.8008zm-244.02 0.92188-122.18 49.879c-3.9805 1.6406-8.582-0.23828-10.238-4.2383l-11.16-26.879c-0.80078-1.9219-0.80078-4.0391 0-5.9805 0.80078-1.9219 2.3008-3.4414 4.2188-4.2188l122.12-49.879 28.02 13.078zm28.48-231.02c0-4.3203 3.5195-7.8203 7.8398-7.8203h29.141c4.3203 0 7.8398 3.5 7.8398 7.8203v122.88l-22.82 20.84-22-20.801zm-8.8008 186.48c0-16.922 13.781-30.68 30.719-30.68 16.941 0 30.719 13.762 30.719 30.68 0 16.922-13.781 30.68-30.719 30.68-16.941 0-30.719-13.762-30.719-30.68zm224.68 63.297-11.16 26.879c-1.6602 3.9805-6.2422 5.8789-10.262 4.2188l-122.16-49.879-10.801-28.219 28.02-13.078 122.12 49.859c1.9414 0.80078 3.4414 2.3008 4.2383 4.2383 0.80078 1.9414 0.80078 4.0586 0 5.9805z"/>
 <path d="m189.64 121.8c-48.699 24.539-79.781 73.559-81.121 127.9-0.078125 2.8203 2.1602 5.1797 5 5.2383h0.12109c2.7617 0 5.0391-2.1992 5.1211-5 1.2383-50.559 30.18-96.16 75.48-119 2.5195-1.2812 3.5391-4.3594 2.2617-6.8789-1.2617-2.5-4.3398-3.5391-6.8594-2.2617z"/>
 <path d="m450.4 274.36h0.35938c2.6602 0 4.9219-2.0781 5.1016-4.7617 0.32031-4.5781 0.48047-9.2383 0.48047-13.859 0-85.121-54.078-161.08-134.6-189-2.6602-0.94141-5.5781 0.48047-6.5195 3.1602-0.92188 2.6797 0.48047 5.6016 3.1602 6.5195 76.379 26.5 127.72 98.582 127.72 179.34 0 4.3789-0.16016 8.8203-0.44141 13.16-0.19922 2.8008 1.9219 5.2383 4.7383 5.4414z"/>
 <path d="m196.78 69.898c-0.92188-2.6797-3.8594-4.0781-6.5195-3.1602-80.5 27.918-134.6 103.88-134.6 189 0 4.4414 0.14062 8.9219 0.44141 13.32 0.17969 2.7188 2.4414 4.7812 5.1016 4.7812h0.33984c2.8203-0.17969 4.9609-2.6211 4.7812-5.4414-0.28125-4.1602-0.42188-8.418-0.42188-12.641 0-80.758 51.316-152.84 127.72-179.34 2.6602-0.94141 4.0781-3.8594 3.1602-6.5195z"/>
</svg>
