<?xml version="1.0" encoding="UTF-8"?>
<svg width="512pt" height="512pt" version="1.1" viewBox="0 0 512 512" xmlns="http://www.w3.org/2000/svg">
 <path d="m411.65 398.85h-17.922l-10.238-312.83c0-2.5586-2.5586-5.1211-5.1211-5.1211h-37.887c-2.5586 0-5.1211 2.0469-5.1211 5.1211l-4.6094 141.82-14.336-8.7031-3.5859-83.969c0-2.5586-2.5586-5.1211-5.1211-5.1211h-22.527c-2.5586 0-5.1211 2.0469-5.1211 5.1211l-3.0664 59.391-15.871-10.238c-1.5352-1.0234-3.5859-1.0234-5.1211 0-1.5352 1.0234-2.5586 2.5586-2.5586 4.6094v33.793l-7.6797-4.6094-3.5859-83.457c0-2.5586-2.5586-5.1211-5.1211-5.1211h-22.527c-2.5586 0-5.1211 2.0469-5.1211 5.1211l-3.0703 59.902-17.406-10.238c-1.5352-1.0234-3.5859-1.0234-5.1211 0-1.5352 1.0234-2.5586 2.5586-2.5586 4.6094v33.793l-6.6562-4.0977-3.5859-83.457c0-2.5586-2.5586-5.1211-5.1211-5.1211h-22.527c-2.5586 0-5.1211 2.0469-5.1211 5.1211l-2.5586 60.414-18.434-11.262c-1.5352-1.0234-3.5859-1.0234-5.1211 0-1.5352 1.0234-2.5586 2.5586-2.5586 4.6094v209.92h-9.7266c-3.0703 0-5.1211 2.0469-5.1211 5.1211 0 3.0703 2.0469 5.1211 5.1211 5.1211h311.81c3.0703 0 5.1211-2.0469 5.1211-5.1211 0-3.0781-2.5625-5.125-5.1211-5.125zm-66.047-307.71h27.648l10.238 307.71h-47.617zm-55.809 49.152h12.801l3.0703 72.191-18.945-11.777zm-70.656 0h12.801l3.0703 71.68-18.945-11.266zm-71.168 0h12.801l3.0703 72.191-18.945-11.266zm-28.16 57.344 64 38.398c1.5352 1.0234 3.5859 1.0234 5.1211 0 1.5352-1.0234 2.5586-2.5586 2.5586-4.6094v-33.793l64 38.398c1.5352 1.0234 3.5859 1.0234 5.1211 0 1.5352-1.0234 2.5586-2.5586 2.5586-4.0977l0.51172-10.238v-23.551l66.559 41.473-5.1211 159.23-205.31 0.003906z"/>
 <path d="m279.04 258.56c0-0.51172-0.51172-1.0234-1.0234-1.5352v-0.51172c-0.51172-0.51172-1.0234-1.0234-1.5352-1.5352h-0.51172c-0.51172 0-1.0234-0.51172-1.5352-0.51172h-0.51172-1.5352c-3.0742 1.5352-60.93 25.086-77.828 54.781-11.777-4.6094-22.016-7.168-22.527-7.168h-1.5352-0.51172c-0.51172 0-1.5352 0.51172-2.0469 1.0234-0.51172 0.51172-1.0234 1.0234-1.0234 1.5352v0.51172c0 0.51172-0.51172 1.0234-0.51172 1.5352 0 1.5352-4.6094 41.473 8.1914 59.391 6.1445 8.7031 15.871 13.312 25.602 13.312 5.1211 0 10.238-1.5352 15.359-4.0977 6.6562 3.0703 13.824 4.6094 20.992 4.6094 18.434 0 36.352-9.7266 45.055-26.113 14.336-31.227-2.0508-92.664-2.5625-95.227zm-16.383 11.777-33.793 67.07c-1.0234-2.5586-2.0469-5.6328-4.0977-7.6797-4.6094-6.6562-12.801-11.777-20.992-16.383 11.266-17.918 41.473-34.305 58.883-43.008zm-46.082 65.023c5.6328 8.1914 5.1211 18.945-1.5352 26.113l-32.258-45.566c12.289 4.0938 27.652 10.75 33.793 19.453zm-34.812 24.578c-5.6328-8.1914-7.168-25.09-7.168-37.887l32.258 45.566c-8.707 3.582-19.461 0.51172-25.09-7.6797zm89.598-10.754c-8.1914 15.871-28.672 24.062-46.078 19.457l47.105-93.695c3.582 19.453 8.7031 54.781-1.0273 74.238z"/>
</svg>
