<?xml version="1.0" encoding="UTF-8"?>
<svg width="100pt" height="100pt" version="1.1" viewBox="0 0 100 100" xmlns="http://www.w3.org/2000/svg">
 <path d="m34.785 40.984h17.645c0.55469 0 1-0.44531 1-1v-2.125c0-5.4141-4.4062-9.8203-9.8203-9.8203s-9.8203 4.4062-9.8203 9.8203v2.125c-0.003906 0.55469 0.44141 1 0.99609 1zm1-3.125c0-4.3125 3.5078-7.8203 7.8203-7.8203s7.8203 3.5078 7.8203 7.8203v1.125h-15.641z"/>
 <path d="m89 67.816h-5.6719v-46.398c0-6.2969-5.125-11.418-11.418-11.418-6.2969 0-11.418 5.1211-11.418 11.418v4.4961l-16.539-8.8789c-0.29688-0.16016-0.65625-0.16016-0.94922 0l-25.809 13.988c-0.32031 0.17578-0.52344 0.51172-0.52344 0.87891v35.914h-5.6719c-0.55469 0-1 0.44531-1 1 0 0.55469 0.44531 1 1 1h78c0.55469 0 1-0.44531 1-1 0-0.55469-0.44531-1-1-1zm-26.508-46.398c0-5.1914 4.2266-9.418 9.418-9.418s9.418 4.2266 9.418 9.418v46.398h-10.789v-35.914c0-0.36719-0.20312-0.70703-0.52734-0.88281l-7.5195-4.0352zm-43.82 11.082 24.809-13.445 25.059 13.449v35.312h-10.172v-19.086c0-0.55469-0.44531-1-1-1h-27.52c-0.55469 0-1 0.44531-1 1v19.086h-10.176zm37.695 35.316h-25.52v-18.086h25.52z"/>
 <path d="m90 78.438c0-0.5-0.36719-0.92188-0.85938-0.99219-1.5312-0.21484-2.8867-0.125-4.0664 0.25-0.24219-1.3516-0.99609-3.3203-3.2422-5.0703-0.35938-0.28125-0.86719-0.28125-1.2305 0-2.2422 1.75-3 3.7188-3.2422 5.0703-1.1797-0.375-2.5352-0.46875-4.0664-0.25391-0.49219 0.070313-0.85938 0.49219-0.85938 0.99219 0 4.5312 3.4062 8.2734 7.7812 8.7734v0.79297h-18.812v-0.78516c4.375-0.5 7.7812-4.2461 7.7812-8.7734 0-0.5-0.36719-0.92188-0.85938-0.99219-1.5273-0.21484-2.8828-0.125-4.0664 0.25-0.24219-1.3516-0.99609-3.3203-3.2422-5.0703-0.35938-0.28125-0.86719-0.28125-1.2305 0-2.2422 1.75-3 3.7188-3.2422 5.0703-1.1797-0.37891-2.5352-0.46875-4.0664-0.25-0.48437 0.070312-0.85156 0.49219-0.85156 0.98828 0 4.5312 3.4062 8.2734 7.7812 8.7734v0.78906h-18.812v-0.78516c4.375-0.5 7.7812-4.2461 7.7812-8.7734 0-0.5-0.36719-0.92188-0.85938-0.99219-1.5273-0.21484-2.8828-0.125-4.0664 0.25-0.24219-1.3516-0.99609-3.3203-3.2422-5.0703-0.35938-0.28125-0.86719-0.28125-1.2305 0-2.2422 1.75-3 3.7188-3.2422 5.0703-1.1797-0.375-2.5352-0.46875-4.0664-0.25-0.48828 0.070312-0.85547 0.49219-0.85547 0.98828 0 4.5312 3.4062 8.2734 7.7812 8.7734v0.78906h-18.812v-0.78516c4.375-0.5 7.7852-4.2461 7.7852-8.7734 0-0.5-0.36719-0.92188-0.85938-0.99219-1.5273-0.21484-2.8828-0.125-4.0664 0.25391-0.24219-1.3516-0.99609-3.3203-3.2422-5.0703-0.35938-0.28125-0.86719-0.28125-1.2305 0-2.2422 1.75-3 3.7188-3.2422 5.0703-1.1797-0.37891-2.5352-0.46875-4.0664-0.25-0.49219 0.066406-0.85938 0.48828-0.85938 0.98438 0 4.5312 3.4062 8.2734 7.7812 8.7734v0.78906h-6.7812c-0.55469 0-1 0.44531-1 1s0.44531 1 1 1h78c0.55469 0 1-0.44531 1-1s-0.44531-1-1-1h-6.7812v-0.78516c4.3711-0.5 7.7812-4.2461 7.7812-8.7773zm-22.871 0.90625c-0.39844 3.0117-2.75 5.4141-5.7266 5.8555v-0.14453c0-0.066407 0.050781-2.9844 1.9297-4.6016 0.9375-0.8125 2.207-1.1797 3.7969-1.1094zm-6.7227-4.6094c1.6719 1.5859 1.9375 3.2109 1.9648 3.9375-0.12109 0.089844-0.24609 0.17578-0.35938 0.27734-0.71094 0.61719-1.2305 1.3477-1.6055 2.0859-0.375-0.73828-0.89062-1.4688-1.6055-2.0859-0.11328-0.097657-0.23828-0.18359-0.35938-0.27344 0.027344-0.73438 0.29688-2.3594 1.9648-3.9414zm-6.7227 4.6094c1.5938-0.070312 2.8594 0.29688 3.7969 1.1094 1.8867 1.6289 1.9258 4.5742 1.9258 4.6016v0.14453c-2.9766-0.44922-5.3281-2.8477-5.7227-5.8555zm-7.3672 0c-0.39844 3.0117-2.75 5.4141-5.7266 5.8555v-0.14453c0-0.066407 0.050781-2.9844 1.9297-4.6016 0.9375-0.8125 2.2109-1.1797 3.7969-1.1094zm-6.7227-4.6094c1.6719 1.5859 1.9375 3.2109 1.9648 3.9375-0.12109 0.089844-0.24609 0.17578-0.35938 0.27734-0.71094 0.61719-1.2305 1.3477-1.6055 2.0859-0.375-0.73828-0.89062-1.4688-1.6055-2.0859-0.11328-0.097657-0.23828-0.18359-0.35938-0.27344 0.027344-0.73438 0.29688-2.3594 1.9648-3.9414zm-6.7227 4.6094c1.5938-0.070312 2.8594 0.29688 3.7969 1.1094 1.8867 1.6289 1.9258 4.5742 1.9258 4.6016v0.14453c-2.9766-0.44922-5.3281-2.8477-5.7227-5.8555zm-7.3672 0c-0.39844 3.0117-2.75 5.4141-5.7266 5.8555v-0.14453c0-0.066407 0.050781-2.9844 1.9297-4.6016 0.9375-0.8125 2.2148-1.1875 3.7969-1.1094zm-6.7227-4.6094c1.6719 1.5859 1.9375 3.2109 1.9648 3.9375-0.12109 0.089844-0.24609 0.17578-0.35938 0.27344-0.71094 0.61719-1.2305 1.3477-1.6055 2.0859-0.375-0.73828-0.89062-1.4688-1.6055-2.0859-0.11328-0.097656-0.23828-0.18359-0.35938-0.27344 0.027344-0.73047 0.29688-2.3555 1.9648-3.9375zm-6.7227 4.6094c1.5898-0.070312 2.8594 0.29688 3.7969 1.1094 1.8867 1.6289 1.9258 4.5742 1.9258 4.6016v0.14453c-2.9766-0.44922-5.3281-2.8477-5.7227-5.8555zm75.883 0c-0.39844 3.0117-2.75 5.4141-5.7266 5.8555v-0.14453c0-0.066407 0.050781-2.9844 1.9297-4.6016 0.9375-0.8125 2.207-1.1797 3.7969-1.1094zm-6.7227-4.6094c1.6719 1.5859 1.9375 3.2109 1.9648 3.9375-0.12109 0.089844-0.24609 0.17578-0.35938 0.27734-0.71094 0.61719-1.2305 1.3477-1.6055 2.0859-0.375-0.73828-0.89062-1.4688-1.6055-2.0859-0.11328-0.097657-0.23828-0.18359-0.35938-0.27344 0.027344-0.73438 0.29688-2.3594 1.9648-3.9414zm-6.7227 4.6094c1.5781-0.070312 2.8594 0.29688 3.7969 1.1094 1.8867 1.6289 1.9258 4.5742 1.9258 4.6016v0.14453c-2.9766-0.44922-5.3281-2.8477-5.7227-5.8555z"/>
</svg>
