<?xml version="1.0" encoding="UTF-8"?>
<svg width="100pt" height="100pt" version="1.1" viewBox="0 0 100 100" xmlns="http://www.w3.org/2000/svg">
 <path d="m75.812 59.43c-2.7773-20-16.938-23.359-19.168-45.848-0.007812-0.11328-0.13672-0.17578-0.23438-0.10938-3.3047 2.4766-6.3125 5.3359-8.957 8.5117-3.6172 4.5156-6.7227 9.4219-9.2539 14.629-0.83594 1.8828-1.9062 3.6523-3.1836 5.2695-1.625 1.5898-2.8828 1.4766-3.9883 0.34375-1.0273-1.0508-1.7383-3.25-2.4102-5.1406l-0.003907 0.003906c-0.046875-0.13672-0.23828-0.13672-0.28516 0-1.8789 5.6016-4.6016 18.699-4.5 25.816 0.23438 16.98 13.109 24.672 28.848 24.457 14.262-0.19922 23.715-8.4922 23.512-23.27h-0.003906c-0.023438-1.5625-0.14844-3.1211-0.36719-4.668zm-10.68-10.77c1.6211-1 1.9766 1.4492 2.2383 2.8789 0.60938 3.3516 1.3477 9.7773 1.6719 14.328 0.89453 12.535-7.8008 19.164-19.66 19-11.5-0.15625-17.691-7.9883-16.113-19.367 1.8516-13.363 11.117-15.176 12.043-29.699 0.023438-0.35938 0.23047-0.67969 0.54297-0.85156 0.31641-0.17578 0.69531-0.17578 1.0117-0.003907 2.4453 1.293 5.4492 4.3555 7.1016 6.3164h-0.003906c2.6719 3.2695 4.9727 6.8203 6.8711 10.59 1.0078 1.9492 3.3086-1.4297 3.8281-2.6367 0.097657-0.23047 0.26172-0.42578 0.47266-0.55859zm-24.141 4.1562c-2.4297 3.5703-4.8359 7.1133-5.6484 12.969-1.3984 10.074 3.8008 16.844 14.062 16.984 10.633 0.14844 18.352-5.4492 17.543-16.758-0.30078-4.2344-0.96094-10.07-1.5273-13.469v0.003906c-0.019531-0.125-0.18359-0.16797-0.26562-0.066406-1.6562 2.0312-4.7695 3.0859-6.1875 0.33594-2.5352-5.2109-5.9922-9.918-10.199-13.902-0.44141-0.39062-0.87891-0.76172-1.3086-1.0898v0.003906c-0.09375-0.074219-0.22656-0.015625-0.23828 0.097656-0.85156 6.9648-3.5508 10.945-6.2305 14.891zm16.512 11.094-5.3164-0.52344c-0.34375-0.035157-0.64453-0.23828-0.8125-0.53906-0.16406-0.30469-0.17188-0.66797-0.015625-0.97656l3.7773-7.4766c0.10156-0.19531 0.09375-0.43359-0.019531-0.62109-0.11328-0.19141-0.31641-0.30859-0.53906-0.3125l-6.7734-0.15625h0.003906c-0.26953-0.011719-0.51953 0.14844-0.61328 0.39844l-4.7812 11.73c-0.054687 0.13281-0.11719 0.42969 0.011719 0.48438 0.13281 0.054687 4.6562 0.3125 5.1992 0.35156 0.30469 0.019531 0.58984 0.16797 0.77344 0.41406 0.1875 0.24609 0.25391 0.55859 0.18359 0.85938l-1.3008 8.3633c-0.023438 0.14844 0.16797 0.23438 0.26562 0.11719l10.18-11.816c0.10938-0.12891-0.019531-0.27734-0.22656-0.30078zm-3.3672-2.4375 3.5742 0.35156c0.82031 0.042969 1.5547 0.52344 1.9219 1.2578 0.36719 0.73438 0.3125 1.6094-0.14453 2.2891-0.03125-0.023438-11.109 12.789-12.18 14.145-0.37891 0.51172-1.0508 0.71094-1.6445 0.48047-0.59375-0.22656-0.96484-0.82422-0.90234-1.457l1.5664-10.09h-0.003906c0.019531-0.085938-0.046875-0.16797-0.13281-0.17188l-3.7695-0.24219c-0.78906-0.042968-1.5-0.48438-1.8906-1.168-0.39453-0.68359-0.41797-1.5195-0.0625-2.2227l4.7812-11.73c0.42188-1.0586 1.4609-1.7383 2.6016-1.6992l6.7734 0.15625h-0.003906c0.94141 0.019531 1.8008 0.51953 2.2852 1.3281 0.48438 0.80469 0.51953 1.8008 0.09375 2.6406l-2.9883 5.918v-0.003906c-0.046875 0.09375 0.015625 0.21094 0.12109 0.21875zm14.262-24.266c4.0703 5.9883 8.1094 11.93 9.5 21.934 1.1484 8.3008-0.19922 16.223-5.125 22.023-5.8945 6.9219-15.027 8.8359-24.082 8.1836-17.125-1.2188-28.129-11.914-26.867-29.656 0.6875-7.5469 2.0977-15.012 4.207-22.293 0.26953-0.92578 0.59766-1.8359 0.97656-2.7227 0.57422-1.2422 1.2812-1.7266 2.1055-1.2812v0.003907c0.25781 0.14453 0.45703 0.36719 0.57031 0.64062 0.40625 0.95313 0.76953 1.9688 1.1133 2.9375h0.003906c0.36328 1.3477 0.94531 2.625 1.7188 3.7852 0.19922 0.19922 0.50781 0.14062 1.0234-0.37109 1.1055-1.4766 2.043-3.0664 2.8008-4.7461 2.5977-5.3438 5.7852-10.379 9.5078-15.008 2.5039-2.9883 7.4297-8.0391 11.184-9.9727 0.3125-0.17578 0.69531-0.17578 1.0078-0.003906 0.31641 0.17578 0.51953 0.49609 0.54297 0.85547 0.8125 12.449 5.3359 19.102 9.8125 25.691z"/>
</svg>
