<?xml version="1.0" encoding="UTF-8"?>
<svg width="512pt" height="512pt" version="1.1" viewBox="0 0 512 512" xmlns="http://www.w3.org/2000/svg">
 <path d="m459.38 269.67c0-5.168-1.6367-10.195-4.6641-14.457 0.67188-2.0977 1.0156-4.2734 1.0156-6.4961 0-12.512-10.797-22.695-24.07-22.695-2.9531 0-5.8867 0.52734-8.6328 1.5195-0.36328-0.55859-0.66016-1.1484-1.0664-1.6836 1.0039-2.8398 1.5039-5.7812 1.5039-8.7852 0-15.512-13.434-28.141-29.945-28.141-15.969 0-29.105 11.734-29.906 26.715-0.027344 0.47266-0.035157 0.95312-0.035157 1.4219 0 3.0039 0.50781 5.9453 1.5039 8.7852-4.0742 5.4531-6.293 11.969-6.293 18.668 0 3.7227 0.67188 7.3516 1.9961 10.832-0.12891 0.17578-0.26172 0.34766-0.38281 0.52734-4.4766 6.1992-6.8398 13.441-6.8398 20.941 0 18.969 15.156 34.641 34.715 37.059l-0.082031 34.969h-74.855v-10.328h34.328c1.4375 0 2.8125-0.60547 3.7852-1.668 0.97266-1.0664 1.4492-2.4883 1.3164-3.9219l-4.0352-43.586c-0.24219-2.6367-2.4531-4.6484-5.0977-4.6484h-71.887c-2.6484 0-4.8555 2.0156-5.0977 4.6484l-4.0352 43.586c-0.13281 1.4297 0.34375 2.8555 1.3164 3.9219 0.97266 1.0664 2.3438 1.668 3.7852 1.668h35.379v10.328h-51.648v-260.23h4.3789c2.8281 0 5.1211-2.2891 5.1211-5.1211v-26.902c0-2.832-2.293-5.1211-5.1211-5.1211l-198.87 0.003906c-2.8281 0-5.1211 2.2891-5.1211 5.1211v26.902c0 2.832 2.293 5.1211 5.1211 5.1211h3.375v361.68h-3.375c-2.8281 0-5.1211 2.2891-5.1211 5.1211s2.293 5.1211 5.1211 5.1211h399.36c2.8281 0 5.1211-2.2891 5.1211-5.1211s-2.293-5.1211-5.1211-5.1211h-1.0664v-91.207h1.0664c2.8281 0 5.1211-2.2891 5.1211-5.1211 0-2.832-2.293-5.1211-5.1211-5.1211h-19.695l0.0625-25.164c15.098-2.2734 26.684-14.551 26.684-29.363 0-5.918-1.8906-11.695-5.3672-16.566 0.91016-2.625 1.3789-5.3281 1.3789-8.0898zm-144.37 47.016v11.605h-14.617v-11.605zm-14.617-10.238v-11.5h14.617v11.5zm24.859 21.84v-11.605h15.738l1.0742 11.605zm14.789-21.84h-14.785v-11.5h13.727zm-49.887-11.508v11.5h-14.785l1.0664-11.5zm-15.734 21.746h15.734v11.605h-16.809zm89.391-39.863c0-5.3359 1.6953-10.508 4.9062-14.945 0.56641-0.78906 1.1836-1.5508 1.8398-2.2734 1.418-1.5781 1.7188-3.8594 0.76172-5.75-1.5117-2.9688-2.2734-6.1094-2.2734-9.3281 0-5.2227 2.0391-10.312 5.7383-14.336 1.4375-1.5625 1.7617-3.8516 0.8125-5.75-1.1719-2.3555-1.7734-4.832-1.7734-7.3672l0.019531-0.87891c0.51172-9.543 9.1562-17.02 19.68-17.02 10.863 0 19.707 8.0273 19.707 17.898 0 2.5352-0.59375 5.0117-1.7734 7.3672-0.95312 1.8984-0.625 4.1875 0.8125 5.75 3.7031 4.0234 5.7383 9.1133 5.7383 14.336 0 3.2188-0.76172 6.3594-2.2734 9.3281-0.95703 1.8828-0.65625 4.1641 0.75391 5.7383 4.3516 4.8438 6.75 10.969 6.75 17.23 0 14.984-13.332 27.184-29.715 27.184-16.379-0.003906-29.711-12.199-29.711-27.184zm31.996 99.699v-17.43h19.488v17.43zm-118.9 0v-17.43h19.48v17.43zm29.727-17.426h19.488v17.43h-19.488zm29.719 0h19.488v17.43h-19.488zm29.727 0h19.488v17.43l-19.488-0.003906zm-99.414 0v17.43h-15.211v-17.43zm-204.59-297.38h188.64v16.66l-188.64 0.003906zm8.4961 26.902h170.64v361.68h-56.883v-62.441c0-15.047-12.242-27.289-27.289-27.289-15.043 0-27.285 12.242-27.285 27.289v62.434h-59.188zm103.52 361.68h-34.094v-62.434c0-9.3984 7.6484-17.051 17.043-17.051 9.3984 0 17.051 7.6484 17.051 17.051zm158.54 0h-60.324v-9.6406c0-16.637 13.531-30.168 30.16-30.168s30.16 13.531 30.16 30.168zm91.473 0h-60.324v-9.6406c0-16.637 13.531-30.168 30.16-30.168s30.16 13.531 30.16 30.168zm10.238 0v-9.6406c0-22.281-18.125-40.406-40.402-40.406s-40.402 18.125-40.402 40.406v9.6406h-10.664v-9.6406c0-22.281-18.125-40.406-40.402-40.406s-40.402 18.125-40.402 40.406v9.6406h-10.613v-63.527h193.55v63.527zm10.672-73.77h-19.48v-17.43h19.48zm-46.57-27.668 0.082032-34.934c2.7148-0.31641 5.3359-0.89062 7.8555-1.6953 4.9219 6.125 12.105 10.172 20.066 11.422l-0.0625 25.211-27.941 0.003906zm33.215-34.996c-5.9805 0-11.57-2.2734-15.594-6.1641 10.508-6.75 17.418-18.062 17.418-30.875 0-7.6914-2.543-15.195-7.2227-21.457 1.3242-3.4883 1.9961-7.1211 1.9961-10.84 0-2.5547-0.41797-5.0625-1.043-7.5156 1.4336-0.44531 2.918-0.74609 4.4492-0.74609 7.625 0 13.828 5.5859 13.828 12.457 0 1.7461-0.41406 3.457-1.2227 5.0703-0.95312 1.9062-0.62891 4.1992 0.80859 5.7656 2.6562 2.8828 4.0586 6.3828 4.0586 10.121 0 2.2578-0.53906 4.4766-1.6094 6.5781-0.95703 1.8828-0.64844 4.1641 0.75781 5.7344 3.1641 3.5234 4.8398 7.7891 4.8398 12.34 0.003906 10.766-9.625 19.531-21.465 19.531z"/>
 <path d="m199.57 342.29h21.234c2.8281 0 5.1211-2.2891 5.1211-5.1211v-23.68c0-8.6719-7.0547-15.734-15.734-15.734s-15.738 7.0586-15.738 15.734v23.68c0 2.832 2.2852 5.1211 5.1172 5.1211zm5.1211-28.801c0-3.0312 2.4609-5.4922 5.5-5.4922 3.0312 0 5.4922 2.4609 5.4922 5.4922v18.559h-10.992z"/>
 <path d="m199.57 281.35h21.234c2.8281 0 5.1211-2.2891 5.1211-5.1211v-23.68c0-8.6719-7.0547-15.734-15.734-15.734s-15.738 7.0586-15.738 15.734v23.68c0 2.832 2.2852 5.1211 5.1172 5.1211zm5.1211-28.797c0-3.0312 2.4609-5.4922 5.5-5.4922 3.0312 0 5.4922 2.4609 5.4922 5.4922v18.559h-10.992z"/>
 <path d="m199.57 220.06h21.234c2.8281 0 5.1211-2.2891 5.1211-5.1211v-23.68c0-8.6719-7.0547-15.734-15.734-15.734s-15.738 7.0586-15.738 15.734v23.68c0 2.832 2.2852 5.1211 5.1172 5.1211zm5.1211-28.801c0-3.0312 2.4609-5.4922 5.5-5.4922 3.0312 0 5.4922 2.4609 5.4922 5.4922v18.559h-10.992z"/>
 <path d="m146.43 342.29h21.234c2.8281 0 5.1211-2.2891 5.1211-5.1211v-23.68c0-8.6719-7.0586-15.734-15.738-15.734-8.6797 0-15.734 7.0586-15.734 15.734v23.68c0 2.832 2.293 5.1211 5.1172 5.1211zm5.1211-28.801c0-3.0312 2.4609-5.4922 5.4922-5.4922s5.5 2.4609 5.5 5.4922v18.559h-10.992z"/>
 <path d="m146.43 281.35h21.234c2.8281 0 5.1211-2.2891 5.1211-5.1211v-23.68c0-8.6719-7.0586-15.734-15.738-15.734-8.6797 0-15.734 7.0586-15.734 15.734v23.68c0 2.832 2.293 5.1211 5.1172 5.1211zm5.1211-28.797c0-3.0312 2.4609-5.4922 5.4922-5.4922s5.5 2.4609 5.5 5.4922v18.559h-10.992z"/>
 <path d="m146.43 220.06h21.234c2.8281 0 5.1211-2.2891 5.1211-5.1211v-23.68c0-8.6719-7.0586-15.734-15.738-15.734-8.6797 0-15.734 7.0586-15.734 15.734v23.68c0 2.832 2.293 5.1211 5.1172 5.1211zm5.1211-28.801c0-3.0312 2.4609-5.4922 5.4922-5.4922s5.5 2.4609 5.5 5.4922v18.559h-10.992z"/>
 <path d="m103.91 297.76c-8.6797 0-15.738 7.0586-15.738 15.734v23.68c0 2.832 2.293 5.1211 5.1211 5.1211h21.234c2.8281 0 5.1211-2.2891 5.1211-5.1211v-23.68c-0.003906-8.6719-7.0625-15.734-15.738-15.734zm5.4922 34.293h-10.992v-18.559c0-3.0312 2.4609-5.4922 5.5-5.4922 3.0312 0 5.4922 2.4609 5.4922 5.4922z"/>
 <path d="m103.91 236.82c-8.6797 0-15.738 7.0586-15.738 15.734v23.68c0 2.832 2.293 5.1211 5.1211 5.1211h21.234c2.8281 0 5.1211-2.2891 5.1211-5.1211v-23.68c-0.003906-8.6758-7.0625-15.734-15.738-15.734zm5.4922 34.293h-10.992v-18.559c0-3.0312 2.4609-5.4922 5.5-5.4922 3.0312 0 5.4922 2.4609 5.4922 5.4922z"/>
 <path d="m103.91 175.52c-8.6797 0-15.738 7.0586-15.738 15.734v23.68c0 2.832 2.293 5.1211 5.1211 5.1211h21.234c2.8281 0 5.1211-2.2891 5.1211-5.1211v-23.68c-0.003906-8.6719-7.0625-15.734-15.738-15.734zm5.4922 34.293h-10.992v-18.559c0-3.0312 2.4609-5.4922 5.5-5.4922 3.0312 0 5.4922 2.4609 5.4922 5.4922z"/>
 <path d="m199.57 158.26h21.234c2.8281 0 5.1211-2.2891 5.1211-5.1211v-23.68c0-8.6719-7.0547-15.734-15.734-15.734s-15.738 7.0586-15.738 15.734v23.68c0 2.832 2.2852 5.1211 5.1172 5.1211zm5.1211-28.797c0-3.0312 2.4609-5.4922 5.5-5.4922 3.0312 0 5.4922 2.4609 5.4922 5.4922v18.559h-10.992z"/>
 <path d="m146.43 158.26h21.234c2.8281 0 5.1211-2.2891 5.1211-5.1211v-23.68c0-8.6719-7.0586-15.734-15.738-15.734-8.6797 0-15.734 7.0586-15.734 15.734v23.68c0 2.832 2.293 5.1211 5.1172 5.1211zm5.1211-28.797c0-3.0312 2.4609-5.4922 5.4922-5.4922s5.5 2.4609 5.5 5.4922v18.559h-10.992z"/>
 <path d="m103.91 113.73c-8.6797 0-15.738 7.0586-15.738 15.734v23.68c0 2.832 2.293 5.1211 5.1211 5.1211h21.234c2.8281 0 5.1211-2.2891 5.1211-5.1211v-23.68c-0.003906-8.6758-7.0625-15.734-15.738-15.734zm5.4922 34.293h-10.992v-18.559c0-3.0312 2.4609-5.4922 5.5-5.4922 3.0312 0 5.4922 2.4609 5.4922 5.4922z"/>
 <path d="m427.71 113c0-15.703-12.781-28.477-28.484-28.477-15.707 0-28.484 12.773-28.484 28.477s12.781 28.484 28.484 28.484c15.703 0 28.484-12.777 28.484-28.484zm-28.484 18.246c-10.062 0-18.242-8.1875-18.242-18.242 0-10.055 8.1875-18.238 18.242-18.238 10.055 0 18.242 8.1836 18.242 18.238 0 10.055-8.1875 18.242-18.242 18.242z"/>
 <path d="m404.35 68.527v-11.816c0-2.832-2.293-5.1211-5.1211-5.1211-2.8281 0-5.1211 2.2891-5.1211 5.1211v11.816c0 2.832 2.293 5.1211 5.1211 5.1211 2.8281-0.003907 5.1211-2.2891 5.1211-5.1211z"/>
 <path d="m424.2 56.895c-2.5898-1.1523-5.6133 0.015625-6.7578 2.6016l-4.8008 10.793c-1.1523 2.582 0.011719 5.6133 2.5977 6.7578 0.67578 0.30078 1.3867 0.44141 2.0781 0.44141 1.9609 0 3.8359-1.1328 4.6797-3.043l4.8008-10.793c1.1445-2.5742-0.019531-5.6055-2.5977-6.7578z"/>
 <path d="m437.63 71.531-8.7812 7.9062c-2.1055 1.8906-2.2734 5.1289-0.37891 7.2305 1.0078 1.125 2.4062 1.6953 3.8086 1.6953 1.2188 0 2.4492-0.43359 3.4219-1.3164l8.7812-7.9062c2.1055-1.8906 2.2734-5.1289 0.37891-7.2305-1.8867-2.1055-5.1289-2.2695-7.2305-0.37891z"/>
 <path d="m436.65 100.83c0.70312 2.1641 2.707 3.5391 4.8672 3.5391 0.52344 0 1.0547-0.082032 1.582-0.25l11.238-3.6523c2.6875-0.875 4.1562-3.7578 3.2852-6.4531-0.87109-2.6914-3.7383-4.1562-6.4531-3.293l-11.238 3.6523c-2.6797 0.88281-4.1484 3.7695-3.2812 6.457z"/>
 <path d="m455.21 124.01c2.5859 0 4.8086-1.957 5.0898-4.5859 0.29687-2.8125-1.7461-5.3281-4.5586-5.625l-11.75-1.2344c-2.8477-0.30859-5.3359 1.7461-5.625 4.5586-0.29297 2.8125 1.7461 5.3281 4.5586 5.625l11.75 1.2344c0.17578 0.015625 0.35937 0.027343 0.53516 0.027343z"/>
 <path d="m447.97 146.27c1.7734 0 3.4922-0.91797 4.4375-2.5586 1.4141-2.4531 0.57812-5.582-1.875-6.9922l-10.234-5.9102c-2.4492-1.4062-5.582-0.58203-6.9922 1.875-1.4141 2.4531-0.57813 5.582 1.875 6.9922l10.234 5.9102c0.80469 0.46094 1.6836 0.68359 2.5547 0.68359z"/>
 <path d="m428.17 161.55c1.0039 1.3828 2.5586 2.1094 4.1484 2.1094 1.043 0 2.0938-0.31641 3.0039-0.97656 2.2891-1.6602 2.7969-4.8594 1.1328-7.1484l-6.9414-9.5586c-1.6641-2.2852-4.8594-2.7969-7.1523-1.1328-2.2891 1.6602-2.7969 4.8594-1.1328 7.1484z"/>
 <path d="m407.41 151.5c-2.7695 0.58984-4.5312 3.3086-3.9492 6.0781l2.4531 11.562c0.51172 2.4062 2.6367 4.0547 5.0039 4.0547 0.35156 0 0.71094-0.035156 1.0664-0.10938 2.7695-0.58984 4.5312-3.3086 3.9492-6.0781l-2.4531-11.562c-0.58203-2.7695-3.3242-4.5234-6.0703-3.9453z"/>
 <path d="m384.97 155.44-2.457 11.562c-0.58984 2.7656 1.1758 5.4844 3.9414 6.0781 0.35938 0.078125 0.71875 0.10938 1.0703 0.10938 2.3672 0 4.4922-1.6484 5.0039-4.0547l2.457-11.562c0.58984-2.7656-1.1758-5.4844-3.9414-6.0781-2.7734-0.57422-5.4883 1.1797-6.0742 3.9453z"/>
 <path d="m366.13 163.66c1.5859 0 3.1445-0.73047 4.1484-2.1094l6.9414-9.5586c1.6641-2.2891 1.1562-5.4883-1.1328-7.1484-2.2891-1.6602-5.4922-1.1562-7.1523 1.1328l-6.9414 9.5586c-1.6641 2.2891-1.1562 5.4883 1.1328 7.1484 0.91016 0.65625 1.957 0.97656 3.0039 0.97656z"/>
 <path d="m350.48 146.27c0.86719 0 1.75-0.21875 2.5547-0.6875l10.234-5.9102c2.4531-1.4141 3.2852-4.5469 1.875-6.9922-1.4141-2.4531-4.5469-3.293-6.9922-1.875l-10.234 5.9102c-2.4531 1.4141-3.2852 4.5469-1.875 6.9922 0.94531 1.6484 2.6641 2.5625 4.4375 2.5625z"/>
 <path d="m338.14 119.42c0.27734 2.6328 2.5 4.5859 5.0898 4.5859 0.17969 0 0.35938-0.011718 0.53906-0.03125l11.75-1.2344c2.8125-0.29688 4.8555-2.8164 4.5586-5.625-0.29688-2.8125-2.7852-4.8633-5.625-4.5586l-11.75 1.2344c-2.8164 0.30078-4.8555 2.8203-4.5625 5.6289z"/>
 <path d="m340.81 94.023c-0.87109 2.6875 0.59766 5.5742 3.2852 6.4531l11.238 3.6523c0.52734 0.16797 1.0586 0.25 1.582 0.25 2.1602 0 4.168-1.3789 4.8672-3.5391 0.87109-2.6875-0.59766-5.5742-3.2852-6.4531l-11.238-3.6523c-2.6953-0.86328-5.5742 0.60156-6.4492 3.2891z"/>
 <path d="m360.82 71.531c-2.1055-1.8906-5.3398-1.7266-7.2305 0.37891-1.8945 2.0977-1.7188 5.3398 0.37891 7.2305l8.7812 7.9062c0.97656 0.87891 2.2031 1.3164 3.4219 1.3164 1.4023 0 2.7969-0.56641 3.8086-1.6953 1.8945-2.0977 1.7188-5.3398-0.37891-7.2305z"/>
 <path d="m376.45 74.449c0.85156 1.9102 2.7188 3.043 4.6797 3.043 0.69531 0 1.4023-0.13672 2.0781-0.44141 2.582-1.1523 3.7422-4.1797 2.5977-6.7578l-4.8008-10.793c-1.1484-2.5859-4.1719-3.7461-6.7578-2.6016-2.582 1.1523-3.7422 4.1797-2.5977 6.7578z"/>
</svg>
