<?xml version="1.0" encoding="UTF-8"?>
<svg width="100pt" height="100pt" version="1.1" viewBox="0 0 100 100" xmlns="http://www.w3.org/2000/svg">
 <path d="m85.938 51.648c0-8.0977-5.1562-14.93-12.438-17.379v-4.2461h1.25c0.55469 0 1-0.44922 1-1 0-0.55078-0.44531-1-1-1h-1.25v-3.875c0-0.55078-0.44531-1-1-1h-9.875c-0.55469 0-1 0.44922-1 1v3.875h-1.625c-0.55469 0-1 0.44922-1 1 0 0.55078 0.44531 1 1 1h1.625v3.25h-29.188c-10.133 0-18.375 8.2422-18.375 18.375 0 7.957 5.0938 14.73 12.188 17.281v4.3438h-1.375c-0.55469 0-1 0.44531-1 1 0 0.55469 0.44531 1 1 1h49.875c0.55469 0 1-0.44531 1-1 0-0.55469-0.44531-1-1-1h-1.25v-4.2461c7.2773-2.4492 12.438-9.2812 12.438-17.379zm-22.312-26.5h7.875v2.875h-7.875zm0 4.875h7.875v3.7031c-1.0078-0.21875-2.0352-0.36719-3.1016-0.41797-0.085938-0.023438-0.17969-0.039063-0.27344-0.039063h-4.5zm-47.562 21.625c0-9.0273 7.3477-16.375 16.375-16.375h35.453c0.066406 0.015624 0.13672 0.023437 0.20312 0.027343 8.8867 0.28516 15.844 7.4648 15.844 16.348 0 8.8828-6.9609 16.062-15.844 16.348-0.070312 0.003906-0.14062 0.011718-0.20312 0.027344h-35.453c-9.0273 0-16.375-7.3438-16.375-16.375zm45.562 18.375v3.25h-23v-3.25zm-33.375-0.5c1.3477 0.31641 2.7422 0.5 4.1875 0.5h4.1875v3.25h-8.375l0.003906-3.75zm43.25 3.75h-7.875v-3.25h4.5c0.09375 0 0.17969-0.015626 0.26562-0.039063 1.0664-0.046875 2.1016-0.19922 3.1094-0.41797z"/>
 <path d="m48.797 61.996c0.32812 0.074218 0.66406 0.12109 1.0156 0.12109s0.6875-0.046876 1.0156-0.12109c3.3984-0.49219 6.0234-3.4219 6.0234-6.9531 0-0.8125-0.42969-2.1836-1.1211-3.5781-0.76953-1.5469-1.8047-3.1523-2.5352-4.2266-1.1133-1.6289-1.75-2.4102-2.3164-3.1055l-1.0625-1.3125-1.0508 1.2969c-0.56641 0.69531-1.2109 1.4805-2.3281 3.1211-1.0586 1.5508-1.9375 3.0117-2.5391 4.2266-0.69141 1.3945-1.1211 2.7695-1.1211 3.5781-0.003906 3.5312 2.6172 6.457 6.0195 6.9531zm-1.5547-4.4453c0.003906-0.13672 0.13281-0.67969 0.49609-1.4102 0.32422-0.65625 0.80859-1.4531 1.3906-2.3125 0.27344-0.40234 0.49609-0.71094 0.68359-0.96094 0.1875 0.25391 0.41016 0.55859 0.68359 0.96094 0.58203 0.85156 1.0625 1.6484 1.3906 2.3125 0.36328 0.73047 0.49219 1.2734 0.49609 1.4102 0 1.1836-0.76562 2.1445-1.8359 2.4531-0.24219 0.035156-0.48047 0.074219-0.73047 0.074219-0.25391 0-0.49219-0.039063-0.73438-0.074219-1.0742-0.3125-1.8398-1.2734-1.8398-2.4531zm-1.5547-5.1992c0.5625-1.1367 1.3945-2.5156 2.3984-3.9883 0.76562-1.1211 1.2852-1.8125 1.7266-2.3672 0.44141 0.55469 0.96094 1.2422 1.7266 2.3633 1 1.4648 1.8281 2.8477 2.3945 3.9883 0.66406 1.3438 0.91406 2.3633 0.91406 2.6914 0 0.77344-0.19141 1.5-0.50391 2.1562-0.078125-0.53125-0.3125-1.2266-0.66797-1.9453-0.46484-0.9375-1.0898-1.9062-1.5273-2.5508-0.67578-0.98438-1.0625-1.4609-1.4023-1.875l-0.93359-1.1523-0.9375 1.1602c-0.33984 0.41797-0.72656 0.88672-1.3945 1.8711-0.44141 0.64844-1.0664 1.6172-1.5312 2.5508-0.35547 0.72266-0.58984 1.4141-0.66797 1.9453-0.3125-0.65625-0.50391-1.3828-0.50391-2.1562-0.003906-0.32812 0.24609-1.3516 0.91016-2.6914z"/>
</svg>
