<?xml version="1.0" encoding="UTF-8"?>
<svg width="512pt" height="512pt" version="1.1" viewBox="0 0 512 512" xmlns="http://www.w3.org/2000/svg">
 <path d="m279.73 173.57h-47.465c-22.586 0-40.961 18.375-40.961 40.961v146.45c0 22.586 18.375 40.961 40.961 40.961h47.465c22.586 0 40.961-18.375 40.961-40.961l-0.003906-146.46c0-22.582-18.375-40.957-40.957-40.957zm30.719 145.42h-108.91v-62.469h108.91zm-30.719 72.715h-47.465c-16.941 0-30.719-13.781-30.719-30.719v-31.754h108.91v31.754c-0.003906 16.941-13.785 30.719-30.723 30.719zm30.719-145.43h-108.91v-31.75c0-16.941 13.781-30.719 30.719-30.719h47.465c16.941 0 30.719 13.781 30.719 30.719z"/>
 <path d="m334.79 114.7h-0.73828v-43.02c0-11.297-9.1875-20.48-20.48-20.48h-115.13c-11.293 0-20.48 9.1836-20.48 20.48v43.184c-21.074 1.6602-37.727 19.301-37.727 40.797v264.18c0 22.586 18.375 40.961 40.961 40.961h153.6c22.586 0 40.961-18.375 40.961-40.961l-0.003906-264.18c0-22.586-18.375-40.961-40.961-40.961zm-136.35-53.258h115.14c5.6484 0 10.238 4.5938 10.238 10.238v43.02h-135.62v-43.02c0-5.6445 4.5938-10.238 10.242-10.238zm167.07 358.4c0 16.941-13.781 30.719-30.719 30.719h-153.6c-16.941 0-30.719-13.781-30.719-30.719v-264.18c0-16.941 13.781-30.719 30.719-30.719h153.6c16.941 0 30.719 13.781 30.719 30.719z"/>
</svg>
