<?xml version="1.0" encoding="UTF-8"?>
<svg width="512pt" height="512pt" version="1.1" viewBox="0 0 512 512" xmlns="http://www.w3.org/2000/svg">
 <path d="m455.68 450.56h-12.844v-179.92c0-2.8281-2.293-5.1211-5.1211-5.1211h-157.77c-2.8281 0-5.1211 2.293-5.1211 5.1211v179.92h-37.641v-179.92c0-2.8281-2.293-5.1211-5.1211-5.1211h-157.77c-2.8281 0-5.1211 2.293-5.1211 5.1211v179.92h-12.844c-2.8281 0-5.1211 2.293-5.1211 5.1211 0 2.8281 2.293 5.1211 5.1211 5.1211h399.36c2.8281 0 5.1211-2.293 5.1211-5.1211 0-2.8281-2.293-5.1211-5.1211-5.1211zm-170.62-174.8h147.54v174.8h-147.54zm-205.65 0h147.54v174.8h-147.54z"/>
 <path d="m113.41 292.19c-2.8281 0-5.1211 2.293-5.1211 5.1211v25.125c0 2.8281 2.293 5.1211 5.1211 5.1211s5.1211-2.293 5.1211-5.1211v-25.125c0-2.8281-2.293-5.1211-5.1211-5.1211z"/>
 <path d="m153.17 292.19c-2.8281 0-5.1211 2.293-5.1211 5.1211v25.125c0 2.8281 2.293 5.1211 5.1211 5.1211s5.1211-2.293 5.1211-5.1211v-25.125c0-2.8281-2.293-5.1211-5.1211-5.1211z"/>
 <path d="m192.93 292.19c-2.8281 0-5.1211 2.293-5.1211 5.1211v25.125c0 2.8281 2.293 5.1211 5.1211 5.1211s5.1211-2.293 5.1211-5.1211v-25.125c0-2.8281-2.293-5.1211-5.1211-5.1211z"/>
 <path d="m113.41 345.18c-2.8281 0-5.1211 2.293-5.1211 5.1211v25.125c0 2.8281 2.293 5.1211 5.1211 5.1211s5.1211-2.293 5.1211-5.1211v-25.125c0-2.8281-2.293-5.1211-5.1211-5.1211z"/>
 <path d="m153.17 345.18c-2.8281 0-5.1211 2.293-5.1211 5.1211v25.125c0 2.8281 2.293 5.1211 5.1211 5.1211s5.1211-2.293 5.1211-5.1211v-25.125c0-2.8281-2.293-5.1211-5.1211-5.1211z"/>
 <path d="m192.93 345.18c-2.8281 0-5.1211 2.293-5.1211 5.1211v25.125c0 2.8281 2.293 5.1211 5.1211 5.1211s5.1211-2.293 5.1211-5.1211v-25.125c0-2.8281-2.293-5.1211-5.1211-5.1211z"/>
 <path d="m113.41 398.17c-2.8281 0-5.1211 2.293-5.1211 5.1211v25.129c0 2.8281 2.293 5.1211 5.1211 5.1211s5.1211-2.293 5.1211-5.1211v-25.129c0-2.8281-2.293-5.1211-5.1211-5.1211z"/>
 <path d="m153.17 398.17c-2.8281 0-5.1211 2.293-5.1211 5.1211v25.129c0 2.8281 2.293 5.1211 5.1211 5.1211s5.1211-2.293 5.1211-5.1211v-25.129c0-2.8281-2.293-5.1211-5.1211-5.1211z"/>
 <path d="m192.93 398.17c-2.8281 0-5.1211 2.293-5.1211 5.1211v25.129c0 2.8281 2.293 5.1211 5.1211 5.1211s5.1211-2.293 5.1211-5.1211v-25.129c0-2.8281-2.293-5.1211-5.1211-5.1211z"/>
 <path d="m319.07 292.19c-2.8281 0-5.1211 2.293-5.1211 5.1211v25.125c0 2.8281 2.293 5.1211 5.1211 5.1211s5.1211-2.293 5.1211-5.1211v-25.125c0-2.8281-2.293-5.1211-5.1211-5.1211z"/>
 <path d="m358.83 292.19c-2.8281 0-5.1211 2.293-5.1211 5.1211v25.125c0 2.8281 2.293 5.1211 5.1211 5.1211s5.1211-2.293 5.1211-5.1211v-25.125c0-2.8281-2.293-5.1211-5.1211-5.1211z"/>
 <path d="m398.59 292.19c-2.8281 0-5.1211 2.293-5.1211 5.1211v25.125c0 2.8281 2.293 5.1211 5.1211 5.1211s5.1211-2.293 5.1211-5.1211v-25.125c0-2.8281-2.293-5.1211-5.1211-5.1211z"/>
 <path d="m319.07 345.18c-2.8281 0-5.1211 2.293-5.1211 5.1211v25.125c0 2.8281 2.293 5.1211 5.1211 5.1211s5.1211-2.293 5.1211-5.1211v-25.125c0-2.8281-2.293-5.1211-5.1211-5.1211z"/>
 <path d="m358.83 345.18c-2.8281 0-5.1211 2.293-5.1211 5.1211v25.125c0 2.8281 2.293 5.1211 5.1211 5.1211s5.1211-2.293 5.1211-5.1211v-25.125c0-2.8281-2.293-5.1211-5.1211-5.1211z"/>
 <path d="m398.59 345.18c-2.8281 0-5.1211 2.293-5.1211 5.1211v25.125c0 2.8281 2.293 5.1211 5.1211 5.1211s5.1211-2.293 5.1211-5.1211v-25.125c0-2.8281-2.293-5.1211-5.1211-5.1211z"/>
 <path d="m319.07 398.17c-2.8281 0-5.1211 2.293-5.1211 5.1211v25.129c0 2.8281 2.293 5.1211 5.1211 5.1211s5.1211-2.293 5.1211-5.1211v-25.129c0-2.8281-2.293-5.1211-5.1211-5.1211z"/>
 <path d="m358.83 398.17c-2.8281 0-5.1211 2.293-5.1211 5.1211v25.129c0 2.8281 2.293 5.1211 5.1211 5.1211s5.1211-2.293 5.1211-5.1211v-25.129c0-2.8281-2.293-5.1211-5.1211-5.1211z"/>
 <path d="m398.59 398.17c-2.8281 0-5.1211 2.293-5.1211 5.1211v25.129c0 2.8281 2.293 5.1211 5.1211 5.1211s5.1211-2.293 5.1211-5.1211v-25.129c0-2.8281-2.293-5.1211-5.1211-5.1211z"/>
 <path d="m355.9 123.78c-0.53906-1.6523-1.8789-2.9219-3.5586-3.3672l-58.965-15.613-33.074-51.25c-1.8867-2.9258-6.7188-2.9258-8.6055 0l-33.07 51.254-58.961 15.609c-1.6836 0.44531-3.0234 1.7148-3.5586 3.3672-0.53906 1.6562-0.19922 3.4688 0.89844 4.8164l38.527 47.289-3.3711 60.902c-0.09375 1.7344 0.69531 3.4023 2.1016 4.4258 1.4102 1.0234 3.2383 1.2578 4.8594 0.63281l56.879-22.027 56.879 22.027c0.60156 0.23438 1.2266 0.34375 1.8516 0.34375 1.0664 0 2.1211-0.33203 3.0117-0.97656 1.4062-1.0234 2.1992-2.6914 2.1016-4.4258l-3.3711-60.902 38.527-47.289c1.0938-1.3477 1.4336-3.1602 0.89844-4.8164zm-48.621 47.176c-0.80469 0.98828-1.2109 2.2461-1.1406 3.5156l3.0469 54.961-51.328-19.879c-0.60156-0.22656-1.2266-0.34375-1.8555-0.34375s-1.2539 0.11328-1.8516 0.34375l-51.328 19.879 3.0469-54.961c0.070312-1.2734-0.33594-2.5273-1.1406-3.5156l-34.766-42.676 53.211-14.086c1.2344-0.32812 2.3008-1.1016 2.9922-2.1758l29.836-46.254 29.844 46.254c0.69141 1.0742 1.7617 1.8477 2.9922 2.1758l53.211 14.086z"/>
 <path d="m434.41 53.852c-1.3633-2.4727-4.4766-3.3711-6.9531-2.0156l-44.887 24.719c-2.4766 1.3633-3.3789 4.4766-2.0156 6.9531 0.93359 1.6914 2.6836 2.6484 4.4883 2.6484 0.83594 0 1.6836-0.20312 2.4648-0.63672l44.887-24.719c2.4766-1.3594 3.3789-4.4727 2.0156-6.9492z"/>
 <path d="m455.68 141.48h-51.832c-2.8281 0-5.1211 2.293-5.1211 5.1211s2.293 5.1211 5.1211 5.1211l51.832-0.003906c2.8281 0 5.1211-2.293 5.1211-5.1211 0-2.8281-2.293-5.1172-5.1211-5.1172z"/>
 <path d="m381.29 209.88c-1.3633 2.4766-0.46094 5.5898 2.0156 6.9531l44.887 24.719c0.78125 0.43359 1.6289 0.63672 2.4648 0.63672 1.8086 0 3.5586-0.95703 4.4883-2.6484 1.3633-2.4766 0.46094-5.5898-2.0156-6.9531l-44.887-24.719c-2.4766-1.375-5.5898-0.46484-6.9531 2.0117z"/>
 <path d="m129.44 76.551-44.887-24.719c-2.4766-1.3633-5.5938-0.45703-6.9531 2.0156-1.3633 2.4766-0.46094 5.5898 2.0156 6.9531l44.887 24.719c0.78125 0.43359 1.6289 0.63672 2.4648 0.63672 1.8086 0 3.5586-0.95703 4.4883-2.6484 1.3633-2.4766 0.46094-5.5898-2.0156-6.957z"/>
 <path d="m51.199 146.6c0 2.8281 2.293 5.1211 5.1211 5.1211h51.832c2.8281 0 5.1211-2.293 5.1211-5.1211 0-2.8281-2.293-5.1211-5.1211-5.1211l-51.832 0.003906c-2.8281 0-5.1211 2.2891-5.1211 5.1172z"/>
 <path d="m123.76 207.87-44.887 24.719c-2.4766 1.3633-3.3789 4.4766-2.0156 6.9531 0.93359 1.6914 2.6836 2.6484 4.4883 2.6484 0.83594 0 1.6836-0.20312 2.4648-0.63672l44.887-24.719c2.4766-1.3633 3.3789-4.4766 2.0156-6.9531-1.3633-2.4648-4.4766-3.3711-6.9531-2.0117z"/>
</svg>
