<?xml version="1.0" encoding="UTF-8"?>
<svg width="512pt" height="512pt" version="1.1" viewBox="0 0 512 512" xmlns="http://www.w3.org/2000/svg">
 <path d="m166.36 258.04c19.109 20.391 27.797 32.309 28.328 57-13.855 2.6875-24.348 14.898-24.348 29.523 0 10.387 5.293 19.562 13.32 24.969-8.0273 5.4102-13.32 14.582-13.32 24.969 0 16.59 13.496 30.086 30.09 30.086h16.129c1.7305 20.258 18.746 36.219 39.441 36.219s37.711-15.961 39.441-36.215h16.129c16.594 0 30.09-13.496 30.09-30.09 0-10.387-5.293-19.559-13.32-24.969 8.0273-5.4102 13.32-14.582 13.32-24.969 0-14.625-10.492-26.832-24.344-29.523 0.57031-25.891 10.344-37.68 28.629-57.328 21.215-22.797 32.898-52.512 32.898-83.664 0-33.762-14.113-66.395-38.727-89.527-24.957-23.453-57.629-35.203-91.945-33.074-62.043 3.8516-112.52 55.574-114.92 117.75-1.2773 33.152 10.48 64.703 33.105 88.848zm89.641 192.52c-15.047 0-27.469-11.375-29.16-25.977h58.324c-1.6953 14.602-14.117 25.977-29.164 25.977zm75.422-56.062c0 10.945-8.9062 19.852-19.852 19.852l-111.14-0.003906c-10.945 0-19.852-8.9023-19.852-19.848 0-10.945 8.9062-19.852 19.852-19.852h111.14c10.945 0.003907 19.852 8.9062 19.852 19.852zm0-49.938c0 10.945-8.9062 19.852-19.852 19.852l-111.14-0.003906c-10.945 0-19.852-8.9062-19.852-19.852 0-10.945 8.9062-19.848 19.852-19.848h111.14c10.945 0.003907 19.852 8.9062 19.852 19.852zm-82.617-282.89c31.469-1.9609 61.422 8.8125 84.297 30.316 22.895 21.516 35.504 50.664 35.504 82.066 0 28.559-10.707 55.793-30.152 76.691-18.852 20.254-30.609 34.465-31.359 63.738l-102.18-0.007812c-0.73828-29.484-12.395-43.504-31.078-63.441-20.738-22.129-31.516-51.051-30.348-81.449 2.1992-56.98 48.461-104.38 105.32-107.91z"/>
 <path d="m177.22 205.02 14.461 25.047c1.3008 2.25 4.0703 3.1641 6.4609 2.1406l22.328-9.6094c4.0312 3.0898 8.4297 5.6289 13.141 7.5781l2.8438 24.148c0.30078 2.5781 2.4883 4.5234 5.0859 4.5234h28.926c2.5938 0 4.7812-1.9414 5.0859-4.5234l2.8438-24.148c4.7109-1.9492 9.1094-4.4883 13.141-7.5781l22.328 9.6094c2.3789 1.0234 5.1562 0.10547 6.4609-2.1406l14.461-25.047c1.2969-2.2461 0.70703-5.1133-1.375-6.6641l-19.477-14.523c0.34766-2.5781 0.52344-5.125 0.52344-7.5938 0-2.4727-0.17578-5.0156-0.52344-7.5977l19.477-14.523c2.082-1.5508 2.6719-4.418 1.375-6.6641l-14.465-25.055c-1.3008-2.25-4.0781-3.1641-6.4609-2.1406l-22.328 9.6094c-4.0273-3.0898-8.4258-5.6289-13.141-7.5781l-2.8438-24.152c-0.30078-2.5781-2.4883-4.5234-5.0859-4.5234h-28.922c-2.5938 0-4.7812 1.9414-5.0859 4.5234l-2.8438 24.152c-4.7109 1.9492-9.1133 4.4883-13.141 7.5781l-22.328-9.6094c-2.3906-1.0234-5.1641-0.10547-6.4609 2.1406l-14.461 25.051c-1.2969 2.2461-0.70703 5.1133 1.375 6.6641l19.477 14.523c-0.34766 2.5781-0.52344 5.125-0.52344 7.5977 0 2.4688 0.17578 5.0156 0.52344 7.5938l-19.477 14.523c-2.082 1.5547-2.6719 4.418-1.375 6.668zm29.457-14.832c1.5664-1.168 2.332-3.125 1.9727-5.0469-0.57813-3.0977-0.85938-6.0117-0.85938-8.9062 0-2.8984 0.28125-5.8086 0.85938-8.9062 0.35937-1.9219-0.40625-3.8789-1.9727-5.0469l-18.312-13.656 9.9102-17.164 20.992 9.0352c1.7969 0.76562 3.875 0.45703 5.3633-0.82031 4.5352-3.8984 9.7188-6.8867 15.402-8.8867 1.8438-0.64844 3.1602-2.2891 3.3867-4.2344l2.6719-22.703h19.82l2.6719 22.703c0.22656 1.9414 1.543 3.5859 3.3867 4.2344 5.6836 2 10.867 4.9883 15.402 8.8867 1.4883 1.2773 3.5664 1.5859 5.3633 0.82031l20.992-9.0352 9.9102 17.164-18.312 13.656c-1.5664 1.168-2.332 3.125-1.9727 5.0469 0.57813 3.0977 0.85938 6.0117 0.85938 8.9062s-0.28125 5.8086-0.85938 8.9062c-0.35937 1.9219 0.40625 3.8789 1.9727 5.0469l18.312 13.656-9.9102 17.164-20.992-9.0352c-1.7969-0.76953-3.875-0.45312-5.3633 0.82031-4.5391 3.8984-9.7227 6.8906-15.402 8.8867-1.8438 0.64844-3.1602 2.2891-3.3867 4.2344l-2.6719 22.703h-19.82l-2.6719-22.703c-0.22656-1.9414-1.543-3.5859-3.3867-4.2344-5.6797-1.9961-10.863-4.9883-15.402-8.8867-1.4883-1.2812-3.5664-1.5898-5.3633-0.82031l-20.992 9.0352-9.9102-17.164z"/>
 <path d="m256 205.27c16.016 0 29.043-13.027 29.043-29.043s-13.027-29.043-29.043-29.043-29.043 13.027-29.043 29.043 13.027 29.043 29.043 29.043zm0-47.848c10.367 0 18.801 8.4336 18.801 18.801 0 10.371-8.4336 18.805-18.801 18.805s-18.801-8.4336-18.801-18.801c0-10.367 8.4336-18.805 18.801-18.805z"/>
</svg>
