<?xml version="1.0" encoding="UTF-8"?>
<svg width="512pt" height="512pt" version="1.1" viewBox="0 0 512 512" xmlns="http://www.w3.org/2000/svg">
 <path d="m460.3 108.21c-0.9375-1.9648-3.0156-3.1289-5.1836-2.8867l-54.473 6.0469 6.6172-54.43c0.26172-2.1641-0.87109-4.2617-2.8281-5.2148-1.957-0.96875-4.3047-0.57422-5.8555 0.95313l-31.648 31.328c-33.094-21.418-71.371-32.809-111.01-32.809-112.88 0-204.72 91.875-204.72 204.8s91.836 204.8 204.72 204.8c112.88 0 204.72-91.875 204.72-204.8 0-39.602-11.355-77.836-32.707-110.91l31.355-31.039c1.543-1.5352 1.9531-3.8789 1.0156-5.8438zm-9.9062 147.79c0 107.28-87.242 194.56-194.48 194.56s-194.48-87.277-194.48-194.56 87.242-194.56 194.48-194.56c36.898 0 72.535 10.418 103.52 29.977l-29.164 28.871c-1.0117 1.0039-1.5625 2.3867-1.5156 3.8086l0.72266 21.699c-21.77-14.617-46.988-22.328-73.566-22.328-73.051 0-132.48 59.453-132.48 132.54 0 73.078 59.434 132.54 132.48 132.54 73.051-0.003906 132.48-59.461 132.48-132.54 0-26.652-7.7422-51.934-22.422-73.746l21.191 0.88281c0.070312 0.003906 0.14062 0.003906 0.21094 0.003906 1.3438 0 2.6406-0.53125 3.6016-1.4805l29.48-29.18c19.527 30.988 29.934 66.625 29.934 103.52zm-97.438-74.289c16.461 21.473 25.203 47.102 25.203 74.289 0 67.434-54.836 122.3-122.24 122.3s-122.25-54.863-122.25-122.3 54.84-122.3 122.25-122.3c27.062 0 52.59 8.6797 74 25.023l0.52734 15.797-33.086 33.098c-11.156-9.5781-25.617-15.406-41.438-15.406-35.16 0-63.762 28.613-63.762 63.785s28.602 63.785 63.762 63.785c35.156 0 63.762-28.613 63.762-63.785 0-15.664-5.6992-30.008-15.098-41.121l33.762-33.777zm-100.49 78.059c1 1 2.3086 1.5 3.6211 1.5 1.3086 0 2.6211-0.5 3.6211-1.5l37.621-37.637c7.5586 9.2344 12.105 21.027 12.105 33.867 0 29.523-24.012 53.547-53.52 53.547-29.512 0-53.523-24.02-53.523-53.547 0-29.523 24.012-53.547 53.523-53.547 12.996 0 24.922 4.668 34.203 12.406l-37.652 37.668c-2 2.0039-2 5.2422 0 7.2422zm132.89-86.961-44.797-1.8633-1.4961-44.953 56.246-55.676-5.6211 46.234c-0.19141 1.5547 0.34375 3.1094 1.4414 4.2188 1.1016 1.1133 2.6523 1.6641 4.2031 1.4883l46.277-5.1367z"/>
</svg>
