<?xml version="1.0" encoding="UTF-8"?>
<svg width="512pt" height="512pt" version="1.1" viewBox="0 0 512 512" xmlns="http://www.w3.org/2000/svg">
 <path d="m256 204.08c12.922 0 23.438 10.516 23.438 23.434 0 2.8281 2.293 5.1211 5.1211 5.1211s5.1211-2.2891 5.1211-5.1211c0-16.824-12.414-30.766-28.559-33.242v-14.043c0-2.8281-2.293-5.1211-5.1211-5.1211s-5.1211 2.2891-5.1211 5.1211v14.043c-16.141 2.4805-28.559 16.418-28.559 33.242 0 18.57 15.109 33.68 33.676 33.68 12.922 0 23.438 10.516 23.438 23.434 0.003906 12.926-10.512 23.441-23.434 23.441s-23.438-10.516-23.438-23.434c0-2.8281-2.293-5.1211-5.1211-5.1211s-5.1211 2.2891-5.1211 5.1211c0 16.824 12.414 30.766 28.559 33.242v13.895c0 2.8281 2.293 5.1211 5.1211 5.1211s5.1211-2.2891 5.1211-5.1211v-13.895c16.141-2.4805 28.559-16.418 28.559-33.242 0-18.57-15.109-33.676-33.676-33.676-12.922 0-23.438-10.516-23.438-23.441-0.003906-12.922 10.512-23.438 23.434-23.438z"/>
 <path d="m427.26 222.34c-16.758 0-30.641 12.406-33.113 28.539h-27.309c-1.2227-26.742-11.941-51.047-28.875-69.605l19.332-19.336c5.7305 4.2266 12.605 6.5508 19.848 6.5664h0.074219c8.9531 0 17.359-3.4805 23.676-9.8008 6.3359-6.3398 9.8203-14.773 9.8008-23.754-0.015624-8.9688-3.5312-17.41-9.8867-23.766-13.125-13.129-34.441-13.164-47.52-0.085938-11.844 11.844-12.887 30.438-3.2305 43.594l-19.34 19.344c-18.547-16.93-42.855-27.652-69.598-28.875v-27.309c16.133-2.4688 28.543-16.355 28.543-33.109 0-18.496-15.102-33.543-33.664-33.543s-33.664 15.047-33.664 33.539c0 16.758 12.406 30.641 28.543 33.109v27.309c-26.746 1.2227-51.051 11.945-69.605 28.875l-19.34-19.344c9.6562-13.156 8.6133-31.746-3.2305-43.594-6.3203-6.3203-14.727-9.8008-23.68-9.8008h-0.074219c-8.9688 0.019531-17.41 3.5312-23.766 9.8867-6.3555 6.3555-9.8672 14.797-9.8867 23.766-0.019531 8.9805 3.4609 17.414 9.8008 23.754 6.3203 6.3203 14.727 9.8008 23.676 9.8008h0.074218c7.2422-0.015625 14.117-2.3398 19.848-6.5664l19.332 19.336c-16.926 18.562-27.645 42.867-28.867 69.609h-27.309c-2.4688-16.133-16.355-28.539-33.113-28.539-18.492 0-33.539 15.102-33.539 33.66s15.047 33.66 33.539 33.66c16.758 0 30.641-12.406 33.113-28.539h27.309c1.2227 26.742 11.941 51.047 28.875 69.605l-19.332 19.336c-5.7305-4.2266-12.605-6.5508-19.848-6.5664h-0.074219c-8.9531 0-17.359 3.4805-23.676 9.8008-6.3359 6.3398-9.8203 14.773-9.8008 23.754 0.015624 8.9688 3.5312 17.41 9.8867 23.766 6.5781 6.5781 15.211 9.8711 23.84 9.8711 8.582-0.003906 17.156-3.2617 23.68-9.7852 11.844-11.844 12.887-30.438 3.2305-43.594l19.34-19.344c18.547 16.93 42.855 27.652 69.598 28.875v27.309c-16.133 2.4688-28.543 16.355-28.543 33.109 0 18.496 15.102 33.543 33.664 33.543s33.664-15.047 33.664-33.539c0-16.758-12.406-30.641-28.543-33.109v-27.309c26.746-1.2227 51.051-11.945 69.605-28.875l19.34 19.344c-9.6562 13.156-8.6133 31.746 3.2305 43.594 6.3203 6.3203 14.727 9.8008 23.68 9.8008h0.074219c8.9688-0.019531 17.41-3.5312 23.766-9.8867 6.3555-6.3555 9.8672-14.797 9.8867-23.766 0.019531-8.9805-3.4609-17.414-9.8008-23.754-6.3203-6.3203-14.727-9.8008-23.676-9.8008h-0.074218c-7.2422 0.015625-14.117 2.3398-19.848 6.5664l-19.332-19.336c16.926-18.562 27.645-42.867 28.867-69.609h27.309c2.4688 16.133 16.355 28.539 33.113 28.539 18.492 0 33.539-15.102 33.539-33.66s-15.047-33.66-33.539-33.66zm-342.52 57.082c-12.848 0-23.297-10.508-23.297-23.422s10.453-23.422 23.301-23.422c12.852 0 23.301 10.504 23.301 23.422 0 12.914-10.453 23.422-23.305 23.422zm275.8-161.08c4.5273-4.5234 10.477-6.7891 16.441-6.7891 6.0039 0 12.016 2.2969 16.602 6.875 4.4258 4.4258 6.8711 10.305 6.8867 16.551 0.011718 6.2344-2.4023 12.09-6.8008 16.488-4.3867 4.3867-10.223 6.8008-16.438 6.8008h-0.050781c-6.2461-0.015625-12.121-2.4609-16.547-6.8867-9.1367-9.1328-9.1758-23.953-0.09375-33.039zm-127.96-33.602c0-12.848 10.508-23.297 23.422-23.297s23.422 10.449 23.422 23.301c0 12.848-10.508 23.297-23.422 23.297s-23.422-10.449-23.422-23.301zm-97.75 73.527c-6.4688 0.10156-12.094-2.3984-16.488-6.8008-4.3984-4.3984-6.8125-10.254-6.8008-16.488 0.011719-6.2461 2.457-12.125 6.8867-16.551 4.582-4.5781 10.594-6.875 16.598-6.875 5.9609 0 11.914 2.2656 16.441 6.7891 9.0781 9.0859 9.043 23.906-0.085938 33.039-4.4297 4.4258-10.305 6.8711-16.551 6.8867zm16.637 235.39c-9.0898 9.0781-23.91 9.0469-33.039-0.085937-4.4258-4.4258-6.8711-10.305-6.8867-16.551-0.011718-6.2344 2.4023-12.09 6.8008-16.488 4.3867-4.3867 10.223-6.8008 16.438-6.8008h0.050781c6.2461 0.015625 12.121 2.4609 16.547 6.8867 9.1328 9.1328 9.1719 23.953 0.089844 33.039zm127.96 33.602c0 12.848-10.508 23.297-23.422 23.297s-23.422-10.449-23.422-23.301c0-12.848 10.508-23.297 23.422-23.297s23.422 10.449 23.422 23.301zm97.75-73.527h0.050781c6.2148 0 12.051 2.4141 16.438 6.8008 4.3984 4.3984 6.8125 10.254 6.8008 16.488-0.011719 6.2461-2.457 12.125-6.8867 16.551-9.1367 9.1289-23.953 9.1641-33.039 0.085937-9.0781-9.0859-9.043-23.906 0.085938-33.039 4.4297-4.4258 10.305-6.8711 16.551-6.8867zm-121.17 2.9961c-55.543 0-100.73-45.184-100.73-100.73s45.188-100.73 100.73-100.73 100.73 45.184 100.73 100.73-45.188 100.73-100.73 100.73zm171.26-77.309c-12.852 0-23.301-10.504-23.301-23.422 0-12.914 10.453-23.422 23.301-23.422 12.848 0 23.297 10.508 23.297 23.422s-10.449 23.422-23.297 23.422z"/>
 <path d="m178.62 91.184c2 2 5.2383 2 7.2383 0s2-5.2383 0-7.2383c-27.984-27.984-73.613-27.891-101.71 0.20313-13.609 13.605-21.125 31.676-21.164 50.887-0.042969 19.211 7.4062 37.262 20.965 50.82 1 1 2.3086 1.5 3.6211 1.5 1.3086 0 2.6211-0.5 3.6211-1.5 2-2 2-5.2383 0-7.2383-11.621-11.621-18-27.09-17.965-43.559 0.035156-16.48 6.4844-31.984 18.164-43.664 24.102-24.113 63.23-24.211 87.23-0.21094z"/>
 <path d="m178.62 420.82c-24 23.988-63.129 23.895-87.23-0.19922-11.68-11.68-18.129-27.191-18.164-43.672-0.035156-16.469 6.3438-31.941 17.965-43.559 2-2 2-5.2383 0-7.2383s-5.2383-2-7.2383 0c-13.559 13.559-21.008 31.609-20.965 50.824 0.039063 19.203 7.5586 37.273 21.164 50.887 14.086 14.086 32.574 21.129 51.039 21.129 18.367 0 36.715-6.9766 50.672-20.93 2-2 2-5.2383 0-7.2383-2-2.0039-5.2422-2.0039-7.2422-0.003906z"/>
 <path d="m420.81 326.14c-2 2-2 5.2383 0 7.2383 11.621 11.621 18 27.09 17.965 43.559-0.035156 16.48-6.4844 31.984-18.164 43.664-24.105 24.102-63.238 24.195-87.23 0.20312-2-2-5.2383-2-7.2383 0s-2 5.2383 0 7.2383c13.957 13.953 32.297 20.93 50.668 20.93 18.465 0 36.961-7.0508 51.043-21.137 13.609-13.605 21.125-31.676 21.164-50.887 0.042969-19.211-7.4062-37.262-20.965-50.82-2.0039-1.9883-5.2422-1.9883-7.2422 0.011719z"/>
 <path d="m420.81 185.86c1 1 2.3086 1.5 3.6211 1.5 1.3086 0 2.6211-0.5 3.6211-1.5 13.559-13.559 21.008-31.609 20.965-50.824-0.039062-19.203-7.5586-37.273-21.164-50.887-28.094-28.09-73.723-28.184-101.71-0.19922-2 2-2 5.2383 0 7.2383s5.2383 2 7.2383 0c23.996-23.996 63.125-23.898 87.23 0.19922 11.68 11.68 18.129 27.191 18.164 43.672 0.035156 16.469-6.3438 31.941-17.965 43.559-2 2-2 5.2422 0 7.2422z"/>
</svg>
