<?xml version="1.0" encoding="UTF-8"?>
<svg width="512pt" height="512pt" version="1.1" viewBox="0 0 512 512" xmlns="http://www.w3.org/2000/svg">
 <path d="m338.56 51.199c-2.8281 0-5.1211 2.2891-5.1211 5.1211 0 41.109-33.445 74.559-74.559 74.559-41.113 0-74.559-33.449-74.559-74.559 0-1.3594-0.53906-2.6602-1.5-3.6211-0.96094-0.96094-2.2617-1.5-3.6211-1.5-1.2812 0-128 1.0352-128 90.609v84.324c0 2.0742 1.25 3.9453 3.1719 4.7344l62.078 25.602c0.085937 0.035156 0.17578 0.019531 0.26172 0.050781v199.16c0 2.8281 2.2891 5.1211 5.1211 5.1211h268.34c2.8281 0 5.1211-2.2891 5.1211-5.1211l-0.003907-199.16c0.085938-0.03125 0.17578-0.015625 0.26172-0.050781l62.078-25.602c1.9219-0.78906 3.1719-2.6562 3.1719-4.7305v-84.328c0-89.574-121.02-90.609-122.24-90.609zm112 171.51-55.27 22.789v-55.203c0-2.8281-2.2891-5.1211-5.1211-5.1211-2.8281 0-5.1211 2.2891-5.1211 5.1211l0.003906 260.26h-258.1v-260.26c0-2.8281-2.2891-5.1211-5.1211-5.1211-2.8281 0-5.1211 2.2891-5.1211 5.1211v55.203l-55.266-22.789v-80.902c0-69.887 90.422-79.012 112.8-80.195 2.7383 44.309 39.652 79.508 84.633 79.508 44.98 0 81.895-35.199 84.637-79.5 9.4336 0.51172 30.91 2.5117 52.074 10.281 36.477 13.383 54.969 36.902 54.969 69.906z"/>
 <path d="m339.22 261.16c-18.125-2.5391-33.707-0.88672-46.734 4.7188-0.64844-14.176-5.6641-42.383-33.352-63.832-1.8398-1.4297-4.4297-1.4297-6.2695 0-27.688 21.453-32.707 49.66-33.352 63.836-13.031-5.6055-28.621-7.2578-46.734-4.7188-2.5234 0.35547-4.4062 2.5195-4.4062 5.0703 0 46.605 36.57 84.828 82.523 87.48v31.879c0 2.8281 2.2891 5.1211 5.1211 5.1211 2.8281 0 5.1211-2.2891 5.1211-5.1211v-31.887c45.934-2.6719 82.484-40.887 82.484-87.477 0.003906-2.5508-1.875-4.7148-4.4023-5.0703zm-88.32 82.289c-38.809-2.5391-69.898-33.816-72.156-72.699 21.012-2.1406 37.824 2.1406 50.031 12.73 19.773 17.141 21.879 46.074 22.102 51.504-0.015625 0.47656-0.015625 0.77344-0.015625 0.89062 0 0.21875 0.015625 0.43359 0.039063 0.64453zm5.1016-35.98c-3.6406-10.68-9.8516-22.453-20.453-31.676-1.8594-1.6172-3.8125-3.0977-5.8398-4.4688-0.25-8.1523 0.85156-36.812 26.293-58.629 25.617 21.934 26.617 50.352 26.316 58.617-2.0312 1.375-3.9922 2.8594-5.8594 4.4844-10.605 9.2188-16.816 20.992-20.457 31.672zm5.1406 35.977v-7.5703c0-0.11328 0-0.41406-0.015625-0.88672 0.21875-5.4414 2.3281-34.371 22.102-51.512 12.203-10.586 29.023-14.863 50.031-12.73-2.2539 38.871-33.328 70.145-72.117 72.699z"/>
</svg>
