<?xml version="1.0" encoding="UTF-8"?>
<svg width="512pt" height="512pt" version="1.1" viewBox="0 0 512 512" xmlns="http://www.w3.org/2000/svg">
 <path d="m114.27 395.75c2.8359 3.2734 4.3945 7.457 4.3945 11.785v48.141c0 2.8281 2.293 5.1211 5.1211 5.1211h87.312c2.8281 0 5.1211-2.293 5.1211-5.1211l-0.003906-103.88c0-7.5391-2.9375-14.629-8.2695-19.961l-61.668-61.672c-10.457-10.461-27.113-11.047-38.254-1.7539l-0.003906-69.418c0-15.047-11.262-27.906-25.637-29.277-7.9766-0.75391-15.969 1.8828-21.879 7.2539s-9.3008 13.035-9.3008 21.02v105.84c0 12.348 4.4531 24.289 12.543 33.625zm-52.824-197.76c0-5.1094 2.1719-10.008 5.9492-13.449 3.8359-3.4844 8.7969-5.1289 14.02-4.6328 9.1758 0.875 16.367 9.2578 16.367 19.082v90.945 0.03125 0.28125c0 7.5859 2.9531 14.723 8.3203 20.086l38.984 38.984c2 2 5.2383 2 7.2383 0s2-5.2383 0-7.2383l-38.984-38.984c-3.4336-3.4336-5.3203-7.9961-5.3203-12.848s1.8867-9.4141 5.3203-12.844c7.0859-7.0859 18.609-7.0859 25.695 0l61.672 61.672c3.3984 3.3984 5.2695 7.918 5.2695 12.723v98.758h-77.074v-43.023c0-6.7891-2.4492-13.359-6.8945-18.488l-50.523-58.297c-6.4727-7.4766-10.039-17.035-10.039-26.922z"/>
 <path d="m429.62 169.72c-14.379 1.3711-25.637 14.234-25.637 29.277v69.418c-11.145-9.2812-27.797-8.6992-38.254 1.7539l-61.672 61.668c-5.332 5.332-8.2695 12.422-8.2695 19.961v103.88c0 2.8281 2.293 5.1211 5.1211 5.1211h87.312c2.8281 0 5.1211-2.293 5.1211-5.1211v-48.141c0-4.3281 1.5586-8.5117 4.3945-11.785l50.523-58.297c8.082-9.3359 12.539-21.281 12.539-33.629v-105.84c0-7.9844-3.3906-15.648-9.3008-21.023-5.9102-5.3711-13.879-8-21.879-7.25zm20.938 134.11c0 9.8867-3.5664 19.445-10.043 26.922l-50.523 58.297c-4.4492 5.1328-6.8945 11.699-6.8945 18.488l0.003906 43.023h-77.074v-98.758c0-4.8047 1.8711-9.3242 5.2695-12.723l61.672-61.672c7.0859-7.0859 18.609-7.0859 25.695 0 3.4336 3.4336 5.3203 7.9922 5.3203 12.844s-1.8867 9.4141-5.3203 12.848l-38.984 38.988c-2 2-2 5.2383 0 7.2383s5.2383 2 7.2383 0l38.984-38.984c5.3633-5.3633 8.3203-12.5 8.3203-20.086v-0.28125-0.03125-90.945c0-9.8242 7.1914-18.207 16.367-19.082 5.2266-0.49609 10.188 1.1484 14.02 4.6328 3.7812 3.4375 5.9492 8.3398 5.9492 13.445z"/>
 <path d="m302.86 51.691c-1.9727-0.9375-4.3086-0.51562-5.8359 1.0312l-122.8 124.47c-1.4492 1.4688-1.875 3.6641-1.0781 5.5703s2.6562 3.1445 4.7227 3.1445h40.254l-10.734 100.65c-0.23438 2.1641 0.92969 4.2383 2.8984 5.1719 0.69922 0.33203 1.4492 0.49219 2.1914 0.49219 1.3438 0 2.6641-0.52734 3.6484-1.5234l122.8-124.47c1.4492-1.4688 1.875-3.6641 1.0781-5.5703s-2.6562-3.1445-4.7227-3.1445h-40.254l10.734-100.65c0.22656-2.1641-0.9375-4.2383-2.9023-5.1719zm20.172 116.06-103.91 105.32 9.7852-91.746c0.15625-1.4414-0.3125-2.8867-1.2812-3.9648-0.96875-1.0781-2.3555-1.6992-3.8086-1.6992h-33.703l103.91-105.32-9.7852 91.746c-0.15625 1.4414 0.3125 2.8867 1.2812 3.9648 0.96875 1.0781 2.3555 1.6992 3.8086 1.6992z"/>
</svg>
