<?xml version="1.0" encoding="UTF-8"?>
<svg width="512pt" height="512pt" version="1.1" viewBox="0 0 512 512" xmlns="http://www.w3.org/2000/svg">
 <path d="m256 460.8c94.02 0 170.5-76.484 170.5-170.5 0-42.602-17.281-87.562-51.359-133.64-1.4805-2-4.1797-2.6406-6.3984-1.5391-11.68 5.8008-24.121 8.7383-37 8.7383-46.02 0-83.461-37.441-83.461-83.461 0-7.5 1.0781-15.141 3.1992-22.68 0.60156-2.1406-0.23828-4.3984-2.0781-5.6406-1.8398-1.2383-4.2617-1.1406-6 0.21875-37.039 29.02-157.92 131.98-157.92 238 0.019531 94.02 76.496 170.5 170.52 170.5zm-80.68-91.562c0-60.781 66.477-110.06 80.758-119.94 14.34 9.4414 80.598 56.438 80.598 119.94 0 44.48-36.199 80.68-80.68 80.68-44.48 0-80.68-36.199-80.68-80.68zm63.441-300.06c-0.46094 3.7617-0.69922 7.5-0.69922 11.219 0 51.68 42.039 93.699 93.699 93.699 13.039 0 25.66-2.6797 37.621-7.9609 31.121 43.082 46.879 84.84 46.879 124.16 0 68.363-43.02 126.84-103.4 149.84 20.762-16.68 34.059-42.262 34.059-70.902 0-31.84-15.34-64.539-44.34-94.562-21.68-22.422-43.039-35.359-43.941-35.898-0.82031-0.48047-1.7188-0.71875-2.6406-0.71875-0.96094 0-1.9219 0.28125-2.7617 0.80078-3.6016 2.3008-88.184 56.98-88.184 130.38 0 28.641 13.301 54.223 34.059 70.902-60.379-23-103.4-81.48-103.4-149.84 0.019531-92.719 98.52-184.44 143.04-221.12z"/>
</svg>
