<?xml version="1.0" encoding="UTF-8"?>
<svg width="512pt" height="512pt" version="1.1" viewBox="0 0 512 512" xmlns="http://www.w3.org/2000/svg">
 <path d="m256 132.96c2.8398 0 5.1211-2.2812 5.1211-5.1211v-33.621c0-2.8398-2.2812-5.1211-5.1211-5.1211s-5.1211 2.2812-5.1211 5.1211v33.621c0 2.8398 2.2812 5.1211 5.1211 5.1211z"/>
 <path d="m366.58 161.78c0-60.98-49.621-110.58-110.58-110.58s-110.58 49.602-110.58 110.58c0 60.957 49.621 110.58 110.58 110.58s110.58-49.621 110.58-110.58zm-110.58 100.34c-55.32 0-100.34-45-100.34-100.34s45.02-100.34 100.34-100.34 100.34 45 100.34 100.34c0 55.32-45.02 100.34-100.34 100.34z"/>
 <path d="m283.52 105.18c-2.5195-1.2383-5.6016-0.19922-6.8594 2.3398-1.2383 2.5391-0.19922 5.6016 2.3398 6.8594 18 8.8398 29.18 26.801 29.18 46.84 0 28.762-23.398 52.164-52.18 52.164-28.762 0-52.18-23.398-52.18-52.164 0-20.039 11.18-37.98 29.18-46.84 2.5391-1.2383 3.5781-4.3203 2.3398-6.8594-1.2383-2.5195-4.3203-3.5781-6.8594-2.3398-21.52 10.602-34.898 32.059-34.898 56.02 0 34.422 28 62.402 62.418 62.402s62.418-28 62.418-62.402c0-23.961-13.379-45.441-34.898-56.02z"/>
 <path d="m429.62 169.72c-14.379 1.3594-25.641 14.238-25.641 29.281v69.602c-11.141-9.3398-27.781-8.9219-38.262 1.5586l-61.66 61.68c-5.3398 5.3203-8.2812 12.422-8.2812 19.961v103.88c0 2.8398 2.2812 5.1211 5.1211 5.1211 2.8398 0 5.1211-2.2812 5.1211-5.1211v-103.88c0-4.8008 1.8789-9.3203 5.2812-12.719l61.68-61.68c7.0781-7.0781 18.621-7.0781 25.699 0 7.0781 7.0781 7.0781 18.602 0 25.699l-39 38.98c-2 2-2 5.2383 0 7.2383s5.2383 2 7.2383 0l38.98-38.98c5.5781-5.5781 8.3203-12.918 8.2812-20.238 0-0.058593 0.039062-0.10156 0.039062-0.16016v-90.941c0-9.8203 7.1992-18.199 16.359-19.082 5.2383-0.46094 10.199 1.1602 14.02 4.6406 3.8008 3.4219 5.9609 8.3203 5.9609 13.441v105.84c0 9.8789-3.5586 19.441-10.039 26.922l-50.52 58.301c-4.4414 5.1406-6.8984 11.699-6.8984 18.48v48.141c0 2.8398 2.2812 5.1211 5.1211 5.1211s5.1211-2.2812 5.1211-5.1211v-48.141c0-4.3203 1.5586-8.5195 4.3984-11.781l50.52-58.301c8.0781-9.3398 12.539-21.281 12.539-33.621v-105.84c0-8-3.3984-15.641-9.3008-21.02-5.918-5.3789-13.922-8.0586-21.879-7.2617z"/>
 <path d="m114.26 395.76c2.8398 3.2812 4.3984 7.4609 4.3984 11.781v48.141c0 2.8398 2.2812 5.1211 5.1211 5.1211s5.1211-2.2812 5.1211-5.1211v-48.141c0-6.7812-2.4414-13.359-6.8984-18.48l-50.52-58.301c-6.4805-7.4805-10.039-17.039-10.039-26.922v-105.84c0-5.1211 2.1602-10 5.9609-13.441 3.8398-3.4805 8.8008-5.1016 14.02-4.6406 9.1797 0.87891 16.359 9.2617 16.359 19.082v90.941c0 0.058594 0.039062 0.10156 0.039062 0.16016-0.039062 7.3203 2.7188 14.66 8.3008 20.238l38.98 38.98c2 2 5.2383 2 7.2383 0s2-5.2383 0-7.2383l-38.98-38.98c-7.0781-7.0781-7.0781-18.602 0-25.699 6.8594-6.8594 18.82-6.8594 25.68 0l61.68 61.68c3.3984 3.3984 5.2812 7.9219 5.2812 12.719l-0.019531 103.88c0 2.8398 2.2812 5.1211 5.1211 5.1211 2.8398 0 5.1211-2.2812 5.1211-5.1211v-103.88c0-7.5391-2.9414-14.641-8.2812-19.961l-61.66-61.68c-5.3594-5.3594-12.5-8.3203-20.082-8.3203-6.7617 0-13.059 2.4609-18.16 6.7383l-0.019531-69.582c0-15.039-11.262-27.898-25.641-29.281-7.9805-0.80078-15.961 1.8789-21.879 7.2383-5.8984 5.3789-9.3008 13.039-9.3008 21.039v105.84c0 12.359 4.4609 24.281 12.539 33.621z"/>
</svg>
