<?xml version="1.0" encoding="UTF-8"?>
<svg width="512pt" height="512pt" version="1.1" viewBox="0 0 512 512" xmlns="http://www.w3.org/2000/svg">
 <path d="m455.68 51.199h-399.36c-2.8281 0-5.1211 2.2891-5.1211 5.1211v399.36c0 2.8281 2.293 5.1211 5.1211 5.1211h399.36c2.8281 0 5.1211-2.2891 5.1211-5.1211v-399.36c0-2.832-2.293-5.1211-5.1211-5.1211zm-5.1211 199.68h-54.59v-5.9531c0-22.125-18-40.125-40.129-40.125s-40.129 18-40.129 40.125v5.9531h-54.59v-59.715c0-2.8281-2.293-5.1211-5.1211-5.1211h-8.3945c-16.477 0-29.887-13.406-29.887-29.887s13.406-29.887 29.887-29.887l8.3945 0.003907c2.8281 0 5.1211-2.2891 5.1211-5.1211v-59.711h189.44zm-199.68-189.44v54.594h-3.2734c-22.125 0-40.125 18-40.125 40.125s18 40.125 40.125 40.125h3.2734v54.594h-59.711c-2.8281 0-5.1211 2.2891-5.1211 5.1211v11.074c0 16.48-13.406 29.887-29.887 29.887-16.48 0-29.887-13.406-29.887-29.887v-11.074c0-2.8281-2.293-5.1211-5.1211-5.1211h-59.711v-189.44zm-189.44 199.68h54.594v5.9531c-0.003906 22.125 17.996 40.125 40.125 40.125s40.129-18 40.129-40.125v-5.9531h54.59v59.715c0 2.8281 2.293 5.1211 5.1211 5.1211h8.3945c16.477 0 29.887 13.406 29.887 29.887s-13.406 29.887-29.887 29.887l-8.3945-0.003907c-2.8281 0-5.1211 2.2891-5.1211 5.1211v59.711h-189.44zm199.68 189.44v-54.594h3.2734c22.125 0 40.125-18 40.125-40.125s-18-40.125-40.125-40.125h-3.2734v-54.594h59.711c2.8281 0 5.1211-2.2891 5.1211-5.1211v-11.074c0-16.48 13.406-29.887 29.887-29.887 16.48 0 29.887 13.406 29.887 29.887v11.074c0 2.8281 2.293 5.1211 5.1211 5.1211h59.711v189.44z"/>
</svg>
