<?xml version="1.0" encoding="UTF-8"?>
<svg width="512pt" height="512pt" version="1.1" viewBox="0 0 512 512" xmlns="http://www.w3.org/2000/svg">
 <path d="m293.5 134.11c0-20.434-16.625-37.059-37.059-37.059-20.434 0-37.059 16.625-37.059 37.059 0 20.434 16.625 37.059 37.059 37.059 20.434 0 37.059-16.621 37.059-37.059zm-37.059 26.824c-14.793 0-26.82-12.031-26.82-26.82 0-14.785 12.031-26.82 26.82-26.82 14.785 0 26.82 12.031 26.82 26.82 0 14.789-12.027 26.82-26.82 26.82z"/>
 <path d="m261.57 77.5v-19.672c0-2.832-2.2891-5.1211-5.1211-5.1211-2.832 0-5.1211 2.2891-5.1211 5.1211v19.672c0 2.832 2.2891 5.1211 5.1211 5.1211 2.832 0 5.1211-2.293 5.1211-5.1211z"/>
 <path d="m284.48 90.047c1.7812 0 3.5117-0.93359 4.4531-2.5859l9.7383-17.086c1.3984-2.4531 0.53906-5.5859-1.9141-6.9844-2.4609-1.4023-5.5859-0.54297-6.9844 1.9141l-9.7383 17.086c-1.3984 2.4531-0.53906 5.582 1.9141 6.9844 0.80078 0.45703 1.6719 0.67188 2.5312 0.67188z"/>
 <path d="m305.16 110.39c0.88672 0 1.7852-0.23047 2.6055-0.71875l16.926-10.023c2.4336-1.4375 3.2344-4.582 1.7969-7.0156-1.4336-2.4336-4.5703-3.2344-7.0156-1.7969l-16.926 10.023c-2.4336 1.4375-3.2344 4.582-1.7969 7.0156 0.95312 1.6211 2.6562 2.5156 4.4102 2.5156z"/>
 <path d="m337.84 132.76c-0.046875-2.8008-2.3281-5.0312-5.1211-5.0312h-0.085938l-19.672 0.32422c-2.8281 0.046874-5.0781 2.375-5.0312 5.207 0.046874 2.8008 2.3281 5.0312 5.1211 5.0312h0.085938l19.672-0.32422c2.8242-0.046875 5.0742-2.3828 5.0312-5.207z"/>
 <path d="m303.63 165.82 17.25 9.457c0.77734 0.42969 1.6211 0.62891 2.4531 0.62891 1.8125 0 3.5625-0.96094 4.4961-2.6641 1.3633-2.4766 0.44922-5.5898-2.0273-6.9492l-17.25-9.457c-2.4844-1.3711-5.5898-0.44922-6.9492 2.0273-1.3594 2.4805-0.45703 5.5938 2.0273 6.957z"/>
 <path d="m292.04 201.77c0.96094 1.5781 2.6484 2.4414 4.3672 2.4414 0.91797 0 1.8398-0.24609 2.6719-0.75781 2.4102-1.4805 3.1641-4.6328 1.6797-7.0391l-10.305-16.758c-1.4805-2.418-4.6406-3.1641-7.0391-1.6797-2.4102 1.4805-3.1641 4.6328-1.6797 7.0391z"/>
 <path d="m258.34 185.58c-0.0625 0-0.11719 0-0.17578 0.003906-2.8281 0.09375-5.0391 2.457-4.9453 5.2852l0.65625 19.656c0.09375 2.7695 2.3672 4.9492 5.1094 4.9492 0.0625 0 0.11719 0 0.17578-0.003906 2.8281-0.09375 5.0391-2.457 4.9453-5.2852l-0.65625-19.656c-0.085937-2.7656-2.3672-4.9492-5.1094-4.9492z"/>
 <path d="m218.51 206.14c0.75781 0.39844 1.5781 0.58984 2.3789 0.58984 1.8398 0 3.6211-0.99219 4.5352-2.7344l9.1641-17.398c1.3203-2.5 0.35938-5.5977-2.1445-6.918-2.5-1.3164-5.6016-0.35156-6.918 2.1445l-9.1641 17.398c-1.3164 2.5-0.35938 5.5977 2.1484 6.918z"/>
 <path d="m192.14 180.27c0.94141 0 1.8945-0.26172 2.75-0.80469l16.582-10.578c2.3867-1.5195 3.082-4.6836 1.5625-7.0703-1.5195-2.3867-4.6797-3.0859-7.0703-1.5625l-16.582 10.578c-2.3867 1.5195-3.082 4.6836-1.5625 7.0703 0.97656 1.5312 2.6328 2.3672 4.3203 2.3672z"/>
 <path d="m175.14 138.18c0.13672 2.7383 2.4023 4.8633 5.1094 4.8633 0.085938 0 0.17578 0 0.26172-0.003907l19.645-0.98437c2.8281-0.14453 5.0039-2.543 4.8594-5.3711-0.14453-2.832-2.625-5.0703-5.3711-4.8594l-19.645 0.98438c-2.8281 0.14844-5 2.5508-4.8594 5.3711z"/>
 <path d="m203.61 113.14c0.74219 0.375 1.5312 0.54688 2.3047 0.54688 1.8672 0 3.6758-1.0234 4.5781-2.8125 1.2734-2.5234 0.26562-5.6055-2.2578-6.8828l-17.551-8.8711c-2.5234-1.2695-5.6055-0.26562-6.8828 2.2578-1.2734 2.5234-0.26562 5.6055 2.2578 6.8828z"/>
 <path d="m225.2 92.023c0.96875 0 1.9492-0.27734 2.8203-0.85156 2.3594-1.5625 3.0039-4.7422 1.4453-7.0977l-10.855-16.398c-1.5664-2.3594-4.7344-3.0039-7.0977-1.4453-2.3594 1.5625-3.0039 4.7422-1.4453 7.0977l10.855 16.398c0.98828 1.4844 2.6172 2.2969 4.2773 2.2969z"/>
 <path d="m52.547 459.14c1 1 2.3086 1.5 3.6211 1.5s2.6211-0.5 3.6211-1.5c161.84-161.84 393.64-173.47 395.96-173.57 2.8281-0.11719 5.0195-2.5039 4.8984-5.3281-0.11719-2.832-2.5039-5.0391-5.3281-4.8984-0.73828 0.03125-24.137 1.1914-60.98 7.7617v-12.625c0.98437 0.054687 2.0625 0.09375 3.2578 0.09375 7.5078 0 18.617-1.4219 25.973-8.7812 11.762-11.754 8.3672-33.094 8.2109-33.996-0.35938-2.1602-2.0469-3.8516-4.207-4.207-0.64062-0.10156-11.332-1.7812-21.707 1.2734 2.6094-4.3555 4.5625-9.4375 4.5625-14.973 0-16.629-17.484-29.316-18.23-29.844-1.7812-1.2695-4.1641-1.2695-5.9531 0-0.74219 0.53125-18.223 13.219-18.223 29.844 0 5.5469 1.9609 10.633 4.582 15-10.418-3.0977-21.18-1.4023-21.812-1.3047-2.1602 0.35938-3.8516 2.0469-4.207 4.207-0.14844 0.90234-3.543 22.242 8.2109 33.996 7.3633 7.3594 18.469 8.7812 25.973 8.7812 1.2305 0 2.3281-0.039063 3.3281-0.097657v14.535c-22.824 4.4141-49.926 10.793-79.492 19.977-71.258-34.719-140.12-51.789-187.18-60.098v-13.641c0.98438 0.054688 2.0703 0.09375 3.2656 0.09375 7.5078 0 18.609-1.4219 25.965-8.7812 11.75-11.754 8.3672-33.09 8.2109-33.996-0.35938-2.1602-2.0469-3.8516-4.207-4.207-0.64062-0.10938-11.332-1.7852-21.707 1.2695 2.6094-4.3555 4.5625-9.4375 4.5625-14.965 0-16.621-17.484-29.316-18.227-29.844-1.793-1.2695-4.168-1.2695-5.9609 0-0.74219 0.53125-18.227 13.227-18.227 29.844 0 5.5469 1.9609 10.633 4.582 15-10.414-3.0977-21.172-1.4141-21.812-1.3047-2.1602 0.35938-3.8516 2.0469-4.207 4.207-0.14844 0.90625-3.5312 22.242 8.2188 33.996 7.3516 7.3594 18.453 8.7812 25.957 8.7812 1.2344 0 2.3398-0.039062 3.3438-0.097656v11.918c-31.031-5.0039-50.328-5.9297-50.805-5.9492-2.7461-0.17969-5.2109 2.0703-5.3281 4.8984-0.11719 2.8281 2.0742 5.2109 4.8984 5.3281 1.1406 0.050782 112.84 5.4219 234.43 62.117-16.109 5.3672-32.828 11.578-49.895 18.734-73.062-31.469-140.16-45.215-183.61-51.207-2.8789-0.40625-5.3906 1.5703-5.7695 4.3711-0.39062 2.8008 1.5703 5.3867 4.3711 5.7695 41.043 5.6562 103.47 18.371 171.96 46.695-14.645 6.5078-29.484 13.742-44.355 21.766-40.324-15.781-82.691-28.031-125.93-36.41-2.7891-0.54297-5.457 1.2812-6 4.0508-0.53906 2.7734 1.2734 5.4648 4.0508 6 39.789 7.7109 78.801 18.785 116.14 32.867-13.039 7.4023-26.062 15.426-38.965 24.137-24.289-8.8828-49.5-16.59-74.973-22.887-2.7461-0.66016-5.5234 0.99219-6.1992 3.7383-0.67969 2.7461 0.99219 5.5195 3.7383 6.1992 22.738 5.6211 45.219 12.426 67.043 20.141-23.93 16.938-47.32 36.266-69.434 58.375-2.0039 2-2.0039 5.2422 0 7.2422zm369.5-225.83c0.3125 6.1406-0.42578 15.934-5.7305 21.238-5.3008 5.2891-15.023 6.0312-21.219 5.7344-0.27734-5.5156 0.097657-15.633 5.707-21.242 5.3164-5.3125 15.129-6.0625 21.242-5.7305zm-32.859-42.477c4.0977 3.707 10.988 11.117 10.988 19.055 0 7.4922-6.3828 14.926-10.945 19.055-4.0898-3.707-10.98-11.117-10.98-19.055-0.003906-7.4883 6.375-14.922 10.938-19.055zm-5.9219 69.422c-5.5352 0.29297-15.637-0.097656-21.242-5.7031-5.293-5.3008-6.043-15.066-5.7344-21.219 5.4883-0.26562 15.625 0.085938 21.238 5.7031 5.2969 5.3047 6.0391 15.074 5.7383 21.219zm-238.15-66.176c0.27734 5.5156-0.097656 15.633-5.7031 21.242-5.3008 5.3008-15.082 6.0273-21.219 5.7344-0.27734-5.5078 0.09375-15.625 5.7031-21.238 5.2969-5.2969 15.074-6.0156 21.219-5.7383zm-32.812-42.484c4.5625 4.125 10.969 11.57 10.969 19.07 0 7.5078-6.4062 14.949-10.969 19.078-4.5625-4.125-10.969-11.57-10.969-19.078 0-7.5 6.4062-14.945 10.969-19.07zm-5.9492 69.438c-5.4766 0.28125-15.625-0.085938-21.238-5.7031-5.293-5.3008-6.043-15.062-5.7383-21.219 5.5508-0.25 15.633 0.10156 21.242 5.707 5.2969 5.3008 6.0391 15.07 5.7344 21.215z"/>
 <path d="m454.82 315.21c-71.09 9.8008-207.94 40.547-325.69 136.34-2.1953 1.7852-2.5234 5.0117-0.74219 7.1992 1.0078 1.2461 2.4844 1.8906 3.9727 1.8906 1.1367 0 2.2734-0.375 3.2266-1.1523 115.82-94.219 250.59-124.49 320.63-134.14 2.8008-0.38281 4.7617-2.9688 4.3711-5.7695-0.38281-2.793-2.8945-4.793-5.7695-4.3672z"/>
 <path d="m460.55 361.45c-0.53906-2.7695-3.1953-4.625-6-4.0508-60.953 11.816-151.89 37.684-238.96 93.812-2.375 1.5352-3.0625 4.707-1.5312 7.082 0.97656 1.5195 2.6328 2.3438 4.3125 2.3438 0.95312 0 1.9102-0.26562 2.7695-0.8125 85.691-55.246 175.29-80.727 235.36-92.375 2.7734-0.53906 4.5938-3.2266 4.0508-6z"/>
 <path d="m318.14 461.04c0.74609 0 1.5156-0.16406 2.2383-0.51562 42.434-20.645 88.32-37.137 136.39-49.023 2.7461-0.67969 4.418-3.457 3.7383-6.1992-0.67969-2.7461-3.4727-4.4023-6.1992-3.7383-48.758 12.059-95.324 28.801-138.4 49.758-2.543 1.2383-3.5977 4.3008-2.3672 6.8438 0.87891 1.8164 2.707 2.875 4.6055 2.875z"/>
</svg>
