<?xml version="1.0" encoding="UTF-8"?>
<svg width="512pt" height="512pt" version="1.1" viewBox="0 0 512 512" xmlns="http://www.w3.org/2000/svg">
 <path d="m290.67 190.67c2.0273 0.34766 4.0586 0.52734 6.0781 0.52734 6.0273 0 11.875-1.6367 17.152-4.6289 7.3594 3.5078 15.57 5.3438 23.953 5.3438 5.8477 0 11.766-0.87109 17.496-2.625 14.512-4.4492 26.484-14.227 32.844-26.828 17.777-35.195-0.92188-104.55-1.7266-107.5-0.011719-0.039063-0.046875-0.070313-0.0625-0.11719-0.16016-0.52344-0.43359-0.99219-0.75391-1.4492-0.082032-0.11328-0.11328-0.25-0.19922-0.35938-0.43359-0.52344-0.97266-0.96875-1.6172-1.2969-0.003906-0.003906-0.015625 0-0.019531-0.003906s-0.011719-0.011719-0.015625-0.011719c-0.12109-0.0625-0.26172-0.050781-0.39062-0.097656-0.52734-0.21094-1.0664-0.38281-1.6133-0.41016-0.23047-0.015625-0.45703 0.066406-0.6875 0.085937-0.45703 0.039063-0.90625 0.078125-1.3359 0.23438-0.050781 0.019532-0.11328 0.003906-0.16406 0.03125-2.8711 1.1562-69.121 28.191-88.121 61.605-13.363-5.3711-25.309-8.1289-26.262-8.3438-0.039062-0.011719-0.078125 0.003906-0.11719 0-0.55469-0.11328-1.1172-0.09375-1.6797-0.015625-0.11719 0.015625-0.23438-0.015625-0.35156 0.003906-0.67188 0.13672-1.3242 0.39844-1.9258 0.82031-0.003907 0.003906-0.003907 0.003906-0.011719 0.011719h-0.003907c-0.046874 0.03125-0.066406 0.085937-0.10937 0.11719-0.52734 0.39844-0.97266 0.875-1.3008 1.4141-0.09375 0.15234-0.11328 0.33984-0.1875 0.5-0.21484 0.46094-0.41016 0.92578-0.47656 1.4297-0.003906 0.046875-0.039063 0.082031-0.039063 0.12891-0.21875 1.9102-5.1602 47.027 8.9414 67.043 5.4023 7.6797 13.465 12.785 22.707 14.387zm1.75-10.086c-6.5469-1.1367-12.266-4.7578-16.098-10.188-7.0977-10.07-8.3672-30.566-8.0195-45.711l38.195 54.227c-4.3906 1.9023-9.25 2.5156-14.078 1.6719zm24.602-38.855c6.8906 9.7852 5.707 22.859-2.1445 31.289l-38.289-54.355c14.297 4.6641 33.145 12.715 40.434 23.066zm62.023 16.117c-5.1094 10.129-14.844 18.016-26.711 21.652-9.1172 2.8008-18.766 2.8555-27.453 0.34766l54.852-108.62c4.4805 21.57 10.93 63.625-0.6875 86.625zm-8.5703-91.004-40.102 79.418c-1.0547-3.6367-2.6836-7.1641-4.9805-10.43-5.3281-7.5625-14.676-13.699-24.434-18.469 12.879-21.559 49.688-41.164 69.516-50.52z"/>
 <path d="m173.02 223.11c-2.832 0-5.1211 2.293-5.1211 5.1211v19.531c0 2.8281 2.2891 5.1211 5.1211 5.1211 2.832 0 5.1211-2.293 5.1211-5.1211v-19.531c0-2.832-2.2891-5.1211-5.1211-5.1211z"/>
 <path d="m198.58 223.11c-2.832 0-5.1211 2.293-5.1211 5.1211v19.531c0 2.8281 2.2891 5.1211 5.1211 5.1211s5.1211-2.293 5.1211-5.1211v-19.531c0-2.832-2.2891-5.1211-5.1211-5.1211z"/>
 <path d="m224.13 223.11c-2.832 0-5.1211 2.293-5.1211 5.1211v19.531c0 2.8281 2.2891 5.1211 5.1211 5.1211 2.832 0 5.1211-2.293 5.1211-5.1211v-19.531c0-2.832-2.2891-5.1211-5.1211-5.1211z"/>
 <path d="m173.02 303c-2.832 0-5.1211 2.293-5.1211 5.1211v19.531c0 2.8281 2.2891 5.1211 5.1211 5.1211 2.832 0 5.1211-2.293 5.1211-5.1211v-19.531c0-2.832-2.2891-5.1211-5.1211-5.1211z"/>
 <path d="m198.58 303c-2.832 0-5.1211 2.293-5.1211 5.1211v19.531c0 2.8281 2.2891 5.1211 5.1211 5.1211s5.1211-2.293 5.1211-5.1211v-19.531c0-2.832-2.2891-5.1211-5.1211-5.1211z"/>
 <path d="m224.13 303c-2.832 0-5.1211 2.293-5.1211 5.1211v19.531c0 2.8281 2.2891 5.1211 5.1211 5.1211 2.832 0 5.1211-2.293 5.1211-5.1211v-19.531c0-2.832-2.2891-5.1211-5.1211-5.1211z"/>
 <path d="m173.02 382.89c-2.832 0-5.1211 2.293-5.1211 5.1211v19.531c0 2.8281 2.2891 5.1211 5.1211 5.1211 2.832 0 5.1211-2.293 5.1211-5.1211v-19.531c0-2.8281-2.2891-5.1211-5.1211-5.1211z"/>
 <path d="m198.58 382.89c-2.832 0-5.1211 2.293-5.1211 5.1211v19.531c0 2.8281 2.2891 5.1211 5.1211 5.1211s5.1211-2.293 5.1211-5.1211v-19.531c0-2.8281-2.2891-5.1211-5.1211-5.1211z"/>
 <path d="m224.13 382.89c-2.832 0-5.1211 2.293-5.1211 5.1211v19.531c0 2.8281 2.2891 5.1211 5.1211 5.1211 2.832 0 5.1211-2.293 5.1211-5.1211v-19.531c0-2.8281-2.2891-5.1211-5.1211-5.1211z"/>
 <path d="m56.961 460.8h399.36c2.832 0 5.1211-2.293 5.1211-5.1211 0-2.8281-2.2891-5.1211-5.1211-5.1211h-37.137v-26.145c13.742-2.0977 24.309-13.961 24.309-28.281 0-15.797-12.852-28.645-28.645-28.645-15.797 0-28.645 12.852-28.645 28.645 0 13.773 9.7695 25.297 22.738 28.027v26.398h-31.523l-0.003907-132.67c0-2.8281-2.2891-5.1211-5.1211-5.1211h-14.168l0.003906-76.797c0-2.8281-2.2891-5.1211-5.1211-5.1211l-73.672 0.003906c-2.832 0-5.1211 2.293-5.1211 5.1211v76.793h-12.082v-110.88c0-1.9102-1.0586-3.6602-2.7539-4.543l-112.84-58.754c-1.5977-0.82422-3.4922-0.76953-5.0195 0.16406-1.5312 0.92578-2.4609 2.5859-2.4609 4.3789v307.43h-35.031v-26.145c13.742-2.0977 24.309-13.961 24.309-28.281 0-15.797-12.852-28.645-28.645-28.645-15.797 0-28.645 12.852-28.645 28.645 0 13.773 9.7695 25.297 22.738 28.027l-0.003906 26.398h-36.812c-2.832 0-5.1211 2.293-5.1211 5.1211 0 2.8281 2.2852 5.1211 5.1172 5.1211zm339.48-64.668c0-10.148 8.2539-18.406 18.406-18.406 10.152 0 18.406 8.2578 18.406 18.406 0 10.148-8.2539 18.406-18.406 18.406-10.152 0-18.406-8.2578-18.406-18.406zm-315.17 0c0-10.148 8.2539-18.406 18.406-18.406 10.152 0 18.406 8.2578 18.406 18.406 0 10.148-8.2539 18.406-18.406 18.406-10.152 0-18.406-8.2578-18.406-18.406zm255.86 54.426h-46.5v-49.516c0-13.145 10.43-23.84 23.25-23.84 12.82 0 23.25 10.695 23.25 23.84zm10.762-209.47v16.859h-63.438v-16.859zm-63.438 27.102h63.441v44.574h-63.441zm82.723 54.812v127.55h-19.809v-49.516c0-18.789-15.027-34.078-33.488-34.078-18.461 0-33.488 15.289-33.488 34.078l-0.003906 49.516h-18.258v-127.55zm-217.89-171.43 102.61 53.422-0.003906 245.56h-102.61z"/>
</svg>
