<?xml version="1.0" encoding="UTF-8"?>
<svg width="100pt" height="100pt" version="1.1" viewBox="0 0 100 100" xmlns="http://www.w3.org/2000/svg">
 <path d="m87.59 60.312-4.6094-18.301c-0.33984-1.3555-1.5625-2.3047-2.9609-2.3008-0.25 0-0.5 0.03125-0.74219 0.09375l-3.0703 0.76562 0.003907-0.003906c-0.78516 0.19141-1.4609 0.69141-1.8789 1.3828-0.28906 0.48438-0.4375 1.0391-0.42578 1.6016-1.4453 0.19922-3.2852 0.4375-4.7578 0.61719-0.125 0.011719-0.25 0.019531-0.37891 0.019531-2.0742 0-5.6328-1.4688-7.9844-2.4414-0.71094-0.29297-1.3242-0.54688-1.832-0.73828-0.70703-0.26172-1.4531-0.39062-2.207-0.38672-1.3789 0.019531-2.7305 0.37891-3.9375 1.043l-0.023438 0.011719-0.019531 0.011719c-0.83203 0.52734-1.8008 1.1406-2.8008 1.7656l-0.69141-0.72266-0.03125-0.03125c-1.3203-1.3633-3.1211-2.1562-5.0195-2.2109-0.34375 0-0.69141 0.03125-1.0312 0.089844-1.6055 0.29688-1.8984 0.42188-5.5312 1.9844v0.003906c-1.6836 0.78906-3.5 1.2617-5.3516 1.3984l-5.2383-0.089844h-0.003906c0.089844-0.66797-0.050781-1.3438-0.39844-1.9219-0.41797-0.69531-1.0938-1.1914-1.8789-1.3828l-3.0664-0.76953c-0.24219-0.0625-0.49219-0.09375-0.74219-0.089843-1.3984-0.003907-2.6172 0.94141-2.9609 2.2969l-4.6094 18.301c-0.19141 0.78125-0.070312 1.6094 0.34766 2.3008 0.41797 0.69141 1.0898 1.1875 1.875 1.3789l3.0664 0.76953c1.2422 0.30859 2.543-0.18359 3.2656-1.2383 1.3398 0.30469 2.6367 0.79297 3.8477 1.4492 0.96875 0.66016 1.7188 1.5977 2.1523 2.6914-0.36719 1.1719-0.09375 2.4492 0.72266 3.3672l0.10156 0.64062 0.26953-0.26953h-0.003906c0.90234 0.83203 2.1719 1.1328 3.3516 0.80078-0.0625 1.0117 0.30078 2 1 2.7305 0.91797 0.97656 2.3047 1.3594 3.5938 1-0.0625 1.0078 0.30078 2 1 2.7305 1.4062 1.4609 3.7266 1.5156 5.1992 0.125l0.015625-0.011718v-0.003907c0.085937 0.78906 0.42969 1.5273 0.97656 2.1016 1.4023 1.4609 3.7266 1.5195 5.1992 0.125l1.0664-1.0078 0.50781 0.52734h-0.003906c1.4062 1.4648 3.7266 1.5195 5.1992 0.125 0.59766-0.5625 0.98438-1.3125 1.1016-2.1211 0.625 0.44531 1.375 0.68359 2.1445 0.68359 0.94141 0.003906 1.8477-0.35547 2.5312-1.0039 0.70703-0.66406 1.1172-1.5859 1.1406-2.5586v-0.10156 0.003907c1.2734 0.39453 2.6602 0.070312 3.625-0.84375 0.70703-0.66406 1.1172-1.5859 1.1406-2.5586v-0.10156c1.2695 0.39844 2.6562 0.074219 3.625-0.83984 0.92969-0.88672 1.3242-2.1953 1.0391-3.4453l0.46094-1.1992c0.39453-1.2539 1.4375-2.1914 2.7227-2.4531l3.5312-0.34766h0.003906c0.74609 0.89453 1.9414 1.2852 3.0742 1l3.0703-0.76562c0.78125-0.19141 1.457-0.6875 1.8711-1.3789 0.41797-0.6875 0.54297-1.5156 0.34766-2.2969zm-66.512 1.4766-0.10156 0.40625c-0.023437 0.09375-0.054687 0.1875-0.097656 0.27734-0.011718 0.027344-0.03125 0.054688-0.046875 0.082032v0.003906c-0.03125 0.054687-0.0625 0.11328-0.10156 0.16406-0.019531 0.027344-0.042969 0.054688-0.066407 0.085938-0.039062 0.046875-0.078124 0.089844-0.12109 0.13281-0.027344 0.023438-0.054688 0.050782-0.078125 0.074219v-0.003906c-0.046875 0.035156-0.089844 0.070312-0.13672 0.10156l-0.011719 0.007813c-0.027344 0.019531-0.054687 0.039062-0.085937 0.054687-0.0625 0.035157-0.125 0.0625-0.19141 0.089844-0.023437 0.007813-0.042968 0.019531-0.066406 0.027344l0.003906 0.003906c-0.089843 0.03125-0.18359 0.054687-0.27734 0.070313-0.019531 0-0.042969 0-0.0625 0.003906-0.19141 0.023437-0.38672 0.011718-0.57422-0.03125l-3.0703-0.76562c-0.61328-0.15234-1.0781-0.65625-1.1797-1.2812-0.015625-0.10156-0.019531-0.20703-0.015625-0.30859 0.003906-0.10938 0.019531-0.21484 0.046875-0.31641l4.6094-18.301c0.023437-0.09375 0.058594-0.1875 0.10156-0.27734 0.015624-0.027344 0.03125-0.054688 0.046874-0.082032h-0.003906c0.03125-0.058593 0.066406-0.11328 0.10156-0.16797 0.019531-0.027344 0.042969-0.058594 0.066406-0.085938v0.003906c0.039063-0.046874 0.078125-0.09375 0.12109-0.13281 0.027343-0.023438 0.054687-0.050781 0.082031-0.074219 0.046875-0.039062 0.09375-0.074219 0.14453-0.10547 0.027344-0.019531 0.054688-0.039062 0.085938-0.054687v-0.003906c0.0625-0.03125 0.125-0.0625 0.19141-0.085938 0.023437-0.007812 0.046875-0.019531 0.066406-0.03125 0.089844-0.03125 0.17969-0.054687 0.27344-0.070312 0.019531 0 0.042969 0 0.0625-0.003907 0.074219-0.007812 0.14453-0.011718 0.21875-0.011718 0.12109 0 0.23828 0.015625 0.35547 0.042968l3.0703 0.76563c0.50781 0.125 0.91797 0.49609 1.0977 0.98828 0.070313 0.19141 0.10156 0.39453 0.09375 0.59766-0.003906 0.09375-0.019531 0.18359-0.039062 0.27344 0 0.015626 0 0.027344-0.007813 0.042969l-0.35547 1.4141zm11.922 8.4727c-0.10547 0.10156-0.22266 0.19141-0.34766 0.26953-0.039063 0.027344-0.085938 0.039062-0.12891 0.0625-0.082032 0.046875-0.16406 0.089844-0.25391 0.125-0.054687 0.019531-0.10938 0.03125-0.16016 0.046875-0.078125 0.027344-0.16016 0.046875-0.24219 0.066406-0.058594 0.011719-0.11719 0.011719-0.17969 0.015625-0.15625 0.023438-0.32031 0.023438-0.48047-0.007812-0.0625-0.007813-0.12109-0.007813-0.17969-0.023438-0.085938-0.019531-0.16797-0.042968-0.25-0.074218-0.054688-0.019532-0.10938-0.03125-0.16406-0.054688-0.085937-0.039062-0.17188-0.085938-0.25391-0.13672-0.042969-0.023437-0.089844-0.042969-0.12891-0.070312-0.042969-0.027344-0.089844-0.078125-0.13281-0.11328l-0.003906-0.003907c-0.48438-0.39844-0.77734-0.98438-0.80078-1.6094-0.027344-0.625 0.21484-1.2344 0.66406-1.668l5.3242-5.043c0.10938-0.10156 0.22266-0.19141 0.34766-0.26953 0.042969-0.027344 0.089844-0.042969 0.13281-0.066407 0.082031-0.046875 0.16406-0.085937 0.25-0.12109 0.054687-0.019532 0.10938-0.03125 0.16406-0.046876v-0.003906c0.078125-0.023437 0.16016-0.046875 0.23828-0.0625 0.058594-0.011718 0.12109-0.011718 0.17969-0.015625 0.0625-0.007812 0.13672-0.019531 0.20703-0.019531h0.03125c0.082031 0.003906 0.16406 0.011719 0.24609 0.023438 0.058594 0.007812 0.12109 0.007812 0.17969 0.023437 0.085938 0.019531 0.16797 0.042969 0.25 0.074219 0.054688 0.019531 0.10938 0.03125 0.16406 0.054687v-0.003906c0.085937 0.042969 0.17188 0.089844 0.25391 0.14062 0.042969 0.027344 0.089844 0.042969 0.12891 0.070312 0.125 0.085938 0.24219 0.18359 0.34766 0.29297 0.40234 0.42188 0.62109 0.98438 0.60547 1.5664-0.011718 0.58203-0.25781 1.1328-0.68359 1.5352l-1.0664 1.0078zm4.5898 3.7305c-0.10547 0.10156-0.22266 0.19141-0.34766 0.26953-0.039063 0.027343-0.085938 0.042969-0.12891 0.0625h0.003907c-0.082032 0.046875-0.16797 0.089843-0.25391 0.125-0.054687 0.019531-0.10938 0.03125-0.16016 0.046875h-0.003906c-0.078125 0.027344-0.16016 0.046875-0.24219 0.066406-0.058593 0.011719-0.11719 0.011719-0.17578 0.015625-0.078125 0.007813-0.15625 0.015625-0.23828 0.015625-0.082031-0.003906-0.16406-0.011719-0.24219-0.023438-0.0625-0.007812-0.12109-0.007812-0.18359-0.023437-0.085938-0.019531-0.16797-0.042969-0.25-0.074219-0.054688-0.019531-0.10938-0.03125-0.16406-0.054687-0.085937-0.039063-0.17188-0.085938-0.25391-0.13672-0.042969-0.023438-0.089844-0.042969-0.12891-0.070312l-0.003906-0.003907c-0.24609-0.16797-0.45703-0.38672-0.61719-0.64062-0.54297-0.84375-0.42969-1.9492 0.27344-2.6641 0.027344-0.027344 0.046875-0.058594 0.074219-0.085938l2.6641-2.5156 2.1328-2.0156 0.53125-0.5 0.007812-0.007812c0.10156-0.097656 0.21484-0.1875 0.33594-0.26172 0.042969-0.027344 0.09375-0.046875 0.13672-0.070313 0.082031-0.042968 0.16406-0.085937 0.24609-0.12109 0.054688-0.019531 0.10938-0.03125 0.16797-0.046875 0.078125-0.027344 0.15625-0.046875 0.23828-0.0625 0.058594-0.011719 0.11719-0.011719 0.17969-0.015625 0.058594-0.003907 0.14062-0.019531 0.21094-0.019531h0.027343-0.003906c0.082031 0 0.16016 0.011718 0.24219 0.023437 0.0625 0.007813 0.12109 0.007813 0.18359 0.023437v-0.003906c0.082032 0.023438 0.16406 0.046875 0.24609 0.078125 0.054688 0.019531 0.11328 0.03125 0.16797 0.054688v-0.003907c0.085937 0.042969 0.17188 0.089844 0.25391 0.14063 0.042969 0.023437 0.089844 0.042968 0.13281 0.074218v-0.003906c0.12109 0.085938 0.23437 0.17969 0.33594 0.28906l0.007813 0.007813v-0.003906c0.40234 0.42188 0.62109 0.98438 0.60937 1.5664-0.015624 0.58203-0.26172 1.1367-0.6875 1.5352l-0.53125 0.5-1.0664 1.0078-3.1953 3.0234zm4.5898 3.7305h0.003906c-0.10938 0.10156-0.22266 0.19141-0.34766 0.26562-0.039063 0.023438-0.085938 0.042969-0.12891 0.0625v0.003907c-0.082031 0.046874-0.16797 0.089843-0.25391 0.125-0.050781 0.019531-0.10547 0.027343-0.15625 0.046874-0.082031 0.023438-0.16406 0.046876-0.24609 0.0625-0.058593 0.011719-0.11719 0.011719-0.17578 0.015626v0.003906c-0.078125 0.007812-0.16016 0.015625-0.23828 0.015625-0.082031-0.003907-0.16406-0.011719-0.24219-0.023438-0.0625-0.007812-0.12109-0.007812-0.18359-0.023437-0.085938-0.019532-0.16797-0.042969-0.24609-0.074219-0.054688-0.019531-0.11328-0.03125-0.16797-0.054687-0.089844-0.039063-0.17188-0.085938-0.25391-0.13672-0.042969-0.027344-0.089844-0.042969-0.13281-0.074219-0.12109-0.082031-0.23438-0.17969-0.33594-0.28516l-0.007813-0.007813c-0.40625-0.41797-0.625-0.98438-0.60938-1.5664 0.011719-0.58203 0.25781-1.1328 0.68359-1.5312l3.1953-3.0234 0.16406-0.15625 0.89844-0.85156 1.0664-1.0156 0.007812-0.007812c0.10547-0.097657 0.21875-0.18359 0.33984-0.26172 0.042969-0.027344 0.089844-0.042969 0.13281-0.066407h-0.003906c0.082032-0.042968 0.16797-0.085937 0.25391-0.12109 0.054688-0.019531 0.10938-0.03125 0.16016-0.046875 0.078125-0.023438 0.16016-0.046875 0.24219-0.0625 0.058594-0.011719 0.11719-0.011719 0.17969-0.015625 0.058594-0.003907 0.14062-0.019531 0.21094-0.019531h0.027344-0.003906c0.082031 0.003906 0.16406 0.011718 0.24609 0.023437 0.0625 0.007813 0.12109 0.007813 0.18359 0.023437l-0.003906-0.003906c0.085938 0.023438 0.16797 0.046875 0.25 0.078125 0.054688 0.019531 0.10938 0.03125 0.16406 0.054688v-0.003907c0.089844 0.042969 0.17578 0.089844 0.25781 0.14063 0.042969 0.023437 0.085937 0.042968 0.12891 0.070312 0.25 0.17188 0.46094 0.39062 0.62109 0.64453 0.55469 0.88281 0.40625 2.0352-0.35156 2.75l-1.0664 1.0078-0.28906 0.27344-0.77734 0.73438zm8.3164 0.19922-1.0586 1.0078-1.0664 1.0078c-0.10547 0.10156-0.22266 0.19141-0.34766 0.26953-0.039063 0.027344-0.085938 0.042969-0.12891 0.0625h0.003907c-0.082032 0.046875-0.16797 0.089844-0.25781 0.125-0.050781 0.019531-0.10547 0.027344-0.15625 0.046875-0.082031 0.027344-0.16406 0.046875-0.24609 0.066406-0.058593 0.011719-0.11719 0.011719-0.17578 0.015626-0.16016 0.023437-0.32422 0.023437-0.48438-0.007813-0.0625-0.007813-0.12109-0.007813-0.18359-0.023437-0.082031-0.019532-0.16406-0.042969-0.24609-0.074219-0.054688-0.019531-0.11328-0.03125-0.16797-0.054688l0.003906 0.003907c-0.089844-0.042969-0.17188-0.085938-0.25391-0.13672-0.042969-0.027344-0.089844-0.042969-0.13281-0.074219-0.12109-0.082031-0.23438-0.17969-0.33594-0.28516l-0.007813-0.007813c-0.72656-0.75-0.81641-1.9102-0.21875-2.7617 0.085938-0.12109 0.18359-0.23437 0.29297-0.33594l3.1992-3.0234 0.53125-0.5-0.003906-0.003907c0.10547-0.097656 0.22266-0.1875 0.34766-0.26562 0.039062-0.027344 0.085937-0.039062 0.12891-0.0625v-0.003906c0.082031-0.046875 0.16797-0.089844 0.25391-0.125 0.054688-0.019531 0.10938-0.03125 0.16016-0.046875 0.082032-0.023437 0.16016-0.046875 0.24219-0.0625 0.058594-0.011719 0.11719-0.011719 0.17969-0.015625 0.058593-0.003906 0.14062-0.019531 0.21094-0.019531h0.027344-0.003907c0.082032 0.003906 0.16406 0.011719 0.24609 0.023437 0.0625 0.007813 0.12109 0.007813 0.17969 0.023438h0.003906c0.082031 0.019531 0.16406 0.042968 0.24609 0.074218 0.054687 0.019532 0.11328 0.03125 0.16406 0.054688v-0.003906c0.089844 0.042968 0.17578 0.085937 0.25781 0.14062 0.042969 0.023437 0.089843 0.042969 0.13281 0.070312h-0.003906c0.125 0.085938 0.24219 0.18359 0.34766 0.29297 0.40234 0.42188 0.62109 0.98438 0.60547 1.5664-0.011719 0.58203-0.25781 1.1328-0.68359 1.5352zm5.1445 0.94922h0.003906c-0.11719 0.26953-0.28906 0.51172-0.5 0.71484-0.10938 0.10156-0.22266 0.19141-0.34766 0.26953-0.039063 0.027343-0.085937 0.042969-0.12891 0.066406v-0.003906c-0.082031 0.046875-0.16797 0.089843-0.25391 0.125-0.054687 0.019531-0.10547 0.03125-0.16016 0.046875-0.082031 0.027344-0.16406 0.046875-0.24609 0.066406-0.058593 0.011719-0.11719 0.011719-0.17578 0.015625-0.16016 0.023437-0.32031 0.023437-0.48047-0.007813-0.0625-0.007812-0.12109-0.007812-0.18359-0.023437-0.085938-0.019531-0.16797-0.042969-0.24609-0.074219-0.054687-0.019531-0.11328-0.03125-0.16797-0.054687-0.089844-0.039063-0.17578-0.085938-0.25781-0.13672-0.042969-0.023438-0.085938-0.042969-0.12891-0.070312-0.125-0.085938-0.23828-0.18359-0.34375-0.29297l-0.50781-0.52734 1.6016-1.5117v-0.003906c0.57422-0.54688 0.95312-1.2695 1.0742-2.0547l1.0273 1.0703h0.003906c0.60938 0.63672 0.77344 1.5781 0.42188 2.3867zm15.449-9.8594c-0.0625 0.28125-0.17578 0.54688-0.34375 0.78125-0.16797 0.24219-0.38672 0.44922-0.63672 0.60547-0.042969 0.027343-0.089844 0.042968-0.13281 0.066406-0.078124 0.046875-0.16406 0.085937-0.25 0.125-0.054687 0.019531-0.10937 0.03125-0.16406 0.046875l0.003906-0.003907c-0.082031 0.027344-0.16016 0.050782-0.24219 0.066407-0.058594 0.011719-0.11719 0.011719-0.17578 0.015625-0.078126 0.011718-0.16016 0.015625-0.23828 0.015625-0.082031-0.003907-0.16406-0.011719-0.24609-0.023438-0.0625-0.007812-0.12109-0.007812-0.18359-0.019531-0.082031-0.023438-0.16406-0.046875-0.24609-0.078125-0.054687-0.019531-0.10938-0.03125-0.16406-0.054687v0.003906c-0.089843-0.042969-0.17969-0.089844-0.26172-0.14453-0.039063-0.023437-0.085938-0.042968-0.125-0.070312v0.003906c-0.125-0.085937-0.24219-0.18359-0.34375-0.29297l-8.625-9c-0.085938-0.10547-0.20703-0.17188-0.33594-0.19141-0.0625-0.019531-0.125-0.03125-0.1875-0.035156h-0.011718c-0.054688 0.003906-0.11328 0.015625-0.16797 0.03125-0.12891 0.011719-0.24609 0.070313-0.33203 0.16797h-0.003907c-0.14453 0.13281-0.22656 0.31641-0.23047 0.51172-0.003906 0.19531 0.070313 0.38281 0.20313 0.52344l8.1172 8.4688v-0.003906c0.72266 0.75391 0.8125 1.9102 0.21484 2.7656-0.16797 0.24219-0.38672 0.44922-0.63672 0.60547-0.042969 0.027343-0.089844 0.042968-0.13281 0.066406-0.078126 0.046875-0.16406 0.085937-0.25 0.125-0.054688 0.019531-0.10938 0.03125-0.16406 0.046875-0.078125 0.023437-0.16016 0.046875-0.23828 0.0625-0.058594 0.011719-0.12109 0.011719-0.17969 0.015625-0.16016 0.027344-0.32422 0.023437-0.48047-0.007813-0.058594-0.007812-0.12109-0.007812-0.17969-0.023437l-0.003906 0.003906c-0.082032-0.023438-0.16797-0.046875-0.24609-0.078125-0.054688-0.019531-0.10938-0.03125-0.16406-0.050781-0.089844-0.042969-0.17969-0.089844-0.26172-0.14062-0.042969-0.019531-0.085938-0.039063-0.125-0.066407-0.125-0.085937-0.24219-0.18359-0.34766-0.29297l-8.1172-8.4688c-0.066406-0.070313-0.14844-0.125-0.23828-0.16406-0.09375-0.019531-0.18359-0.039062-0.27734-0.058593h-0.011719c-0.058593 0.003906-0.11328 0.015624-0.17188 0.035156-0.03125 0.003906-0.0625 0.007812-0.089844 0.015625-0.23047 0.085937-0.39844 0.28125-0.45312 0.51953-0.054688 0.23438 0.011718 0.48438 0.17969 0.66406l7.6094 7.9375c0.72266 0.75 0.8125 1.9062 0.21484 2.7617-0.16797 0.24219-0.38672 0.44922-0.63672 0.60547-0.042969 0.027344-0.089844 0.042969-0.13281 0.066406-0.082031 0.046875-0.16406 0.085938-0.25 0.125-0.054687 0.019532-0.10937 0.03125-0.16406 0.046875-0.078125 0.023438-0.16016 0.046875-0.24219 0.0625-0.058593 0.011719-0.11719 0.011719-0.17969 0.015625h0.003906c-0.16016 0.027344-0.32422 0.023438-0.48047-0.007812-0.058593-0.007813-0.12109-0.007813-0.17969-0.023438l-0.003906 0.003906c-0.082031-0.019531-0.16797-0.046874-0.25-0.074218-0.054688-0.019532-0.10938-0.03125-0.16406-0.054688-0.089844-0.039062-0.17578-0.089844-0.26172-0.14062-0.039063-0.023437-0.085938-0.042969-0.125-0.070312h0.003906c-0.125-0.085938-0.24219-0.18359-0.34766-0.29297l-2.2812-2.3828-2.2852-2.3789c-0.91797-0.97656-2.3008-1.3633-3.5938-1 0.0625-1.0117-0.30078-2-1-2.7305-0.69531-0.72266-1.6562-1.1328-2.6602-1.1328-0.31641 0.003906-0.62891 0.046875-0.92969 0.13281 0.058593-1.0078-0.30078-2-1-2.7305-0.69922-0.72266-1.6602-1.1328-2.6641-1.1328-0.31641 0.003907-0.625 0.050781-0.92969 0.13281 0-0.039063 0.015624-0.078125 0.015624-0.11719 0.023438-0.97266-0.33984-1.9141-1.0156-2.6133-1.4023-1.4609-3.7266-1.5156-5.1992-0.125l-5.3242 5.043c-0.035156 0.035156-0.0625 0.074218-0.10156 0.10938-0.015626-0.027344-0.027344-0.054688-0.046876-0.078125h0.003907c-0.25781-0.43359-0.55469-0.83594-0.89453-1.2109-0.25-0.27344-0.51953-0.52734-0.8125-0.75781-0.15234-0.12109-0.3125-0.23438-0.48047-0.34375h0.003906c-0.51562-0.32031-1.0625-0.58984-1.6328-0.80078-0.42187-0.16406-0.87109-0.32031-1.332-0.46484-0.38281-0.11719-0.76953-0.23047-1.1523-0.33594l4.2344-16.82 5.5625 0.10156h0.26563l0.10156-0.007812 0.089844-0.007813 0.12109-0.011718 0.11328-0.011719 0.14844-0.015625 0.13672-0.015625 0.17188-0.023438 0.16406-0.03125 0.19141-0.03125 0.17578-0.03125 0.21875-0.042969 0.1875-0.035156 0.24609-0.054687 0.19922-0.046875c0.085938-0.019532 0.17578-0.042969 0.26563-0.066406l0.21875-0.054688c0.10156-0.027344 0.19922-0.054688 0.30078-0.085938l0.22656-0.0625c0.10156-0.03125 0.21094-0.066406 0.31641-0.10156 0.078124-0.023438 0.15625-0.050781 0.23828-0.074219 0.11328-0.039062 0.23438-0.082031 0.35547-0.12109 0.078124-0.027344 0.15234-0.050782 0.23047-0.078126 0.14062-0.050781 0.28906-0.10937 0.4375-0.16406 0.0625-0.023438 0.12109-0.042969 0.18359-0.070312 0.21094-0.085938 0.42969-0.17188 0.64844-0.26953 3.582-1.543 3.7773-1.6289 5.2148-1.8906v-0.003906c0.22656-0.039063 0.45312-0.0625 0.68359-0.0625 0.10547 0 0.21094 0 0.32031 0.003906 0.058593 0 0.12109 0 0.17969 0.011719 0.16016 0.015625 0.32031 0.039062 0.48047 0.070312 0.023437 0 0.046875 0.007813 0.070312 0.011719 0.19141 0.039063 0.375 0.089844 0.5625 0.15234 0.058594 0.019531 0.11328 0.042969 0.17188 0.0625 0.13281 0.050781 0.26562 0.10156 0.39844 0.16016 0.070312 0.03125 0.13672 0.066407 0.20703 0.10156 0.125 0.0625 0.24609 0.12891 0.36719 0.19922 0.070312 0.039063 0.14062 0.082032 0.20703 0.12891 0.12891 0.082031 0.25391 0.17578 0.38281 0.26953 0.058594 0.046875 0.12109 0.085938 0.17969 0.13281 0.18359 0.14844 0.36719 0.30469 0.54688 0.48047l0.48438 0.51562c-2.5938 1.6289-5.0508 3.1602-5.4492 3.3672l-0.035156 0.019531c-0.9375 0.49219-3.4297 1.8008-3.4453 3.9062-0.011719 1.1875 0.72656 2.1992 2.1914 3 1.0664 0.60547 2.2695 0.92969 3.5 0.94531 2.4883 0 4.5742-1.3359 6.7812-2.7539l0.60156-0.38281c0.5-0.33984 1.0898-0.52344 1.6992-0.53516 0.85547 0.042969 1.6758 0.375 2.3164 0.94531l6.0625 6.3242 3.043 3.1758 4.5625 4.7656h0.003906c0.10547 0.10547 0.19531 0.22266 0.27344 0.35156 0.23047 0.36328 0.34766 0.78516 0.33594 1.2148-0.003906 0.13672-0.019531 0.27734-0.050781 0.41406zm4.4688-6.3672c-1.8398 0.30859-3.3633 1.6055-3.957 3.375l-13.703-14.289-0.046876-0.042969-0.03125-0.027344c-0.035156-0.03125-0.082031-0.070312-0.14453-0.12109l-0.03125-0.027343c-0.070312-0.058594-0.16016-0.12109-0.25781-0.19141l-0.074219-0.050781c-0.089844-0.058593-0.18359-0.12109-0.28906-0.18359l-0.085938-0.050782c-0.13672-0.078125-0.27734-0.15234-0.4375-0.22656-0.03125-0.015625-0.066406-0.027344-0.10156-0.042969-0.13281-0.058594-0.27344-0.11328-0.41797-0.16016-0.046875-0.015625-0.089844-0.03125-0.13672-0.046875v0.003906c-0.1875-0.058594-0.37891-0.10547-0.57422-0.13672-0.027343 0-0.058593-0.007812-0.085937-0.011719-0.17969-0.027343-0.36328-0.042968-0.54688-0.046874-0.027344 0-0.054688-0.007813-0.085938-0.007813h-0.007812c-0.03125 0-0.066407 0.007813-0.10156 0.007813-0.10547 0-0.21484 0.011718-0.32422 0.023437-0.078126 0.007813-0.15625 0.015625-0.23828 0.027344-0.11328 0.019531-0.23438 0.046875-0.35156 0.074219-0.078125 0.019531-0.15625 0.035156-0.23828 0.058593-0.13281 0.039063-0.26562 0.09375-0.39844 0.14844-0.070313 0.027343-0.13672 0.050781-0.20703 0.082031v0.003906c-0.21484 0.10156-0.42578 0.21484-0.625 0.34375-0.30859 0.19531-0.61328 0.39062-0.91016 0.58203-0.21484 0.13281-0.42578 0.26562-0.63672 0.39844l-0.15234 0.10156c-0.24219 0.14844-0.48047 0.29297-0.71875 0.42969l-0.17969 0.10156c-0.19531 0.10937-0.39063 0.21484-0.58203 0.31641-0.058594 0.03125-0.11719 0.0625-0.17578 0.089844-0.23828 0.11719-0.47656 0.23047-0.71484 0.32812-0.046875 0.019532-0.09375 0.035157-0.14062 0.054688-0.19922 0.078125-0.39844 0.14844-0.60156 0.21094-0.066406 0.019531-0.12891 0.039062-0.19922 0.058593-0.24219 0.070313-0.48828 0.125-0.73438 0.16406l-0.054688 0.007812c-0.23047 0.03125-0.46094 0.046875-0.69141 0.050782-0.035156 0-0.066406 0.007812-0.10156 0.007812-0.03125 0-0.089844-0.007812-0.13281-0.007812-0.125 0-0.25391-0.011719-0.38281-0.023438-0.089844-0.007812-0.17578-0.019531-0.26562-0.03125-0.13281-0.019531-0.26562-0.046875-0.39844-0.078125-0.085937-0.019531-0.17188-0.035156-0.25781-0.0625-0.14844-0.039063-0.30078-0.09375-0.44531-0.14844-0.074219-0.027344-0.14844-0.050782-0.22266-0.082032-0.23438-0.097656-0.46094-0.20703-0.68359-0.32812h-0.007812 0.003906c-0.4375-0.21484-0.82031-0.51953-1.1328-0.89062-0.085937-0.10938-0.15234-0.22656-0.20703-0.35156-0.042969-0.11328-0.074219-0.22656-0.085937-0.34766-0.003906-0.054688-0.003906-0.11328 0-0.16797 0.027344-0.28906 0.13281-0.56641 0.30859-0.80078 0.28125-0.36719 0.61719-0.69141 1-0.95313 0.054687-0.039062 0.10937-0.078124 0.16406-0.11328 0.21875-0.14844 0.43359-0.28125 0.63281-0.39453 0.10156-0.054688 0.19141-0.10938 0.27344-0.15234 0.12891-0.070312 0.23828-0.125 0.32031-0.17188 0.48828-0.25781 3.3281-2.0312 5.8008-3.582l1.2656-0.80078c1.4531-0.91797 2.5547-1.6133 2.5547-1.6133l0.035156-0.03125 0.03125-0.015626c0.042969-0.023437 0.10156-0.050781 0.17188-0.085937l0.015624-0.007813c0.066407-0.03125 0.14844-0.070312 0.24219-0.10937l0.070312-0.03125c0.10547-0.046876 0.21875-0.089844 0.34766-0.13672l0.046875-0.015625c0.11719-0.042969 0.24219-0.082032 0.375-0.12109l0.10547-0.03125c0.15234-0.042969 0.30859-0.082031 0.47656-0.11719l0.078125-0.015624c0.14844-0.03125 0.30078-0.054688 0.46094-0.074219l0.125-0.015625c0.18359-0.019532 0.36719-0.03125 0.55859-0.03125 0.074219 0 0.15234 0 0.23047 0.003906 0.0625 0 0.12109 0 0.18359 0.007812 0.085937 0.007813 0.17188 0.019532 0.25781 0.027344 0.058594 0.007813 0.11719 0.011719 0.17578 0.019532 0.10156 0.015624 0.19141 0.039062 0.28516 0.058593 0.050781 0.011719 0.10156 0.019531 0.15234 0.03125 0.14062 0.035157 0.28516 0.082031 0.42578 0.13281h0.015625l0.066406 0.027344c0.12891 0.050781 0.26562 0.10156 0.41016 0.15625l0.23438 0.09375 0.30078 0.12109 0.35547 0.15234 0.25 0.10156 0.58594 0.24219 0.28516 0.11719 0.39844 0.16406 0.3125 0.125 0.39844 0.16016 0.32031 0.12891 0.40625 0.15625 0.34375 0.125 0.41016 0.15234 0.33984 0.12109c0.13672 0.050781 0.27344 0.10156 0.41016 0.14453l0.34375 0.11719c0.13672 0.046875 0.27344 0.089844 0.41016 0.13281 0.11328 0.035156 0.22656 0.070313 0.33984 0.10547 0.13672 0.039063 0.27344 0.078125 0.40625 0.11719 0.10938 0.03125 0.21875 0.0625 0.32812 0.089844 0.13672 0.035156 0.26953 0.066406 0.40625 0.10156 0.10156 0.023437 0.20703 0.050781 0.30859 0.074219 0.13672 0.03125 0.26953 0.054687 0.39844 0.078124 0.09375 0.019532 0.19141 0.039063 0.28516 0.054688 0.14062 0.023438 0.27344 0.039062 0.41016 0.054688 0.082031 0.011718 0.16406 0.023437 0.24219 0.03125 0.16016 0.015624 0.3125 0.019531 0.46094 0.023437 0.050782 0 0.10156 0.007813 0.14844 0.007813h0.015625c0.18359 0 0.37109-0.011719 0.55469-0.03125 0.36328-0.042969 0.74609-0.09375 1.1406-0.14063l0.60156-0.074218c0.60156-0.078125 1.2188-0.15625 1.8086-0.23828l1.3008-0.17578 4.3789 17.363zm10.633-1.3555c-0.097656 0.62891-0.5625 1.1328-1.1758 1.2852l-2.3594 0.58594-0.71094 0.17578v0.003906c-0.1875 0.042968-0.38281 0.054687-0.57422 0.03125-0.019532 0-0.042969 0-0.0625-0.003906v-0.003907c-0.09375-0.011719-0.1875-0.039062-0.27734-0.070312-0.023438-0.007813-0.042969-0.019531-0.066406-0.027344-0.0625-0.027344-0.12891-0.054687-0.1875-0.089844-0.027344-0.015625-0.058594-0.035156-0.085938-0.054687-0.050781-0.035156-0.10156-0.070313-0.14844-0.10938-0.027344-0.023438-0.054688-0.046875-0.078125-0.074219-0.042969-0.039062-0.085938-0.085938-0.12109-0.12891-0.023438-0.027344-0.046875-0.054688-0.066406-0.085938h-0.003906c-0.035157-0.054687-0.070313-0.10938-0.097657-0.16797l-0.046875-0.082032c-0.039062-0.085937-0.074218-0.17578-0.097656-0.26562v-0.011719l-4.3906-17.406-0.22656-0.89844v-0.003906c-0.023437-0.10156-0.039062-0.20703-0.042968-0.3125 0-0.20312 0.03125-0.40625 0.09375-0.60156 0.17969-0.49219 0.58984-0.86328 1.0977-0.98828l3.0703-0.76562c0.11719-0.027344 0.23438-0.042969 0.35547-0.042969 0.074219 0 0.14453 0.003907 0.21875 0.011719 0.019531 0 0.042969 0 0.0625 0.003906 0.09375 0.015625 0.1875 0.039063 0.27734 0.074219 0.023437 0.007813 0.042969 0.019531 0.066406 0.027344 0.066407 0.027343 0.12891 0.054687 0.1875 0.089843 0.03125 0.015626 0.058594 0.035157 0.085938 0.054688h0.003906c0.050781 0.035156 0.097656 0.070312 0.14453 0.10938 0.027344 0.023437 0.054688 0.046875 0.082032 0.074219v-0.003906c0.042968 0.042968 0.082031 0.085937 0.12109 0.13281 0.023438 0.027344 0.046875 0.054688 0.066407 0.085938 0.035156 0.050781 0.070312 0.10547 0.10156 0.16406 0.015625 0.027344 0.03125 0.054688 0.046875 0.082031h-0.003906c0.042969 0.089844 0.078125 0.18359 0.10156 0.28125l4.6094 18.301v-0.003906c0.027344 0.10547 0.042969 0.21094 0.046875 0.31641 0.007813 0.10547 0 0.21094-0.015625 0.3125zm-46.055-35.301c0.046875 0.12109 0.10547 0.25391 0.16406 0.37891l0.066407 0.14453c0.046874 0.089843 0.085937 0.16406 0.125 0.23828v0.003906c0.64062 1.1719 1.4727 2.2344 2.4609 3.1328l6.0078 5.6484 1.0117 0.94922 1.0117-0.94922 6.0078-5.6484h-0.003907c0.99609-0.91016 1.832-1.9766 2.4766-3.1641 0.023437-0.042968 0.0625-0.11719 0.10156-0.19531l0.078125-0.16406c0.058594-0.12109 0.11328-0.25391 0.16797-0.38672l-0.003906 0.003907c0.3125-0.73438 0.46875-1.5273 0.45703-2.3242v-0.10156c0.03125-3.5781-2.8359-6.5078-6.4102-6.5547-1.4102 0-2.7773 0.46875-3.8828 1.3398-1.1094-0.87109-2.4766-1.3398-3.8828-1.3398-3.582 0.042969-6.4492 2.9805-6.4141 6.5586v0.10547c-0.011719 0.80078 0.14844 1.5938 0.46094 2.3281zm5.9492-7.5352 0.003906 0.003906c0.94922 0 1.8789 0.28125 2.6719 0.8125 0.30859 0.20312 0.58984 0.44531 0.84766 0.71094 0.12891 0.13672 0.25 0.27734 0.36328 0.42578 0.10938-0.14844 0.23047-0.28906 0.35938-0.42578 0.25781-0.26562 0.54297-0.50781 0.85156-0.71094 0.78906-0.53125 1.7188-0.8125 2.6719-0.8125 1.332 0.019531 2.6016 0.57031 3.5273 1.5234 0.92578 0.95703 1.4336 2.2422 1.4141 3.5742 0 0.035156 0 0.070312-0.003906 0.10156 0.011719 0.21484 0 0.42969-0.035157 0.64453-0.058593 0.39453-0.16797 0.78125-0.32031 1.1484-0.039062 0.10156-0.085938 0.19922-0.13281 0.30078-0.019532 0.042969-0.039063 0.082031-0.058594 0.125-0.027344 0.058594-0.058594 0.11719-0.089844 0.17578-0.5625 1.0391-1.3008 1.9766-2.1758 2.7695l-1.7422 1.6406-2.0391 1.918-0.42969 0.40625-0.74609 0.69922-1.0547 0.99219-1.0547-0.99219-0.74609-0.69922-0.42969-0.40625-2.0273-1.9102-1.7422-1.6406h-0.007812c-0.87891-0.79297-1.6172-1.7305-2.1797-2.7695-0.03125-0.058594-0.0625-0.11719-0.089844-0.17578-0.019531-0.042968-0.039062-0.082031-0.058594-0.125-0.046874-0.10156-0.09375-0.19922-0.13281-0.30078v0.003907c-0.15234-0.37109-0.25781-0.75781-0.32031-1.1523-0.035157-0.21484-0.042969-0.42969-0.03125-0.64453 0-0.035156-0.003907-0.070312-0.003907-0.10156h-0.003906c-0.019531-1.332 0.48828-2.6211 1.4141-3.5781 0.92969-0.95703 2.1992-1.5078 3.5352-1.5273z" fill-rule="evenodd"/>
</svg>
