<?xml version="1.0" encoding="UTF-8"?>
<svg width="512pt" height="512pt" version="1.1" viewBox="0 0 512 512" xmlns="http://www.w3.org/2000/svg">
 <path d="m119.53 339.85c5.6875 9.2383 12.277 17.871 19.648 25.734l-27.992 27.992c-2 2-2 5.2383 0 7.2383 28.828 28.836 73.707 33.293 107.57 10.992 10.508 2.5078 21.281 3.9453 32.117 4.2891v39.586c0 2.8281 2.293 5.1211 5.1211 5.1211 40.785 0 75.68-28.594 83.848-68.328 9.2383-5.6875 17.871-12.277 25.734-19.648l27.992 27.992c2 2 5.2383 2 7.2383 0 28.828-28.828 33.293-73.707 10.992-107.57 2.5078-10.512 3.9453-21.285 4.2891-32.121h39.586c2.8281 0 5.1211-2.293 5.1211-5.1211 0-40.785-28.594-75.68-68.328-83.848-5.6875-9.2383-12.277-17.871-19.648-25.734l27.992-27.992c2-2 2-5.2383 0-7.2383-28.832-28.832-73.711-33.289-107.57-10.996-10.516-2.5039-21.289-3.9414-32.121-4.2852v-39.586c0-2.8281-2.293-5.1211-5.1211-5.1211-40.785 0-75.68 28.594-83.848 68.328-9.2383 5.6875-17.871 12.277-25.734 19.648l-27.992-27.992c-2-2-5.2383-2-7.2383 0-28.828 28.828-33.293 73.707-10.992 107.57-2.5078 10.512-3.9453 21.285-4.2891 32.121h-39.586c-2.8281 0-5.1211 2.293-5.1211 5.1211 0 40.785 28.598 75.68 68.332 83.848zm-18.586-78.727c2.8281 0 5.1211-2.293 5.1211-5.1211 0-12.484 1.5508-24.926 4.6055-36.969 0.36328-1.4414 0.085937-2.9688-0.76562-4.1914-19.949-28.586-17.633-66.758 5.0234-92.672l27.812 27.812c1.9219 1.9219 5.3203 1.9219 7.2383 0 8.7656-8.7656 18.656-16.453 29.391-22.852 1.2773-0.76172 2.1602-2.0391 2.4219-3.5039 6.0977-34.34 34.73-59.703 69.086-62.012v39.332c0 2.8281 2.293 5.1211 5.1211 5.1211 12.484 0 24.922 1.5469 36.973 4.6016 1.4414 0.36328 2.9688 0.085937 4.1875-0.76172 28.578-19.953 66.754-17.633 92.672 5.0234l-27.812 27.812c-0.96094 0.96094-1.5 2.2617-1.5 3.6211s0.53906 2.6602 1.5 3.6211c8.7656 8.7656 16.453 18.656 22.852 29.391 0.76172 1.2773 2.0391 2.1602 3.5039 2.4219 34.34 6.0938 59.703 34.727 62.012 69.082h-39.332c-2.8281 0-5.1211 2.293-5.1211 5.1211 0 12.484-1.5508 24.926-4.6055 36.969-0.36328 1.4414-0.085937 2.9688 0.76562 4.1914 19.949 28.586 17.633 66.758-5.0234 92.672l-27.812-27.812c-1.9219-1.9219-5.3203-1.9219-7.2383 0-8.7656 8.7656-18.656 16.453-29.391 22.852-1.2773 0.76172-2.1602 2.0391-2.4219 3.5039-6.0977 34.34-34.73 59.703-69.086 62.012v-39.332c0-2.8281-2.293-5.1211-5.1211-5.1211-12.484 0-24.926-1.5508-36.969-4.6055-0.41797-0.10547-0.83984-0.15625-1.2617-0.15625-1.0391 0-2.0625 0.31641-2.9297 0.92188-28.594 19.945-66.762 17.629-92.672-5.0234l27.812-27.812c0.96094-0.96094 1.5-2.2617 1.5-3.6211s-0.53906-2.6602-1.5-3.6211c-8.7656-8.7656-16.453-18.656-22.852-29.391-0.76172-1.2773-2.0391-2.1602-3.5039-2.4219-34.34-6.0938-59.703-34.727-62.012-69.082z"/>
 <path d="m166.25 269.94h46.594l-12.211 97.543c-0.26172 2.1016 0.79688 4.1484 2.6641 5.1484 0.76172 0.40625 1.5898 0.60547 2.418 0.60547 1.2031 0 2.3945-0.42188 3.3477-1.2461l140.03-120.93c1.6172-1.3984 2.1992-3.6562 1.4492-5.6602-0.74609-2.0039-2.6562-3.3359-4.7969-3.3359h-46.594l12.211-97.543c0.26172-2.1016-0.79688-4.1484-2.6641-5.1484-1.8711-1-4.1641-0.75-5.7656 0.64062l-140.03 120.93c-1.6172 1.3984-2.1992 3.6562-1.4492 5.6602 0.74609 2.0078 2.6562 3.3359 4.7969 3.3359zm133.29-113.47-11.273 90.078c-0.18359 1.457 0.26953 2.9219 1.2422 4.0234 0.96875 1.1016 2.3711 1.7344 3.8359 1.7344h38.629l-119.53 103.23 11.273-90.078c0.18359-1.457-0.26953-2.9219-1.2422-4.0234-0.96875-1.1016-2.3711-1.7344-3.8359-1.7344l-38.633 0.003907z"/>
</svg>
