<?xml version="1.0" encoding="UTF-8"?>
<svg width="512pt" height="512pt" version="1.1" viewBox="0 0 512 512" xmlns="http://www.w3.org/2000/svg">
 <path d="m349.71 321.89c-29.477 0-53.457 23.977-53.457 53.441 0 29.469 23.98 53.445 53.457 53.445 29.477 0 53.453-23.977 53.453-53.445 0.003906-29.465-23.977-53.441-53.453-53.441zm0 96.645c-23.828 0-43.219-19.379-43.219-43.203 0-23.82 19.387-43.199 43.219-43.199 23.828 0 43.215 19.379 43.215 43.199 0 23.824-19.383 43.203-43.215 43.203z"/>
 <path d="m160.82 321.89c-29.477 0-53.453 23.977-53.453 53.441 0 29.469 23.98 53.445 53.453 53.445 29.477 0 53.457-23.977 53.457-53.445 0-29.465-23.98-53.441-53.457-53.441zm0 96.645c-23.828 0-43.215-19.379-43.215-43.203 0-23.82 19.387-43.199 43.215-43.199s43.219 19.379 43.219 43.199c-0.003906 23.824-19.391 43.203-43.219 43.203z"/>
 <path d="m455.68 327.99h-2.1172v-271.67c0-2.8281-2.293-5.1211-5.1211-5.1211h-263.66c-2.8281 0-5.1211 2.2891-5.1211 5.1211v70.648h-19.141v-17.094c0-9.7461-7.9297-17.676-17.676-17.676h-20.312c-9.7461 0-17.676 7.9297-17.676 17.676v17.328c-8.7461 1.1211-16.371 6.9922-19.512 15.387l-14.836 39.77c-10.406 27.805-11.215 84.898-11.215 101.73v43.895h-2.9688c-2.8281 0-5.1211 2.2891-5.1211 5.1211v57.586c0 2.8281 2.293 5.1211 5.1211 5.1211h21.652c9.2148 37.219 42.809 64.93 82.844 64.93s73.633-27.711 82.848-64.93h23.207c9.2148 37.219 42.812 64.93 82.848 64.93s73.629-27.711 82.844-64.93h23.117c2.8281 0 5.1211-2.2891 5.1211-5.1211v-57.586c0-2.8281-2.293-5.1211-5.1211-5.1211zm-12.355-266.55v266.55h-22.559c-15.336-22.926-41.449-38.066-71.047-38.066s-55.715 15.137-71.051 38.066h-46.797c-10.039-15.008-24.73-26.59-41.965-32.859l-0.007812-233.69zm-320.8 41h20.312c4.1016 0 7.4375 3.3359 7.4375 7.4336v17.094h-35.188v-17.094c0-4.1016 3.3359-7.4336 7.4375-7.4336zm-27.594 43.734c2.0078-5.3633 7.2031-8.9648 12.926-8.9648h71.801v87.141h-107.18c1.6797-15.391 4.1484-29.148 7.6133-38.406zm-25.406 137.92c0-15.504 0.59375-33.039 1.9766-49.504h108.16v57.5c-6.0742-1.375-12.363-2.1641-18.844-2.1641-29.598 0-55.715 15.137-71.047 38.066h-20.238zm-8.0859 101.48v-47.344h22.547c-5.4531 11.238-8.6016 23.797-8.6016 37.105 0 3.4727 0.26953 6.875 0.67578 10.238zm99.375 64.93c-41.461 0-75.191-33.719-75.191-75.172 0-41.449 33.73-75.172 75.191-75.172 41.461 0 75.191 33.719 75.191 75.172s-33.73 75.172-75.191 75.172zm84.758-64.93c0.40625-3.3633 0.67578-6.7695 0.67578-10.238 0-13.309-3.1484-25.863-8.6016-37.105h35.238c-5.4531 11.238-8.6016 23.797-8.6016 37.105 0 3.4727 0.26953 6.875 0.67578 10.238zm104.14 64.93c-41.461 0-75.191-33.719-75.191-75.172 0-41.449 33.73-75.172 75.191-75.172 41.461 0 75.191 33.719 75.191 75.172s-33.73 75.172-75.191 75.172zm100.84-64.93h-16.09c0.40625-3.3633 0.67578-6.7695 0.67578-10.238 0-13.309-3.1484-25.863-8.6016-37.105h24.016z"/>
 <path d="m92.426 287.57c2.8281 0 5.1211-2.2891 5.1211-5.1211v-20.25c0-2.8281-2.293-5.1211-5.1211-5.1211s-5.1211 2.2891-5.1211 5.1211v20.25c0 2.832 2.293 5.1211 5.1211 5.1211z"/>
 <path d="m311.47 238.98v18.922c0 2.8281 2.293 5.1211 5.1211 5.1211s5.1211-2.2891 5.1211-5.1211v-18.922c44.051-2.6445 79.082-39.324 79.082-84.031 0-2.5508-1.8789-4.7148-4.4062-5.0703-17.254-2.4258-32.145-0.875-44.617 4.418-0.67969-13.719-5.6211-40.562-32.023-61.023-1.8438-1.4297-4.4219-1.4297-6.2734 0-26.398 20.461-31.34 47.309-32.02 61.023-12.473-5.293-27.367-6.8477-44.617-4.4219-2.5273 0.35547-4.4062 2.5195-4.4062 5.0703-0.007813 44.699 35.004 81.371 79.039 84.035zm78.945-79.504c-2.2383 36.984-31.797 66.719-68.703 69.246v-6.3984c0.023437-0.20312 0.039062-0.41406 0.039062-0.625 0-0.10938-0.003906-0.39062-0.011718-0.83594 0.20703-5.1719 2.2109-32.844 21.109-49.219 11.602-10.074 27.598-14.164 47.566-12.168zm-73.809-55.547c24.258 20.863 25.285 47.805 25.008 55.781-1.9219 1.3047-3.7773 2.707-5.5469 4.2422-10.004 8.6992-15.938 19.754-19.461 29.863-3.5234-10.109-9.4609-21.164-19.461-29.863-1.7656-1.5352-3.6211-2.9375-5.543-4.2422-0.27734-7.9844 0.75391-34.918 25.004-55.781zm-26.23 67.711c18.895 16.375 20.898 44.051 21.109 49.219-0.011719 0.44531-0.011719 0.72656-0.011719 0.83594v7.0234c-36.891-2.5469-66.426-32.27-68.668-69.246 19.957-1.9766 35.957 2.1016 47.57 12.168z"/>
</svg>
