<?xml version="1.0" encoding="UTF-8"?>
<svg width="512pt" height="512pt" version="1.1" viewBox="0 0 512 512" xmlns="http://www.w3.org/2000/svg">
 <path d="m55.555 249.32c46.855 7.0859 209.82 43.145 339.53 209.51 1.0117 1.293 2.5195 1.9727 4.0391 1.9727 1.1016 0 2.2109-0.35156 3.1445-1.082 2.2305-1.7383 2.6289-4.9531 0.89062-7.1836-11.027-14.145-22.309-27.281-33.723-39.637 27.992-16.832 56.754-29.863 87.793-39.684 2.6953-0.85547 4.1914-3.7305 3.3359-6.4258-0.85938-2.6992-3.7305-4.1875-6.4258-3.3359-32.512 10.289-62.59 23.996-91.871 41.801-13.637-14.258-27.453-27.293-41.312-39.242 53.852-32.691 103.52-50.16 136.08-59.074 2.7266-0.74609 4.332-3.5625 3.5859-6.2891-0.74609-2.7266-3.5664-4.3359-6.2891-3.5859-33.773 9.2461-85.602 27.5-141.57 61.941-15.871-13.184-31.738-24.895-47.402-35.391 85.051-53.676 161.68-69.844 191.09-74.293 2.7969-0.42187 4.7188-3.0312 4.2969-5.8281-0.42188-2.7969-3.0625-4.7305-5.8281-4.2969-30.523 4.6172-110.73 21.477-199.01 78.215-88.199-56.605-168.05-73.559-198.82-78.215-2.7617-0.42578-5.4023 1.5-5.8281 4.2969-0.42187 2.7969 1.5 5.4062 4.2969 5.8281z"/>
 <path d="m54.969 306.93c65.559 17.945 162.49 58.934 251.95 152.29 1.0078 1.0508 2.3477 1.5781 3.6953 1.5781 1.2734 0 2.5508-0.47266 3.543-1.4219 2.043-1.957 2.1094-5.1992 0.15625-7.2383-91.078-95.051-189.83-136.8-256.64-155.09-2.7266-0.75391-5.5469 0.85937-6.2891 3.5859-0.74609 2.7266 0.85547 5.543 3.5859 6.2891z"/>
 <path d="m54.863 369.92c50.949 15.129 101.65 46.055 146.61 89.441 0.98828 0.96094 2.2734 1.4375 3.5508 1.4375 1.3398 0 2.6797-0.52344 3.6836-1.5664 1.9609-2.0352 1.9062-5.2734-0.12891-7.2383-46.137-44.523-98.281-76.297-150.8-91.887-2.7227-0.81641-5.5625 0.73828-6.3633 3.4492-0.80469 2.707 0.73828 5.5586 3.4492 6.3633z"/>
 <path d="m300.34 156.41c0-24.449-19.887-44.336-44.336-44.336s-44.336 19.887-44.336 44.336c0 24.445 19.887 44.332 44.336 44.332s44.336-19.887 44.336-44.332zm-44.336 34.094c-18.801 0-34.094-15.297-34.094-34.094 0-18.801 15.297-34.094 34.094-34.094 18.801 0 34.094 15.297 34.094 34.094s-15.293 34.094-34.094 34.094z"/>
 <path d="m256 89.938c2.8281 0 5.1211-2.293 5.1211-5.1211v-28.496c0-2.8281-2.293-5.1211-5.1211-5.1211s-5.1211 2.293-5.1211 5.1211v28.496c0 2.8281 2.293 5.1211 5.1211 5.1211z"/>
 <path d="m215.77 96.969c0.94922 1.6406 2.6719 2.5586 4.4414 2.5586 0.86719 0 1.75-0.21875 2.5547-0.68359 2.4492-1.4141 3.2891-4.5469 1.875-6.9961l-14.25-24.68c-1.418-2.4492-4.5547-3.2969-6.9961-1.875-2.4492 1.4141-3.2891 4.5469-1.875 6.9961z"/>
 <path d="m166.76 110.8 24.68 14.25c0.80469 0.46484 1.6875 0.68359 2.5547 0.68359 1.7695 0 3.4883-0.91797 4.4414-2.5586 1.4141-2.4492 0.57422-5.5781-1.875-6.9961l-24.68-14.25c-2.4531-1.4219-5.5781-0.57813-6.9961 1.875-1.4141 2.4492-0.57812 5.582 1.875 6.9961z"/>
 <path d="m155.91 161.53h28.496c2.8281 0 5.1211-2.293 5.1211-5.1211s-2.293-5.1211-5.1211-5.1211h-28.496c-2.8281 0-5.1211 2.293-5.1211 5.1211s2.293 5.1211 5.1211 5.1211z"/>
 <path d="m191.44 187.77-24.68 14.25c-2.4492 1.4141-3.2891 4.5469-1.875 6.9961 0.94922 1.6406 2.6719 2.5586 4.4414 2.5586 0.86719 0 1.75-0.21875 2.5547-0.68359l24.676-14.25c2.4492-1.4141 3.2891-4.5469 1.875-6.9961-1.4141-2.4492-4.5469-3.2891-6.9922-1.875z"/>
 <path d="m203.39 247.52c0.80469 0.46484 1.6875 0.68359 2.5547 0.68359 1.7695 0 3.4883-0.91797 4.4414-2.5586l14.25-24.68c1.4141-2.4492 0.57422-5.5781-1.875-6.9961-2.4492-1.4219-5.582-0.57422-6.9961 1.875l-14.25 24.68c-1.4102 2.4492-0.57422 5.582 1.875 6.9961z"/>
 <path d="m250.88 228v28.496c0 2.8281 2.293 5.1211 5.1211 5.1211s5.1211-2.293 5.1211-5.1211v-28.496c0-2.8281-2.293-5.1211-5.1211-5.1211s-5.1211 2.293-5.1211 5.1211z"/>
 <path d="m301.61 245.65c0.94922 1.6406 2.6719 2.5586 4.4414 2.5586 0.86719 0 1.75-0.21875 2.5547-0.68359 2.4492-1.4141 3.2891-4.5469 1.875-6.9961l-14.25-24.68c-1.4141-2.4492-4.5508-3.2969-6.9961-1.875-2.4492 1.4141-3.2891 4.5469-1.875 6.9961z"/>
 <path d="m315.44 196.64 24.68 14.25c0.80469 0.46484 1.6875 0.68359 2.5547 0.68359 1.7695 0 3.4883-0.91797 4.4414-2.5586 1.4141-2.4492 0.57422-5.5781-1.875-6.9961l-24.68-14.25c-2.4531-1.4141-5.5859-0.57422-6.9961 1.875-1.4141 2.4492-0.57812 5.582 1.875 6.9961z"/>
 <path d="m322.47 156.41c0 2.8281 2.293 5.1211 5.1211 5.1211h28.496c2.8281 0 5.1211-2.293 5.1211-5.1211s-2.293-5.1211-5.1211-5.1211h-28.496c-2.8281 0-5.1211 2.293-5.1211 5.1211z"/>
 <path d="m318 125.73c0.86719 0 1.75-0.21875 2.5547-0.68359l24.68-14.25c2.4492-1.4141 3.2891-4.5469 1.875-6.9961-1.418-2.4531-4.5547-3.2969-6.9961-1.875l-24.68 14.25c-2.4492 1.4141-3.2891 4.5469-1.875 6.9961 0.95312 1.6406 2.6719 2.5586 4.4414 2.5586z"/>
 <path d="m289.23 98.844c0.80469 0.46484 1.6875 0.68359 2.5547 0.68359 1.7695 0 3.4883-0.91797 4.4414-2.5586l14.25-24.68c1.4141-2.4492 0.57422-5.5781-1.875-6.9961-2.4531-1.4219-5.5781-0.57422-6.9961 1.875l-14.25 24.684c-1.4102 2.4453-0.57422 5.5781 1.875 6.9922z"/>
</svg>
