<?xml version="1.0" encoding="UTF-8"?>
<svg width="512pt" height="512pt" version="1.1" viewBox="0 0 512 512" xmlns="http://www.w3.org/2000/svg">
 <path d="m285.74 288.36c-20.719-2.9414-38.5-0.94141-53.277 5.7188-0.83984-13.801-6.7188-40.84-37.281-64.68-1.8398-1.4414-4.4414-1.4414-6.3008 0-30.559 23.82-36.441 50.879-37.281 64.68-14.781-6.6602-32.582-8.6406-53.277-5.7188-2.5195 0.35938-4.3984 2.5195-4.3984 5.0781 0 52.699 41.281 95.898 93 98.559v14.461c0 2.8203 2.2812 5.1211 5.1211 5.1211s5.1211-2.3008 5.1211-5.1211v-14.48c51.723-2.6992 92.957-45.879 92.957-98.559 0.039062-2.5391-1.8398-4.6992-4.3789-5.0586zm-98.801 84.082v9.3203c-44.602-2.5781-80.398-38.82-82.664-83.801 24.059-2.5586 43.32 2.2617 57.32 14.398 24.941 21.602 25.32 59.699 25.32 60.098zm5.1211-30.102c-4-12.559-11.082-26.762-23.68-37.699-2.1211-1.8398-4.3398-3.5195-6.6406-5.0781-0.26172-7.7617 1.1211-35.039 30.281-59.562 29.34 24.621 30.621 51.68 30.32 59.539-2.3008 1.5586-4.5195 3.2383-6.6406 5.0781-12.578 10.98-19.66 25.16-23.641 37.719zm5.1211 39.398v-9.3008c0-0.37891 0.35938-38.5 25.281-60.098 14-12.141 33.301-16.961 57.32-14.398-2.2383 44.98-38.02 81.199-82.602 83.801z"/>
 <path d="m457.84 184.02c-14.5-75.562-81.039-132.82-160.76-132.82-81.102 0-150.34 60.043-161.96 139.98-49.379 21.898-83.922 71.363-83.922 128.78 0 77.66 63.18 140.84 140.84 140.84 57.398 0 106.88-34.539 128.78-83.922 79.918-11.621 139.98-80.902 139.98-161.96 0-10.422-1.0195-20.578-2.8789-30.461-0.019531-0.16016-0.058594-0.30078-0.078125-0.44141zm-10.859-1.9414c-12.219 5.5781-41.121 12.66-66.402-27.441-7.5-11.898-18.238-12.68-27.719-13.359-10.84-0.78125-19.398-1.3789-25.48-16.879-10.34-26.379 17.379-49.141 23-53.422 48.441 18 85.383 59.801 96.598 111.1zm-197.64-112.98c5.5195 4.4219 23.699 20.121 26.281 37.059 1 6.6211-0.51953 12.539-4.6602 18.102-21.301 28.68-26.52 37.961-28.238 64.316-15.738-6.1016-32.82-9.4805-50.68-9.4805-16.039 0-31.461 2.7383-45.84 7.6992 10.34-55.84 50.879-100.48 103.14-117.7zm-57.297 381.46c-72.02 0-130.6-58.578-130.6-130.6 0-72.02 58.578-130.6 130.6-130.6 72.02 0 130.6 58.578 130.6 130.6 0 72.02-58.578 130.6-130.6 130.6zm133.14-84.762c4.9609-14.379 7.6992-29.801 7.6992-45.84 0-29.238-8.9609-56.402-24.262-78.941 1.7617-5.1992 4.1992-9.8984 7.3203-13.941 18.281-23.68 47.398-18.602 48.961-18.34 1.9219 0.23828 46.922 6.6211 73.719 65.32-19.641 46.68-61.723 82.18-113.44 91.738zm118.28-104.98c-29.66-55.797-75.281-61.977-76.98-62.184-1.4805-0.28125-36.461-6.582-58.66 22.18-2.4805 3.2188-4.5781 6.7812-6.3594 10.602-13.121-16.199-29.762-29.441-48.738-38.539 1.3398-26.82 5.0781-33.719 26.441-62.5 5.7617-7.7617 7.9805-16.441 6.5586-25.758-2.5-16.461-15.898-31-24.559-38.879 11.559-2.8008 23.602-4.3008 35.918-4.3008 14.461 0 28.441 2.0586 41.719 5.8008-11.359 10.102-31.84 33.121-20.941 60.902 8.4414 21.52 22.762 22.539 34.281 23.359 9.3398 0.66016 15.281 1.4414 19.801 8.6016 16.922 26.859 37.238 36.621 55.762 36.621 7.4805 0 14.66-1.6016 21.199-4.3008 1.0781 7.3594 1.6602 14.859 1.6602 22.5 0 15.922-2.5 31.34-7.1016 45.898z"/>
</svg>
