<?xml version="1.0" encoding="UTF-8"?>
<svg width="512pt" height="512pt" version="1.1" viewBox="0 0 512 512" xmlns="http://www.w3.org/2000/svg">
 <path d="m427.26 222.34c-16.758 0-30.641 12.406-33.113 28.543h-27.309c-1.2227-26.742-11.941-51.051-28.875-69.605l19.336-19.336c5.7305 4.2227 12.605 6.5508 19.848 6.5625h0.074218c8.9492 0 17.359-3.4766 23.676-9.7969 6.3398-6.3359 9.8203-14.773 9.8008-23.754-0.015625-8.9688-3.5312-17.414-9.8867-23.766-13.125-13.129-34.445-13.16-47.52-0.085938-6.3359 6.3359-9.8164 14.773-9.7969 23.754 0.015625 7.2383 2.3398 14.113 6.5625 19.848l-19.336 19.336c-18.555-16.934-42.859-27.652-69.602-28.875v-27.309c16.133-2.4688 28.543-16.355 28.543-33.113 0-18.492-15.102-33.539-33.664-33.539s-33.664 15.047-33.664 33.539c0 16.758 12.406 30.641 28.543 33.113v27.309c-26.742 1.2227-51.051 11.941-69.605 28.875l-19.336-19.336c4.2227-5.7305 6.5508-12.605 6.5625-19.848 0.019531-8.9805-3.4609-17.414-9.7969-23.754-6.3203-6.3242-14.727-9.8008-23.684-9.8008h-0.074219c-8.9688 0.015625-17.414 3.5312-23.766 9.8867-13.125 13.125-13.164 34.441-0.085938 47.52 6.3203 6.3203 14.727 9.7969 23.676 9.7969h0.074219c7.2383-0.015625 14.113-2.3398 19.848-6.5625l19.336 19.336c-16.926 18.559-27.645 42.863-28.867 69.605h-27.309c-2.4688-16.133-16.355-28.543-33.113-28.543-18.492 0-33.539 15.102-33.539 33.664s15.047 33.664 33.539 33.664c16.758 0 30.641-12.406 33.113-28.543h27.309c1.2227 26.742 11.941 51.051 28.875 69.605l-19.336 19.336c-5.7305-4.2227-12.605-6.5508-19.848-6.5625-8.8359 0.10156-17.414 3.4609-23.754 9.7969s-9.8203 14.773-9.8008 23.754c0.015625 8.9688 3.5312 17.414 9.8867 23.766 6.5781 6.5781 15.211 9.8711 23.836 9.8711 8.5859 0 17.16-3.2617 23.684-9.7852 6.3359-6.3359 9.8164-14.773 9.7969-23.754-0.015625-7.2383-2.3398-14.113-6.5625-19.848l19.336-19.336c18.559 16.934 42.863 27.652 69.605 28.875v27.309c-16.133 2.4688-28.543 16.355-28.543 33.113 0 18.492 15.102 33.539 33.664 33.539s33.664-15.047 33.664-33.539c0-16.758-12.406-30.641-28.543-33.113v-27.309c26.742-1.2227 51.051-11.941 69.605-28.875l19.336 19.336c-4.2227 5.7305-6.5508 12.605-6.5625 19.848-0.019531 8.9805 3.4609 17.414 9.7969 23.754 6.3203 6.3242 14.727 9.8008 23.684 9.8008h0.074219c8.9688-0.015625 17.414-3.5312 23.766-9.8867 13.125-13.125 13.164-34.441 0.085938-47.52-6.3203-6.3203-14.727-9.7969-23.676-9.7969h-0.074219c-7.2383 0.015625-14.113 2.3398-19.848 6.5625l-19.336-19.336c16.926-18.559 27.645-42.863 28.867-69.605h27.309c2.4688 16.133 16.355 28.543 33.113 28.543 18.492 0 33.539-15.102 33.539-33.664s-15.047-33.664-33.539-33.664zm-342.52 57.086c-12.848 0-23.297-10.508-23.297-23.422s10.453-23.422 23.301-23.422c12.852 0 23.301 10.508 23.301 23.422s-10.453 23.422-23.305 23.422zm275.8-161.08c4.5273-4.5273 10.48-6.7891 16.441-6.7891 6.0039 0 12.016 2.2969 16.598 6.875 4.4258 4.4258 6.8711 10.301 6.8867 16.547 0.011718 6.2383-2.4023 12.094-6.8008 16.492-4.3867 4.3867-10.223 6.7969-16.438 6.7969h-0.050781c-6.2461-0.011719-12.121-2.457-16.547-6.8867-4.4258-4.4258-6.8711-10.301-6.8867-16.547-0.015625-6.2344 2.3984-12.09 6.7969-16.488zm-127.96-33.602c0-12.848 10.508-23.297 23.422-23.297s23.422 10.453 23.422 23.301c0 12.852-10.508 23.301-23.422 23.301s-23.422-10.453-23.422-23.305zm-97.75 73.523h-0.050781c-6.2148 0-12.051-2.4141-16.438-6.7969-9.0859-9.0859-9.0469-23.906 0.085937-33.039 4.4258-4.4258 10.301-6.8711 16.547-6.8867h0.050782c6.2188 0 12.055 2.4141 16.441 6.8008 4.3984 4.3984 6.8125 10.254 6.7969 16.488-0.011719 6.2461-2.457 12.121-6.8867 16.547-4.4258 4.4297-10.301 6.875-16.547 6.8867zm16.637 235.4c-9.0859 9.082-23.906 9.0391-33.039-0.085937-4.4258-4.4258-6.8711-10.301-6.8867-16.547-0.011718-6.2383 2.4023-12.094 6.8008-16.492 4.3867-4.3867 10.223-6.7969 16.438-6.7969h0.050781c6.2461 0.011719 12.121 2.457 16.547 6.8867 4.4258 4.4258 6.8711 10.301 6.8867 16.547 0.015625 6.2344-2.3984 12.09-6.7969 16.488zm127.96 33.602c0 12.848-10.508 23.297-23.422 23.297s-23.422-10.453-23.422-23.301c0-12.852 10.508-23.301 23.422-23.301s23.422 10.453 23.422 23.305zm97.75-73.523h0.050781c6.2148 0 12.051 2.4141 16.438 6.7969 9.0859 9.0859 9.0469 23.906-0.085937 33.039-4.4258 4.4258-10.301 6.8711-16.547 6.8867h-0.050782c-6.2188 0-12.055-2.4141-16.441-6.8008-4.3984-4.3984-6.8125-10.254-6.7969-16.488 0.011719-6.2461 2.457-12.121 6.8867-16.547 4.4258-4.4297 10.301-6.875 16.547-6.8867zm-121.17 2.9922c-55.543 0-100.73-45.188-100.73-100.73s45.188-100.73 100.73-100.73 100.73 45.188 100.73 100.73-45.188 100.73-100.73 100.73zm171.26-77.309c-12.852 0-23.301-10.508-23.301-23.422s10.453-23.422 23.301-23.422c12.848 0 23.297 10.508 23.297 23.422s-10.449 23.422-23.297 23.422z"/>
 <path d="m178.62 91.188c2 2 5.2383 2 7.2383 0s2-5.2383 0-7.2383c-27.988-27.988-73.613-27.898-101.71 0.19922-28.098 28.098-28.188 73.727-0.19922 101.71 1 1 2.3086 1.5 3.6211 1.5 1.3086 0 2.6211-0.5 3.6211-1.5 2-2 2-5.2383 0-7.2383-23.992-23.996-23.906-63.125 0.19922-87.23 24.102-24.105 63.23-24.199 87.23-0.20312z"/>
 <path d="m91.188 326.14c-2-2-5.2383-2-7.2383 0-27.988 27.984-27.898 73.613 0.19922 101.71 14.086 14.086 32.574 21.133 51.039 21.133 18.367-0.003906 36.715-6.9766 50.672-20.934 2-2 2-5.2383 0-7.2383s-5.2383-2-7.2383 0c-24 23.996-63.129 23.898-87.23-0.19922-24.105-24.105-24.191-63.234-0.19922-87.23 1.9961-2 1.9961-5.2422-0.003906-7.2422z"/>
 <path d="m333.38 420.81c-2-2-5.2383-2-7.2383 0s-2 5.2383 0 7.2383c13.957 13.957 32.301 20.934 50.672 20.934 18.465 0 36.953-7.0469 51.039-21.133 28.098-28.098 28.188-73.727 0.19922-101.71-2-2-5.2383-2-7.2383 0s-2 5.2383 0 7.2383c23.992 23.996 23.906 63.125-0.19922 87.23-24.113 24.098-63.242 24.199-87.234 0.20312z"/>
 <path d="m420.81 185.86c1 1 2.3086 1.5 3.6211 1.5 1.3086 0 2.6211-0.5 3.6211-1.5 27.988-27.984 27.898-73.613-0.19922-101.71-28.09-28.094-73.719-28.184-101.71-0.19922-2 2-2 5.2383 0 7.2383s5.2383 2 7.2383 0c23.996-24 63.125-23.906 87.23 0.19922s24.191 63.234 0.19922 87.23c-2 2-2 5.2422 0 7.2422z"/>
 <path d="m308.73 244.8h-25.086l6.9922-65.566c0.23438-2.1641-0.92969-4.2383-2.8984-5.1719-1.9688-0.9375-4.3086-0.51562-5.8359 1.0312l-82.27 83.391c-1.4492 1.4688-1.875 3.6641-1.0781 5.5703s2.6562 3.1445 4.7227 3.1445h25.086l-6.9922 65.566c-0.23438 2.1641 0.92969 4.2383 2.8984 5.1719 0.69922 0.33203 1.4492 0.49219 2.1914 0.49219 1.3438 0 2.6641-0.52734 3.6484-1.5234l82.27-83.387c1.4492-1.4688 1.875-3.6641 1.0781-5.5703-0.79688-1.9102-2.6602-3.1484-4.7266-3.1484zm-75.625 74.48 6.043-56.66c0.15625-1.4414-0.3125-2.8867-1.2812-3.9648-0.97266-1.0781-2.3555-1.6953-3.8086-1.6953h-18.539l63.383-64.242-6.043 56.66c-0.15625 1.4414 0.3125 2.8867 1.2812 3.9648s2.3555 1.6992 3.8086 1.6992h18.539z"/>
</svg>
