<?xml version="1.0" encoding="UTF-8"?>
<svg width="512pt" height="512pt" version="1.1" viewBox="0 0 512 512" xmlns="http://www.w3.org/2000/svg">
 <path d="m145.48 155.38v188.94h-9.9805c-2.832 0-5.1211 2.2891-5.1211 5.1211 0 2.832 2.2891 5.1211 5.1211 5.1211h239.92c2.832 0 5.1211-2.2891 5.1211-5.1211 0-2.832-2.2891-5.1211-5.1211-5.1211h-13.629l0.003906-188.94c0-2.832-2.2891-5.1211-5.1211-5.1211h-88.949c-2.832 0-5.1211 2.2891-5.1211 5.1211v188.94h-17.934v-188.94c0-2.832-2.2891-5.1211-5.1211-5.1211h-88.949c-2.832 0-5.1211 2.2891-5.1211 5.1211zm127.37 5.1172h78.711l-0.003906 183.82h-78.707zm-38.418 0v183.82h-78.707v-183.82z"/>
 <path d="m173.92 336.49c2.832 0 5.1211-2.2891 5.1211-5.1211l-0.003906-150.16c0-2.832-2.2891-5.1211-5.1211-5.1211-2.832 0-5.1211 2.2891-5.1211 5.1211l0.003906 150.16c0 2.8242 2.2891 5.1211 5.1211 5.1211z"/>
 <path d="m195.08 336.49c2.832 0 5.1211-2.2891 5.1211-5.1211l-0.003907-150.16c0-2.832-2.2891-5.1211-5.1211-5.1211s-5.1211 2.2891-5.1211 5.1211l0.003906 150.16c0 2.8242 2.2891 5.1211 5.1211 5.1211z"/>
 <path d="m216.24 336.49c2.832 0 5.1211-2.2891 5.1211-5.1211v-150.16c0-2.832-2.2891-5.1211-5.1211-5.1211s-5.1211 2.2891-5.1211 5.1211v150.16c0 2.8242 2.293 5.1211 5.1211 5.1211z"/>
 <path d="m291.04 176.09c-2.832 0-5.1211 2.2891-5.1211 5.1211v150.16c0 2.832 2.2891 5.1211 5.1211 5.1211s5.1211-2.2891 5.1211-5.1211l-0.003906-150.16c0-2.832-2.293-5.1211-5.1172-5.1211z"/>
 <path d="m312.2 176.09c-2.832 0-5.1211 2.2891-5.1211 5.1211v150.16c0 2.832 2.2891 5.1211 5.1211 5.1211s5.1211-2.2891 5.1211-5.1211l-0.003907-150.16c0-2.832-2.293-5.1211-5.1172-5.1211z"/>
 <path d="m333.36 176.09c-2.832 0-5.1211 2.2891-5.1211 5.1211v150.16c0 2.832 2.2891 5.1211 5.1211 5.1211s5.1211-2.2891 5.1211-5.1211l-0.003907-150.16c0-2.832-2.2891-5.1211-5.1172-5.1211z"/>
 <path d="m460.82 256c0-94.199-63.816-175.71-155.19-198.23-2.7344-0.70312-5.5195 1-6.1953 3.7422-0.67969 2.7461 1 5.5195 3.7422 6.1953 86.785 21.391 147.39 98.816 147.39 188.29 0 87.977-58.625 164.27-143.09 187.12l4.0391-6.8867c1.4297-2.4414 0.61328-5.5742-1.8242-7.0039-2.4531-1.4453-5.5859-0.61328-7.0039 1.8242l-10.004 17.07c-1.4297 2.4414-0.61328 5.5742 1.8242 7.0039l17.07 10.004c0.8125 0.48047 1.7031 0.70703 2.5859 0.70703 1.7617 0 3.4727-0.90625 4.418-2.5273 1.4297-2.4414 0.61328-5.5742-1.8242-7.0039l-5.9375-3.4805c88.578-24.277 150-104.43 150-196.83z"/>
 <path d="m207.85 454.28c0.41016 0.10156 0.82031 0.14453 1.2227 0.14453 2.3008 0 4.3945-1.5664 4.9727-3.9023 0.67188-2.7461-1.0078-5.5195-3.7539-6.1953-86.902-21.316-147.59-98.754-147.59-188.32 0-87.879 58.449-164.05 142.73-187.03l-3.125 6.4922c-1.2227 2.5508-0.15234 5.6055 2.3945 6.8359 0.71875 0.34375 1.4688 0.50781 2.2188 0.50781 1.9062 0 3.7344-1.0703 4.6172-2.8984l8.582-17.828c1.2227-2.5508 0.15234-5.6055-2.3945-6.8359l-17.828-8.582c-2.5391-1.2188-5.6016-0.14453-6.8359 2.3945-1.2227 2.5508-0.15234 5.6055 2.3945 6.8359l6.875 3.3086c-88.52 24.32-149.88 104.42-149.88 196.8 0 94.301 63.902 175.83 155.39 198.28z"/>
</svg>
