<?xml version="1.0" encoding="UTF-8"?>
<svg width="512pt" height="512pt" version="1.1" viewBox="0 0 512 512" xmlns="http://www.w3.org/2000/svg">
 <path d="m457.22 159.42-88.82-28.102 7.5-74.48c0.14062-1.4414-0.32031-2.8789-1.3008-3.9414-0.96094-1.0781-2.3203-1.6992-3.7812-1.6992h-278.74c-2.6406 0-4.8398 2-5.1016 4.6016l-11.059 109.8h-19.461c-2.8203 0-5.1211 2.3008-5.1211 5.1211s2.3008 5.1211 5.1211 5.1211h18.441l-23.66 234.86c-0.14063 1.4414 0.32031 2.8789 1.3008 3.9414 0.96094 1.0781 2.3398 1.6992 3.7812 1.6992h38.121c2.5781 24.941 23.66 44.461 49.199 44.461 25.539 0 46.621-19.52 49.18-44.461h120.48c2.5781 24.941 23.641 44.461 49.199 44.461 25.539 0 46.621-19.52 49.18-44.461h28.699c2.6406 0 4.8398-2 5.1016-4.6016l15.301-151.86c0.019532-0.17969 0.019532-0.35938 0.019532-0.51953v-95.059c0-2.2188-1.4414-4.1992-3.5781-4.8789zm-6.6602 8.6406v86.18h-94.539l11.34-112.5zm-306.92 282.5c-21.621 0-39.219-17.641-39.219-39.34 0-21.699 17.602-39.34 39.219-39.34 21.621 0 39.199 17.641 39.199 39.34 0 21.699-17.578 39.34-39.199 39.34zm218.86 0c-21.621 0-39.199-17.641-39.199-39.34 0-21.699 17.602-39.34 39.199-39.34 21.621 0 39.219 17.641 39.219 39.34-0.019531 21.699-17.602 39.34-39.219 39.34zm73.242-44.461h-24.059c-2.5586-24.941-23.641-44.461-49.18-44.461-25.539 0-46.621 19.52-49.18 44.461h-120.5c-2.5586-24.941-23.641-44.461-49.18-44.461-25.539 0-46.621 19.52-49.18 44.461h-32.48l23.199-230.24h93.797c2.8203 0 5.1211-2.3008 5.1211-5.1211 0-2.8203-2.3008-5.1211-5.1211-5.1211l-92.758-0.019532 10.5-104.16h268.44l-19.898 197.4c-0.14062 1.4414 0.32031 2.8789 1.3008 3.9414 0.96094 1.0781 2.3594 1.6797 3.8008 1.6797l99.66 0.019531z"/>
 <path d="m149.42 234.48h-40.699c-2.8203 0-5.1211 2.3008-5.1211 5.1211 0 2.8203 2.3008 5.1211 5.1211 5.1211h40.699c2.8203 0 5.1211-2.3008 5.1211-5.1211 0-2.8398-2.3008-5.1211-5.1211-5.1211z"/>
 <path d="m195.16 96.742h-68.34c-2.8203 0-5.1211 2.3008-5.1211 5.1211 0 2.8203 2.3008 5.1211 5.1211 5.1211h68.32c2.8203 0 5.1211-2.3008 5.1211-5.1211 0.019531-2.8203-2.2812-5.1211-5.1016-5.1211z"/>
</svg>
