<?xml version="1.0" encoding="UTF-8"?>
<svg width="100pt" height="100pt" version="1.1" viewBox="0 0 100 100" xmlns="http://www.w3.org/2000/svg">
 <path d="m90.484 66.223h-1.4492v-2.25c0-1.2461-1.0195-2.3359-1.6328-2.8789l-0.003906-35.418c0-5.3555-4.3555-9.7148-9.7148-9.7148h-31.676c-5.3555 0-9.7148 4.3359-9.7148 9.668v0.67188c-14.613 1.1992-25.477 8.375-25.973 8.7109-0.27734 0.1875-0.44141 0.49609-0.44141 0.82812v4.5117c-0.48828 0.55859-1.3594 1.75-1.3594 3.1133 0 1.3633 0.875 2.5547 1.3594 3.1133v36.461c0 0.55469 0.44922 1 1 1h79.602c0.55469 0 1-0.44531 1-1l0.003906-15.816c0-0.55078-0.44922-1-1-1zm-19.242 0v-19.637c0.49219-0.55469 1.3594-1.7305 1.3594-3.1211 0-1.3945-0.86719-2.5664-1.3594-3.1211v-4.5039c0-0.33984-0.17188-0.65234-0.45313-0.83984-0.50391-0.32812-11.473-7.3828-25.938-8.6719 0.11328-1.0273 0.97656-1.832 2.0312-1.832h30.199c1.1328 0 2.0547 0.92188 2.0547 2.0547v34.441c-0.69922 0.51953-1.8594 1.5859-1.8594 2.9648v2.2695zm-6.1758 1v6.207c-0.53516 0.32812-1.5664 0.875-2.8125 1.1445v-7.3516c0-0.55469-0.44922-1-1-1h-8.6445c-0.054687 0-0.10547 0.003906-0.15625 0.011719-0.11328 0.019531-2.8594 0.46875-5.0117 2.0977-0.92578 0.69922-1.9297 0.88672-2.6172 0.92578l0.003906-5.8789c0.52734-0.023437 0.95312-0.45312 0.95312-0.98828v-2.7539h23.461v6.5898h-3.1758c-0.55078-0.003906-1 0.44531-1 0.99609zm-28-5.832v-5.3516h6.7148v5.3516zm5.7617 2v10.391h-4.5352v-10.391zm1.9531-9.3516h-8.7148c-0.55078 0-1 0.44531-1 1v2.5977h-23.188v-10.449h57.363v10.449h-23.461v-2.5977c0-0.55469-0.44922-1-1-1zm25.824-10.574c0 0.63672-0.45312 1.3203-0.79297 1.7227h-58.492c-0.33984-0.41406-0.80469-1.1133-0.80469-1.7227s0.46484-1.3125 0.80469-1.7227h58.488c0.33594 0.39453 0.79688 1.082 0.79688 1.7227zm-58.727 16.172h23.188v2.7539c0 0.55469 0.44922 1 1 1h0.22656v5.8672c-0.6875-0.035156-1.6914-0.22266-2.6172-0.92578-2.1484-1.6328-4.8945-2.0781-5.0078-2.0977-0.050781-0.007813-0.10547-0.011719-0.15625-0.011719h-8.6445c-0.55078 0-1 0.44531-1 1v6.9297c-1.2383-0.10938-2.4922-0.15625-3.7578-0.015625-0.91406 0.10156-2 0.26562-3.2305 0.48047zm8.9844 8.5859h7.5586c0.40234 0.074219 2.4609 0.50391 4.043 1.7031 1.3633 1.0352 2.832 1.3008 3.8242 1.3359v2.5469c-1.6016 0.0625-3.2031 0.27734-4.7578 0.49609-1.8125 0.25391-3.6914 0.51953-5.5469 0.51953-1.582 0-3.1367-0.19922-4.6406-0.39453-0.16016-0.019532-0.32422-0.039063-0.48438-0.0625zm23.965 3.0391c0.99219-0.035157 2.4609-0.30078 3.8242-1.3359 1.5703-1.1914 3.6406-1.6289 4.0469-1.7031h7.5586v6.4805c-1.1562-0.089844-2.207-0.37891-3.3047-0.69141-1.3633-0.39453-2.7852-0.78516-4.4258-0.77344-1.6602 0.023438-2.6484 0.46875-3.5156 0.85547-0.76953 0.34375-1.4297 0.64062-2.5977 0.64062-0.51562 0-1.0469-0.042969-1.5859-0.10156zm34.445-7.3047c0-0.43359 0.61328-1.0547 1.1523-1.4336l5.6133 0.039062c0.50781 0.44531 0.99219 1.0664 0.99219 1.4062v2.25h-7.7578zm-40.98-38.328c0-4.2305 3.4609-7.668 7.7148-7.668h31.68c4.2539 0 7.7148 3.4609 7.7148 7.7148l-0.003906 34.883-4.2656-0.03125 0.003907-33.977c0-2.2344-1.8164-4.0547-4.0547-4.0547h-30.199c-2.1133 0-3.8359 1.6328-4.0195 3.6992-0.82031-0.042968-1.6484-0.066406-2.4844-0.066406-0.70312 0-1.3984 0.019532-2.0859 0.050782zm-26.414 10.762c2.3906-1.4766 14.164-8.2617 28.5-8.2617 14.348 0 26.41 6.793 28.863 8.2695v3.3477l-57.363-0.003906zm0 40.262c1.332-0.23828 2.4961-0.42188 3.4531-0.52734 1.875-0.21484 3.7617 0.027344 5.7617 0.28516 1.5664 0.19922 3.1875 0.40625 4.8945 0.40625 1.9922 0 3.9414-0.27344 5.8242-0.53516 1.8477-0.26172 3.5898-0.50391 5.3438-0.50391 1.8906 0 3.5391 0.26172 5.1328 0.51562 1.4219 0.22656 2.7617 0.4375 4.1289 0.4375 1.5938 0 2.5625-0.43359 3.4141-0.81641 0.79297-0.35547 1.4766-0.66016 2.7305-0.68359 1.3516-0.03125 2.5625 0.32812 3.8398 0.69531 1.2852 0.37109 2.6172 0.75781 4.1914 0.80469 1.7812 0.054687 3.3672-0.49609 4.4766-1.0312v6.3398h-53.191zm77.605 5.3867h-22.418v-13.816h22.414z"/>
</svg>
