<?xml version="1.0" encoding="UTF-8"?>
<svg width="512pt" height="512pt" version="1.1" viewBox="0 0 512 512" xmlns="http://www.w3.org/2000/svg">
 <path d="m63.719 350.22c1.8398 4.4609 5.3203 7.9414 9.7812 9.7812 2.2383 0.92188 4.5781 1.3789 6.9219 1.3789 2.3398 0 4.6797-0.46094 6.8789-1.3789l118.04-48.262c5.2188-2.1406 9.3594-6.3789 11.359-11.641l7.1602-18.738c2.1406 2.6992 4.6211 5.1211 7.3594 7.1992l-23.699 166.38c-0.39844 2.8008 1.5586 5.3984 4.3594 5.8008 0.30078 0.039063 0.53906 0.058594 0.78125 0.058594 2.5195 0 4.6992-1.8398 5.0586-4.3984l23.121-162.38c4.6992 1.8789 9.8008 2.9414 15.16 2.9414s10.461-1.0586 15.16-2.9414l23.121 162.38c0.35938 2.5586 2.5586 4.3984 5.0586 4.3984 0.23828 0 0.48047-0.019531 0.71875-0.039063 2.8008-0.39844 4.7383-3 4.3594-5.8008l-23.699-166.38c2.7383-2.0781 5.2188-4.5 7.3594-7.1992l7.1602 18.738c2.0195 5.2617 6.1602 9.5 11.379 11.641l118.04 48.262c2.2383 0.92188 4.5586 1.3789 6.9219 1.3789 2.3398 0 4.6797-0.46094 6.9219-1.3789 4.4609-1.8398 7.9414-5.3203 9.7812-9.7812l11.16-26.922c1.8398-4.4609 1.8398-9.3789 0-13.84-1.8398-4.4609-5.3203-7.9414-9.8008-9.8008l-117.98-48.238c-5.2617-2.1602-11.262-2.0195-16.418 0.39844l-18.52 8.6602c0.14062-1.4609 0.23828-2.9805 0.23828-4.5 0-18.621-12.52-34.359-29.559-39.32l15.059-13.781c4.2383-3.8789 6.6602-9.3789 6.6602-15.121v-118.5c0-9.9805-8.1211-18.078-18.078-18.078h-29.121c-9.9609 0-18.078 8.1016-18.078 18.078v118.68c0 5.6016 2.3398 11.02 6.3984 14.879l14.582 13.801c-17.16 4.8789-29.781 20.66-29.781 39.359 0 1.5195 0.10156 3.0391 0.26172 4.5195l-18.52-8.6602c-5.1602-2.4219-11.16-2.5586-16.418-0.39844l-118 48.238c-4.4609 1.8398-7.9414 5.3203-9.7812 9.7812s-1.8398 9.3789 0 13.84zm255.84-89.098c2.5781-1.1992 5.5781-1.2812 8.2188-0.19922l117.96 48.219c1.9414 0.80078 3.4414 2.3008 4.2383 4.2383 0.80078 1.9414 0.80078 4.0586 0 6l-11.16 26.922c-0.80078 1.9414-2.3008 3.4414-4.2383 4.2383-1.9219 0.80078-4.0781 0.80078-6 0l-118.04-48.262c-2.6016-1.0586-4.6797-3.1797-5.6797-5.8203l-9.2188-24.121zm-85.477-73.16v-118.68c0-4.3203 3.5195-7.8398 7.8398-7.8398h29.121c4.3203 0 7.8398 3.5195 7.8398 7.8398v118.52c0 2.8594-1.2188 5.6211-3.3203 7.5586l-19.48 17.82-18.801-17.801c-2.0391-1.9219-3.1992-4.6211-3.1992-7.418zm21.918 37.32c16.941 0 30.719 13.781 30.719 30.719 0 16.941-13.781 30.719-30.719 30.719-16.941 0-30.719-13.781-30.719-30.719 0-16.941 13.781-30.719 30.719-30.719zm-193.96 88.121c0.80078-1.9414 2.3008-3.4414 4.2188-4.2383l117.96-48.238c1.2383-0.5 2.5586-0.76172 3.8789-0.76172 1.4805 0 2.9609 0.32031 4.3398 0.96094l23.961 11.199-9.2383 24.121c-1 2.6406-3.0781 4.7617-5.6797 5.8203l-118.06 48.281c-1.9219 0.80078-4.0586 0.80078-6 0-1.9414-0.80078-3.4414-2.3008-4.2383-4.2383l-11.16-26.922c-0.78125-1.9219-0.78125-4.0586 0.019531-5.9805z"/>
</svg>
