<?xml version="1.0" encoding="UTF-8"?>
<svg id="Layer_1" data-name="Layer 1" xmlns="http://www.w3.org/2000/svg" viewBox="0 0 24 24">
  <defs>
    <style>
      .cls-1 {
        fill: #fff;
      }
    </style>
  </defs>
  <path class="cls-1" d="M9.03,8.34c-2.01-1.18-4.59-.48-5.77,1.53-1.18,2.01-.48,4.59,1.53,5.77,1.66.96,3.76.7,5.11-.66l5.29-5.29c1.14-.92,2.75-.92,3.89.04l-7.17,7.17c-2.75,2.71-7.17,2.71-9.88,0-2.71-2.75-2.71-7.17,0-9.88,2.36-2.45,6.21-2.75,8.96-.7l-2.01,2.01h.04Z"/>
  <path class="cls-1" d="M14.89,15.59c2.01,1.18,4.59.48,5.77-1.53,1.18-2.01.48-4.59-1.53-5.77-1.66-.96-3.76-.7-5.11.66l-5.29,5.29c-1.14.92-2.75.92-3.89-.04l7.26-7.17c2.75-2.71,7.17-2.71,9.88,0,2.71,2.75,2.71,7.17,0,9.88s-6.3,2.71-9.05.7l2.01-2.01h-.04Z"/>
</svg>