<?xml version="1.0" encoding="UTF-8"?>
<svg id="Layer_2" xmlns="http://www.w3.org/2000/svg" version="1.1" viewBox="0 0 495.2 101.5">
  <!-- Generator: Adobe Illustrator 29.5.0, SVG Export Plug-In . SVG Version: 2.1.0 Build 137)  -->
  <defs>
    <style>
      .st0 {
        fill: #7dbf61;
      }

      .st1 {
        fill: #024d73;
      }
    </style>
  </defs>
  <g id="Layer_1-2">
    <g>
      <path class="st1" d="M214.6,49.5c4.7,2.2,9.8,3.8,15.4,3.8s11.4-2.2,11.4-6.9-5.1-6.3-11.7-8.8c-8.2-3.2-17.3-7.2-17.3-18.9S221.8,0,232.9,0s13.6.9,20.2,3.5l-3.1,11c-5.1-1.9-9.8-3.2-15.8-3.2s-8.8,2.5-8.8,6c0,5.1,5.1,6.9,11.4,9.1,8.5,3.1,17.7,7.2,17.7,18.6s-10.1,19.9-23.6,19.9-15.1-2.2-19.9-5l4.1-10.1h0l-.3-.3h0Z"/>
      <path class="st1" d="M284.3,1l13.2-.6,24,63.4-13.6.6-6-17h-21.8l-5.7,16.4h-13.6L284.3,1ZM298.4,36.6l-4.1-11.4-3.5-11-3.5,11-3.8,11.4h14.8Z"/>
      <path class="st1" d="M331.2,1h21.4c13.9,0,21.1,5.7,21.1,15.8s-3.1,10.7-7.9,12.9h0c6.6,2.2,11,6.6,11,15.1s-9.1,19.2-23,19.2h-22.4V1h-.3ZM355.2,26.5c4.1-1.3,5.7-4.1,5.7-7.9s-3.8-6.6-9.1-6.6h-7.9v14.2h11.4v.3h0ZM353.6,52.4c6.6,0,10.1-3.2,10.1-7.9s-3.8-6.6-8.8-7.2h-10.7v15.1h9.5Z"/>
      <path class="st1" d="M389.9,1h39.1l-.6,11.3h-26.2v14.2h24.3v10.7h-24.3v15.1h28.1l-.6,11.4h-40V1h.3,0Z"/>
      <path class="st1" d="M443.5,1h20.8c15.8,0,24,6.6,24,18.9s-4.4,13.6-10.7,16.7l17.3,27.1-14.2.9-14.8-24h-9.8v23h-12.6V1h0ZM468.1,29.7c4.1-1.3,6.9-4.1,6.9-8.8s-4.7-8.2-12-8.2h-6.9v17.3h12v-.3h0Z"/>
      <path class="st0" d="M219.3,95.9c.9-.3,1.6-.9,1.9-1.6s.6-1.6.6-2.5,0-1.9-.6-2.5c0-.6-1.3-1.3-1.9-1.6-.9-.3-1.9-.6-3.1-.6h-5.4v14.2h1.9v-4.4h4.4l3.1,4.4h2.2l-3.5-4.7h0v-.6h.3,0ZM215.8,94.6h-3.5v-6.3h3.5c1.3,0,2.2,0,2.8.9.6.6.9,1.3.9,2.2s0,1.9-.9,2.2c-.6.6-1.6.9-2.8.9h0Z"/>
      <path class="st0" d="M231.3,94.6h6.9v-1.6h-6.9v-4.4h7.9v-1.9h-9.8v14.2h10.1v-1.9h-8.2v-4.4h0Z"/>
      <path class="st0" d="M256.8,97.2l-8.5-10.4h-1.6v14.2h1.9v-10.4l8.5,10.4h1.6v-14.2h-1.9v10.4h0Z"/>
      <path class="st0" d="M268.8,94.6h6.9v-1.6h-6.9v-4.4h7.9v-1.9h-9.8v14.2h10.1v-1.9h-8.2v-4.4h0Z"/>
      <path class="st0" d="M298.1,98.1l-3.8-11.3h-1.9l-4.1,11.3-3.8-11.3h-2.2l4.7,14.2h2.2l3.8-11.3,3.8,11.3h2.2l4.7-14.2h-1.9l-3.8,11.3h0Z"/>
      <path class="st0" d="M314.2,86.7l-6.3,14.2h2.2l1.6-3.5h7.6l1.6,3.5h2.2l-6.3-14.2h-2.5ZM312.3,95.6l3.1-6.9,3.1,6.9h-6.3,0Z"/>
      <path class="st0" d="M338.8,93.7h-.6c.6,0,1-.6,1.3-1.3,0-.6.6-1.3.6-1.9,0-1.3,0-1.9-1.3-2.5-1-.6-2.2-.9-3.8-.9h-6.3v14.2h6.6c1.9,0,3.1,0,4.1-.9s1.3-1.6,1.3-2.8,0-1.6-.6-1.9c0-.6-1-.9-1.6-1.3h0v-.6h.3,0ZM330.6,88.3h4.1c1,0,1.9,0,2.5.6.6.3,1,.9,1,1.6s0,1.3-1,1.6c-.6.3-1.3.6-2.5.6h-4.1v-4.4h0ZM337.9,98.4c-.6.3-1.6.6-2.5.6h-4.7v-4.7h4.7c1.3,0,1.9,0,2.5.6.6.3,1,.9,1,1.9s0,1.3-1,1.9h0v-.3h0Z"/>
      <path class="st0" d="M349.8,86.7h-1.9v14.2h9.5v-1.9h-7.6v-12.3h0Z"/>
      <path class="st0" d="M365.9,94.6h6.9v-1.6h-6.9v-4.4h7.9v-1.9h-9.8v14.2h10.1v-1.9h-8.2v-4.4h0Z"/>
      <path class="st0" d="M392.7,94.6h6.9v-1.6h-6.9v-4.4h7.9v-1.9h-9.8v14.2h10.1v-1.9h-8.2v-4.4h0Z"/>
      <path class="st0" d="M418.3,97.2l-8.5-10.4h-1.6v14.2h1.9v-10.4l8.5,10.4h1.6v-14.2h-1.9s0,10.4,0,10.4Z"/>
      <path class="st0" d="M430.6,94.6h6.9v-1.6h-6.9v-4.4h7.9v-1.9h-9.8v14.2h10.1v-1.9h-8.2v-4.4h0Z"/>
      <path class="st0" d="M454.5,95.9c1-.3,1.6-.9,1.9-1.6s.6-1.6.6-2.5,0-1.9-.6-2.5c-.3-.6-1.3-1.3-1.9-1.6-1-.3-1.9-.6-3.1-.6h-5.4v14.2h1.9v-4.4h4.4l3.1,4.4h2.2l-3.5-4.7h.3v-.6h0ZM451.4,94.6h-3.5v-6.3h3.5c1.3,0,2.2,0,2.8.9.6.6,1,1.3,1,2.2s-.3,1.9-1,2.2c-.6.6-1.6.9-2.8.9h0Z"/>
      <path class="st0" d="M466.8,89.9c.6-.6,1-.9,1.9-1.3.6,0,1.6-.3,2.2-.3s1.6,0,2.2.3c.6,0,1.3.6,1.9,1.3l1.3-1.3c-.6-.6-1.3-1.3-2.2-1.6s-1.9-.6-3.1-.6-2.2,0-3.1.6c-1,.3-1.6.9-2.5,1.6-.6.6-1.3,1.3-1.6,2.2s-.6,1.9-.6,2.8,0,1.9.6,2.8c.3.9,1,1.6,1.6,2.2s1.6,1.3,2.5,1.6,1.9.6,2.8.6,1.9,0,2.8-.3c1,0,1.9-.6,2.5-1.3v-5.4h-1.9v4.4c-.3,0-.6.3-1.3.6-.6,0-1.3.3-2.2.3s-1.6,0-2.2-.3c-.6,0-1.3-.6-1.9-1.3-.6-.6-1-.9-1.3-1.6,0-.6-.3-1.3-.3-2.2s0-1.6.3-2.2c0-.6.6-1.3,1.3-1.6h.3v-.3h0Z"/>
      <path class="st0" d="M493,86.7l-4.4,7.2-4.4-7.2h-2.2l5.7,9.1v5.1h1.9v-4.7l5.7-9.1h-2.2v-.3h0Z"/>
      <path class="st1" d="M65.1,24.3c-14.5-8.5-33.1-3.5-41.6,11-8.5,14.5-3.5,33.1,11,41.6,12,6.9,27.1,5.1,36.9-4.7l38.2-38.2c8.2-6.6,19.9-6.6,28.1.3l-51.7,51.7c-19.9,19.6-51.7,19.6-71.3,0C-4.9,66.3-4.9,34.4,14.7,14.9,31.7-2.8,59.4-5,79.3,9.8l-14.5,14.5h.3,0Z"/>
      <path class="st0" d="M107.4,76.7c14.5,8.5,33.1,3.5,41.6-11,8.5-14.5,3.5-33.1-11-41.6-12-6.9-27.1-5-36.9,4.7l-38.2,38.2c-8.2,6.6-19.9,6.6-28.1-.3L87.2,14.9c19.9-19.5,51.7-19.5,71.3,0,19.6,19.9,19.6,51.7,0,71.3s-45.4,19.6-65.3,5.1l14.5-14.5h-.3,0Z"/>
    </g>
  </g>
</svg>