<?xml version="1.0" encoding="UTF-8"?>
<svg id="Layer_2" data-name="Layer 2" xmlns="http://www.w3.org/2000/svg" viewBox="0 0 173.11 101.48">
  <defs>
    <style>
      .cls-1 {
        fill: #7dbf61;
      }

      .cls-2 {
        fill: #024d73;
      }
    </style>
  </defs>
  <g id="Layer_1-2" data-name="Layer 1">
    <g>
      <path class="cls-2" d="M65.11,24.31c-14.5-8.51-33.11-3.47-41.62,11.04-8.51,14.5-3.47,33.11,11.04,41.62,11.98,6.94,27.12,5.05,36.89-4.73l38.15-38.15c8.2-6.62,19.86-6.62,28.06.32l-51.71,51.71c-19.86,19.55-51.71,19.55-71.26,0-19.55-19.86-19.55-51.71,0-71.26C31.69-2.8,59.44-5.01,79.3,9.81l-14.5,14.5h.32Z"/>
      <path class="cls-1" d="M107.36,76.65c14.5,8.51,33.11,3.47,41.62-11.04,8.51-14.5,3.47-33.11-11.04-41.62-11.98-6.94-27.12-5.05-36.89,4.73l-38.15,38.15c-8.2,6.62-19.86,6.62-28.06-.32L87.18,14.85c19.86-19.55,51.71-19.55,71.26,0,19.55,19.86,19.55,51.71,0,71.26-19.55,19.55-45.41,19.55-65.27,5.05l14.5-14.5h-.32Z"/>
    </g>
  </g>
</svg>